<svg id="b" xmlns="http://www.w3.org/2000/svg" width="424.775" height="259.396" viewBox="0 0 424.775 259.396" style="color: initial !important;">
             <defs>
              <style>.d{fill:#484848;}.e{fill:#ffffff;}.f{fill:#211715;}.g{fill:#c6c6c6;}</style>
             </defs><g id="c">
              <path class="f" d="M232.444,132.417v4.642c0,1.846-.084,3.777.541,5.543,1.199,3.391,3.702,5.698,6.793,7.407,3.661,2.025,7.799,3.314,11.691,4.849,1.206.476,2.635-.522,2.952-1.676.374-1.363-.466-2.475-1.676-2.952-3.227-1.273-6.619-2.369-9.715-3.928-2.356-1.186-4.711-2.666-5.529-5.306-.452-1.457-.256-3.135-.256-4.64v-3.939c0-3.089-4.8-3.094-4.8,0h0Z"/>
              <path class="f" d="M188.022,133.46v4.2c0,1.353.045,2.737-.472,3.907-1.073,2.427-3.34,3.788-5.739,4.944-2.981,1.436-6.212,2.503-9.301,3.719-1.205.474-2.046,1.607-1.676,2.952.316,1.148,1.739,2.154,2.952,1.676,3.748-1.475,7.696-2.738,11.261-4.611,2.977-1.564,5.532-3.65,6.883-6.796,1.329-3.098.893-6.691.893-9.991,0-3.089-4.8-3.094-4.8,0h0Z"/>
              <path class="e" d="M243.314,147.609c-4.654,19.933-10.497,40.877-16.755,60.078-.317.99-6.456,17.082-10.051,26.608,0,0-2.476,6.545-4.951,13.101-2.228-6.555-4.456-13.101-4.456-13.101-2.921-8.615-7.783-22.964-7.823-23.053-.356-1.139-.743-2.307-1.149-3.555-6.238-19.181-12.081-40.114-16.725-60.038-.05-.178-.089-.347-.129-.515-.01-.02-.01-.03,0-.04-.277-1.792.555-3.951,1.624-5.209,2.099-2.426,4.753-5.951,6.892-8.348.921.733,19.508,15.398,20.924,16.398h3.268c1.416-1,20.003-15.666,20.924-16.398,2.139,2.396,4.793,5.922,6.892,8.348,1.079,1.258,1.911,3.426,1.624,5.228v.02c-.04.158-.069.317-.109.475Z"/>
              <path class="e" d="M421.22,153.53c-.119.198-.267.386-.307.624s.05.475.129.693c.822,2.426,0,5.902-2.476,7.892l-.683.069c.297.366.456.782.406,1.228.198,1.347-.168,2.862-1.396,3.773-8.744,6.427-31.183,15.784-44.472,18.765-.733.158-1.466.317-2.079.743-.723.505-1.178,1.307-1.594,2.079-.287.535-.555,1.03-.812,1.495-8.328-5.248-15.735-9.556-24.667-14.329l.02-.04c-.386-8.645-.069-17.161,4.288-24.617,4.367-7.456,8.843-11.754,13.893-18.765.287-.406,2.208-2.396,3.763-2.604,1.406-.188,2.872.406,3.674,1.594.802,1.178,1.238,2.426,1,3.852-.673,4.02-1.832,8.566-3.981,13.101l.545.267c9.15-2.377,22.191-5.971,31.866-8.239,2.278-.545,5.149-1.109,7.437-.634,2.377.485,5.773,1.822,6.238,4.258,3.466-1.089,5.466-.139,7.367.931,1.792,1.01,2.644,2.278,2.901,3.723.317,1.733-.079,2.674-1.06,4.139Z"/>
              <path class="e" d="M58.853,149.084c-2.159-4.535-3.307-9.08-3.981-13.101-.248-1.426.198-2.674,1-3.852.802-1.188,2.268-1.782,3.674-1.594,1.555.208,3.476,2.198,3.763,2.604,5.05,7.011,9.516,11.309,13.883,18.765s4.684,15.973,4.298,24.617l.129.238c-8.873,4.723-16.319,8.912-25.053,13.636-.168-.317-.347-.654-.535-1-.426-.772-.881-1.574-1.594-2.079-.614-.426-1.357-.584-2.079-.743-13.299-2.981-35.728-12.338-44.472-18.765-1.228-.911-1.594-2.426-1.396-3.773-.04-.366.059-.713.257-1.03l-.535-.267c-2.485-1.99-3.307-5.466-2.476-7.892.079-.218.158-.456.129-.693-.04-.238-.188-.426-.317-.624-.97-1.466-1.367-2.406-1.06-4.139.267-1.446,1.119-2.713,2.911-3.723,1.891-1.069,3.902-2.02,7.367-.931.465-2.436,3.862-3.773,6.238-4.258,2.287-.475,5.149.089,7.427.634,9.675,2.268,22.726,5.862,31.876,8.239l.545-.267Z"/>
              <path class="e" d="M168.373,102.543c-2.169.366-4.436-.465-5.981-1.723-3.733-3.06-5.278-7.318-6.229-10.11-1.337-3.931-1.416-10.298.574-13.744.663-1.159,2.208-3.129,5.852-3.258,1.673-.059,3.634.465,5.08,1.862,0,0-5.743-44.422,44.432-44.422s45.482,44.422,45.482,44.422c1.456-1.396,3.406-1.921,5.08-1.862,3.644.129,5.189,2.099,5.862,3.258,1.99,3.446,1.901,9.813.564,13.744-.941,2.792-2.495,7.05-6.229,10.11-1.545,1.258-3.812,2.089-5.971,1.723l-.654-.188c-1.654,5.823-4.694,12.873-10.081,19.428-4.218,5.129-8.229,8.308-13.061,10.586v.01l.921,1.862c-3.892,3.07-18.775,14.804-20.032,15.695.119.129.238.267.366.416h-4.001c.129-.149.248-.287.366-.416-1.416-1-20.003-15.666-20.924-16.398l.535-1.584c-4.109-2.377-7.872-5.783-11.467-10.17-5.367-6.526-8.407-13.546-10.081-19.359l-.406.119Z"/>
              <path class="f" d="M8.889,164.037c.005.394.337-.043.795-.056.953-.028,1.981.438,2.889.685,2.173.592,4.34,1.207,6.506,1.826,4.408,1.26,8.815,2.52,13.262,3.637,2.997.753,4.275-3.875,1.276-4.629-5.487-1.379-10.912-2.983-16.357-4.517-1.368-.386-2.738-.766-4.111-1.136-1.379-.372-2.723-.778-4.163-.6-2.495.309-4.932,2.065-4.897,4.789.039,3.086,4.839,3.095,4.8,0h0Z"/>
              <path class="f" d="M6.342,155c-.147.24-.119.038.093-.015.259-.064.592-.195.896-.234.054-.007.492.01.667-.002.297-.021-.434-.115.021.006.625.165,1.266.284,1.895.44,2.065.515,4.118,1.078,6.171,1.641,5.102,1.4,10.191,2.849,15.287,4.27,1.816.506,3.63,1.031,5.461,1.48,3,.736,4.279-3.891,1.276-4.629-9.244-2.269-18.289-5.314-27.545-7.546-2.914-.703-6.589-.726-8.367,2.164-1.623,2.638,2.527,5.052,4.145,2.423h0Z"/>
              <path class="f" d="M4.089,164.037c-.3,2.681,1.024,4.751,3.141,6.243,1.369.964,2.8,1.839,4.25,2.673,3.663,2.106,7.473,3.956,11.323,5.689,8.326,3.749,16.931,7.106,25.76,9.469,1.045.28,2.096.537,3.15.779,1.291.296,1.592.546,2.241,1.714,1.408,2.538,2.786,5.091,4.026,7.715.554,1.172,2.235,1.475,3.284.861,1.2-.702,1.417-2.108.861-3.284-1.063-2.248-2.232-4.435-3.426-6.615-.593-1.083-1.141-2.266-2.011-3.164-.971-1.001-2.18-1.506-3.516-1.816-3.896-.902-7.724-2.041-11.509-3.328-8.397-2.855-16.664-6.265-24.52-10.39-1.833-.963-3.645-1.971-5.402-3.069-.704-.44-1.426-.879-2.089-1.38-.773-.585-.879-1.071-.764-2.098.144-1.29-1.206-2.4-2.4-2.4-1.417,0-2.255,1.106-2.4,2.4h0Z"/>
              <path class="f" d="M58.941,147.033c-6.689-1.736-13.359-3.546-20.048-5.284-3.332-.866-6.668-1.717-10.014-2.524-3.465-.836-7.087-1.784-10.654-1.033-3.182.67-6.941,2.466-7.777,5.906l2.952-1.676c-2.935-.861-5.708-.639-8.428.745S.331,146.697.029,149.807c-.146,1.508.262,2.936,1.011,4.239.1.174.495,1.117.408.429-.08-.631-.15.129-.191.312-.16.713-.248,1.467-.233,2.198.06,2.823,1.326,5.62,3.489,7.448.989.836,2.424.97,3.394,0,.858-.858.994-2.553,0-3.394-1.31-1.108-2.149-2.628-2.083-4.376.034-.903.535-1.841.393-2.827-.162-1.131-1.082-1.857-1.364-2.912-.435-1.628.863-2.705,2.146-3.403,1.692-.92,3.227-1.027,5.124-.471,1.216.357,2.65-.43,2.952-1.676.108-.445.306-.729.766-1.085.511-.395,1.133-.686,1.735-.915,1.682-.641,3.365-.787,5.147-.557,3.851.497,7.691,1.715,11.447,2.674,7.845,2.003,15.656,4.138,23.494,6.172,2.992.777,4.268-3.852,1.276-4.629h0Z"/>
              <path class="f" d="M12.125,147.049c8.128,2.388,16.273,4.72,24.376,7.191,1.823.556,3.65,1.105,5.452,1.724,2.928,1.006,4.185-3.629,1.276-4.629-8.48-2.914-17.193-5.235-25.799-7.742-1.343-.391-2.687-.779-4.029-1.173-2.97-.872-4.238,3.758-1.276,4.629h0Z"/>
              <path class="f" d="M43.857,151.887c-4.449,5.118-8.644,10.457-12.575,15.982-.73,1.026-.215,2.715.861,3.284,1.236.653,2.504.234,3.284-.861,3.713-5.219,7.607-10.159,11.825-15.011.85-.978.962-2.433,0-3.394-.868-.868-2.54-.982-3.394,0h0Z"/>
              <path class="f" d="M83.887,176.523c.243-5.654.198-11.391-1.107-16.929-1.32-5.603-4.22-10.486-7.605-15.079-1.602-2.173-3.3-4.273-4.995-6.375-1.768-2.194-3.382-4.529-5.174-6.697-1.263-1.528-3.144-2.985-5.145-3.261-2.883-.399-5.47,1.235-6.677,3.822-1.412,3.025-.402,6.375.39,9.451.853,3.313,2.056,6.524,3.568,9.592.573,1.162,2.222,1.482,3.284.861,1.185-.693,1.436-2.117.861-3.284-1.139-2.31-2.038-4.71-2.744-7.186-.312-1.096-.586-2.204-.828-3.318-.206-.948-.589-2.071-.513-3.05.115-1.481,1.337-2.694,2.686-1.809,1.453.953,2.21,2.291,3.25,3.649,5.603,7.324,12.631,14.341,14.914,23.55,1.3,5.244,1.266,10.7,1.035,16.064-.133,3.089,4.667,3.082,4.8,0h0Z"/>
              <path class="f" d="M420.686,164.037c.033-2.575-2.194-4.364-4.578-4.746-1.479-.237-2.824.111-4.248.494-1.451.39-2.899.792-4.345,1.199-5.445,1.534-10.87,3.138-16.357,4.517-2.994.753-1.725,5.383,1.276,4.629,4.447-1.118,8.854-2.377,13.262-3.637,2.166-.619,4.333-1.235,6.506-1.826.899-.245,1.945-.712,2.889-.685.458.013.79.45.795.056-.039,3.09,4.761,3.091,4.8,0h0Z"/>
              <path class="f" d="M422.578,152.577c-2.858-4.646-9.618-1.878-13.666-.778-5.45,1.481-10.882,3.03-16.321,4.55-1.97.55-3.938,1.122-5.925,1.61-2.998.736-1.729,5.366,1.276,4.629,8.802-2.16,17.442-4.968,26.223-7.215.795-.204,1.593-.395,2.394-.576.123-.028.247-.051.372-.074.193-.035-.33.036-.283.035.229-.007.454-.024.683-.006.236.018.57.078.871.19.181.067.418.363.231.06,1.616,2.627,5.769.218,4.145-2.423h0Z"/>
              <path class="f" d="M415.886,164.037c.078.694.104,1.353-.39,1.831-.557.54-1.366.95-2.018,1.366-1.493.953-3.031,1.835-4.589,2.679-3.748,2.032-7.613,3.849-11.521,5.549-7.897,3.435-16.089,6.518-24.472,8.541-1.163.281-2.396.456-3.453,1.054-1.404.794-2.224,2.131-2.975,3.505-1.324,2.422-2.64,4.84-3.82,7.336-.554,1.171-.326,2.589.861,3.284,1.044.611,2.727.316,3.284-.861,1.063-2.248,2.232-4.435,3.426-6.615.423-.773.844-2.058,1.647-2.504.79-.438,1.997-.491,2.877-.71,4.132-1.03,8.192-2.348,12.2-3.78,8.569-3.063,17.073-6.62,25.046-11.023,3.747-2.069,9.266-4.547,8.696-9.65-.144-1.288-1-2.4-2.4-2.4-1.186,0-2.545,1.104-2.4,2.4h0Z"/>
              <path class="f" d="M367.109,151.661c7.837-2.034,15.648-4.169,23.494-6.172,3.756-.959,7.597-2.177,11.447-2.674,1.78-.23,3.466-.084,5.147.557.603.23,1.223.519,1.735.915.46.356.658.641.766,1.085.302,1.245,1.735,2.033,2.952,1.676,1.83-.537,3.349-.473,4.994.4,1.325.704,2.729,1.783,2.277,3.474-.252.941-1.071,1.629-1.321,2.593-.27,1.043.268,2.05.343,2.988.145,1.794-.737,3.403-2.075,4.535-.99.837-.863,2.531,0,3.394.981.981,2.401.839,3.394,0,2.162-1.828,3.429-4.625,3.489-7.448.014-.681-.066-1.382-.203-2.047-.009-.043-.169-.733-.19-.727-.145.571-.126.688.056.351.112-.169.22-.341.322-.516.752-1.299,1.158-2.734,1.011-4.239-.303-3.113-2.227-5.258-4.943-6.641s-5.494-1.606-8.428-.745l2.952,1.676c-.747-3.074-3.801-4.752-6.611-5.604-3.507-1.064-7.066-.398-10.549.428-6.792,1.61-13.538,3.407-20.284,5.197-3.682.977-7.362,1.959-11.049,2.916-2.988.775-1.721,5.406,1.276,4.629h0Z"/>
              <path class="f" d="M411.374,142.421c-8.128,2.388-16.273,4.72-24.376,7.191-1.823.556-3.65,1.105-5.452,1.724-2.904.998-1.657,5.636,1.276,4.629,8.48-2.914,17.193-5.235,25.799-7.742,1.343-.391,2.687-.779,4.029-1.173,2.957-.869,1.699-5.502-1.276-4.629h0Z"/>
              <path class="f" d="M377.523,155.281c4.218,4.852,8.112,9.792,11.825,15.011.75,1.055,2.094,1.557,3.284.861,1.043-.61,1.616-2.222.861-3.284-3.931-5.526-8.126-10.865-12.575-15.982-.851-.979-2.523-.872-3.394,0-.971.971-.853,2.413,0,3.394h0Z"/>
              <path class="f" d="M345.688,176.523c-.204-4.727-.274-9.541.627-14.206.932-4.826,2.987-8.945,5.733-12.986,2.545-3.744,5.497-7.174,8.283-10.734,1.22-1.559,2.27-3.344,3.661-4.633.95-.88,2.179-1.64,3.068-.267.652,1.006.498,1.903.285,3.017-.249,1.304-.541,2.599-.882,3.882-.736,2.769-1.708,5.457-2.975,8.027-.573,1.162-.313,2.597.861,3.284,1.059.619,2.708.306,3.284-.861,1.384-2.807,2.515-5.736,3.345-8.754.689-2.504,1.7-5.58,1.283-8.184-.448-2.793-2.467-5.367-5.336-5.881-2.564-.459-4.742.791-6.528,2.534-1.717,1.676-3.013,3.892-4.51,5.771-1.689,2.118-3.408,4.211-5.059,6.359-3.436,4.468-6.638,9.22-8.284,14.663-1.853,6.123-1.928,12.633-1.655,18.97.133,3.077,4.933,3.094,4.8,0h0Z"/>
              <path class="g" d="M278.233,256.96c0-5.237,0-10.067,0-14.602,3.609,2.971,6.227,5.159,9.615,7.262,9.624,5.973,21.782,8.575,33.177,6.783,11.951-1.879,21.208-9.673,28.442-19.161,9.908-12.996,17.054-27.056,24.591-42.436-13.097-6.676-22.051-13.696-35.404-20.683-7.93,9.298-15.891,19.627-23.555,29.444l-3.536.254c-5.232-13.059-11.558-26.089-21.945-35.865-9.353-8.802-21.828-12.831-33.775-17.247-3.878-3.398-8.162-6.489-11.288-8.488-4.843,21.524-11.175,44.536-17.996,65.469-.316.989-6.454,17.078-10.053,26.602,0,0-2.476,6.55-4.951,13.1-2.225-6.55-4.45-13.1-4.45-13.1-2.926-8.616-7.79-22.962-7.831-23.053-.357-1.132-.734-2.304-1.142-3.548-6.811-20.933-13.143-43.945-17.986-65.469-3.233,2.069-7.709,5.305-11.69,8.84-11.653,4.282-23.715,8.328-32.82,16.896-10.388,9.776-16.713,22.806-21.945,35.865l-3.536-.254c-7.664-9.817-15.625-20.145-23.555-29.444-13.353,6.987-23.089,12.9-36.185,19.575,7.537,15.38,15.464,30.547,25.372,43.543,7.233,9.488,16.491,17.282,28.442,19.161,11.395,1.792,23.554-.81,33.177-6.783,3.387-2.103,6.005-4.291,9.612-7.26.002,4.529.002,9.36.002,14.6"/>
              <path class="d" d="M261.209,31.124c-2.03-3.36-4.591-6.236-7.733-9.074l-7.179-6.382c-9.306-10.37-21.677-13.237-33.869-13.237-12.789,0-23.997,3.631-34.201,11.242-2.281,1.701-6.747,5.85-9.639,10.038-6.249,6.116-11.234,19.477-10.861,32.727.051,5.369.47,11.542,2.184,17.785.736-.284,1.619-.478,2.68-.515,1.673-.059,3.629.465,5.081,1.86l2.014,1.411c.222-2.992.315-4.659.878-8.077.935-5.677,6.826-8.295,9.33-13.363,1.442-2.92,2.3-6.332,4.767-8.41,1.858-1.564,4.337-2.095,6.728-2.347,3.704-.39,16.231.169,20.421.942,3.544.199,6.98.907,12.035,1.551,2.742.349,7.827,1.246,9.772,1.637,7.649,1.758,10.579,3.668,14.421,8.873,1.472,1.995,3.039,5.635,4.49,10.372l5.055,7.41c1.452-1.395,3.407-1.919,5.081-1.86.972.034,1.795.2,2.492.446,1.666-6.629,2.376-11.613,2.118-17.715-.495-11.707-2.424-19.289-6.065-25.315Z"/>
              <path class="f" d="M247.994,13.972c-6.364-7.015-14.927-11.381-24.217-12.994s-19.091-1.276-28.152,1.322c-8.755,2.51-17.084,7.172-23.542,13.621-1.85,1.848-3.488,3.835-5.084,5.902-1.176,1.523-2.522,2.884-3.61,4.495-2.585,3.826-4.415,8.206-5.723,12.62-1.633,5.508-2.438,11.31-2.348,17.055.096,6.129.58,12.235,2.099,18.193.763,2.991,5.394,1.724,4.629-1.276-1.256-4.924-1.78-9.949-1.894-15.022-.108-4.792.171-9.49,1.231-14.176.975-4.311,2.431-8.533,4.58-12.405.864-1.556,1.824-3.084,2.977-4.444,1.341-1.582,2.6-3.226,3.963-4.793,5.617-6.461,12.565-11.175,20.777-14.105,8.28-2.954,17.195-3.705,25.911-2.768,9.602,1.032,18.473,4.962,25.011,12.169,2.08,2.293,5.466-1.11,3.394-3.394h0Z"/>
              <path class="f" d="M267.614,74.185c1.132-4.622,1.978-9.327,2.095-14.094.111-4.535-.293-9.115-.935-13.601-.933-6.516-2.89-12.971-6.689-18.415-1.988-2.848-4.344-5.391-6.912-7.722-2.283-2.072-5.688,1.313-3.394,3.394,4.102,3.723,7.532,7.889,9.556,12.932,2.707,6.748,3.502,14.288,3.587,21.505.059,5.01-.747,9.872-1.935,14.725-.734,3,3.893,4.28,4.629,1.276h0Z"/>
              <path class="f" d="M212.448,43.412c-3.625-.65-7.358-.826-11.031-.993-3.442-.157-6.994-.391-10.427.01-2.849.333-5.609,1.021-7.868,2.879-1.971,1.62-3.094,3.939-4.071,6.239-.877,2.064-1.746,4.023-3.237,5.723-1.421,1.62-3.036,3.064-4.399,4.737-1.765,2.165-2.889,4.425-3.314,7.197-.446,2.911-.666,5.831-.896,8.764-.102,1.294,1.176,2.4,2.4,2.4,1.383,0,2.298-1.102,2.4-2.4.317-4.041.049-8.913,2.594-12.301,2.455-3.267,5.841-5.631,7.612-9.427.968-2.075,1.645-4.427,3.046-6.27,1.347-1.773,3.446-2.419,5.572-2.72,3.043-.43,6.237-.203,9.294-.086,2.125.081,4.25.197,6.371.362.969.075,1.937.16,2.902.266.162.018.325.036.487.055.079.009.758.098.467.057-.128-.018.62.099.824.136,1.274.228,2.587-.346,2.952-1.676.319-1.162-.394-2.722-1.676-2.952h0Z"/>
              <path class="f" d="M232.979,51.228c1.318.306,2.631.638,3.92,1.051.515.165,1.027.342,1.532.536.085.033.806.337.399.157.205.091.41.184.612.281,1.977.952,2.872,1.626,4.292,3.09,1.49,1.536,2.483,2.793,3.495,4.722,1.283,2.445,2.16,5.061,2.984,7.731.908,2.943,5.543,1.687,4.629-1.276-.934-3.026-1.993-6.067-3.468-8.878-1.094-2.084-2.61-4.007-4.246-5.694-3.493-3.601-8.086-5.239-12.873-6.35-1.262-.293-2.599.391-2.952,1.676-.333,1.213.408,2.658,1.676,2.952h0Z"/>
              <path class="f" d="M226.436,45.765c-.704-2.997-3.044-5.561-5.405-7.398-3.918-3.05-8.553-4.634-13.44-5.276-1.287-.169-2.4,1.224-2.4,2.4,0,1.437,1.109,2.23,2.4,2.4,1.792.236,4.193.872,6.109,1.653-.404-.164.198.089.277.125.239.109.477.222.712.339.422.21.838.433,1.246.669.389.225.77.463,1.144.713.194.129.385.262.575.398.1.072.572.431.135.09.617.481,1.204,1.001,1.752,1.56.232.236.456.479.672.73.12.139.229.289.352.424.112.141.065.08-.141-.184.06.079.119.159.176.24.333.487.653.976.914,1.507.035.07.097.302.154.33-.196-.097-.194-.557-.07-.146.071.236.153.464.209.704.296,1.262,1.737,2.01,2.952,1.676,1.292-.355,1.974-1.686,1.676-2.952h0Z"/>
              <path class="f" d="M165.593,99.597c1.481,6.711,4.163,13.224,7.935,18.974,4.03,6.144,9.34,11.909,15.783,15.56,3.308,1.875,6.936,3.154,10.694,3.73,1.28.196,2.581-.324,2.952-1.676.312-1.136-.387-2.755-1.676-2.952-13.224-2.027-23.054-13.581-28.046-25.348-1.306-3.079-2.294-6.299-3.014-9.563-.665-3.015-5.294-1.739-4.629,1.276h0Z"/>
              <path class="f" d="M254.789,98.321c-1.678,7.602-4.923,14.894-9.741,21.036-2.362,3.011-5.071,5.881-8.216,8.083-2.995,2.097-6.287,3.584-9.754,4.714-2.924.954-1.673,5.59,1.276,4.629,6.047-1.972,11.492-4.989,16.037-9.481,5.208-5.148,9.211-11.397,12.013-18.141,1.285-3.093,2.292-6.292,3.014-9.563.664-3.01-3.962-4.296-4.629-1.276h0Z"/>
              <path class="f" d="M204.226,113.362c2.768,1.461,5.747,2.077,8.877,2.057,3.203-.021,6.417-.661,8.979-2.657.995-.775.875-2.591,0-3.394-1.055-.969-2.332-.827-3.394,0,.734-.572.187-.151-.001-.03-.177.113-.359.218-.546.316-.096.051-.195.096-.292.145-.27.139-.222-.047.118-.041-.206-.004-.551.209-.753.273-.687.221-1.393.372-2.106.481.362-.055-.003-.003-.172.014-.207.02-.413.038-.621.051-.498.032-.998.045-1.497.042-.447-.003-.894-.018-1.34-.048-.205-.014-.41-.03-.614-.051-.046-.005-.788-.121-.268-.028-.664-.119-1.32-.243-1.967-.437-.276-.082-.544-.181-.816-.274-.605-.207.38.193-.166-.064-.337-.159-.67-.325-1-.499-1.11-.586-2.66-.318-3.284.861-.586,1.109-.324,2.658.861,3.284h0Z"/>
              <path class="f" d="M211.834,92.513c.385,1.467.754,2.956.974,4.458l-.086-.638c.026.206.038.409.017.615l.086-.638c-.015.096-.035.185-.068.277l.242-.573c-.029.065-.058.119-.098.178l.375-.486c-.046.056-.089.098-.146.144l.486-.375c-.113.072-.232.131-.353.187l.573-.242c-.194.081-.387.141-.595.174l.638-.086c-.188.022-.371.021-.559,0l.638.086c-.211-.029-.417-.081-.628-.109-.319-.1-.638-.114-.957-.043-.319.014-.617.109-.892.285-.498.291-.973.862-1.103,1.434-.14.614-.11,1.304.242,1.849.312.484.835,1.022,1.434,1.103.49.066.965.19,1.463.212.769.034,1.482-.203,2.168-.518.85-.39,1.515-1.161,1.741-2.076.192-.776.11-1.447-.021-2.224-.243-1.436-.575-2.859-.944-4.268-.152-.579-.588-1.133-1.103-1.434s-1.273-.429-1.849-.242c-1.25.404-2.018,1.651-1.676,2.952h0Z"/>
              <path class="f" d="M188.373,79.858c-.744,2.419-.259,7.984,4.324,8.458,6.058-.036,6.38-6.764,4.341-9.928-1.67-2.59-6.579-3.667-8.665,1.47Z"/>
              <path class="f" d="M236.882,79.859c.745,2.419.26,7.984-4.324,8.458-6.058-.036-6.38-6.765-4.341-9.928,1.669-2.59,6.579-3.667,8.665,1.47Z"/>
              <path class="f" d="M169.369,73.871c-3.006-2.709-7.362-3.309-11.024-1.569-2.698,1.282-4.273,3.914-4.964,6.734-1.613,6.575.07,14.152,3.912,19.687,2.775,3.997,6.664,6.816,11.714,6.137,1.286-.173,1.986-1.823,1.676-2.952-.381-1.388-1.662-1.85-2.952-1.676-3.444.463-6.119-3.318-7.508-5.931-1.333-2.508-2.325-5.357-2.553-8.197-.221-2.761-.199-6.207,1.528-8.536-.306.412.189-.187.267-.265.073-.073.559-.466.405-.358.538-.378,1.126-.598,1.766-.73,1.53-.315,3.16-.011,4.338,1.05,2.29,2.063,5.695-1.321,3.394-3.394h0Z"/>
              <path class="f" d="M259.28,77.265c1.178-1.062,2.807-1.361,4.338-1.05.642.13,1.228.352,1.766.73-.21-.147.274.229.321.274.074.071.664.77.352.349,1.726,2.328,1.749,5.777,1.528,8.536-.227,2.84-1.219,5.689-2.553,8.197-1.389,2.612-4.065,6.394-7.508,5.931-1.283-.173-2.576.308-2.952,1.676-.307,1.118.383,2.778,1.676,2.952,8.208,1.105,12.933-6.755,15.159-13.509,1.144-3.472,1.308-7.326.741-10.921-.467-2.963-1.698-5.809-4.23-7.551-3.656-2.516-8.816-1.905-12.032.993-2.3,2.072,1.104,5.458,3.394,3.394h0Z"/>
              <path class="d" d="M220.828,222.89c1.626-4.284,3.201-8.434,4.289-11.32-2.613-18.414-5.408-37.842-5.391-38.862.034-1.967.623-3.899,1.211-5.778.471-1.524.7-3.251,1.533-4.987,0,0,.113-.29.299-.759-2.989-4.028-6.585-8.779-8.782-11.25h-3.276c-2.21,2.486-5.835,7.279-8.835,11.322.023.085.035.131.035.131.625,2.57.724,3.812,1.261,6.237.1.488.213.975.338,1.463.25,1.075.5,2.163.5,3.263,0,.612-2.697,21.399-4.736,38.868.053.148,4.908,14.469,7.83,23.073l4.127,12.152,5.273-12.152c1.251-3.31,2.809-7.414,4.322-11.4Z"/>
              <path class="f" d="M204.725,172.861c4.846-.002,9.692-.101,14.538-.103,1.255,0,2.458-1.104,2.4-2.4s-1.055-2.401-2.4-2.4c-4.846.002-9.692.101-14.538.103-1.255,0-2.458,1.104-2.4,2.4s1.055,2.4,2.4,2.4h0Z"/>
              <path class="f" d="M199.597,162.025c.457,1.919.759,3.866,1.165,5.796.316,1.5.915,3.082.841,4.627-.066,1.371-.321,2.757-.489,4.118-.844,6.828-1.704,13.655-2.54,20.484-.579,4.734-1.15,9.469-1.703,14.206-.151,1.29,1.211,2.4,2.4,2.4,1.422,0,2.249-1.107,2.4-2.4.961-8.237,1.975-16.467,2.999-24.697.577-4.636,1.42-9.322,1.721-13.987.113-1.755-.453-3.524-.828-5.22-.485-2.194-.818-4.416-1.339-6.603-.716-3.004-5.345-1.732-4.629,1.276h0Z"/>
              <path class="f" d="M227.356,210.409c-1.141-8.041-2.291-16.08-3.424-24.122-.411-2.918-.82-5.835-1.217-8.755-.041-.3-.081-.599-.122-.899.049.365-.026-.194-.04-.302-.062-.47-.124-.94-.184-1.411-.076-.596-.168-1.195-.214-1.794-.095-1.22.189-2.416.507-3.589.564-2.077.992-4.423,1.879-6.383.534-1.18.339-2.582-.861-3.284-1.029-.602-2.747-.326-3.284.861-.879,1.942-1.293,3.969-1.911,5.995-.582,1.908-1.225,3.993-1.161,6.012.04,1.271.292,2.561.459,3.819.899,6.749,1.868,13.488,2.826,20.229.705,4.966,1.413,9.932,2.118,14.899.182,1.285,1.817,1.988,2.952,1.676,1.381-.379,1.859-1.664,1.676-2.952h0Z"/>
              <path class="f" d="M233.205,135.233c1.198,1.351,2.332,2.757,3.464,4.164s2.381,2.752,3.44,4.204c.38.521.652,1.108.82,1.728.072.266.132.534.148.806.011.184-.123,1.027.061.548-.179.465-.521.916-.779,1.34-2.512,4.134-5.288,8.167-8.379,11.89-.947,1.141-1.93,2.255-2.978,3.305-.967.969-1.861,1.757-2.709,2.313l3.284.861c-4.559-6.086-8.852-12.45-13.894-18.155l-.486,3.769c2.656-1.901,5.185-4.006,7.755-6.022,3.594-2.819,7.183-5.644,10.769-8.474.96-.758,1.926-1.51,2.878-2.278,1.01-.814.848-2.546,0-3.394-.998-.998-2.382-.817-3.394,0-5.841,4.712-11.782,9.309-17.7,13.923-.384.299-.768.598-1.152.896-.147.114-.294.228-.44.342-.314.244.391-.3-.067.052-.355.272-.706.55-1.07.81-1.304.933-1.578,2.533-.486,3.769,4.772,5.4,8.829,11.423,13.143,17.184.746.996,2.099,1.636,3.284.861,4.931-3.228,8.588-8.552,11.905-13.309,1.365-1.958,2.688-3.949,3.925-5.991.367-.606.771-1.221,1.004-1.894.686-1.978.235-4.194-.605-6.046-.898-1.981-2.607-3.602-3.96-5.282-1.44-1.789-2.863-3.595-4.387-5.314-2.053-2.316-5.438,1.089-3.394,3.394Z"/>
              <path class="f" d="M178.436,210.404c-4.212-7.603-8.363-15.24-12.41-22.933-.968-1.84-1.93-3.683-2.885-5.529-.508-.982-1.022-1.962-1.519-2.95-.362-.722-.451-.507.063-1.086,2.795-3.149,5.942-6.02,9.013-8.895,1.126-1.054.824-3.022-.486-3.769-1.47-.839-2.94-1.677-4.411-2.516-.7-.399-1.4-.798-2.1-1.197-.35-.2-.7-.399-1.05-.599l-.42-.24c-.449-.298-.547-.339-.294-.123l.328,1.211c.014.423-.131.269.055-.06.112-.198.215-.4.329-.597.242-.417.503-.822.776-1.219.55-.8,1.163-1.548,1.805-2.277,1.629-1.851,3.421-3.557,5.274-5.181,3.404-2.983,7.044-5.703,10.852-8.15l-3.526-1.434c3.85,17.084,8.339,34.026,13.391,50.793,3.524,11.696,7.447,23.246,11.372,34.811,2.214,6.523,4.43,13.045,6.645,19.567.792,2.332,3.792,2.213,4.629,0,4.397-11.633,8.818-23.257,13.212-34.892,5.068-13.418,8.865-27.377,12.591-41.216,2.595-9.638,5.003-19.327,7.197-29.064l-3.526,1.434c3.806,2.446,7.445,5.167,10.848,8.15,1.811,1.587,3.561,3.252,5.161,5.053.649.731,1.273,1.479,1.833,2.281.278.398.544.804.792,1.222.117.197.231.397.34.599l.124.237c.16.333.158.313-.006-.058l.328-1.211c.182-.162.151-.161-.093.003-.21.12-.419.24-.629.36-.28.16-.559.32-.839.479-.769.439-1.539.878-2.308,1.317-1.469.838-2.938,1.675-4.406,2.516-1.308.749-1.613,2.714-.486,3.769,3.056,2.861,6.295,5.702,9.013,8.895.479.562.438.342.063,1.086-.498.988-1.011,1.968-1.519,2.95-.955,1.846-1.918,3.689-2.886,5.529-4.05,7.692-8.205,15.329-12.418,22.933-1.498,2.704,2.646,5.128,4.145,2.423,4.602-8.307,9.136-16.652,13.537-25.066,1.031-1.971,2.055-3.946,3.07-5.926,1.184-2.308,1.746-4.481-.041-6.683-2.81-3.464-6.321-6.493-9.57-9.535l-.486,3.769c2.096-1.201,4.196-2.395,6.294-3.593,1.93-1.102,4.566-2.256,3.952-4.964-.332-1.466-1.395-2.911-2.276-4.095-.985-1.325-2.052-2.582-3.191-3.777-4.681-4.911-10.225-9.146-15.924-12.807-1.265-.813-3.193-.041-3.526,1.434-3.927,17.423-8.516,34.701-13.698,51.793-1.719,5.671-3.408,11.363-5.496,16.911-2.131,5.663-4.287,11.316-6.433,16.973-2.464,6.496-4.917,12.995-7.373,19.494h4.629c-3.835-11.29-7.662-22.582-11.5-33.87-4.786-14.076-8.988-28.368-12.843-42.725-2.544-9.477-4.907-19.003-7.065-28.575-.332-1.475-2.261-2.247-3.526-1.434-5.7,3.662-11.247,7.895-15.929,12.807-1.139,1.195-2.203,2.454-3.189,3.777-.881,1.182-1.947,2.634-2.275,4.095-.61,2.71,2.023,3.865,3.949,4.964,2.1,1.198,4.201,2.395,6.3,3.593l-.486-3.769c-3.25,3.042-6.761,6.071-9.571,9.535-1.784,2.199-1.225,4.371-.04,6.683,1.015,1.979,2.038,3.954,3.069,5.926,4.399,8.415,8.927,16.761,13.528,25.066,1.497,2.703,5.644.284,4.145-2.423h0Z"/>
              <path class="f" d="M188.099,131.839c-1.338,1.51-2.597,3.086-3.861,4.658-1.249,1.554-2.692,3.044-3.805,4.698-1.739,2.585-2.186,5.958-.583,8.678,2.721,4.619,5.871,9.057,9.275,13.194,2.01,2.443,4.19,4.864,6.856,6.609,1.173.768,2.539.133,3.284-.861,4.315-5.76,8.371-11.784,13.143-17.184,1.093-1.236.818-2.836-.486-3.769-.297-.213-.586-.438-.875-.66-.099-.076-.198-.153-.297-.229-.296-.227.409.318-.025-.019-.311-.241-.621-.482-.932-.724-1.654-1.287-3.304-2.58-4.953-3.874-3.519-2.76-7.033-5.526-10.543-8.297-.936-.739-1.877-1.471-2.804-2.22-1.008-.813-2.409-.985-3.394,0-.841.841-1.014,2.576,0,3.394,5.917,4.774,11.934,9.431,17.931,14.103,1.15.896,2.284,1.822,3.47,2.67l-.486-3.769c-5.042,5.705-9.335,12.069-13.894,18.155l3.284-.861c-.213-.139-.422-.283-.628-.433-.216-.157-.012-.004.026.025-.095-.073-.188-.15-.28-.227-.458-.387-.906-.784-1.339-1.199-.975-.936-1.889-1.935-2.77-2.96-1.762-2.051-3.382-4.216-4.936-6.428-1.325-1.886-2.606-3.806-3.819-5.766-.33-.533-.687-1.065-.971-1.625-.035-.069-.083-.134-.112-.206.151.376.021-.021.042-.22.072-.688.13-1.312.432-1.965.737-1.595,2.227-2.948,3.319-4.307,1.352-1.681,2.693-3.372,4.125-4.987,2.043-2.304-1.34-5.711-3.394-3.394Z"/>
              <path class="f" d="M255.222,153.023c9.511,3.512,19.307,6.744,27.705,12.584,8.27,5.752,14.335,14.24,19.057,23.012,2.756,5.121,5.098,10.449,7.262,15.844.482,1.202,1.602,2.047,2.952,1.676,1.142-.314,2.162-1.742,1.676-2.952-4.026-10.036-8.576-19.993-15.173-28.632-3.309-4.334-7.017-8.309-11.354-11.63-4.216-3.23-8.903-5.759-13.75-7.906-5.594-2.478-11.365-4.506-17.1-6.624-1.216-.449-2.63.502-2.952,1.676-.368,1.341.456,2.502,1.676,2.952h0Z"/>
              <path class="f" d="M144.622,201.808c0,13.652,0,27.304,0,40.956,0,4.732,0,9.464,0,14.196,0,3.089,4.8,3.094,4.8,0,0-14.677,0-29.353,0-44.03,0-3.707,0-7.415,0-11.122,0-3.089-4.8-3.094-4.8,0h0Z"/>
              <path class="f" d="M275.833,201.808c0,13.652,0,27.304,0,40.956,0,4.732,0,9.464,0,14.196,0,3.089,4.8,3.094,4.8,0,0-14.677,0-29.353,0-44.03,0-3.707,0-7.415,0-11.122,0-3.089-4.8-3.094-4.8,0h0Z"/>
              <path class="f" d="M316.796,205.264c7.733-9.907,15.404-19.873,23.555-29.444l-2.908.375c12.128,6.352,23.915,13.238,35.404,20.683l-.861-3.284c-3.974,8.107-7.998,16.198-12.496,24.03-4.21,7.332-8.783,14.645-14.277,21.096-4.743,5.569-10.514,10.651-17.407,13.347-7.45,2.915-15.826,3.141-23.603,1.497-4.537-.959-8.924-2.531-12.992-4.761-4.1-2.248-7.685-5.183-11.281-8.144-1-.823-2.415-.979-3.394,0-.849.849-1.006,2.566,0,3.394,3.418,2.814,6.829,5.672,10.631,7.961,3.759,2.263,7.858,4.023,12.068,5.251,8.392,2.447,17.748,2.952,26.23.633,16.693-4.564,27.349-19.839,35.825-33.871,5.467-9.051,10.189-18.524,14.84-28.012.591-1.206.294-2.535-.861-3.284-11.489-7.445-23.276-14.331-35.404-20.683-.885-.463-2.205-.451-2.908.375-8.151,9.571-15.822,19.536-23.555,29.444-.797,1.021-.995,2.399,0,3.394.83.83,2.592,1.028,3.394,0h0Z"/>
              <path class="f" d="M116.006,204.463c3.742-9.328,8.044-18.548,14.06-26.65,2.984-4.018,6.472-7.816,10.441-10.88,3.892-3.005,8.269-5.366,12.737-7.391,5.16-2.34,10.52-4.206,15.836-6.152,1.217-.445,2.04-1.629,1.676-2.952-.322-1.172-1.729-2.124-2.952-1.676-9.937,3.639-20.247,7.098-28.879,13.4-8.599,6.278-15.029,15.086-20,24.406-2.866,5.373-5.282,10.972-7.548,16.62-.483,1.203.527,2.636,1.676,2.952,1.369.376,2.468-.468,2.952-1.676h0Z"/>
              <path class="f" d="M111.853,201.87c-7.733-9.907-15.404-19.873-23.555-29.444-.707-.83-2.016-.843-2.908-.375-12.15,6.363-24.079,13.132-36.185,19.575-1.203.64-1.413,2.157-.861,3.284,4.255,8.678,8.631,17.307,13.517,25.65,4.608,7.869,9.614,15.735,15.676,22.578,5.313,5.998,11.781,11.037,19.345,13.829,8.169,3.015,17.432,2.993,25.86,1.138,4.845-1.067,9.568-2.85,13.907-5.256,4.376-2.426,8.222-5.624,12.07-8.793,1.001-.825.854-2.54,0-3.394-.99-.99-2.39-.827-3.394,0-3.162,2.604-6.309,5.215-9.837,7.318-3.555,2.119-7.368,3.726-11.354,4.834-7.723,2.147-16.263,2.537-23.989.193-15.472-4.695-25.125-19.798-32.973-32.898-5.361-8.949-10.093-18.257-14.683-27.62l-.861,3.284c12.106-6.443,24.036-13.213,36.185-19.575l-2.908-.375c8.151,9.571,15.822,19.536,23.555,29.444.798,1.023,2.557.837,3.394,0,1.01-1.01.8-2.369,0-3.394h0Z"/>
             </g>
            </svg>