<svg xmlns="http://www.w3.org/2000/svg" width="132" height="125" viewBox="-0.0008973109070211649 -1.000020980834961 132.0027741419617 125.00262260437012" style="" transform="rotate(-270)"><defs><style>.a{fill:#ffba28;}.b{fill:#211715;}.c{fill:#f2635f;}</style></defs><path class="a" d="M116.026,49.878,59.739,2.648a2.821,2.821,0,0,0-4.633,2.168V31.989a2.824,2.824,0,0,1-2.823,2.824H4.857a2.824,2.824,0,0,0-2.824,2.823V67.1a2.825,2.825,0,0,0,2.824,2.824H52.283a2.823,2.823,0,0,1,2.823,2.823V99.262a2.824,2.824,0,0,0,4.639,2.163L116.023,54.2A2.821,2.821,0,0,0,116.026,49.878Z"></path><path class="b" d="M117.44,48.464l-38.8-32.558c-5.72-4.8-11.41-9.64-17.163-14.4C59.776.1,57.667-.561,55.605.587a4.966,4.966,0,0,0-2.5,4.3c-.058,1.577,0,3.167,0,4.744V27.46a33.335,33.335,0,0,1,0,4.492c-.151,1.078-1.2.861-2.02.861H5.809c-2.225,0-4.332.631-5.338,2.862C-.18,37.118.033,38.93.033,40.48V65.315c0,2.213.051,4.424,2.175,5.805a7.159,7.159,0,0,0,4.21.8h45.2c.878,0,1.48.156,1.491,1.182.058,5,0,10,0,15v8.315c0,1.659-.235,3.6.57,5.115a4.9,4.9,0,0,0,5.575,2.37,8.709,8.709,0,0,0,3.057-2.033l3.828-3.213L81.067,86.135l29.862-25.058,3.637-3.051a25.9,25.9,0,0,0,3.338-2.907,4.863,4.863,0,0,0-.464-6.655c-1.869-1.77-4.7,1.054-2.828,2.828a.9.9,0,0,1,0,1.5c-1.158,1.165-2.569,2.156-3.828,3.212l-7.274,6.1L88.959,74.311,60.245,98.405c-.635.533-2.807,2.878-3.139.857a6.721,6.721,0,0,1,0-1.033V74.9c0-1.994.146-4-1.412-5.562C54.369,68.01,52.716,67.923,51,67.923H6.418c-.767,0-2.151.274-2.381-.708a16.277,16.277,0,0,1,0-3.44V39.484c0-.893-.342-2.494.84-2.671a17.986,17.986,0,0,1,2.585,0H51.739c2.88,0,5.238-1.8,5.367-4.824.169-3.935,0-7.913,0-11.851,0-4.945.045-9.892,0-14.837,0-.406-.053-.839.287-1.125.86-.725,2.1.869,2.71,1.378l7.773,6.523L107.1,44.992l7.509,6.3C116.571,52.936,119.415,50.121,117.44,48.464Z"></path><path class="a" d="M252.479,287.805a33.273,33.273,0,0,0,11.645-8.849c6.9-8.4,9.635-19.719,9.574-34.471H257.39a.721.721,0,0,1-.555-1.183l25.991-30.974a.724.724,0,0,1,1.11,0l25.98,30.961a.727.727,0,0,1-.557,1.194H293.833c.049,20.332-4.133,36.176-14.134,47.319a56.091,56.091,0,0,1-16.576,12.726c-14,6.879-28.868,5.833-38.867,6.15a1.159,1.159,0,0,1-1.169-1.176V293.028a1.175,1.175,0,0,1,1.182-1.176C224.727,291.854,242.087,292.814,252.479,287.805Z"></path><path class="b" d="M253.489,289.532A35.88,35.88,0,0,0,268.9,275.615a48.423,48.423,0,0,0,5.981-18.2,92.753,92.753,0,0,0,.815-12.934,2.03,2.03,0,0,0-2-2H258.175a5.066,5.066,0,0,0-.578,0c-.374.045-.114-.2.3.071l.717.718.084.279-.273,1.009a19.683,19.683,0,0,1,1.509-1.852l2.174-2.591,5.27-6.28,11.765-14.021,2.764-3.3,1.17-1.393.57-.68c.067-.08.144-.158.2-.243.174-.247.409-.283.063-.209h-1.064a5.814,5.814,0,0,0,.475.7l.8.956,1.6,1.911,3.208,3.823q3.286,3.918,6.575,7.835l6.414,7.645,3.208,3.822a27.349,27.349,0,0,1,3.194,3.862l-.273-1.01.084-.272.717-.717c.4-.269.67-.03.321-.069a4.877,4.877,0,0,0-.513,0H301.6q-3.882,0-7.763,0a2.03,2.03,0,0,0-2,2c.015,13.829-1.688,28.371-9.376,40.227a52.184,52.184,0,0,1-31.588,22.012,72.647,72.647,0,0,1-12.883,1.574c-2.365.117-4.732.176-7.1.226-1.145.024-2.29.046-3.435.072-.911.02-2.459.336-3.254,0l.882.514c.108.084,0,.653.008.006,0-.454,0-.908,0-1.361V294.391a6.794,6.794,0,0,0,0-1.058c-.133-.8-.636.573-.743.521a7.3,7.3,0,0,0,2.34.063,93.206,93.206,0,0,0,11.207-.491,48.02,48.02,0,0,0,15.6-3.894c2.325-1.1.3-4.551-2.019-3.454-8.173,3.873-17.894,3.909-26.755,3.79a3.32,3.32,0,0,0-3.628,3.238c-.059,1.036,0,2.094,0,3.13v11.189a9.578,9.578,0,0,0,.231,3.208c.638,1.774,2.267,2.064,3.922,2.018,2.127-.06,4.254-.1,6.382-.143,7.493-.167,15.126-.444,22.392-2.457a56.634,56.634,0,0,0,30.967-21.939c8.83-12.616,10.869-28.6,10.852-43.627l-2,2c5.115,0,10.291.254,15.4,0a2.818,2.818,0,0,0,2.361-1.2c1.111-1.658.027-3.068-1.065-4.369l-7.216-8.6q-7.058-8.409-14.113-16.819c-1.169-1.393-2.286-2.876-3.528-4.2-1.186-1.269-2.866-1.707-4.26-.384a49.806,49.806,0,0,0-3.529,4.207q-4.478,5.334-8.953,10.669l-9.043,10.777-3.444,4.1a16.462,16.462,0,0,0-1.333,1.621,2.744,2.744,0,0,0,1.468,4.066,11,11,0,0,0,3.087.126H273.7l-2-2c.027,12.253-1.759,25.832-10.729,35a33.73,33.73,0,0,1-9.5,6.595C249.156,287.205,251.181,290.655,253.489,289.532Z"></path><path class="c" d="M37.479,234.945a33.3,33.3,0,0,1,11.645,8.849c6.9,8.4,9.635,19.719,9.574,34.471H42.39a.721.721,0,0,0-.555,1.183l25.991,30.974a.725.725,0,0,0,1.11,0l25.98-30.962a.727.727,0,0,0-.557-1.194H78.833c.049-20.332-4.133-36.176-14.134-47.318A56.1,56.1,0,0,0,48.123,218.22c-14-6.879-28.868-5.832-38.867-6.15a1.159,1.159,0,0,0-1.169,1.176v16.476A1.175,1.175,0,0,0,9.269,230.9C9.727,230.9,27.087,229.937,37.479,234.945Z"></path><path class="b" d="M36.47,236.672A32.181,32.181,0,0,1,50.533,249.3,45.306,45.306,0,0,1,56,266.2a87.182,87.182,0,0,1,.7,12.065l2-2c-5.3,0-10.618-.109-15.92,0-2.087.043-3.977,1.922-2.739,4.067a29.3,29.3,0,0,0,3.1,3.767l8.419,10.033,9.469,11.285L64.872,310c.487.58.943,1.221,1.476,1.759,1.389,1.405,3.1,1,4.323-.307,2.487-2.659,4.716-5.621,7.056-8.41q3.609-4.3,7.217-8.6l7.216-8.6,3.208-3.823c1.133-1.351,2.405-2.8,1.225-4.56-.917-1.367-2.463-1.195-3.881-1.195H87.338q-4.252,0-8.5,0l2,2c.015-13.456-1.595-27.456-8.22-39.408A55.992,55.992,0,0,0,43.466,214.15c-6.723-2.528-13.831-3.392-20.969-3.722-4.083-.188-8.172-.214-12.257-.328-1.649-.047-3.286.249-3.922,2.017a4.731,4.731,0,0,0-.231,1.6c-.057,3.368,0,6.742,0,10.111v4.743c0,1.672.2,3.429,2.054,4.1a10.533,10.533,0,0,0,3.634.163q3.55-.046,7.1.162c5.917.351,12.185,1.115,17.6,3.679,2.314,1.1,4.346-2.351,2.019-3.454-7.9-3.744-17.185-4.427-25.82-4.394a16.363,16.363,0,0,0-3.036.061c-.081.017-.212-.022-.289.011-.41.177.729.832.743.806a2.176,2.176,0,0,0,0-.7V213.811c0-.147.006-.3,0-.443-.012-.324.081.2-.008.268l-.882.515a7.6,7.6,0,0,1,2.517-.014c1.064.026,2.128.047,3.191.069,2.124.043,4.247.088,6.369.171a87.548,87.548,0,0,1,12.108,1.136A52.474,52.474,0,0,1,65.927,235.82a53.029,53.029,0,0,1,8.514,18.96,98.793,98.793,0,0,1,2.392,23.485,2.029,2.029,0,0,0,2,2q3.882,0,7.763,0h7.068a4.621,4.621,0,0,0,.513,0c.346-.039.089.2-.321-.069l-.717-.717-.084-.272.273-1.01a25.965,25.965,0,0,1-3.034,3.671l-3.207,3.822-6.575,7.836L74.1,301.17l-3.207,3.823-1.6,1.911a18.911,18.911,0,0,1-1.437,1.848h1.064c.371.079.044-.082-.131-.289l-.488-.582-1.064-1.268L64.8,303.718l-5.565-6.632L47.714,283.354l-2.5-2.976a21.527,21.527,0,0,1-1.793-2.19L43.7,279.2l-.084.28-.717.717c-.437.29-.67.024-.33.071a4.267,4.267,0,0,0,.554,0H58.7a2.03,2.03,0,0,0,2-2c.029-13.4-2.191-28.046-12.05-37.977a37.073,37.073,0,0,0-10.159-7.07C36.184,232.1,34.153,235.544,36.47,236.672Z"></path><path class="c" d="M257.618,91.8a47.85,47.85,0,0,0,13.218-1.909c10.235-3.165,17.132-10.66,23.038-22.143l-12.811-7.434a.642.642,0,0,1,.1-1.16l33.882-12.248a.645.645,0,0,1,.855.5q3.088,17.739,6.176,35.479a.648.648,0,0,1-.963.672L308.8,76.41c-7.813,16.012-16.382,25.448-29.19,29.184-5.854,1.707-16.7,2.319-22.769,1.129-10.876-2.13-20.065-6.751-29.054-20.714-.356-.554.073-1.1.6-.865C239.339,90.087,245.321,92.064,257.618,91.8Z"></path><path class="a" d="M277.556,22.273a47.855,47.855,0,0,0-13.218,1.909C254.1,27.347,247.206,34.841,241.3,46.325l12.81,7.434a.642.642,0,0,1-.1,1.16L220.128,67.167a.646.646,0,0,1-.855-.5q-3.088-17.74-6.176-35.479a.648.648,0,0,1,.964-.672l12.314,7.146c7.814-16.012,16.382-25.448,29.19-29.184,5.855-1.708,16.7-2.319,22.769-1.13,10.876,2.131,20.608,6.752,29.6,20.715.356.554-.073,1.1-.6.864C296.378,23.987,289.853,22.01,277.556,22.273Z"></path><path class="b" d="M277.556,20.273c-8.392.2-16.846,1.879-23.7,6.973-6.278,4.663-10.724,11.192-14.28,18.07a2.039,2.039,0,0,0,.717,2.736l6.406,3.717,4.362,2.531,1.456.845a4.1,4.1,0,0,0,.42.244c.336.143-.01.25-.253-.239l-.273-1.01.093-.362.717-.718c.229-.137-.283.126-.368.157l-.7.255-1.617.584-3.938,1.423L237.139,58.9l-9.75,3.524-4.314,1.56-1.863.673-.841.3c-.384.139-.779.06-.255.231L221,65.7l-.2-.184.514.882a20.322,20.322,0,0,1-.786-4.152l-.8-4.617q-.783-4.5-1.565-8.992-.762-4.374-1.523-8.748l-.8-4.617a20.693,20.693,0,0,1-.714-4.39l-.273,1.009.143-.245-.718.717.032-.008h-1.063c-.439-.132.2.113.367.208l1.372.8,4.233,2.456,6.157,3.573a2.018,2.018,0,0,0,2.736-.718c5.583-11.394,13.107-22.927,25.568-27.47,6.06-2.209,12.787-2.675,19.19-2.425a40.781,40.781,0,0,1,16.626,4.3,36.83,36.83,0,0,1,8.49,5.945,47.779,47.779,0,0,1,4.2,4.479q.975,1.179,1.873,2.417.52.714,1.019,1.441a9.963,9.963,0,0,1,.959,1.315l.273-1.009-.153.21,1.195-.919-.243.1h1.063a19.877,19.877,0,0,1-3.741-1.569c-1.3-.55-2.6-1.085-3.925-1.582a58.163,58.163,0,0,0-7.015-2.184,63.32,63.32,0,0,0-15.923-1.448c-2.571.05-2.579,4.05,0,4a59.107,59.107,0,0,1,14.859,1.3,83.827,83.827,0,0,1,13.9,5.078,2.564,2.564,0,0,0,3.433-.969c.843-1.519-.277-2.943-1.105-4.159a60.816,60.816,0,0,0-5.206-6.654,42.4,42.4,0,0,0-10.534-8.5A46.95,46.95,0,0,0,268.4,4.766c-8.776.269-17.349,2.032-24.648,7.142-8.709,6.1-14.5,15.352-19.1,24.747l2.737-.718c-4.054-2.352-8.045-4.9-12.195-7.076a2.872,2.872,0,0,0-2.233-.311c-1.71.517-1.955,2.143-1.7,3.657.539,3.244,1.128,6.481,1.692,9.721q1.734,9.963,3.469,19.926l.761,4.374c.283,1.626,1.07,3.076,2.953,2.939,1.566-.115,3.3-1.071,4.765-1.6l12.039-4.352,12.042-4.353,4.419-1.6a5.943,5.943,0,0,0,2.25-1.061,2.688,2.688,0,0,0,.075-3.689,10.436,10.436,0,0,0-2.4-1.528L249.039,48.5,242.31,44.6l.718,2.736c3.216-6.22,7.162-12.379,12.845-16.634,6.3-4.716,13.95-6.24,21.683-6.427C280.126,24.211,280.135,20.211,277.556,20.273Z"></path><path class="b" d="M257.618,93.8c8.392-.2,16.846-1.879,23.7-6.973,6.277-4.664,10.723-11.192,14.279-18.07a2.039,2.039,0,0,0-.717-2.736l-6.4-3.717-4.363-2.531-1.455-.845a4.22,4.22,0,0,0-.421-.244c-.336-.144.01-.25.253.239l.273,1.01-.093.362-.717.717c-.228.137.283-.125.369-.156l.7-.255,1.618-.584,3.937-1.424,9.454-3.417,9.749-3.524,4.314-1.56,1.863-.673.841-.3c.384-.139.779-.061.255-.231l-.883-.514.2.184-.515-.882a20.311,20.311,0,0,1,.787,4.152l.8,4.617q.783,4.5,1.565,8.991.762,4.374,1.523,8.749l.8,4.617a20.821,20.821,0,0,1,.714,4.39l.273-1.01-.143.246.717-.718-.032.008h1.063c.439.133-.2-.113-.367-.207l-1.372-.8-4.232-2.456-6.158-3.573a2.018,2.018,0,0,0-2.736.717c-5.583,11.395-13.107,22.928-25.567,27.471-6.061,2.209-12.788,2.675-19.191,2.425a39.373,39.373,0,0,1-16.444-4.3,35.856,35.856,0,0,1-8.252-5.944,49.228,49.228,0,0,1-4.112-4.479q-.96-1.18-1.846-2.417-.514-.714-1.012-1.442a10,10,0,0,1-.956-1.315l-.273,1.01.153-.211-1.195.919.243-.1h-1.063a19.519,19.519,0,0,1,3.718,1.569c1.281.546,2.567,1.081,3.867,1.582a56.672,56.672,0,0,0,6.825,2.184A60.6,60.6,0,0,0,257.618,93.8c2.571-.05,2.58-4.05,0-4A56.5,56.5,0,0,1,243.03,88.5,85.766,85.766,0,0,1,229.4,83.417a2.565,2.565,0,0,0-3.433.97c-.843,1.519.277,2.941,1.1,4.158a63.96,63.96,0,0,0,5.143,6.655,42.017,42.017,0,0,0,10.274,8.5,45.618,45.618,0,0,0,24.294,5.609c8.777-.269,17.349-2.032,24.648-7.142,8.71-6.1,14.5-15.352,19.1-24.747l-2.736.718c4.054,2.352,8.045,4.9,12.194,7.076a2.867,2.867,0,0,0,2.233.31c1.711-.516,1.955-2.142,1.7-3.656-.538-3.245-1.128-6.481-1.692-9.721L318.761,52.22,318,47.845c-.283-1.625-1.07-3.075-2.953-2.938-1.565.115-3.3,1.071-4.765,1.6l-12.038,4.352L286.2,55.214l-4.42,1.6a5.92,5.92,0,0,0-2.25,1.061,2.688,2.688,0,0,0-.075,3.689,10.432,10.432,0,0,0,2.4,1.527l4.279,2.483,6.729,3.905-.717-2.737c-3.217,6.221-7.162,12.38-12.845,16.635-6.3,4.716-13.95,6.24-21.684,6.427C255.049,89.863,255.039,93.863,257.618,93.8Z"></path></svg>