<svg id="b" xmlns="http://www.w3.org/2000/svg" width="321.34" height="337.465" viewBox="0 0 321.34 337.465" style="color: initial !important;"><defs><style>.d{fill:#febe69;}.d,.e,.f,.g,.h,.i{stroke-width:0px;}.e{fill:#211715;}.f{fill:#f2635f;}.g{fill:#ffffff;}.h{fill:#a98a75;}.i{fill:#74c66d;}</style></defs><g id="c"><path class="g" d="M55.9,58.717c-5.567,0-11.135.005-15.092.015-2.422.006-4.484-1.848-4.618-4.266-.847-15.298-1.366-29.31-1.366-41.882,0-2.398-1.834-4.402-4.223-4.604-3.625-.306-4.848-.356-8.515-.147-2.126.121-3.912,1.653-4.313,3.744C10.714,48.331,5.474,91.513,2.874,128.892c-.19,2.73,1.964,5.052,4.701,5.052,16.816-.002,32.571-.002,48.326-.003,15.755,0,31.51.001,48.325.003,2.737,0,4.891-2.322,4.701-5.052-2.6-37.379-7.84-80.561-14.898-117.314-.402-2.091-2.187-3.623-4.313-3.744-3.668-.209-4.89-.16-8.515.147-2.389.202-4.223,2.206-4.223,4.604,0,12.572-.519,26.584-1.366,41.882-.134,2.418-2.196,4.273-4.618,4.266-3.957-.01-9.526-.015-15.092-.015Z"/><path class="e" d="M55.9,56.317c-4.544,0-9.088.002-13.632.012-1.254.003-2.612.177-3.372-1.031-.425-.675-.347-1.548-.389-2.324-.067-1.232-.132-2.463-.195-3.695-.469-9.138-.839-18.282-1.003-27.43-.038-2.123-.065-4.246-.078-6.369-.013-2.059.162-4.125-.756-6.032-1.848-3.84-6.072-4.017-9.8-4.125-3.79-.111-8.085-.153-10.344,3.45-1.088,1.735-1.226,3.995-1.593,5.963-.399,2.138-.788,4.277-1.168,6.418-3.162,17.801-5.741,35.706-7.913,53.654-2.133,17.627-3.858,35.306-5.11,53.018-.139,1.971.033,3.802,1.204,5.466,1.14,1.619,2.871,2.692,4.832,2.964,2.256.312,4.665.09,6.941.09,2.443,0,4.885,0,7.328,0,9.419,0,18.839-.001,28.258-.001,9.314,0,18.627,0,27.941,0,4.712,0,9.425,0,14.137,0,2.444,0,4.888,0,7.332,0,2.325,0,4.888.304,7.176-.161,1.823-.371,3.4-1.494,4.446-3.017,1.163-1.693,1.234-3.582,1.094-5.554-.308-4.348-.647-8.695-1.012-13.039-.75-8.924-1.615-17.838-2.586-26.741-1.968-18.052-4.354-36.063-7.258-53.988-.709-4.379-1.451-8.753-2.229-13.121-.381-2.138-.771-4.275-1.171-6.41-.356-1.901-.507-4.03-1.609-5.679-2.374-3.552-6.74-3.442-10.569-3.3-1.781.066-3.854.016-5.538.635-1.924.707-3.424,2.149-4.184,4.053-.736,1.843-.503,3.93-.517,5.876-.015,2.128-.043,4.256-.083,6.384-.082,4.403-.213,8.804-.377,13.204-.175,4.681-.389,9.36-.63,14.038-.064,1.233-.129,2.466-.196,3.699-.042.77.019,1.571-.459,2.215-.868,1.167-2.393.894-3.672.891-4.416-.009-8.831-.011-13.247-.011-3.089,0-3.094,4.8,0,4.8,4.351,0,8.701.002,13.052.011,1.909.004,3.769.069,5.496-.889,1.58-.877,2.804-2.4,3.306-4.137.613-2.117.421-4.634.534-6.823.12-2.332.233-4.664.337-6.996.194-4.314.36-8.629.487-12.946.124-4.2.211-8.401.247-12.602.008-.903.013-1.806.016-2.709.002-.768-.144-1.711.211-2.43.611-1.236,1.912-1.246,3.117-1.337,1.578-.119,3.154-.179,4.736-.13,1.329.04,3.022-.172,3.884,1.066.446.641.49,1.535.632,2.282.188.986.373,1.973.556,2.959.384,2.068.76,4.138,1.127,6.209,3.003,16.929,5.481,33.952,7.564,51.018s3.785,34.211,5.048,51.372c.074,1.001.146,2.002.216,3.004.051.72.181,1.474-.124,2.157-.534,1.196-1.683,1.349-2.866,1.349-4.661,0-9.322,0-13.983-.001-9.013,0-18.026-.001-27.04-.001-18.126,0-36.255.087-54.381.003-1.171-.005-2.225-.315-2.666-1.502-.262-.704-.111-1.489-.059-2.218.076-1.074.154-2.147.233-3.221.308-4.156.642-8.31,1.001-12.462.741-8.569,1.586-17.129,2.528-25.678,1.901-17.242,4.194-34.443,6.972-51.566.675-4.161,1.379-8.318,2.117-12.468.368-2.07.744-4.139,1.129-6.206.184-.986.369-1.972.557-2.958.135-.706.178-1.529.619-2.127.899-1.219,2.71-.98,4.038-1.016,1.657-.045,3.306.037,4.958.167,1.166.092,2.274.254,2.767,1.461.286.701.157,1.538.159,2.275.003,1.043.01,2.087.02,3.13.08,8.538.365,17.074.752,25.604.102,2.255.212,4.51.328,6.764.112,2.171-.071,4.644.573,6.735.545,1.77,1.876,3.324,3.547,4.126,1.728.829,3.532.746,5.399.743,4.285-.008,8.571-.01,12.856-.01,3.089,0,3.094-4.8,0-4.8Z"/><path class="g" d="M246.981,63.228c6.597-3.78,10.539-10.738,11.986-18.309,1.717-17.554-3.984-42.518-24.867-42.518s-26.583,24.965-24.867,42.518c1.292,6.759,4.572,13.029,9.955,16.985,1.988,1.461,4.262,2.606,6.829,3.345.844.243,1.418,1.022,1.418,1.9.001,12.782.002,65.351.002,65.351,0,3.998,2.784,6.752,6.669,6.752,4.034,0,6.669-2.779,6.669-6.752v-65.349c0-.88.578-1.66,1.423-1.904,1.726-.498,3.32-1.18,4.783-2.019Z"/><path class="g" d="M285.213,21.66l.03.798c.337,9.044.704,18.916.704,18.916.051,1.372,1.056,1.872,2.279,1.872h.736c1.236,0,2.247-.524,2.28-1.912l1.629-34.325c.096-2.027,1.505-3.612,3.211-3.612,1.671,0,3.063,1.517,3.204,3.499.945,13.323,2.193,34.438,2.193,34.438.032,1.388,1.044,1.912,2.28,1.912h.736c1.222,0,2.228-.5,2.279-1.872l1.252-33.618c0-2.408,1.738-4.359,3.881-4.359h.147c2.021,0,3.703,1.741,3.868,4.003l3.027,42.831c0,6.539-3.827,14.259-14.519,16.154-.813.144-1.399.865-1.399,1.691,0,9.087,0,64.423,0,64.423,0,3.973-2.634,6.752-6.669,6.752-3.885,0-6.669-2.754-6.669-6.752,0,0,0-55.917,0-64.638,0-.802-.552-1.503-1.336-1.674-10.03-2.188-14.583-9.626-14.583-15.956l3.027-42.831c.165-2.262,1.848-4.003,3.868-4.003h.147c2.144,0,3.881,1.952,3.881,4.359,0,0,.245,6.572.518,13.904Z"/><path class="e" d="M248.193,65.3c3.647-2.133,6.659-5.164,8.883-8.75,2.169-3.498,3.904-7.781,4.318-11.901.646-6.431.193-13.081-1.197-19.386-1.38-6.261-3.903-12.444-8.171-17.304C247.694,3.027,241.586.261,235.049.018c-6.627-.246-13.058,2.08-17.778,6.775-4.538,4.514-7.283,10.619-8.855,16.748-1.62,6.313-2.161,12.972-1.737,19.471.552,8.467,5.14,17.016,12.317,21.669.94.61,1.927,1.141,2.949,1.6.581.261,1.171.507,1.768.731.272.102.547.199.823.29l.42.134c.455.173.557.192.305.056-.08.162-.101-.639-.224-.159-.037.145,0,.369,0,.518,0,.407,0,.815,0,1.222,0,2.038,0,4.077,0,6.115,0,5.571,0,11.142,0,16.712,0,11.228,0,22.456,0,33.684,0,2.291-.035,4.584,0,6.875.052,3.368,1.65,6.646,4.758,8.187,3.545,1.757,8.342,1.219,11.055-1.801,2.315-2.576,2.324-5.727,2.325-8.928v-10.521c0-10.475,0-20.95,0-31.425v-13.475c0-2.294.252-4.748,0-7.032-.004-.035.03-.295,0-.315.405.275-.932.452-.125.345.54-.071,1.165-.377,1.671-.573,1.194-.464,2.353-.997,3.471-1.623,2.696-1.509.278-5.657-2.423-4.145-.949.531-1.914,1.005-2.94,1.369-1.113.396-2.284.626-3.15,1.502-.86.87-1.256,1.998-1.304,3.204-.024.602,0,1.21,0,1.813v9.317c0,9.994,0,19.987,0,29.981v22.695c0,.483.008.968,0,1.451-.045,2.684-1.712,4.419-4.439,4.36-2.535-.055-4.057-1.905-4.099-4.381-.01-.626,0-1.252,0-1.878,0-9.172,0-18.344,0-27.516,0-10.73,0-21.459,0-32.189,0-2.055.392-4.662-.908-6.378-1.348-1.779-3.995-2.013-5.893-3.02-1.824-.968-3.449-2.19-4.889-3.669-2.734-2.806-4.615-6.35-5.748-10.081-.951-3.134-1.084-6.279-1.047-9.54.071-6.195.969-12.242,3.174-18.105,1.901-5.054,5.104-9.945,9.718-12.706,4.89-2.926,11.268-3.38,16.747-1.428,2.375.846,4.708,2.402,6.546,4.23,1.986,1.975,3.422,4.118,4.73,6.703,2.631,5.196,3.968,11.419,4.407,17.219.231,3.053.244,6.124.031,9.178-.248,3.545-1.608,7.145-3.394,10.211-1.843,3.164-4.373,5.806-7.54,7.658-2.665,1.559-.252,5.709,2.423,4.145Z"/><path class="e" d="M282.813,21.66c.238,6.404.477,12.809.715,19.213.108,2.891,1.828,4.693,4.774,4.773,2.89.079,5.123-1.327,5.342-4.371.465-6.471.616-12.98.923-19.46l.544-11.456c.047-.986.071-1.976.14-2.961.049-.691.4-1.972,1.084-1.521.914.603.657,2.54.72,3.455.108,1.56.213,3.121.316,4.681.216,3.255.425,6.511.631,9.767.322,5.106.636,10.212.942,15.319.062,1.035.022,2.183.247,3.201.719,3.252,4.93,4.135,7.636,2.836,2.812-1.35,2.387-4.899,2.484-7.519l.906-24.326c.072-1.927-.091-4.039.233-5.946.355-2.084,2.727-1.966,3.07.053.072.425.062.88.093,1.309.512,7.241,1.024,14.483,1.535,21.724.457,6.468.98,12.935,1.372,19.407.192,3.177-.88,6.591-2.966,9.065-1.74,2.064-4.022,3.528-6.585,4.373-1.669.55-3.841.555-5.13,1.877-.947.971-1.21,2.201-1.21,3.507,0,7.021,0,14.042,0,21.063,0,9.402,0,18.805,0,28.207,0,4.85.082,9.708,0,14.558-.037,2.203-1.155,3.945-3.382,4.303-2.361.38-4.473-.782-5.028-3.096-.336-1.401-.127-3.084-.127-4.509,0-7.643,0-15.285,0-22.928,0-9.209,0-18.419,0-27.628,0-3.052,0-6.104,0-9.156,0-2.166-.175-4.378-2.491-5.377-1.531-.66-3.228-.85-4.761-1.561-1.291-.6-2.565-1.338-3.656-2.258-1.895-1.598-3.48-3.721-4.251-5.895-.571-1.609-.814-2.747-.748-4.324.089-2.113.299-4.227.448-6.336l1.775-25.109.661-9.347c.042-.596.037-1.219.128-1.81.208-1.347,1.552-2.29,2.558-1.201.906.98.607,3.21.652,4.429l.409,10.974c.115,3.079,4.915,3.094,4.8,0-.14-3.754-.28-7.508-.419-11.262-.081-2.177.054-4.517-1.175-6.427-1.906-2.964-5.944-3.937-8.848-1.811-1.832,1.342-2.619,3.332-2.793,5.533-.519,6.538-.925,13.088-1.387,19.63l-1.539,21.78c-.239,3.384.578,6.739,2.271,9.687,1.522,2.649,3.719,4.862,6.263,6.537,1.462.962,3.065,1.705,4.707,2.303.795.29,1.607.533,2.429.734.442.108.777.209.279-.251-.277-.256-.063-.25-.111.037-.17,1.019,0,2.217,0,3.25,0,1.621,0,3.242,0,4.863,0,4.249,0,8.498,0,12.747,0,9.595,0,19.19,0,28.785,0,4.898-.083,9.804,0,14.701.054,3.173,1.46,6.186,4.23,7.865,2.862,1.735,6.886,1.739,9.745-.006,3.272-1.998,4.163-5.476,4.163-9.047,0-6.824,0-13.649,0-20.473,0-9.639,0-19.278,0-28.916,0-3.543,0-7.086,0-10.629,0-.353.26-3,0-3.171.315.207-.915.573.035.508.379-.026.786-.163,1.155-.253.897-.221,1.781-.495,2.641-.831,1.483-.579,2.921-1.262,4.231-2.173,4.679-3.253,7.442-8.36,7.819-14.024.119-1.788-.139-3.613-.265-5.394l-1.763-24.94-.747-10.575c-.197-2.782-.139-5.732-2.384-7.797-2.564-2.358-6.661-2.106-8.89.584-1.234,1.489-1.588,3.225-1.658,5.098l-.33,8.863c-.288,7.726-.575,15.451-.863,23.177-.008.212-.121.697-.033.896.006.013-.016.111-.004.117-.091-.049.265-.427.272-.487.015-.133.243-.014-.189-.04-.211-.013-.942.013-.932-.018-.01.032.366.449.352.458.079-.053-.055-.919-.06-1.017-.282-4.734-.572-9.467-.868-14.2-.403-6.438-.604-12.94-1.282-19.355-.409-3.866-4.129-7.107-8.003-5.109-2.168,1.118-3.081,3.427-3.207,5.738-.391,7.124-.676,14.256-1.015,21.382l-.509,10.717c-.006.131-.192,1.838-.089,1.884-.33-.146.384-.502.389-.493.041.067-1.235-.085-1.306.004.23-.29.447,1.212.401-.027-.238-6.383-.475-12.766-.713-19.148-.115-3.079-4.915-3.094-4.8,0Z"/><path class="g" d="M297.028,249.642c-1.657,24.402-3.512,48.767-6.182,82.034-.149,1.856-1.556,3.312-3.302,3.312-8.728-.002-15.083-.015-23.596-.026-8.513.011-14.868.024-23.596.026-1.746,0-3.162-1.454-3.302-3.312-3.195-42.214-4.258-56.299-6.182-82.034"/><path class="e" d="M294.628,249.642c-.972,14.308-2.016,28.612-3.107,42.912-.625,8.188-1.265,16.376-1.913,24.562-.358,4.523-.719,9.047-1.082,13.57-.13,1.619-.385,1.902-1.96,1.902-2.134,0-4.268-.002-6.402-.004-8.392-.008-16.783-.021-25.175-.009-4.154.006-8.309.011-12.463.013-1.111,0-2.726.461-3.064-.892-.244-.977-.176-2.182-.253-3.192-.089-1.177-.178-2.354-.267-3.531-1.021-13.497-2.043-26.994-3.06-40.492-.771-10.232-1.539-20.465-2.305-30.697-.103-1.38-.206-2.76-.31-4.14-.097-1.293-1.034-2.4-2.4-2.4-1.224,0-2.497,1.1-2.4,2.4.806,10.774,1.614,21.548,2.425,32.322,1.028,13.651,2.061,27.302,3.094,40.953.177,2.345.355,4.691.532,7.036.161,2.124.289,4.171,1.882,5.772,1.647,1.654,3.702,1.662,5.888,1.661s4.352-.003,6.527-.005c8.738-.009,17.475-.016,26.213-.005,2.077.003,4.155.005,6.232.007,2.274.002,4.667.213,6.925-.056,1.886-.225,3.562-1.428,4.399-3.14,1.006-2.058.836-4.69,1.015-6.928.71-8.878,1.413-17.757,2.1-26.637,1.179-15.228,2.313-30.46,3.366-45.697.122-1.761.242-3.522.362-5.284.088-1.295-1.166-2.4-2.4-2.4-1.372,0-2.312,1.102-2.4,2.4h0Z"/><path class="d" d="M235.397,227.392c-.349,3.731-.87,8.479-1.247,11.704l-.031.264c9.049,0,50.612,0,59.658,0-.022-.169-.033-.264-.033-.264-.428-3.66-1.041-9.283-1.378-13.154-.086-.985-.815-1.729-1.686-1.729h-53.466c-.871,0-1.6.745-1.686,1.729-.04.46-.084.946-.131,1.45Z"/><path class="d" d="M301.518,239.361h-75.143c-.789,0-1.429.64-1.429,1.429,0,5.427,0,11.854,0,17.281,0,.789.64,1.429,1.429,1.429h75.143c.789,0,1.429-.64,1.429-1.429,0-5.427,0-11.854,0-17.281,0-.789-.64-1.429-1.429-1.429Z"/><path class="e" d="M296.144,239.096c-.316-2.716-.616-5.433-.896-8.153-.122-1.189-.241-2.378-.352-3.568-.146-1.563-.182-3.185-1.381-4.364-1.313-1.291-2.863-1.198-4.507-1.198h-49.114c-1.163,0-2.488-.153-3.637.12-3.605.856-3.237,5.328-3.527,8.191-.303,2.993-.631,5.984-.98,8.973-.15,1.29,1.211,2.4,2.4,2.4,1.422,0,2.249-1.107,2.4-2.4.292-2.509.57-5.021.832-7.534.126-1.206.248-2.412.363-3.619.019-.199.291-1.548.153-1.655.079.061-.663.343-.674.325.112.188,2.163,0,2.384,0h49.842c.277,0,.889.122,1.144,0,.339-.162-.697-.198-.597-.325-.186.236.176,1.893.209,2.235.065.67.132,1.339.2,2.009.292,2.857.606,5.712.938,8.564.15,1.287.996,2.4,2.4,2.4,1.181,0,2.551-1.104,2.4-2.4h0Z"/><path class="e" d="M301.518,236.961h-31.596c-8.12,0-16.241,0-24.361,0h-16.814c-1.12,0-2.399-.14-3.488.177-2.09.608-2.713,2.541-2.713,4.494,0,1.841,0,3.682,0,5.523,0,3.663-.251,7.428.019,11.079.163,2.201,1.857,3.586,3.993,3.665.441.016.886,0,1.327,0h69.938c1.191,0,2.395.05,3.585,0,2.733-.116,3.938-2.149,3.938-4.671,0-3.809,0-7.619,0-11.428,0-1.713.107-3.467-.019-5.174-.161-2.181-1.744-3.427-3.81-3.665-1.29-.149-2.4,1.209-2.4,2.4,0,1.421,1.107,2.251,2.4,2.4l-.971-.971c0,.281,0,.562,0,.843,0,.43,0,.86,0,1.29,0,.884,0,1.769,0,2.653,0,1.816,0,3.633,0,5.449,0,1.782,0,3.565,0,5.347,0,.38-.087.911,0,1.28v.419c1.106-.648,1.429-.972.97-.971-.015-.006-.037.005-.053,0-.257-.087-.695,0-.963,0h-18.613c-14.883,0-29.766,0-44.65,0h-7.227c-1.056,0-2.441-.237-3.479,0-.045.01-.114-.018-.157,0l.971.971c0-.281,0-.562,0-.843,0-.43,0-.86,0-1.29,0-.884,0-1.769,0-2.653,0-3.599,0-7.197,0-10.796,0-.38.087-.911,0-1.28v-.419c-1.106.648-1.429.972-.97.971.015.006.037-.005.053,0,.094.032.236-.009.335,0,.501.045,1.027,0,1.53,0,12.675,0,25.35,0,38.025,0h35.199c3.089,0,3.094-4.8,0-4.8Z"/><path class="d" d="M8.919,304.057c-1.601,1.613-2.45,3.873-2.627,6.139s.274,4.543.993,6.699c2.291,6.876,9.491,10.507,16.518,11.768,11.122,1.996,20.604,2.476,31.874,2.476s20.752-.48,31.874-2.476c7.027-1.261,14.227-4.891,16.518-11.768.718-2.156,1.17-4.433.993-6.699-.177-2.266-1.026-4.526-2.627-6.139"/><path class="e" d="M7.222,302.36c-3.544,3.757-3.953,9.061-2.648,13.865,1.159,4.266,3.673,7.678,7.254,10.235,3.268,2.333,7.235,3.75,11.16,4.484,5.142.961,10.358,1.61,15.571,2.02,10.157.8,20.464.817,30.633.243,5.085-.287,10.153-.821,15.187-1.596,4.368-.672,8.615-1.526,12.571-3.583,4.166-2.167,7.577-5.555,9.249-9.986,1.961-5.198,1.921-11.451-2.07-15.681-2.124-2.252-5.514,1.147-3.394,3.394,2.797,2.966,2.216,7.703.772,11.179-1.236,2.977-3.735,5.175-6.507,6.697-3.256,1.787-6.851,2.535-10.482,3.128-4.407.72-8.845,1.216-13.3,1.522-9.198.632-18.497.649-27.705.198-4.402-.215-8.804-.584-13.171-1.189-3.974-.55-8.059-1.085-11.802-2.604-3.377-1.37-6.532-3.614-8.273-6.881-1.881-3.531-2.623-8.901.347-12.05,2.119-2.246-1.269-5.647-3.394-3.394h0Z"/><path class="f" d="M7.531,288.445c-1.972.885-3.344,2.306-4.203,4.025-.792,1.586-.28,10.919,1.007,12.195.575.571,1.436,1.224,2.326,1.773.53.202.874.335.874.335,6.611,2.545,27.296,4.513,48.131,4.513s41.487-1.964,48.115-4.507l1.111-.426c.662-.356,1.247-.749,1.63-1.145,1.421-1.468,2.408-10.007,1.572-12.07-.673-1.661-1.9-3.444-4.174-5.247"/><path class="e" d="M6.319,286.373c-2.294,1.089-4.656,3.198-5.402,5.713-.47,1.583-.4,3.417-.346,5.05.066,2.003.243,4.039.649,6.003.437,2.112,1.37,3.339,3.121,4.623,2.974,2.181,7.321,2.69,10.866,3.257,5.496.88,11.047,1.421,16.596,1.824,13.596.986,27.266,1.1,40.88.418,5.95-.298,11.898-.739,17.813-1.459,4.208-.513,8.52-1.038,12.593-2.26,2.096-.629,4.57-1.474,5.748-3.444,1.122-1.876,1.407-4.281,1.681-6.404.275-2.135.53-4.48.053-6.608-.618-2.757-2.833-5.168-4.953-6.89-1.005-.817-2.411-.983-3.394,0-.844.844-1.011,2.572,0,3.394.959.779,1.908,1.619,2.632,2.628.293.409.553.844.782,1.292-.029-.057.349.849.228.478-.079-.242.067.323.076.374.021.115.051.441-.005-.071.015.141.031.288.036.431.014.41.032.817.028,1.227-.009.953-.076,1.906-.177,2.853-.153,1.43-.43,3.161-.995,4.639.198-.518-.132.215-.216.357.363-.616.162-.159-.04-.049-.206.113-.392.265-.6.375-.573.304-1.251.506-1.87.701-3.284,1.032-6.759,1.542-10.162,1.995-5.315.707-10.669,1.141-16.02,1.464-12.488.753-25.023.801-37.518.166-5.5-.28-10.998-.685-16.47-1.317-3.853-.445-7.744-.968-11.5-1.962-.709-.188-1.411-.397-2.1-.65-.303-.111-.567-.234-.839-.394-.283-.167-.561-.375-.817-.579-.13-.106-.257-.215-.381-.328-.297-.309-.344-.338-.142-.088,0,0,.309.178-.005-.058.193.145.148.46.007-.014-.096-.322-.185-.644-.259-.973-.229-1.029-.27-1.445-.362-2.415-.182-1.905-.244-3.825-.105-5.735.009-.129.076-.481-.02.079.003-.018.096-.458.086-.463.001,0,.163-.605-.013-.059-.162.503.36-.606.456-.745.711-1.033,1.684-1.698,2.804-2.23,1.171-.556,1.475-2.233.861-3.284-.701-1.198-2.108-1.419-3.284-.861h0Z"/><path class="h" d="M6.536,274.245c-2.587,1.913-3.696,5.055-3.674,8.403.022,2.413.848,5.588,2.131,6.86.758.766,2.024,1.673,3.191,2.286,7.235,2.425,27.288,4.273,47.482,4.273,19.873,0,39.609-1.79,47.126-4.164,1.241-.496,2.573-1.206,3.256-1.917,1.402-1.468,2.544-4.24,2.435-6.642-.13-2.642.011-6.479-4.729-10.436"/><path class="e" d="M4.839,272.548c-4.092,3.17-5.021,8.872-3.936,13.68.538,2.384,1.573,4.415,3.507,5.935,1.634,1.285,3.267,2.056,5.261,2.552,3.837.954,7.792,1.47,11.713,1.934,5.308.629,10.642,1.037,15.978,1.325,12.037.65,24.111.658,36.149.024,9.24-.486,18.782-1.034,27.81-3.206,2.214-.533,4.492-1.325,6.199-2.897,2.079-1.914,3.201-5.016,3.356-7.783.282-5.045-1.578-9.604-5.426-12.902-.984-.843-2.428-.966-3.394,0-.863.863-.988,2.547,0,3.394,1.489,1.276,2.863,2.748,3.476,4.652.448,1.392.485,2.318.54,3.876.064,1.78-.448,4.015-1.834,5.262-1.115,1.004-2.658,1.396-4.077,1.741-7.846,1.909-16.099,2.433-24.131,2.92-10.996.667-22.026.782-33.034.375-9.137-.338-18.365-.875-27.392-2.4-3.009-.508-7.216-.884-9.062-3.388-1.222-1.658-1.429-4.361-1.227-6.332.224-2.188,1.178-4.022,2.917-5.368,1.026-.794.835-2.559,0-3.394-1.012-1.012-2.366-.797-3.394,0h0Z"/><path class="i" d="M105.576,260.254l.932.829c3.614,3.215,3.931,8.907.449,12.265-.633.611-1.354,1.166-2.153,1.647-2.687,1.618-6.17,2.348-9.543,2.135-2.637-.167-5.148.834-6.98,2.737-.224.233-.488.451-.801.655-1.742,1.132-3.701,1.628-5.954,1.808-3.196.256-6.063-.369-8.462-1.64-2.469-1.308-5.474-1.312-7.92.039-2.303,1.272-5.305,2.311-9.467,2.311s-7.016-.737-9.173-1.877c-2.383-1.26-5.182-1.32-7.564-.057-2.51,1.332-5.578,1.815-8.835,1.554-2.253-.18-4.212-.676-5.954-1.808-.485-.316-.885-.666-1.216-1.057-1.672-1.973-4.261-2.827-6.842-2.664-3.373.213-6.857-.517-9.543-2.135-.261-.157-.514-.323-.758-.495-4.676-3.303-4.436-10.36.23-13.677l.8-.569"/><path class="d" d="M55.676,228.062c-9.453,0-19.378,1.368-28.363,5.321-8.635,3.799-16.564,10.899-20.005,20.76h0c-1.68,4.841,1.124,9.151,6.232,9.553,14.099,1.11,28.084,1.809,42.129,1.732,14.043.077,27.902-.603,42.145-1.733,5.105-.405,7.909-4.715,6.23-9.553h0c-3.44-9.861-11.37-16.962-20.005-20.761-8.985-3.953-18.535-5.321-28.363-5.321Z"/><path class="e" d="M55.676,225.662c-15.279.034-32.089,3.458-42.923,15.075-2.472,2.65-4.605,5.662-6.172,8.934-1.466,3.059-2.799,6.42-1.801,9.84.909,3.117,3.479,5.441,6.598,6.248,2.048.531,4.289.505,6.389.658,2.316.168,4.632.325,6.949.468,18.186,1.122,36.438,1.288,54.638.407,4.588-.222,9.172-.506,13.753-.838,3.835-.278,7.881-.153,10.924-2.863,5.658-5.039,1.703-13.181-1.752-18.243-8.995-13.181-24.899-18.436-40.197-19.477-2.133-.145-4.27-.204-6.407-.209-3.089-.007-3.093,4.793,0,4.8,13.805.03,29.004,2.831,39.012,13.125,2.206,2.269,4.056,4.825,5.507,7.639,1.115,2.161,2.526,4.941,1.659,7.287-.818,2.215-3.183,2.719-5.53,2.9-4.186.323-8.374.609-12.565.847-16.685.947-33.43,1.06-50.125.304-4.216-.191-8.429-.434-12.64-.72-2.154-.146-4.307-.303-6.46-.469-1.28-.099-2.523-.246-3.6-1.01-1.784-1.266-2.033-3.435-1.313-5.583.973-2.902,2.541-5.647,4.366-8.094,8.333-11.177,22.876-15.271,36.192-16.065,1.83-.109,3.663-.157,5.496-.161,3.088-.007,3.094-4.807,0-4.8Z"/><path class="e" d="M103.878,261.951c1.033.919,2.043,1.793,2.616,3.088.667,1.507.7,3.355.024,4.867-1.725,3.858-7.069,4.976-10.837,4.846-2.462-.085-4.852.335-6.959,1.685-.907.581-1.607,1.378-2.456,2.013-.856.641-1.938.979-2.966,1.214-2.167.495-4.519.455-6.663-.129-1.114-.303-2.072-.808-3.12-1.27-1.281-.564-2.613-.877-4.015-.944-2.502-.119-4.454.87-6.643,1.883-1.818.841-3.845,1.285-5.84,1.398-2.241.127-4.543.018-6.721-.549-1.979-.515-3.653-1.707-5.717-2.07-1.32-.232-2.606-.236-3.926.003s-2.415.874-3.626,1.389c-2.104.894-4.449,1.057-6.704.9-2.052-.143-4.233-.644-5.695-2.178-1.621-1.701-3.64-2.847-5.978-3.211-2.751-.429-5.43.051-8.155-.762-1.991-.594-4.059-1.646-5.052-3.557-1.595-3.068-.153-6.293,2.586-8.241,1.055-.75,1.557-2.094.861-3.284-.61-1.043-2.222-1.616-3.284-.861-1.639,1.165-3.119,2.384-4.135,4.159-1.09,1.905-1.641,4.199-1.429,6.391.509,5.279,4.468,8.676,9.375,10.077,1.343.384,2.744.6,4.136.705,1.352.102,2.738-.144,4.079.041.948.131,1.902.47,2.677,1.04,1.061.78,1.796,1.838,2.957,2.533,4.646,2.782,11.368,2.614,16.184.391,1.01-.466,1.922-.921,3.064-.932,1.214-.012,2.209.391,3.286.903,2.16,1.026,4.414,1.542,6.785,1.796,2.805.3,5.693.189,8.448-.436,1.065-.242,2.093-.584,3.102-1.002,1.064-.441,2.075-1.108,3.17-1.453,2.618-.824,4.541.54,6.91,1.405,2.644.966,5.565,1.167,8.343.821,2.72-.338,5.364-1.17,7.418-3.057.756-.694,1.506-1.305,2.488-1.66,1.221-.442,2.368-.362,3.64-.341,5.771.096,12.581-2.362,14.915-8.076.988-2.419,1.043-5.253.115-7.704-.811-2.143-2.177-3.728-3.862-5.227-2.301-2.047-5.708,1.336-3.394,3.394h0Z"/></g></svg>