<svg xmlns="http://www.w3.org/2000/svg" width="169" height="130" viewBox="176.04525756835938 177.0857391357422 176.04525756835938 135.41941833496094" style=""><defs><style>.a{fill:#f2635f;}.b{fill:#211715;}.c{fill:#ffffff;}.d{fill:#3d8dcc;}.e{fill:#645d5c;}</style></defs><path class="a" d="M57.407,40.653c-4.374-6.432-11.541-11.022-20.176-13.38-5.157-1.409-13.548-1.125-17.8.7a26.5,26.5,0,0,0-15.7,17.887,48.742,48.742,0,0,0,1.035,26.2A56.829,56.829,0,0,0,17.04,92.838c9.489,10.646,21.2,17.1,33.881,21.25a20.763,20.763,0,0,0,12.9,0c12.7-4.153,24.465-10.6,33.956-21.252a56.813,56.813,0,0,0,12.279-20.777,48.742,48.742,0,0,0,1.035-26.2,26.5,26.5,0,0,0-15.7-17.887c-4.253-1.829-12.644-2.113-17.8-.7C68.948,29.631,61.78,34.221,57.407,40.653Z"/><path class="b" d="M59.479,39.442A37.185,37.185,0,0,0,31.206,24.021a29.336,29.336,0,0,0-15.23,2.956A29.384,29.384,0,0,0,4.662,37.513C1.694,42.37.484,48.02.115,53.644A50.412,50.412,0,0,0,2.188,71.908,63.82,63.82,0,0,0,21.6,100.7a74.671,74.671,0,0,0,14.49,9.806c2.6,1.349,5.279,2.546,8,3.64a51,51,0,0,0,8.385,2.839,23.706,23.706,0,0,0,10.233-.1,55.941,55.941,0,0,0,8.14-2.814,82.839,82.839,0,0,0,15.411-8.057c9.576-6.471,18.038-15.391,23.08-25.864,5.231-10.864,7.227-23.73,3.913-35.488-2.784-9.88-11.413-18.607-21.766-20.2a35.939,35.939,0,0,0-16.118.95A40.61,40.61,0,0,0,60.5,33.553a32.179,32.179,0,0,0-5.168,5.889,2.422,2.422,0,0,0,.861,3.283,2.448,2.448,0,0,0,3.284-.861C64.843,34.086,74.8,29.075,84.171,28.8c4.534-.134,8.871.426,12.864,2.659a24.406,24.406,0,0,1,9.514,9.407c2.433,4.38,3.269,9.487,3.431,14.441A46.079,46.079,0,0,1,107.6,71.833,59.726,59.726,0,0,1,89.5,97.579a69.633,69.633,0,0,1-13.244,8.789,65.345,65.345,0,0,1-14.822,5.9c-5.694,1.315-11.031-.7-16.251-2.817A76.9,76.9,0,0,1,31.289,102.1C13.7,90.321.8,69.077,5.817,47.411c2.014-8.695,8.922-16.5,17.933-18.168a32.915,32.915,0,0,1,26.891,7.463,27.267,27.267,0,0,1,4.693,5.158,2.462,2.462,0,0,0,3.284.861A2.42,2.42,0,0,0,59.479,39.442Z"/><path class="c" d="M307.733,89.455a8.638,8.638,0,0,0,6.43-2.59,9.36,9.36,0,0,0,.07-12.113,8.91,8.91,0,0,0-6.537-2.7l2.529-.071a8.639,8.639,0,0,0,6.43-2.591,9.358,9.358,0,0,0,.07-12.112,8.909,8.909,0,0,0-6.536-2.7h.282a8.635,8.635,0,0,0,6.43-2.59,9.358,9.358,0,0,0,.07-12.112,8.906,8.906,0,0,0-6.537-2.7H278.5a209.13,209.13,0,0,0,1.645-21,18.766,18.766,0,0,0-1.361-8.112,10.613,10.613,0,0,0-4.552-4.666,6.978,6.978,0,0,0-2.726-.816c-2.492-.239-4.259-.166-6.135.785-3.926,1.988-4.461,7.368-5.512,11.035-1.2,4.185-3.317,11.713-4.937,15.806-2.018,4.857-3.009,6.718-5.126,9.12a16.609,16.609,0,0,1-5.127,3.571h0a8.735,8.735,0,0,0-8.739,8.734c0,15.032,0,31.19,0,46.158a8.679,8.679,0,0,0,8.683,8.674H303.9a8.413,8.413,0,0,0,6.265-2.518,9.1,9.1,0,0,0,.067-11.775,8.659,8.659,0,0,0-6.354-2.629Z"/><path class="b" d="M281.159,35.069c.731-6.16,1.1-12.323,1.369-18.518a20.41,20.41,0,0,0-1.671-9.711,12.387,12.387,0,0,0-7.7-6.435c-3.291-.793-7.307-.5-10.082,1.57-2.351,1.753-3.572,4.445-4.364,7.2-1.6,5.567-2.976,11.181-4.793,16.691a47.517,47.517,0,0,1-3.742,8.855,14.824,14.824,0,0,1-6.722,6.1A2.422,2.422,0,0,0,242.6,44.1a2.449,2.449,0,0,0,3.284.861,19.162,19.162,0,0,0,7.237-5.967,32.445,32.445,0,0,0,3.51-6.709,139.123,139.123,0,0,0,5.22-16.118c1.124-3.928,1.438-10.634,6.566-11.269A7.757,7.757,0,0,1,275.8,7.739c1.645,2.119,1.985,5.131,1.963,7.728a180,180,0,0,1-1.405,19.6,2.414,2.414,0,0,0,2.4,2.4,2.457,2.457,0,0,0,2.4-2.4Z"/><path class="b" d="M292.427,91.855h13c2.582,0,5.068-.015,7.479-1.147,4.188-1.969,6.357-6.736,5.84-11.224a11.072,11.072,0,0,0-3.052-6.678,11.572,11.572,0,0,0-7.993-3.158c-3.09-.06-3.09,4.74,0,4.8a6.105,6.105,0,0,1,6.311,5.775c.169,3.21-1.527,6.173-5.042,6.748a27.9,27.9,0,0,1-4.394.084H292.427c-3.089,0-3.094,4.8,0,4.8Z"/><path class="b" d="M294.919,74.377h13c2.582,0,5.068-.015,7.479-1.148,4.188-1.968,6.357-6.735,5.84-11.223a11.078,11.078,0,0,0-3.052-6.679,11.576,11.576,0,0,0-7.993-3.157c-3.09-.06-3.09,4.74,0,4.8a6.105,6.105,0,0,1,6.311,5.774c.169,3.21-1.527,6.174-5.042,6.749a27.9,27.9,0,0,1-4.394.084H294.919c-3.089,0-3.094,4.8,0,4.8Z"/><path class="b" d="M295.165,56.97h12.227a28.479,28.479,0,0,0,5.779-.293,10.547,10.547,0,0,0,8.175-8.572,11.348,11.348,0,0,0-4.3-11.322,12.356,12.356,0,0,0-7.332-2.019H284.619c-3.089,0-3.094,4.8,0,4.8h22.8c.994,0,1.99-.016,2.984,0a6.088,6.088,0,0,1,6.24,4.967c.578,3.01-.815,6.29-3.847,7.285a15.507,15.507,0,0,1-4.815.354H295.165c-3.089,0-3.094,4.8,0,4.8Z"/><path class="b" d="M303.873,91.931a5.846,5.846,0,0,1,5.8,4.07,6.593,6.593,0,0,1-1.489,6.518c-1.921,1.835-4.668,1.534-7.108,1.534H244.616c-3.088,0-3.093,4.8,0,4.8h57.667c.6,0,1.206.01,1.808,0a10.676,10.676,0,0,0,9.135-5.043,11.824,11.824,0,0,0,.5-10.609c-1.723-3.9-5.712-5.972-9.853-6.066-3.09-.069-3.089,4.731,0,4.8Z"/><path class="d" d="M212.16,106.453h21.772a1.993,1.993,0,0,0,2-1.991V43.577a1.992,1.992,0,0,0-2-1.99H212.16a2,2,0,0,0-2,2v60.866A2,2,0,0,0,212.16,106.453Z"/><path class="b" d="M212.16,108.853h14.678c2.243,0,4.489.028,6.732,0a4.654,4.654,0,0,0,4.048-2c.807-1.263.714-2.709.714-4.146V47.325a22.445,22.445,0,0,0-.112-4.71,4.5,4.5,0,0,0-4.421-3.428c-.7-.024-1.4,0-2.1,0H214.084c-.619,0-1.245-.027-1.864,0a4.505,4.505,0,0,0-4.46,4.4c-.029.671,0,1.35,0,2.022v50.7c0,2.7-.109,5.426,0,8.125a4.516,4.516,0,0,0,4.4,4.422,2.421,2.421,0,0,0,2.4-2.4,2.448,2.448,0,0,0-2.4-2.4c.506.04.325.678.4.1a9.481,9.481,0,0,0,0-1.18V44.637a3.031,3.031,0,0,0,0-.917c-.01-.023.019-.115,0-.133.4.366-.665.213-.307.4a5.68,5.68,0,0,0,1.831,0h19.333c.076,0,.425.052.481,0s.6.459-.249-.122c.011.007-2.7,1.033-.117-.288a11.319,11.319,0,0,0,0,1.316v58.253a4.377,4.377,0,0,0,0,1.1c.2.657.065-.379.255-.137-.063-.08.305.027-.089-.053a4.415,4.415,0,0,0-.829,0H212.16C209.071,104.053,209.066,108.853,212.16,108.853Z"/><path class="e" d="M315.639,235.3a2.139,2.139,0,0,0-1.99-2.128l-7.395-.545a46.879,46.879,0,0,0-5.284-14.021l4.5-5.217a2.14,2.14,0,0,0-.1-2.913c-3.076-3.092-7.082-7.1-10.191-10.189a2.141,2.141,0,0,0-2.912-.1l-5.05,4.357a42.513,42.513,0,0,0-14.186-5.29l-.532-7.276a2.141,2.141,0,0,0-2.129-1.991c-4.362-.011-10.026-.01-14.411,0a2.141,2.141,0,0,0-2.128,1.989l-.57,7.744a48.2,48.2,0,0,0-13.156,5.662l-6.057-5.232a2.139,2.139,0,0,0-2.912.1c-3.093,3.077-7.1,7.083-10.19,10.191a2.143,2.143,0,0,0-.1,2.913l4.93,5.713a41.838,41.838,0,0,0-5.665,13.509l-7.473.546a2.142,2.142,0,0,0-1.992,2.128c-.011,4.362-.01,10.026,0,14.411a2.141,2.141,0,0,0,1.99,2.129l7.377.543a45.4,45.4,0,0,0,5.443,13.86l-4.646,5.379a2.14,2.14,0,0,0,.1,2.913c3.076,3.093,7.082,7.1,10.191,10.189a2.14,2.14,0,0,0,2.912.1l5.249-4.529a43.111,43.111,0,0,0,13.98,5.367l.539,7.371a2.141,2.141,0,0,0,2.129,1.991c4.362.011,10.026.01,14.411,0a2.142,2.142,0,0,0,2.128-1.99l.554-7.519a46.985,46.985,0,0,0,13.871-5.283l5.357,4.628a2.141,2.141,0,0,0,2.913-.1c3.093-3.076,7.1-7.082,10.19-10.191a2.142,2.142,0,0,0,.1-2.912l-4.43-5.134a43.385,43.385,0,0,0,5.376-14.1l7.262-.53a2.141,2.141,0,0,0,1.991-2.129C315.652,245.349,315.651,239.685,315.639,235.3Z"/><path class="c" d="M262.063,221.459c5.822-.324,11.6,1.294,15.879,5.392,7.617,7.3,8.5,21.1,1.8,29.245-7.211,8.763-22.064,10.028-30.587,2.542s-9.588-21.322-2.057-29.71A22.836,22.836,0,0,1,262.063,221.459Z"/><path class="b" d="M318.039,235.3a4.622,4.622,0,0,0-3.752-4.443,23.854,23.854,0,0,0-2.448-.219l-5.585-.411,2.314,1.762a50.221,50.221,0,0,0-5.526-14.595l-.375,2.909,3.407-3.946a22.862,22.862,0,0,0,1.473-1.757,4.61,4.61,0,0,0-.472-5.821c-2.757-3.056-5.851-5.866-8.767-8.772-1.462-1.457-2.829-2.918-5.077-2.694a5.737,5.737,0,0,0-3.215,1.664l-4.488,3.872,2.909-.375a45.671,45.671,0,0,0-14.76-5.532l1.762,2.314-.413-5.64a15.072,15.072,0,0,0-.254-2.6,4.716,4.716,0,0,0-4.782-3.427c-4.41-.064-8.826-.01-13.236,0-2.22,0-4.338.82-5.084,3.117a10.883,10.883,0,0,0-.324,2.531l-.477,6.487,1.762-2.315a51.677,51.677,0,0,0-13.729,5.905l2.908.375-4.205-3.632c-.6-.519-1.192-1.053-1.8-1.559a4.667,4.667,0,0,0-5.587-.555,15.538,15.538,0,0,0-2.332,2.17q-1.22,1.215-2.436,2.431-2.388,2.386-4.771,4.778c-1.657,1.662-3.275,3.329-2.558,5.883a7.237,7.237,0,0,0,1.753,2.67l4.219,4.89-.375-2.909a45.066,45.066,0,0,0-5.907,14.083l2.314-1.762-5.645.412c-.716.052-1.434.089-2.147.177a4.605,4.605,0,0,0-4.073,4.485c-.221,4.246-.01,8.563,0,12.815,0,2.247.209,4.382,2.4,5.582a7.137,7.137,0,0,0,3.01.618l6.358.468-2.315-1.762A48.742,48.742,0,0,0,223.4,267.4l.375-2.908-3.489,4.04c-.453.523-.918,1.038-1.345,1.582a4.616,4.616,0,0,0,.285,6.064c2.736,3.068,5.854,5.87,8.767,8.772,1.538,1.532,3.024,3.069,5.4,2.652a6.124,6.124,0,0,0,2.954-1.671l4.629-4-2.909.376a46.3,46.3,0,0,0,14.554,5.609l-1.762-2.315.407,5.567a23.737,23.737,0,0,0,.218,2.442,4.61,4.61,0,0,0,4.443,3.753c4.381.227,8.834.011,13.222,0,2.166,0,4.188-.42,5.244-2.545a7.674,7.674,0,0,0,.553-2.932l.474-6.435-1.762,2.314a50.368,50.368,0,0,0,14.444-5.525l-2.908-.375,4.023,3.476c.444.383.88.78,1.334,1.152a4.638,4.638,0,0,0,6.167.021c3.084-2.7,5.873-5.835,8.765-8.737,1.5-1.5,3.077-2.9,2.842-5.225A5.634,5.634,0,0,0,306.7,269.4l-3.99-4.624.376,2.909a46.557,46.557,0,0,0,5.617-14.678l-2.314,1.762,4-.292a19.952,19.952,0,0,0,4.535-.469c3.7-1.2,3.12-5.349,3.123-8.419q0-5.145-.008-10.29c-.008-3.088-4.808-3.094-4.8,0q.012,4.38.009,8.761,0,2.131,0,4.264a5.94,5.94,0,0,0,0,1c.239,1.325-.253-.121.126.146-.08-.057.421.055.185-.022a4.789,4.789,0,0,0-1.43.1l-2.351.172-3.384.247a2.457,2.457,0,0,0-2.314,1.762,42.563,42.563,0,0,1-5.134,13.531,2.468,2.468,0,0,0,.375,2.908l3.768,4.367c.128.149.437.672.631.731.074.023-.305-.4-.144-.307q.227-.366-.2.137-.281.284-.563.566-2.282,2.292-4.569,4.579c-1.487,1.487-3.129,2.907-4.507,4.5-.363.419-.277.181.018.212s.17.247.058.046c-.157-.28-.647-.559-.889-.767l-4.338-3.748a2.485,2.485,0,0,0-2.909-.375,46.1,46.1,0,0,1-13.3,5.041,2.447,2.447,0,0,0-1.762,2.314l-.331,4.491c-.063.853-.131,1.7-.188,2.558,0,.071-.08.4-.034.459-.347-.441,1-.4-.516-.4q-5.5.012-11,0l-1.444,0c-.189,0-1.059-.123-1.183,0,.264-.255.2.5.266.341a6.045,6.045,0,0,0-.142-1.954l-.392-5.349a2.459,2.459,0,0,0-1.762-2.314,42.3,42.3,0,0,1-13.407-5.125,2.466,2.466,0,0,0-2.908.375l-4.358,3.76c-.168.145-.747.487-.815.7-.058.187.327-.129.319-.115-.1,0-.074.03.087.083l-.558-.554q-2.357-2.346-4.706-4.7c-1.539-1.539-3.01-3.237-4.653-4.663-.422-.365-.179-.276-.212.018-.034.311-.246.169-.046.057.259-.144.515-.6.707-.818l3.826-4.43a2.479,2.479,0,0,0,.376-2.908,44.523,44.523,0,0,1-5.2-13.287,2.45,2.45,0,0,0-2.314-1.762l-4.422-.326c-.845-.062-1.69-.131-2.536-.187-.231-.015-.46.073-.259-.012.108-.045.329.2.265.26a5.01,5.01,0,0,0-.017-.994q-.014-5.5-.005-11.007c0-.389.253-2.16.005-2.417.336.348-.628.163-.313.265a6.63,6.63,0,0,0,1.955-.143l5.423-.4a2.469,2.469,0,0,0,2.314-1.762,41.064,41.064,0,0,1,5.423-12.936,2.454,2.454,0,0,0-.375-2.908l-3.023-3.5q-.819-.948-1.638-1.9c-.047-.054-.121-.184-.186-.216-.194-.093.095-.076,0,0,.036-.03.184.394.014.384.176.011.841-.845.983-.988q4.032-4.048,8.08-8.082c.282-.281.587-.551.851-.848.141-.157.2-.241.206-.235.066.2-.1-.075-.017.045-.085-.124-.545-.313-.145.036.59.513,1.184,1.022,1.776,1.533l4.031,3.482a2.476,2.476,0,0,0,2.909.376,47.038,47.038,0,0,1,12.582-5.421,2.468,2.468,0,0,0,1.762-2.314l.33-4.487.2-2.66c.007-.1.1-.472.041-.556.273.411-.8.3.121.369,1.737.127,3.535-.007,5.277-.008q2.847,0,5.695,0c.88,0,1.784.069,2.661,0,.931-.068-.2.03.119-.38-.179.228.112,1.533.133,1.823l.4,5.425a2.455,2.455,0,0,0,1.762,2.315,41.782,41.782,0,0,1,13.613,5.047,2.468,2.468,0,0,0,2.908-.375l4.3-3.706c.148-.128.659-.428.719-.621-.009.031-.345.127-.36.151.1,0,.074-.03-.087-.083l.558.555q2.357,2.345,4.706,4.7c1.539,1.539,3.01,3.237,4.653,4.663.419.363.182.277.212-.018.014-.14.263-.164.093-.112-.215.067-.555.643-.7.81l-3.74,4.331a2.485,2.485,0,0,0-.376,2.908,45.935,45.935,0,0,1,5.042,13.448,2.448,2.448,0,0,0,2.315,1.762l4.189.309,2.513.185a2.034,2.034,0,0,0,.625.046.275.275,0,0,1-.342-.267,2.461,2.461,0,0,0,2.4,2.4A2.419,2.419,0,0,0,318.039,235.3Z"/><path class="b" d="M262.063,223.859a19.47,19.47,0,0,1,12.793,3.492A17.633,17.633,0,0,1,281,236.612c2.063,7.136.448,15.487-5.487,20.314a20.548,20.548,0,0,1-20.229,2.746c-7.046-2.939-11.091-10.424-10.829-17.889.328-9.361,8.252-17.3,17.609-17.924a2.457,2.457,0,0,0,2.4-2.4,2.421,2.421,0,0,0-2.4-2.4c-10.371.694-19.976,8.428-21.954,18.778-1.766,9.241,1.911,19.227,9.9,24.446,7.552,4.932,18.048,4.767,25.749.266,8.485-4.959,12-14.782,10.526-24.231a23.244,23.244,0,0,0-6.948-13.446,23.673,23.673,0,0,0-17.275-5.813C258.988,219.206,258.97,224.007,262.063,223.859Z"/><path class="c" d="M24.513,215.076H9.227a4.32,4.32,0,0,0-4.32,4.32v54.682a4.32,4.32,0,0,0,4.32,4.32H45.748a2,2,0,0,1,1.916,1.422q4.359,14.4,8.7,28.792a1.1,1.1,0,0,0,2.1,0q4.346-14.4,8.685-28.791a2,2,0,0,1,1.915-1.423h36.532a4.32,4.32,0,0,0,4.32-4.32V219.4a4.32,4.32,0,0,0-4.32-4.32Z"/><path class="b" d="M24.513,212.676H11.253a18.539,18.539,0,0,0-3.332.137c-3.611.663-5.414,3.941-5.414,7.348v53.153c0,3.408,1.785,6.682,5.414,7.347a29.665,29.665,0,0,0,5.265.137H43.4a10.091,10.091,0,0,0,2.128,0c.022,0,.738-.058-.066-.1-.111-.006-.241-.966.029.232.107.476.288.95.429,1.416q.428,1.416.857,2.833,3.425,11.327,6.839,22.655c.5,1.642.972,3.257,2.793,3.813a3.5,3.5,0,0,0,4.117-1.823,33.088,33.088,0,0,0,1.666-5.294l1.851-6.135q1.637-5.428,3.274-10.856.855-2.832,1.709-5.664a7.653,7.653,0,0,0,.356-1.18c.055-.454.112-.162-.043,0-.475.507-.336.011-.2.1.3.2,1.431,0,1.772,0h33.371c.432,0,.867.015,1.3,0a6.847,6.847,0,0,0,6.443-4.778,15.453,15.453,0,0,0,.286-4.388V231.061c0-3.873.123-7.769,0-11.641a6.863,6.863,0,0,0-6.977-6.744c-1.192-.011-2.384,0-3.576,0H24.513c-3.089,0-3.094,4.8,0,4.8h80.405c1.319,0,2.482.412,2.589,1.958.08,1.154,0,2.341,0,3.5v40.306c0,3.578.259,7.264,0,10.835-.154,2.124-2.1,1.926-3.657,1.926H74.394c-1.74,0-3.491-.057-5.23,0a4.828,4.828,0,0,0-1.955.431c-1.777.836-2.279,2.409-2.81,4.17q-1.64,5.429-3.276,10.856L57.85,302.31q-.392,1.3-.784,2.6l-.356,1.18c-.08.266-.5,1.16-.427,1.416-.093-.314,2.341-.314,2.248,0,.069-.233-.28-.926-.357-1.18q-.462-1.535-.925-3.068-3.276-10.857-6.557-21.712c-.474-1.568-.773-3.31-2.054-4.446a4.6,4.6,0,0,0-2.946-1.1c-.521-.021-1.047,0-1.568,0H14.748c-1.791,0-3.59.054-5.38,0-1.683-.05-2.061-1.292-2.061-2.684V220.678c0-1.46,0-3.06,1.925-3.2,2.6-.191,5.283,0,7.887,0h7.394C27.6,217.476,27.607,212.676,24.513,212.676Z"/><path class="b" d="M80.377,251.572a4.4,4.4,0,1,0-4.4-4.4,4.449,4.449,0,0,0,4.4,4.4Z"/><path class="b" d="M57.406,251.292a4.4,4.4,0,1,0-4.4-4.4,4.45,4.45,0,0,0,4.4,4.4Z"/><path class="b" d="M34.434,251.572a4.4,4.4,0,1,0-4.4-4.4,4.449,4.449,0,0,0,4.4,4.4Z"/></svg>