<svg xmlns="http://www.w3.org/2000/svg" width="244.793" height="244.807" viewBox="0 0 244.793 244.807" style="color: initial !important;"><defs><style>.a{fill:#7abee6;}.b{fill:#74c66d;}.c{fill:#211715;}</style></defs><path class="a" d="M122.4,2.4c-70.955,0-120,54.78-120,118.885,0,71.723,50.1,121.115,120,121.115s120-49.392,120-121.115C242.4,57.18,193.355,2.4,122.4,2.4Z"/><path class="b" d="M123.613,154.209c-11.3-5.183-22.74-10.142-33.9-15.632C75.42,131.543,68.433,113.7,62.26,99.831c.962,5.311,1.327,8.033,2.353,15.656a2.425,2.425,0,0,1-4.12,1.964,4.82,4.82,0,0,1-.925-1.795c-1.034-2.972-2.082-5.932-2.958-8.956-3.577-12.355-5.219-25.488-3.405-38.287,1.3-9.154,2.712-18.26,4.006-27.415a11.136,11.136,0,0,0,.139-3.21c-1.067-7.048-10.974-5.945-15.326-5.927a114.9,114.9,0,0,1,25.81-17.225c10.08-.18,33.21,1.431,43.788,2.486a16.516,16.516,0,0,1,6.231,1.4,4.45,4.45,0,0,1,2.5,3.6c.056,2.771-2.888,4.525-4.609,6.242a4.606,4.606,0,0,0-1.414,2.052,3.117,3.117,0,0,0,1.012,2.849,29.672,29.672,0,0,0,3.875,2.542c5.007,3.483,10.469,6.279,15.669,9.456a.865.865,0,0,0,.681.184c.257-.083.371-.377.447-.636.941-3.21,1.1-6.661,1.625-9.963.329-2.077.55-4.539,2.813-5.418a5.881,5.881,0,0,1,2.684-.205,44.107,44.107,0,0,1,9.442,2.37,38.367,38.367,0,0,1,9.624,4.359c2.6,1.733,5.739,4.041,5.1,7.6a5.622,5.622,0,0,1-3.975,4.271c-1.783.563-4.151.963-5.316,2.595a3.2,3.2,0,0,0-.553,2.317,1.783,1.783,0,0,0,.364.89,2.477,2.477,0,0,0,1.566.645c3.135.489,6.65.723,9.427,2.407a1.538,1.538,0,0,1,.606.554,1.474,1.474,0,0,1-.483,1.585c-1.805,1.895-4.156,3.141-6.074,4.925a28.179,28.179,0,0,0-4.77,5.81c-2.37,3.838-3.664,8.318-5.557,12.406-1.508,3.258-2.767,7.235-5.7,9.534-2.147,1.683-5.271,2.446-6.288,5.243-.755,2.076-.26,4.564-.228,6.726l.108,7.418c.021,1.469-.405,2.012-1.861,2.29a2.065,2.065,0,0,1-1.389-.094,2.143,2.143,0,0,1-1.132-1.234c-.446-1.4-1.035-2.729-1.584-4.1a27.68,27.68,0,0,0-2.068-4.928c-2.383-3.635-7.49-2.662-11.123-2.122-5.058.751-11.476,2.21-15.252,5.88-2.771,2.694-3.582,6.415-4.042,10.112-.329,2.642-1.14,6.6.9,8.784,2.847,3.041,8.885.1,10.281,5.1.582,2.086-.623,3.726-.359,5.673.172,1.268,1.537,2.019,2.8,2.237a15.893,15.893,0,0,1,3.77.635c2.511,1.1,3.1,4.338,4.691,6.571a7.813,7.813,0,0,0,3.786,2.825,2.835,2.835,0,0,0,3.042-.18c2.179-1.585,4.176-3.414,6.306-5.063,2.073-1.6,4.065-3.283,6.818-3.388,4.284-.163,7.773.411,12.788,4.378,3.837,3.035,6.6,4.644,13.325,6.151,3.458.774,12.326-.563,19.293,6.532,2.278,2.321,2.587,6.2,2.475,9.292a34.524,34.524,0,0,1-2.327,10.449c-1.088,3-6.706,12.94-8.048,15.262a123.67,123.67,0,0,1-11.869,17.015,131.372,131.372,0,0,1-12.782,13.392c-4.314,3.925-9.482,9.168-15.86,8.686a4.969,4.969,0,0,1-3.182-1.253,4.534,4.534,0,0,1-1.188-2.947c-.316-5.1,1.33-10.848,2.213-15.859.58-3.286,1.973-7.083,1.42-10.433-.676-4.09-4.034-5.865-6.829-8.46a39.469,39.469,0,0,1-7.287-8.87,27.177,27.177,0,0,1-3.845-12.557c-.167-4.269,1.344-8.1,2.933-11.994.771-1.888.789-3.215-1.66-4.393"/><path class="b" d="M131.324,7.391a7.894,7.894,0,0,0,3.02,1.3c5.13.94,12.587,3.03,14.357,3.51,8.76,2.35,21.29,10.85,24.25,12.11a3.549,3.549,0,0,0,5.06-2.15c.38-1.21.04-4.11-.39-6.46l-.19-.833A122.532,122.532,0,0,0,127.09,2.483l.261.348a2.2,2.2,0,0,1,.15.26A12.707,12.707,0,0,0,131.324,7.391Z"/><path class="c" d="M128.7,146.263c-3.786-1.291-3.928-6.018-6.8-8.363a6.842,6.842,0,0,0-3.1-1.446,17.316,17.316,0,0,1-3.185-.443,1.61,1.61,0,0,1-.585-.372c.423.4.11-.021.174-.535.129-1.057.484-2.061.521-3.14a6.775,6.775,0,0,0-2.263-5.31,8.558,8.558,0,0,0-4.568-1.728q-.544-.074-1.091-.136c-.07-.008-.992-.123-.654-.074-.339-.049-.677-.108-1.01-.186-.164-.039-.325-.083-.487-.13-.011,0-.687-.27-.349-.118a1.7,1.7,0,0,1-1-.96,5.17,5.17,0,0,1-.358-2.253,35.072,35.072,0,0,1,.608-5.528,15.3,15.3,0,0,1,2.017-5.9c2.083-3.218,6.273-4.644,9.8-5.55a37.435,37.435,0,0,1,10.618-1.527,4.038,4.038,0,0,1,3.448,1.627,12.913,12.913,0,0,1,1.224,2.841c.405,1.142.878,2.253,1.326,3.379a18.01,18.01,0,0,0,1.31,3.225,4.494,4.494,0,0,0,3.386,1.977c2.067.11,4.312-.892,4.944-2.991a9.944,9.944,0,0,0,.192-2.987l-.061-4.2c-.018-1.219-.033-2.434-.113-3.65a14.813,14.813,0,0,1-.024-3.527c.3-1.653,1.63-2.383,2.982-3.159a15.645,15.645,0,0,0,4.512-3.477,23.282,23.282,0,0,0,3.234-5.569c.916-2.089,1.859-4.166,2.717-6.279,1.759-4.331,3.37-8.7,6.5-12.271a31.848,31.848,0,0,1,5.1-4.481c1.845-1.382,4.526-3.148,4.22-5.789-.29-2.5-3.331-3.536-5.4-4.138a58.733,58.733,0,0,0-6.445-1.144c.052.009-.687-.143-.69-.138l.506.6-.018-.085a5.406,5.406,0,0,1,.314-.715,4.842,4.842,0,0,1,2.079-.967c1.991-.6,3.9-1.162,5.4-2.711,3.237-3.354,2.519-8.212-.638-11.3-3.205-3.138-7.506-5.144-11.669-6.642-2.43-.874-4.913-1.7-7.416-2.334-2.347-.6-5.244-1.322-7.647-.676-4.694,1.262-4.885,6.629-5.374,10.594-.133,1.084-.258,2.168-.434,3.246a12.919,12.919,0,0,1-.727,3.27l.861-.861-.213.144,1.211-.327-.349-.017,1.211.328c-1.637-.826-3.189-1.872-4.778-2.788-1.764-1.017-3.534-2.022-5.284-3.061-1.615-.957-3.214-1.941-4.776-2.982-1.362-.909-2.923-1.659-4.211-2.661a2.565,2.565,0,0,1-.478-.423c-.1-.131-.22-.624-.258-.389.074-.454.7-.907,1.009-1.2,1.021-.972,2.165-1.811,3.088-2.884,2.308-2.681,2.776-6.331.216-9.055-2.392-2.545-6.063-2.868-9.332-3.191q-3.468-.342-6.942-.623-8.658-.712-17.332-1.214c-5.937-.344-11.888-.656-17.837-.663-3.089,0-3.093,4.8,0,4.8,10.18.011,20.38.747,30.526,1.511,4.556.344,9.225.517,13.741,1.232,1.507.238,5.047,1.059,3.934,3.254a8.949,8.949,0,0,1-2.276,2.39,14.375,14.375,0,0,0-2.73,2.829c-2.233,3.414.36,6.7,3.3,8.438,2.824,1.667,5.512,3.548,8.339,5.215,2.966,1.748,5.948,3.472,8.926,5.2,1.644.953,3.7,1.095,4.72-.808a16.584,16.584,0,0,0,1.242-5.325c.227-1.6.388-3.2.616-4.8a14.918,14.918,0,0,1,.73-3.694c.372-.872,1.065-.939,2.1-.882a23.285,23.285,0,0,1,5.044,1,62.923,62.923,0,0,1,9.41,3.291,21.558,21.558,0,0,1,6.8,4.51c1.421,1.55,1.4,3.7-.564,4.812a16.041,16.041,0,0,1-2.923.972,8.986,8.986,0,0,0-3.929,2.286c-2.377,2.61-1.92,7.2,1.885,8.065,1.434.325,2.933.4,4.382.661.744.132,1.484.286,2.212.487.328.091.654.188.975.3a10.93,10.93,0,0,0,1.28.573l.351.2-.363-1.631a10.338,10.338,0,0,0-.892.854c-.516.456-1.063.867-1.617,1.275a38.052,38.052,0,0,0-3.887,3.1,30.087,30.087,0,0,0-5.893,7.895c-1.546,3-2.626,6.208-3.953,9.306a58.479,58.479,0,0,1-3.587,7.643,8.783,8.783,0,0,1-2.295,2.6c-1.008.724-2.156,1.235-3.191,1.918a8.754,8.754,0,0,0-4.186,7.494c-.048,1.583.163,3.168.191,4.751.032,1.813.053,3.627.079,5.44.007.491.042.993.022,1.483,0,.109.069.43-.039.475a5.806,5.806,0,0,1,.435-.608l.106-.041a5.023,5.023,0,0,1-.6.149l-.078-.012q.4-.183.51.361c-.022,0-.245-.723-.284-.832-.345-.965-.752-1.905-1.135-2.855-1.1-2.727-1.76-5.866-4.167-7.793a10.671,10.671,0,0,0-7.426-1.932,45.007,45.007,0,0,0-16.033,3.723,16.359,16.359,0,0,0-6.786,5.549,19.987,19.987,0,0,0-2.817,8.589c-.364,2.658-.9,5.433-.3,8.128a7.037,7.037,0,0,0,5.194,5.321,20.341,20.341,0,0,0,2.926.463,11.191,11.191,0,0,1,1.147.154c.163.03.327.061.488.1.086.02.941.289.569.133a1.45,1.45,0,0,1,1.109,1.259c.3,1.253-.345,2.636-.453,3.9-.324,3.777,2.736,5.543,6.055,5.883,1.026.105,2.022.108,2.74.943a15.883,15.883,0,0,1,1.786,3.228,11.077,11.077,0,0,0,6.441,5.733c2.93,1,4.188-3.636,1.276-4.628Z"/><path class="c" d="M122.374,156.341c.352.18.642.4.967.594-.074-.043-.025-.157-.068-.21.246.3-.006.252.033.058a3.322,3.322,0,0,1-.158.663c-.2.622-.48,1.221-.722,1.828a35.092,35.092,0,0,0-2.159,6.963,26.212,26.212,0,0,0,2.212,15.041,37.913,37.913,0,0,0,8.342,11.619c2.446,2.4,6.663,4.554,7.138,8.284.286,2.244-.4,4.554-.9,6.716-.537,2.312-.942,4.655-1.42,6.979-.517,2.513-1,5.035-1.267,7.588-.25,2.4-.462,5.1.595,7.342,2.109,4.466,8.2,4.191,12.1,2.621,4.029-1.62,7.284-4.516,10.444-7.418a141.571,141.571,0,0,0,20.369-22.91,171.587,171.587,0,0,0,11.139-18.775c3.649-6.932,6.666-15.1,4.767-23.017-1.042-4.345-4.638-7.435-8.544-9.306a29.721,29.721,0,0,0-10.794-2.587c-.652-.049-1.3-.086-1.955-.132-.286-.02-.572-.04-.858-.066-.2-.018-1-.146-.392-.034a37.558,37.558,0,0,1-5.761-1.565c-3.27-1.17-5.822-3.282-8.6-5.29a19.554,19.554,0,0,0-11.254-3.869,12.189,12.189,0,0,0-6.489,1.48,40.91,40.91,0,0,0-5.564,4.181c-.924.764-1.84,1.537-2.777,2.285a6.47,6.47,0,0,1-1.272.947c-.355.152-.917-.049-.281.226a2.48,2.48,0,0,0-3.284.861,2.417,2.417,0,0,0,.861,3.283c2.356,1.016,4.4.373,6.355-1.13s3.784-3.119,5.716-4.628c1.383-1.08,2.92-2.388,4.714-2.657a13.9,13.9,0,0,1,4.955.277c3.781.877,6.483,3.545,9.6,5.653a30.577,30.577,0,0,0,9.825,4.131,66.877,66.877,0,0,0,8.387,1.027,19.717,19.717,0,0,1,9.661,3.708,7.737,7.737,0,0,1,3.034,4.134,17.078,17.078,0,0,1,.4,5.462,29.177,29.177,0,0,1-1.465,7.134q-.409,1.294-.891,2.563c.067-.175.063-.132-.126.279-.141.3-.282.609-.428.911A140.846,140.846,0,0,1,159.533,216.5a100.389,100.389,0,0,1-9.635,8.784,17.647,17.647,0,0,1-4.963,2.835c-1.451.485-3.713,1.031-5.128.168s-.811-3.817-.7-5.154a60.437,60.437,0,0,1,1.159-6.98c.464-2.254.853-4.528,1.371-6.771a32.073,32.073,0,0,0,1.161-7.2c-.008-4.467-2.512-7.47-5.778-10.177a38.736,38.736,0,0,1-8.575-9.636,23.84,23.84,0,0,1-3.733-13.07,22.484,22.484,0,0,1,1.54-6.664c.668-1.845,1.886-3.831,1.851-5.851A5.352,5.352,0,0,0,124.8,152.2c-2.745-1.4-5.177,2.737-2.423,4.144Z"/><path class="c" d="M43.511,34.237a28.146,28.146,0,0,1,7.719.466,5.857,5.857,0,0,1,2.8,1.423,3.163,3.163,0,0,1,.684,1.024,5.316,5.316,0,0,1,.262,2.472c-.395,4.822-1.374,9.66-2.084,14.446-.732,4.935-1.5,9.867-2.155,14.813a89,89,0,0,0,1.124,28.366,109.75,109.75,0,0,0,3.554,13.694,60.025,60.025,0,0,0,2.365,6.693,4.835,4.835,0,0,0,4.707,2.91,4.893,4.893,0,0,0,4.444-3.834,12.306,12.306,0,0,0-.285-3.921q-.222-1.65-.448-3.3c-.475-3.444-1.009-6.876-1.627-10.3l-4.386,1.849c4.066,9.146,7.894,18.573,13.851,26.7a44.9,44.9,0,0,0,10.615,10.647,53.491,53.491,0,0,0,7.337,3.958q4.587,2.2,9.217,4.323c7.049,3.239,14.141,6.383,21.194,9.615a2.471,2.471,0,0,0,3.283-.861,2.419,2.419,0,0,0-.861-3.284c-6.17-2.828-12.372-5.588-18.548-8.4q-4.521-2.061-9.019-4.178c-2.73-1.291-5.539-2.51-8.153-4.027C80.742,130.674,75.416,122,71.179,113.589c-2.469-4.9-4.618-9.955-6.847-14.969a2.378,2.378,0,0,0-3-.982,2.438,2.438,0,0,0-1.389,2.831q.777,4.3,1.394,8.633c.244,1.725.477,3.452.71,5.179a9.569,9.569,0,0,1,.184,1.434c0,.182.024,0,.022-.007-.033-.15.057.071-.087.156.14-.083.192-.121.068-.122-.4,0,.019.047-.01.024.236.183-.137-.145-.11-.02-.311-1.448-1.165-3.385-1.7-4.963-.729-2.16-1.405-4.335-2.005-6.534a105.685,105.685,0,0,1-2.737-13.175,85.463,85.463,0,0,1-.8-13.489,107.919,107.919,0,0,1,1.347-13.434c.677-4.649,1.375-9.295,2.06-13.944q.524-3.549,1.032-7.1c.318-2.225.781-4.467.2-6.69-1.827-6.962-10.181-7.143-16-6.98-3.082.087-3.1,4.887,0,4.8Z"/><path class="a" d="M129.884,65.045a3.1,3.1,0,0,0,2.067.519c1.87-.272,2.368-2.293,1.8-3.843-2.041-5.534-9.453-9.061-15.054-7.875a2.7,2.7,0,0,0-1.678.771,1.813,1.813,0,0,0-.369,1.454c.21,1.119,1.135,1.894,1.7,2.833a11.062,11.062,0,0,1,1.344,3.346c.209.95.171,2.07,1.035,2.709a1.745,1.745,0,0,0,1.592.259,2.341,2.341,0,0,0,1.06-.872c.469-.645.656-1.446,1.146-2.063a1.515,1.515,0,0,1,1.274-.626c1.194.118,2.219,1.763,3.008,2.533A6.371,6.371,0,0,0,129.884,65.045Z"/><path class="c" d="M128.673,67.117c2.331,1.343,5.478,1.117,6.955-1.365,1.171-1.968.765-4.186-.193-6.134-1.754-3.572-5.276-6.063-8.93-7.4a16.28,16.28,0,0,0-5.477-1c-2.183-.011-5.019.333-6.232,2.4a4.446,4.446,0,0,0-.078,4.159,26.862,26.862,0,0,0,1.713,2.6,8.623,8.623,0,0,1,1.012,2.847,5.707,5.707,0,0,0,1.405,3.278,4.16,4.16,0,0,0,4.684.79,5.719,5.719,0,0,0,2.542-2.895c.027-.055.384-.672.373-.69.1.15-1.058.581-1.275.2-.016-.029.617.469.244.139a7.2,7.2,0,0,1,.51.509,14.8,14.8,0,0,0,2.747,2.565,2.4,2.4,0,1,0,2.423-4.145,7.636,7.636,0,0,1-1.3-1.272,8.464,8.464,0,0,0-2.014-1.837,4.042,4.042,0,0,0-5.738,1.874c-.181.352-.331.717-.524,1.063-.2.366.323-.277-.135.207-.2.21-.184.042-.064.046.711.023.477-.275.966.119.15.12-.093-.4.023.021-.061-.223-.106-.448-.146-.675a12.776,12.776,0,0,0-2.026-5.249c-.113-.159-.8-1.065-.626-.822-.125-.173-.25-.345-.361-.529l-.067-.108c-.139-.257-.16-.3-.063-.125-.066.106-.07.319-.141.453-.09.169-.359.139-.126.156a3.1,3.1,0,0,0,.68-.154c.173-.034.345-.066.519-.091-.479.069-.1.016,0,.011.361-.015.717-.045,1.079-.043.292,0,.585.013.877.035.184.013.368.032.552.053s.147.017-.085-.011c.112.018.222.037.333.057a18.794,18.794,0,0,1,1.982.5,7.377,7.377,0,0,1,1.657.682,15.311,15.311,0,0,1,1.869,1.122c.081.058.478.352.153.1.12.092.236.19.352.287.286.242.563.5.828.761q.432.434.819.907c.262.321-.289-.451.091.126.12.183.247.36.362.547.191.308.352.63.521.95.211.4.055.119.017.021.074.191.124.389.193.581.187.515.064-.395.021.149-.014.17-.138.671.016.139-.036.124-.064.245-.1.368q.171-.378.047-.147t.108-.106c-.549.147.165,0,.061-.005q-.35.192.036.015l-.2.057c.424.165-.3-.145-.065-.03.144,0,.077-.03-.2-.085.161.045.106,0-.167-.122a2.4,2.4,0,1,0-2.423,4.145Z"/><path class="b" d="M156.6,126.579c-5.029,2.363-10.777,2.2-16.224,1.168A9.626,9.626,0,0,1,137,126.576a4.588,4.588,0,0,1-1.865-2.081,2.6,2.6,0,0,1,.389-2.664,5.48,5.48,0,0,1,3.583-1.575c2.959-.4,14.65-.321,17.209.509a3.668,3.668,0,0,1,1.614,1.209,3.075,3.075,0,0,1-1.335,4.6"/><path class="c" d="M155.385,124.506c-3.675,1.676-7.848,1.788-11.8,1.333-1.74-.2-4.075-.34-5.523-1.434-.265-.2-.949-.761-.72-1.15a4.666,4.666,0,0,1,1.1-.435c.213-.06.431-.1.646-.145.07-.016.623-.1.138-.034.159-.02.319-.034.479-.049.474-.042.95-.068,1.426-.089,1.236-.056,2.475-.075,3.713-.079,2.744-.008,5.5.043,8.235.264.292.024.584.05.875.08.135.013.27.032.405.043.479.042-.272-.047.01,0a4.583,4.583,0,0,1,1.207.238,1.612,1.612,0,0,1,.444.371c.219.213.118.1.094.358.011-.125-.067.209-.157.347a1.439,1.439,0,0,1-.572.383,2.42,2.42,0,0,0-.861,3.284,2.455,2.455,0,0,0,3.284.861,5.6,5.6,0,0,0,2.965-6.188,5.816,5.816,0,0,0-4.491-4.177,54.4,54.4,0,0,0-10.082-.659c-3.056-.023-6.741-.319-9.658.768-2.672,1-4.632,3.483-3.822,6.439.772,2.812,3.577,4.432,6.234,5.064,6.221,1.478,12.979,1.432,18.854-1.247a2.419,2.419,0,0,0,.861-3.284,2.457,2.457,0,0,0-3.284-.861Z"/><path class="c" d="M175.307,16.339a28.911,28.911,0,0,1,.439,3.4,3.678,3.678,0,0,1-.165,2.036c-.637,1-1.747.328-2.565-.113-3.03-1.637-5.949-3.478-8.955-5.158a85.35,85.35,0,0,0-11.87-5.7,95.948,95.948,0,0,0-10.013-2.82c-2.5-.628-5.049-1.074-7.553-1.687-2.405-.589-4.024-2.64-5.2-4.682-1.543-2.675-5.692-.261-4.144,2.423a14.935,14.935,0,0,0,5.769,5.985c2.23,1.16,4.857,1.394,7.28,1.963A116.309,116.309,0,0,1,150.3,15.215a79.041,79.041,0,0,1,12.685,6.2c2.877,1.64,5.683,3.583,8.7,4.95,2.966,1.341,6.418.661,8.1-2.295,1.49-2.624.646-6.221.149-9a2.42,2.42,0,0,0-2.952-1.676,2.453,2.453,0,0,0-1.676,2.952Z"/><path class="c" d="M122.4,0A129.918,129.918,0,0,0,81.971,6.316,117.931,117.931,0,0,0,22.206,50.429,120.48,120.48,0,0,0,5.822,83.452,125.007,125.007,0,0,0,0,121.117,140.685,140.685,0,0,0,5.331,160.3a119.411,119.411,0,0,0,15.226,33.089,111.331,111.331,0,0,0,23.7,25.732A116.878,116.878,0,0,0,75.637,236.69a130.991,130.991,0,0,0,37.125,7.791,141.672,141.672,0,0,0,39.3-2.79,121.383,121.383,0,0,0,34.175-12.93,111.935,111.935,0,0,0,27.4-21.806,113.977,113.977,0,0,0,19.565-29.71,129.939,129.939,0,0,0,10.345-36.683,136.437,136.437,0,0,0-.379-39.5,122.24,122.24,0,0,0-11.455-35.45,118.813,118.813,0,0,0-21.446-29.96,117.386,117.386,0,0,0-30.078-22.092A122.331,122.331,0,0,0,142.807,1.554,137.488,137.488,0,0,0,122.4,0c-3.089,0-3.094,4.8,0,4.8a125.537,125.537,0,0,1,38.993,6.092,114.606,114.606,0,0,1,32.534,16.85,112.032,112.032,0,0,1,24.614,25.239,116.293,116.293,0,0,1,15.857,31.9,120.56,120.56,0,0,1,5.6,36.4,135.746,135.746,0,0,1-5.16,37.736,115.107,115.107,0,0,1-14.657,31.815,107.444,107.444,0,0,1-22.92,24.794,109.879,109.879,0,0,1-29.669,16.541,126.628,126.628,0,0,1-35.726,7.521,137.02,137.02,0,0,1-37.85-2.629,117.03,117.03,0,0,1-32.9-12.372,107.5,107.5,0,0,1-26.458-21.019,109.912,109.912,0,0,1-18.852-28.708,123.4,123.4,0,0,1-9.777-34.57,131.11,131.11,0,0,1,.256-38.216A118.188,118.188,0,0,1,17.308,67.894,114.585,114.585,0,0,1,37.932,39.047,113.214,113.214,0,0,1,66.893,17.78,118.438,118.438,0,0,1,102.921,6.236,128.794,128.794,0,0,1,122.4,4.8C125.488,4.8,125.494,0,122.4,0Z"/></svg>