<svg id="b" xmlns="http://www.w3.org/2000/svg" width="344.758" height="326.337" viewBox="0 0 344.758 326.337" style="color: initial !important;"><defs><style>.d{fill:#ffffff;}.e{fill:#f8b8b4;}.f{fill:#211715;}.g{fill:#f2635f;}</style></defs><g id="c"><path class="g" d="M313.973,224.186c-4.058-2.989-9.182-5.3-14.621-6.605-.181-.828-.344-1.661-.499-2.494l-1.121-6.044c-.28-1.508-1.487-2.673-3.004-2.898l-14.503-2.152c-2.439-.362-4.509,1.784-4.059,4.209l1.017,5.478c.159.856.65,2.85,1.109,4.634-2.272.849-4.412,1.988-6.346,3.464-6.254,4.771-8.444,11.75-10.344,19.075-1.035,3.991-2.178,8.003-4.204,11.594-2.407,4.266-6.193,7.1-10.537,9.171-5.039,2.402-9.891,5.289-14.046,9.045-4.556,4.119-8.247,9.33-9.93,15.237-1.027,3.602-1.218,7.373-.691,11.053-3.125,1.981-7.273,5.026-9.349,7.34-1.186,1.322-1.303,3.291-.352,4.792l5.299,8.365c1.467,2.315,4.73,2.492,6.51.408,1.144-1.339,3.555-3.405,5.521-4.971.161.173.315.353.48.522,7.367,7.489,18.473,10.392,29.936,10.524,28.716.329,56.378-14.243,65.859-42.446,6.522-19.402,5.785-44.107-12.126-57.299Z"/><path class="f" d="M315.185,222.114c-4.519-3.286-9.782-5.52-15.194-6.847l1.676,1.676c-.627-2.924-.89-6.005-1.701-8.88-.624-2.212-2.538-3.89-4.793-4.261-1.054-.173-2.115-.314-3.171-.471l-9.724-1.443c-1.232-.183-2.462-.444-3.707-.218-2.871.521-5.046,3.262-4.852,6.187.108,1.634.561,3.29.859,4.895.387,2.087.872,4.142,1.399,6.199l1.676-2.952c-6.512,2.49-11.664,6.983-14.665,13.315-2.954,6.233-3.666,13.188-6.434,19.468-1.294,2.935-3.05,5.456-5.541,7.495-2.552,2.09-5.631,3.318-8.516,4.851-6.325,3.361-12.124,7.708-16.486,13.435-5.091,6.685-7.254,14.698-6.132,23.025l1.103-2.71c-3.429,2.189-7.143,4.626-9.834,7.716-1.543,1.771-2.131,4.215-1.312,6.458.291.797.73,1.473,1.179,2.181l3.775,5.959c1.45,2.288,3.024,4.294,5.993,4.498,2.286.157,4.096-.951,5.596-2.56,1.556-1.67,3.363-3.125,5.142-4.549h-3.394c9.151,10.068,24.178,12.285,37.083,11.656,12.017-.586,23.975-3.71,34.48-9.641,10.282-5.806,18.996-14.372,24.57-24.816,5.611-10.512,8.409-22.939,7.955-34.843-.449-11.776-4.479-23.552-13.256-31.726-1.193-1.111-2.466-2.126-3.774-3.098-1.041-.774-2.68-.17-3.284.861-.716,1.223-.182,2.508.861,3.284,18.161,13.509,17.563,40.932,9.003,59.756-4.551,10.008-11.93,18.457-21.157,24.418s-19.93,9.505-30.82,10.653c-12.924,1.363-28.916.391-38.268-9.898-.94-1.034-2.422-.778-3.394,0-1.391,1.113-2.765,2.254-4.062,3.476-.789.744-1.555,2.007-2.602,2.221-.557.114-1.151-.065-1.616-.676-.32-.422-.579-.913-.862-1.36l-3.276-5.171c-.636-1.004-1.944-2.411-1.201-3.632.84-1.379,2.659-2.568,3.911-3.54,1.601-1.244,3.278-2.394,4.986-3.484,1.004-.641,1.253-1.6,1.103-2.71-1.908-14.149,8.899-24.922,20.411-31.04,2.744-1.458,5.595-2.664,8.106-4.525,2.547-1.887,4.749-4.165,6.345-6.921,3.409-5.882,4.278-12.677,6.51-19.002,1.019-2.889,2.381-5.767,4.368-8.123,2.322-2.754,5.322-4.79,8.68-6.075,1.228-.47,2.025-1.593,1.676-2.952-.795-3.1-1.4-6.201-1.983-9.345-.182-.983-.121-1.562.918-1.975.298-.118.392-.022.096-.041.096.006.193.029.288.043.412.058.823.122,1.234.183l8.799,1.306,3.452.512c.775.115,1.602.138,1.927.981.465,1.205.52,2.71.754,3.973.304,1.638.597,3.278.947,4.907.169.787.906,1.487,1.676,1.676,5.055,1.24,9.828,3.295,14.047,6.363,1.049.763,2.675.179,3.284-.861.71-1.214.19-2.519-.861-3.284Z"/><path class="d" d="M279.598,27.784l3.54,3.53c-1.27,3.55-2.04,7.23-2.42,10.45-.17,1.44-.34,2.93-.5,4.47l-1.9-.19-6.33-6.41c-.77-.78-2.02-.78-2.78,0l-6.33,6.41-1.38.14c-.16-1.52-.33-2.99-.5-4.42-.4-3.34-1.2-7.16-2.56-10.83l3.16-3.15c.87-.88,1.37-2.07,1.37-3.31V4.674c0-1.1.89-2,2-2h11.26c1.1,0,2,.9,2,2v19.8c0,1.24.49,2.43,1.37,3.31Z"/><path class="f" d="M258.115,34.654c1.713-1.713,3.49-3.379,5.146-5.146,2.117-2.259,2.104-4.8,2.104-7.63v-9.532c0-1.51,0-3.02,0-4.529,0-.914.111-1.909,0-2.817-.053-.433.151-.254-.104-.03-.308.269-.323.064.135.108,1.296.124,2.665,0,3.967,0h4.914c.499,0,1.022.048,1.519,0,.457-.044.444.162.135-.108-.232-.203-.051-.407-.104.03-.043.353,0,.744,0,1.099v13.824c0,2.769-.449,6.115,1.218,8.508.852,1.223,2.043,2.236,3.091,3.284l2.941,2.941c2.187,2.187,5.582-1.206,3.394-3.394-1.715-1.715-3.554-3.361-5.169-5.169-1.192-1.334-.675-4.106-.675-5.748v-10.236c0-1.336,0-2.673,0-4.009,0-.783.059-1.613-.112-2.384-.913-4.117-5.528-3.438-8.686-3.438h-4.914c-1.275,0-2.606-.127-3.793.43-2.955,1.385-2.557,4.52-2.557,7.206v10.092c0,1.588,0,3.176,0,4.764,0,.737.113,1.623-.094,2.339-.35,1.207-1.875,2.279-2.722,3.126l-3.028,3.028c-2.187,2.187,1.206,5.582,3.394,3.394h0Z"/><path class="f" d="M264.573,47.745c1.926-1.953,3.853-3.906,5.779-5.859.142-.144.314-.284.438-.444.026-.034.063-.062.092-.094-.011.012-.263.085.045-.018-.043.015-.634.121-.331.121.307,0-.18-.071-.235-.072l-.096-.049c.232.139.239.138.023-.003.003.003.006.007.01.01.09.086.175.178.262.266l3.217,3.261,2.842,2.882c.91.923,2.482.912,3.394,0,.925-.925.913-2.468,0-3.394-2.02-2.048-4.039-4.095-6.059-6.143-1.844-1.869-4.594-2.084-6.528-.19-1.063,1.041-2.091,2.12-3.135,3.179l-3.111,3.155c-.91.923-.921,2.473,0,3.394.915.915,2.481.926,3.394,0h0Z"/><path class="e" d="M323.492,102.981c8.902-.678,15.934-4.858,17.964-13.937,2.15-9.617.102-21.164-2.435-30.535-2.688-9.926-7.297-19.663-13.664-27.759-6.983-8.88-17.812-18.762-30.152-13.912-9.47,3.722-13.423,16.058-14.486,24.93-1.845,15.399-3.671,36.748,6.673,49.789,8.446,10.649,23.441,12.387,36.1,11.423Z"/><path class="e" d="M218.224,102.981c-8.902-.678-15.934-4.858-17.964-13.937-2.15-9.617-.102-21.164,2.435-30.535,2.688-9.926,7.297-19.663,13.664-27.759,6.983-8.88,17.812-18.762,30.152-13.912,9.47,3.722,13.423,16.058,14.486,24.93,1.845,15.399,3.671,36.748-6.673,49.789-8.446,10.649-23.441,12.387-36.1,11.423Z"/><path class="f" d="M323.492,105.381c7.456-.608,14.886-3.662,18.452-10.651,2.047-4.013,2.659-8.633,2.792-13.088.149-5.021-.452-10.062-1.374-14.991-1.8-9.632-4.887-19.045-9.653-27.629-4.365-7.861-10.192-15.391-17.523-20.698-7.053-5.106-16.319-7.088-24.217-2.588-6.651,3.79-10.319,11.31-12.226,18.437-.928,3.468-1.372,7.01-1.768,10.57-.443,3.975-.804,7.961-.976,11.958-.356,8.278.01,16.858,2.548,24.805,2.51,7.86,7.307,14.748,14.59,18.842,7.121,4.003,15.512,5.277,23.585,5.263,1.926-.003,3.85-.088,5.771-.23,1.293-.096,2.4-1.035,2.4-2.4,0-1.225-1.1-2.496-2.4-2.4-7.278.539-14.745.259-21.717-2.076-6.853-2.295-12.303-6.837-15.583-13.294-3.359-6.614-4.322-14.267-4.48-21.595-.159-7.385.49-14.813,1.442-22.132.772-5.93,2.727-12.941,6.787-17.772,2.151-2.559,4.775-4.4,8.029-5.255,3.533-.929,7.246-.482,10.581.965,7.097,3.079,12.729,9.474,17.069,15.695,5.163,7.401,8.863,15.723,11.193,24.428,2.281,8.524,4.081,17.759,2.754,26.593-.496,3.305-1.481,6.606-3.755,9.125-2.008,2.225-4.634,3.657-7.524,4.471-1.571.443-3.17.714-4.796.847-1.292.105-2.4,1.028-2.4,2.4,0,1.217,1.101,2.506,2.4,2.4Z"/><path class="f" d="M218.224,100.581c-6.191-.504-12.212-3.174-14.731-9.171-1.554-3.699-1.782-8.001-1.729-11.959.06-4.535.683-9.033,1.603-13.469,1.838-8.853,4.725-17.431,9.217-25.304,3.939-6.904,9.122-13.8,15.678-18.43,2.941-2.077,6.316-3.825,9.948-4.204s7.32.513,10.322,2.599c5.288,3.673,7.861,10.502,9.239,16.527.749,3.277,1.043,6.259,1.391,9.625.386,3.726.682,7.463.804,11.207.244,7.517-.143,15.197-2.48,22.399-2.233,6.882-6.492,12.706-12.945,16.14-6.356,3.383-13.794,4.317-20.903,4.269-1.808-.012-3.613-.095-5.415-.229-1.294-.096-2.4,1.172-2.4,2.4,0,1.379,1.102,2.304,2.4,2.4,7.945.589,16.275.197,23.828-2.537,7.814-2.829,14.182-8.16,17.851-15.679s4.802-16.008,4.914-24.298c.107-7.894-.532-15.974-1.793-23.77-1.164-7.198-3.808-14.805-9.04-20.08-2.79-2.813-6.393-4.776-10.3-5.486-4.481-.815-8.864-.076-12.994,1.772-7.864,3.518-14.053,10.627-18.864,17.573-5.603,8.089-9.49,17.293-11.92,26.805s-4.067,19.684-2.09,29.391c.771,3.783,2.469,7.38,5.212,10.135,2.576,2.586,5.93,4.306,9.435,5.244,1.881.503,3.823.775,5.761.933,1.294.105,2.4-1.179,2.4-2.4,0-1.386-1.103-2.294-2.4-2.4Z"/><path class="e" d="M77.523,105.544c-.781-7.403-5.703-14.232-12.48-17.312-5.966-2.712-12.996-2.629-18.712-5.834-2.816-1.579-5.171-3.944-6.799-6.73-7.353,4.958-17.241,5.978-25.143,1.732-5.669-3.046-9.936-8.592-11.427-14.853-1.486-6.238-.192-13.085,3.465-18.352-3.887-9.263-.496-20.842,7.652-26.93,7.526-5.624,17.653-6.38,26.117-2.596C44.876,5.114,57.025.295,67.252,3.17c9.184,2.582,16.552,10.604,17.685,19.527,9.678-3.366,21.068.652,26.526,9.418,2.428,3.899,3.618,8.466,3.729,13.038.104,4.277-.258,8.169-2.463,12.786,6.156,7.899,8.077,13.223,5.541,22.407-2.28,8.257-11.407,16.892-21.148,15.408h0c2.022,4.617-1.36,9.791-6.4,9.791h-13.199Z"/><path class="f" d="M35.094,70.744c1.653,7.88,7.661,13.55,15.194,15.882,3.877,1.2,7.936,1.704,11.785,3.006,3.333,1.127,6.21,3.101,8.514,5.755,2.436,2.806,4.112,6.457,4.537,10.157.148,1.288.997,2.4,2.4,2.4,1.183,0,2.549-1.104,2.4-2.4-.867-7.556-5.135-14.465-11.725-18.37-3.482-2.064-7.441-2.983-11.351-3.851-3.836-.852-7.815-1.712-11.03-4.104-3.184-2.369-5.285-5.896-6.094-9.751-.634-3.021-5.262-1.743-4.629,1.276h0Z"/><path class="f" d="M57.378,25.117c-.365,3.031-2.698,6.063-5.494,7.261-1.481.635-3.232.649-4.816.66-2.102.015-4.199-.161-6.296-.277-4.13-.229-8.267-.121-12.094,1.618-2.261,1.028-4.286,2.594-5.83,4.538-2.529,3.185-3.819,7.074-4.467,11.049-.208,1.278.332,2.583,1.676,2.952,1.146.315,2.743-.39,2.952-1.676.514-3.152,1.453-6.592,3.318-9.042,1.472-1.933,3.212-3.193,5.586-3.973,7.512-2.467,16.408,2.091,23.446-2.276,3.835-2.38,6.283-6.391,6.818-10.835.155-1.289-1.214-2.4-2.4-2.4-1.426,0-2.244,1.107-2.4,2.4h0Z"/><path class="f" d="M50.88,62.202c-.035.302.073-.442.07-.429.049-.257.105-.513.17-.767.093-.362.297-.997.361-1.155.054-.133.362-.731.544-1.027.126-.206.259-.411.406-.603-.233.304.241-.259.241-.259,1.213-1.306,2.819-1.851,4.605-2.601,2.203-.925,4.261-2.079,5.509-4.209,1.226-2.093,1.686-4.691,1.426-7.087-.14-1.289-1.003-2.4-2.4-2.4-1.189,0-2.54,1.103-2.4,2.4.117,1.082.101,2.05-.128,2.989-.088.363-.299,1.006-.381,1.183-.22.476-.472.855-.673,1.063-1.242,1.288-3.244,1.812-5.094,2.625-2.035.895-3.721,2.241-4.991,4.071s-1.813,4.017-2.067,6.206c-.149,1.29,1.21,2.4,2.4,2.4,1.422,0,2.25-1.107,2.4-2.4h0Z"/><path class="f" d="M71.236,37.187c.442-.329.904-.605,1.397-.851.155-.071.132-.065-.069.019.137-.055.276-.107.415-.156.247-.086.496-.161.749-.227.256-.067.515-.113.772-.171.286-.045.299-.051.039-.016.152-.018.304-.034.457-.046.538-.044,1.08-.051,1.619-.025.233.011.464.034.696.052.29.033.309.034.055.002.153.023.306.05.458.078.529.1,1.052.231,1.566.394.217.069.43.15.645.224.264.105.281.11.052.014.136.06.27.123.404.188.456.223.898.475,1.317.761.117.08.232.162.344.246-.182-.141-.208-.157-.078-.05.209.184.415.369.613.564.211.208.414.422.61.644.059.066.528.666.31.367.318.438.602.9.845,1.383.068.135.132.271.193.408-.097-.229-.094-.212.008.05.068.213.142.421.202.637.08.287.137.578.197.87.138.662.004-.426.029.256.02.544.045,1.079.008,1.624-.011.16-.025.319-.042.478.037-.235.032-.205-.014.091-.044.249-.089.497-.143.743-.152.697-.358,1.379-.589,2.053-.42,1.226.481,2.624,1.676,2.952,1.317.362,2.53-.446,2.952-1.676.717-2.092,1.17-4.386.917-6.603-.277-2.432-1.174-4.541-2.688-6.462-2.695-3.418-7.052-5.167-11.357-5.1-2.445.038-5.003.666-6.989,2.142-1.039.772-1.566,2.078-.861,3.284.599,1.024,2.237,1.639,3.284.861h0Z"/><path class="f" d="M94.869,56.447c.224,1.629-.5,4.247-1.796,5.342-1.673,1.413-4.245,1.858-6.36,2.027-1.64.131-2.62,1.422-2.314,3.038.765,4.049-3.047,7.275-6.853,7.366-5.36.128-11.017-3.776-14.029-8.019-.749-1.056-2.095-1.556-3.284-.861-1.044.61-1.615,2.221-.861,3.284,4.097,5.771,11.741,11.158,19.148,10.325,6.727-.757,11.801-6.523,10.507-13.371l-2.314,3.038c3.471-.277,7.423-1.088,9.983-3.648,2.451-2.451,3.258-6.476,2.801-9.797-.177-1.285-1.821-1.987-2.952-1.676-1.385.381-1.854,1.663-1.676,2.952h0Z"/><path class="f" d="M111.834,60.705c1.802,2.462,3.547,5.075,4.445,8.018.811,2.657.85,5.438.339,8.16-1.111,5.923-4.368,11.152-9.586,14.319-2.746,1.667-6.035,2.689-9.271,2.238-1.282-.179-2.577.312-2.952,1.676-.308,1.122.384,2.772,1.676,2.952,15.421,2.15,27.687-14.44,24.864-28.866-.789-4.033-2.973-7.647-5.369-10.92-.764-1.044-2.083-1.563-3.284-.861-1.031.603-1.631,2.232-.861,3.284h0Z"/><path class="f" d="M8.678,43.427c-2.412-6.031-1.715-12.831,1.604-18.389,3.513-5.885,9.893-9.638,16.698-10.216,4.08-.347,8.244.271,12.005,1.919,1.126.494,2.651.402,3.284-.861,3.077-6.142,9.389-10.17,16.162-10.981,7.302-.875,14.396,2.156,19.228,7.625,2.692,3.046,4.417,6.787,4.965,10.812.169,1.239,1.849,2.05,2.952,1.676,6.039-2.043,12.634-1.101,17.964,2.371,6.132,3.995,9.137,11.004,9.262,18.167.076,4.38-.694,8.436-2.731,12.343-1.426,2.736,2.715,5.166,4.145,2.423,4.25-8.153,4.569-18.149.825-26.568-3.21-7.218-10.077-12.516-17.79-14.085-4.303-.875-8.781-.69-12.951.72l2.952,1.676c-1.17-8.59-7.525-16.152-15.312-19.69s-16.829-3.084-24.266,1.173c-4.037,2.311-7.461,5.743-9.551,9.914l3.284-.861c-8.061-3.532-17.278-3.599-25.167.483-7.097,3.672-12.191,10.775-13.447,18.666-.694,4.359-.391,8.836,1.258,12.958.481,1.203,1.603,2.047,2.952,1.676,1.143-.314,2.16-1.742,1.676-2.952h0Z"/><path class="f" d="M36.546,74.692c-6.621,3.639-14.964,4.138-21.607.265-6.157-3.589-10.145-10.359-10.18-17.495-.022-4.356,1.324-8.53,3.78-12.114,1.75-2.555-2.408-4.958-4.145-2.423-5.183,7.566-5.831,17.624-1.678,25.789,4.072,8.008,12.215,13.22,21.158,13.709,5.249.287,10.507-1.066,15.095-3.588,2.708-1.488.289-5.635-2.423-4.145h0Z"/><path class="g" d="M87.902,240.976l1.829-.418c3.601-.883,7.352-1.149,11.044-.802,2.359.221,4.428-1.543,4.494-3.911l.18-6.49c.056-2.017-1.378-3.776-3.367-4.116-5.953-1.015-12.205-.258-17.726,2.192-1.782-3.458-4.595-6.301-8.806-8.039-11.542-4.764-27.73-2.665-36.134,7.082-1.674-6.807-3.334-11.621-6.178-16.912-.839-1.562-2.791-2.139-4.326-1.252l-9.826,5.681c-1.473.852-1.976,2.718-1.166,4.215,2.847,5.263,4.515,10.03,6.177,16.72-14.588,15.204-17.493,35.042-3.689,48.884-.182,1.596.167,4.876.322,5.925.283,1.913.76,3.796,1.436,5.608,7.974,21.379,38.78,28.03,58.455,23.119,19.541-4.878,29.859-23.036,29.842-41.44-.013-13.611-9.317-29.985-22.562-36.045Z"/><path class="f" d="M85.569,229.476c3.294-1.437,6.915-2.185,10.501-2.273,1.813-.044,3.73-.017,5.51.374.927.204,1.446.846,1.467,1.633.042,1.528-.081,3.076-.123,4.604-.018.657-.016,1.318-.055,1.975-.04.668-.479,1.256-1.041,1.466-.65.243-1.391.058-2.241.008-1.125-.066-2.254-.074-3.38-.026-2.395.102-4.787.449-7.118,1.003-3.004.715-1.732,5.345,1.276,4.629,2.253-.536,4.519-.829,6.835-.86,2.155-.029,4.396.506,6.45-.34,1.852-.763,3.334-2.359,3.818-4.329.224-.911.209-1.864.235-2.795.052-1.893.285-3.87.121-5.759-.18-2.073-1.294-4.009-3.104-5.083-1.853-1.099-4.288-1.174-6.388-1.273-5.237-.246-10.397.813-15.187,2.903-1.188.518-1.46,2.259-.861,3.284.717,1.227,2.091,1.381,3.284.861h0Z"/><path class="f" d="M78.152,209.152c-.981,1.261-1.898,2.555-2.679,3.951s-1.429,2.857-1.988,4.351c-.207.553-.046,1.358.242,1.849.291.498.862.973,1.434,1.103.614.14,1.304.11,1.849-.242.552-.356.873-.82,1.103-1.434.135-.36.276-.718.425-1.072l-.242.573c.919-2.167,2.109-4.205,3.546-6.069l-.375.486.079-.101c.409-.525.703-1.001.703-1.697,0-.589-.261-1.292-.703-1.697-.457-.42-1.058-.732-1.697-.703-.59.026-1.317.214-1.697.703h0Z"/><path class="f" d="M44.903,209.55c.309,2.917.825,5.804,1.615,8.629.338,1.208,1.715,2.077,2.952,1.676s2.039-1.657,1.676-2.952c-.608-2.172-1.064-4.382-1.366-6.618l.086.638c-.06-.457-.115-.915-.163-1.374-.069-.654-.222-1.216-.703-1.697-.416-.416-1.099-.73-1.697-.703-1.187.053-2.541,1.063-2.4,2.4h0Z"/><path class="f" d="M60.984,207.974c-.402,2.911-.609,5.824-.521,8.763.038,1.254,1.077,2.459,2.4,2.4,1.268-.057,2.44-1.056,2.4-2.4-.079-2.61.052-5.22.392-7.808l-.086.638c.014-.106.028-.211.043-.317.092-.669.114-1.241-.242-1.849-.291-.498-.862-.973-1.434-1.103-.614-.14-1.304-.11-1.849.242-.485.313-1.02.834-1.103,1.434h0Z"/><path class="f" d="M31.167,210.772c2.76,5.173,4.53,10.661,5.936,16.339.416,1.681,2.821,2.419,4.011,1.059,5.219-5.963,13.151-8.698,20.934-8.822,7.357-.117,16.05,1.799,19.93,8.692,2.129,3.782,2.628,8.229,2.537,12.499-.025,1.163.785,1.904,1.762,2.314,8.459,3.549,14.772,11.381,18.455,19.568,3.628,8.066,4.135,16.843,2.074,25.395-2.05,8.505-6.584,16.403-13.491,21.877-6.559,5.199-14.801,7.415-22.852,7.822-8.201.414-16.417-.741-24.149-3.534-7.113-2.569-14.063-6.854-18.447-13.027-1.144-1.611-2.145-3.337-2.941-5.147-.431-.981-.829-2.135-1.136-3.226-.181-.644-.338-1.295-.472-1.95-.075-.364-.139-.73-.203-1.097-.243-1.394.037.423-.064-.412-.127-1.059-.223-2.123-.269-3.189-.057-1.333.273-2.736-.676-3.824-1.628-1.867-3.226-3.594-4.506-5.738-4.755-7.966-4.658-17.538-1.113-25.956,1.999-4.745,4.966-9.08,8.435-12.866.548-.598,1.267-1.179,1.49-1.989.237-.862-.126-1.79-.34-2.618-.36-1.39-.744-2.774-1.165-4.146-.79-2.576-1.732-5.097-2.824-7.56-.503-1.134-1.043-2.252-1.617-3.352-.366-.703-.84-1.225-.219-1.808.472-.444,1.316-.748,1.876-1.071l7.387-4.27c.616-.356,1.183-.741,1.656.035,1.605,2.634,5.758.225,4.145-2.423-1.795-2.945-5.192-3.51-8.067-1.848l-5.411,3.128c-1.316.76-2.673,1.476-3.957,2.288-1.72,1.087-2.85,2.964-2.729,5.037.118,2.035,1.469,3.848,2.311,5.649,1.935,4.138,3.22,8.537,4.326,12.959l.617-2.335c-10.362,10.881-17.113,26.801-10.968,41.507,1.692,4.05,4.199,7.649,7.278,10.771l-.703-1.697c-.291,3.119.24,6.612,1.035,9.62s2.102,5.963,3.774,8.603c3.068,4.844,7.358,8.789,12.207,11.809,9.849,6.136,21.967,8.762,33.486,8.543,5.715-.108,11.564-.905,16.94-2.907,6.119-2.279,11.646-5.986,15.975-10.888,4.227-4.787,7.312-10.481,9.204-16.572,1.847-5.944,2.733-12.523,2.01-18.729-1.516-13.01-9.208-26.012-20.538-32.815-1.458-.875-2.982-1.592-4.549-2.249l1.762,2.314c.195-9.187-2.94-18.833-11.865-22.922-8.246-3.778-18.276-4.051-26.834-1.157-4.904,1.658-9.467,4.398-12.896,8.315l4.011,1.059c-1.503-6.073-3.467-11.952-6.42-17.485-1.455-2.726-5.6-.304-4.145,2.423Z"/><path class="f" d="M46.732,241.791c9.221-2.622,19.173-4.039,28.464-.954,2.938.976,4.198-3.658,1.276-4.629-10.067-3.343-21.016-1.889-31.016.954-2.966.843-1.705,5.476,1.276,4.629h0Z"/><path class="f" d="M42.529,260.538c-.858,7.013,1.286,14.18,4.757,20.233,3.442,6.004,8.398,11.081,14.33,14.649,3.303,1.986,6.914,3.491,10.641,4.468,2.991.784,4.266-3.845,1.276-4.629-7.537-1.975-14.322-6.349-19.148-12.485-4.884-6.209-8.029-14.27-7.055-22.236.158-1.289-1.216-2.4-2.4-2.4-1.428,0-2.242,1.108-2.4,2.4h0Z"/><path class="f" d="M67.972,284.156c.425-1.849,1.633-3.475,3.364-4.155,2.513-.988,5.385-.522,7.978-1.23,4.817-1.315,8.65-5.785,8.685-10.848.021-3.089-4.779-3.093-4.8,0-.012,1.777-.871,3.395-2.326,4.693-1.521,1.358-3.421,1.761-5.608,1.931-2.709.211-5.445.472-7.719,2.109-2.095,1.508-3.621,3.696-4.202,6.224-.29,1.262.389,2.599,1.676,2.952,1.211.333,2.661-.408,2.952-1.676h0Z"/><path class="f" d="M24.616,277.418c3.856,4.197,9.751,5.978,15.305,4.951,1.237-.229,2.052-1.793,1.676-2.952-.429-1.325-1.627-1.921-2.952-1.676-.185.034-.866.105-.342.065-.297.023-.591.058-.888.072-.561.027-1.123.019-1.682-.022-.183-.014-.871-.105-.347-.022-.294-.046-.587-.095-.878-.156-.55-.115-1.094-.262-1.627-.44-.251-.084-.499-.177-.745-.272-.236-.091-.164-.08.025.012-.119-.058-.241-.109-.36-.166-.507-.242-.999-.514-1.474-.814-.251-.159-.495-.329-.738-.5-.198-.139-.152-.119.013.016-.102-.084-.206-.166-.307-.251-.455-.384-.88-.799-1.283-1.238-.852-.927-2.543-.928-3.394,0-.91.991-.908,2.405,0,3.394h0Z"/><path class="f" d="M53.548,238.129c-.02-.159-.018-.307.002-.466l-.086.638c.038-.203.097-.394.172-.586l-.242.573c.377-.884.915-1.709,1.501-2.468l-.375.486c.689-.876,1.478-1.66,2.359-2.342l-.486.375c.764-.581,1.583-1.078,2.454-1.483.516-.24.958-.907,1.103-1.434.158-.574.087-1.339-.242-1.849-.33-.512-.822-.964-1.434-1.103-.663-.151-1.235-.044-1.849.242-1.735.806-3.34,1.999-4.631,3.41-.703.769-1.349,1.613-1.89,2.505-.617,1.016-1.307,2.277-1.154,3.502.082.66.213,1.207.703,1.697.416.416,1.099.73,1.697.703.621-.028,1.264-.232,1.697-.703.399-.435.78-1.082.703-1.697h0Z"/></g></svg>