<?xml version="1.0" encoding="utf-8"?>
<!-- Uploaded to: SVG Repo, www.svgrepo.com, Generator: SVG Repo Mixer Tools -->
<svg width="800px" height="800px" viewBox="0 -52.19 397.209 397.209" xmlns="http://www.w3.org/2000/svg"><defs><style>.a{fill:#ffffff;}.b{fill:#211715;}.c{fill:#b3b3b3;}.d{fill:#3f88c9;}.e{fill:none;}</style></defs><path class="a" d="M259.454,153.92c1.392-.519,8.285-2.708,12.921-4.186,2.41-.758,4.215-1.334,4.311-1.363,4.253-1.527,4.089-4.263,4.617-7.315.1-.567.183-1.1.26-1.623.192-1.295.316-2.5.411-3.865-12.585-4.53-20.723-15.575-24.8-27.327-2.763,1.129-5.084-.108-6.721-1.225a16.858,16.858,0,0,1-4.774-5.378,26.517,26.517,0,0,1-3.748-13.816,8.84,8.84,0,0,1,.658-3.619,6.255,6.255,0,0,1,4.264-3.32,6.628,6.628,0,0,1,5.405,1.15l3.751-5.751a31.194,31.194,0,0,1,1.568-8.334,15.189,15.189,0,0,1,5.6-8.329c3.424-2.346,7.839-2.637,11.616-4.36,1.371-.625,2.826-1.281,4.24-2.013,2.556.27,4.672.4,4.672.4a53.821,53.821,0,0,0,17.154-4.044c5.972-2.464,11.614-4.644,13.643-10.778l6.331-1.468c9.518,8.621,15.02,19.514,16.854,32.3l3.391,7.178a6.631,6.631,0,0,1,5.173-1.944,6.26,6.26,0,0,1,4.712,2.647,8.839,8.839,0,0,1,1.19,3.481,26.52,26.52,0,0,1-1.645,14.22,16.869,16.869,0,0,1-3.918,6.03c-1.382,1.283-3.989,1.45-5.879,1.887,0,0-.445.11-1.113.278-2.776,14.641-10.452,24.6-18.9,29.041a61.384,61.384,0,0,0,.912,8.444c.535,3.055.368,5.786,4.616,7.32.281.1,12.329,5.834,12.759,6.011,0,0-11.869,25.627-39.816,25.627S259.454,153.92,259.454,153.92Z"/><path class="a" d="M383.3,196.866c-.359-4.159-3.169-14.358-6.733-19.111a42.268,42.268,0,0,0-12.874-11.421c-8.295-4.509-15.311-8.2-23.321-11.937-.733-.24-1.237-.328-1.428-.2-9.12,5.323-26.886,10.072-40.368,10.019A90.953,90.953,0,0,1,257.851,153.7c-11.492,4.184-23.217,8.3-30.942,13.954-5.281,4.093-8.968,11.54-10.035,19.277-1.97,21.574,1.558,42.64,8.835,63.277,2.224,6.307,4.968,12.673,9.823,17.274,4.216,3.995,10.388,6.359,15.946,5.144-1.492,5.972-2.744,8.135-6.063,17.049,24.924,0,129.682-.565,149.229-.569-2.093-21.437-8.323-71.923-11.347-92.236"/><path class="b" d="M258.08,156.546a92.913,92.913,0,0,0,33.781,9.735c11.224,1.053,22.621-.7,33.38-3.911,2.729-.815,5.428-1.743,8.064-2.826,1.323-.543,2.637-1.109,3.925-1.732q.835-.4,1.653-.839c.175-.093.348-.187.521-.282s.338-.188.5-.284q-1.537.01-.532.194c3,.758,4.273-3.87,1.276-4.628a4.406,4.406,0,0,0-3.671.573c-1,.55-2.016,1.058-3.049,1.534a66.774,66.774,0,0,1-6.316,2.491,103.21,103.21,0,0,1-15.98,4.063,79.027,79.027,0,0,1-33.883-1.732,84.664,84.664,0,0,1-17.251-6.5c-2.74-1.417-5.171,2.724-2.423,4.144Z"/><path class="b" d="M318.329,133.165A78.691,78.691,0,0,0,319.69,144a8.419,8.419,0,0,0,5.574,6.434c.877.348-.624-.309,0-.009.224.109.451.21.676.316q1.067.5,2.13,1l5.763,2.727c1.311.62,2.611,1.286,3.945,1.855a2.482,2.482,0,0,0,3.284-.861,2.417,2.417,0,0,0-.861-3.284c-2.83-1.206-5.583-2.63-8.364-3.946-1.349-.638-2.694-1.291-4.053-1.909a16.455,16.455,0,0,1-2.044-.968,2.528,2.528,0,0,1-1.191-1.66,34.134,34.134,0,0,1-.724-4.023,58,58,0,0,1-.694-6.508,2.452,2.452,0,0,0-2.4-2.4,2.422,2.422,0,0,0-2.4,2.4Z"/><path class="b" d="M260.092,156.234c5.428-1.994,11.03-3.582,16.54-5.33,2.913-.924,5.279-2.537,6.286-5.53a23.379,23.379,0,0,0,.7-3.68c.334-2.035.606-4.072.757-6.13a2.421,2.421,0,0,0-2.4-2.4,2.448,2.448,0,0,0-2.4,2.4c-.126,1.722-.356,3.411-.63,5.114a21.757,21.757,0,0,1-.656,3.42c-.151.457.13-.165-.124.295-.069.127-.386.607-.348.561a3.855,3.855,0,0,1-1.05.775,16.035,16.035,0,0,1-2.753.972c-5.065,1.6-10.21,3.072-15.2,4.9a2.465,2.465,0,0,0-1.676,2.953,2.419,2.419,0,0,0,2.952,1.676Z"/><path class="b" d="M329.038,151.962c10.337,4.411,20.38,9.4,30.27,14.726a48.3,48.3,0,0,1,9.552,6.269,31.566,31.566,0,0,1,8.524,11.286,55.343,55.343,0,0,1,2.375,7.086c.3,1.1.564,2.209.788,3.326q.13.653.24,1.31c-.007-.043.109.746.061.383-.034-.253.045.443.052.518a2.465,2.465,0,0,0,2.4,2.4,2.417,2.417,0,0,0,2.4-2.4,48.633,48.633,0,0,0-3.075-12.334,39.043,39.043,0,0,0-3.02-6.542,35.524,35.524,0,0,0-5.2-6.382,42.1,42.1,0,0,0-9.5-7.346q-7.5-4.147-15.169-7.99-9-4.518-18.275-8.454a2.481,2.481,0,0,0-3.284.861,2.416,2.416,0,0,0,.861,3.283Z"/><path class="b" d="M219.189,187.569c.949-6.6,3.693-13.861,9.181-18.026,5.786-4.391,12.965-7.12,19.691-9.686,4.389-1.674,8.818-3.243,13.227-4.862a2.465,2.465,0,0,0,1.676-2.953,2.42,2.42,0,0,0-2.952-1.676c-8.067,2.964-16.235,5.733-24.037,9.36a61.813,61.813,0,0,0-9.841,5.541,25.637,25.637,0,0,0-7.24,8.238,36.245,36.245,0,0,0-4.334,12.788,2.481,2.481,0,0,0,1.676,2.952,2.418,2.418,0,0,0,2.953-1.676Z"/><path class="c" d="M309.025,11.233c-8.411-3.675-19.1-5.153-26.083-2.209a64.948,64.948,0,0,0-8.506,4.629l-12.124,7.4A62.834,62.834,0,0,0,251.45,28.8c-4.665,4.444-9.346,13.87-9.7,27.405-.182,6.955-.037,15.395,3.387,23.976l.455,1.141a6.176,6.176,0,0,1,1.265-.434,6.628,6.628,0,0,1,5.405,1.15l3.751-5.751a31.194,31.194,0,0,1,1.568-8.334,15.189,15.189,0,0,1,5.6-8.329c3.424-2.346,7.839-2.637,11.616-4.36,1.371-.625,2.826-1.281,4.24-2.013,2.556.27,4.672.4,4.672.4a53.821,53.821,0,0,0,17.154-4.044c5.972-2.464,11.614-4.644,13.643-10.778l6.331-1.468c9.518,8.621,15.02,19.514,16.854,32.3l3.391,7.178a6.631,6.631,0,0,1,5.173-1.944,6.538,6.538,0,0,1,1.907.438c.207-1.177.337-1.914.337-1.914,3.348-18.92-2.86-39.9-14.2-49.91-2.812-2.481-7.038-5.41-10.7-6.205l-6.588-1.429-1.917-1.319A36.586,36.586,0,0,0,309.025,11.233Z"/><path class="b" d="M342.78,78.534a4.134,4.134,0,0,1,6.115.217c.906,1.2,1.02,3.067,1.127,4.509a24.788,24.788,0,0,1-.123,5.087,22.19,22.19,0,0,1-3.189,9.059,6.027,6.027,0,0,1-2.472,2.513,27.044,27.044,0,0,1-4.16.925c-3.016.662-1.74,5.291,1.276,4.628a22.664,22.664,0,0,0,5.37-1.424,11.6,11.6,0,0,0,4.24-4.389,27.561,27.561,0,0,0,3.886-13.017c.233-4.171-.085-9.535-3.661-12.3a9.036,9.036,0,0,0-11.8.8c-2.207,2.168,1.188,5.561,3.394,3.394Z"/><path class="b" d="M253.474,79.961a9,9,0,0,0-11.8,1.331c-3.011,3.452-2.353,8.9-1.447,13.031a27.4,27.4,0,0,0,5.841,11.941c2.781,3.219,7.009,5.706,11.349,4.443,2.96-.862,1.7-5.495-1.276-4.629-2.642.769-5.055-1.335-6.679-3.208a21.935,21.935,0,0,1-4.294-8.546,23.209,23.209,0,0,1-.793-4.753,9.229,9.229,0,0,1,.412-4.412c1.179-2.428,4.33-2.454,6.264-1.053a2.42,2.42,0,0,0,3.284-.861,2.454,2.454,0,0,0-.861-3.284Z"/><path class="b" d="M318.947,135.893c12.157-4.9,19.566-17.076,22.459-29.406A67.29,67.29,0,0,0,343.1,91.942c.037-3.09-4.763-3.091-4.8,0-.155,12.881-3.962,26.733-14.12,35.323a24.248,24.248,0,0,1-3.173,2.277q-.868.531-1.775,1-.443.228-.9.437c-.112.052-.224.1-.337.153-.73.325.408-.159-.328.138A2.475,2.475,0,0,0,316,134.217a2.416,2.416,0,0,0,2.952,1.676Z"/><path class="b" d="M252.657,100.522c2.711,14.437,10.96,28.938,24.527,35.6a39.9,39.9,0,0,0,13.537,3.807,2.416,2.416,0,0,0,2.4-2.4,2.454,2.454,0,0,0-2.4-2.4,33.681,33.681,0,0,1-18.932-8.415,44.544,44.544,0,0,1-11.335-16.543,57.9,57.9,0,0,1-3.168-10.926,2.423,2.423,0,0,0-2.952-1.676,2.451,2.451,0,0,0-1.677,2.952Z"/><path class="b" d="M247.452,79.538c-3.222-8.212-3.778-17.15-3.181-25.883.478-7,2.278-14.24,6.282-20.1a27.409,27.409,0,0,1,6.774-6.461c3.872-2.722,8.012-5.078,12.05-7.543s8.041-5.128,12.27-7.285a21.408,21.408,0,0,1,9.526-2.4,39.944,39.944,0,0,1,22.7,6.76c2.561,1.742,4.965-2.415,2.423-4.144a45.257,45.257,0,0,0-22.294-7.353,27.475,27.475,0,0,0-10.859,1.253c-4.512,1.615-8.575,4.376-12.64,6.857-4.34,2.65-8.727,5.235-13.008,7.978-3.4,2.177-6.877,4.578-9.449,7.73-4.685,5.742-7.114,13.073-8.117,20.335-1.432,10.365-.959,21.724,2.889,31.532a2.472,2.472,0,0,0,2.953,1.676,2.418,2.418,0,0,0,1.676-2.952Z"/><path class="b" d="M322.956,19.617c4,.937,7.657,3.645,10.577,6.446a36.577,36.577,0,0,1,6.517,8.631,56.965,56.965,0,0,1,6.785,23.553,59.828,59.828,0,0,1-.649,14.532,2.47,2.47,0,0,0,1.676,2.952,2.42,2.42,0,0,0,2.952-1.676,66.43,66.43,0,0,0-1.234-28.274c-2.168-8.2-5.976-16.328-11.969-22.436-3.588-3.656-8.318-7.171-13.379-8.357-3-.7-4.287,3.923-1.276,4.629Z"/><path class="b" d="M319.141,39.056a50.562,50.562,0,0,1,10.933,14.1,54.275,54.275,0,0,1,5.3,17.138,2.416,2.416,0,0,0,2.952,1.677,2.463,2.463,0,0,0,1.677-2.953,55.745,55.745,0,0,0-17.472-33.359c-2.278-2.078-5.682,1.307-3.394,3.394Z"/><path class="b" d="M312.193,38.189c-1.641,4.739-6.467,6.828-10.767,8.607a60.172,60.172,0,0,1-17.716,4.453,2.465,2.465,0,0,0-2.4,2.4,2.417,2.417,0,0,0,2.4,2.4,67.518,67.518,0,0,0,10.559-1.687A68.2,68.2,0,0,0,303.719,51c5.7-2.4,10.966-5.365,13.1-11.535,1.013-2.925-3.622-4.182-4.628-1.276Z"/><path class="b" d="M290.814,35.848a34.841,34.841,0,0,1-5.5,9.292,22.88,22.88,0,0,1-4.017,3.954,32.466,32.466,0,0,1-5.227,2.947,36.384,36.384,0,0,1-5.238,2.1c-1.861.555-3.754,1.012-5.56,1.734a15.914,15.914,0,0,0-8.621,7.912,33.681,33.681,0,0,0-3.038,12.493,2.4,2.4,0,1,0,4.8,0,27.441,27.441,0,0,1,2.383-10.07,12.267,12.267,0,0,1,3.148-4.182,13.3,13.3,0,0,1,4.554-2.211c1.859-.582,3.762-1.022,5.591-1.7a55.5,55.5,0,0,0,5.566-2.5,27.531,27.531,0,0,0,9.184-7.247,42.112,42.112,0,0,0,6.6-11.249,2.417,2.417,0,0,0-1.677-2.952,2.456,2.456,0,0,0-2.952,1.676Z"/><path class="a" d="M267.841,188.482c1.8-2.778,6.667-8.945,7-10.728a24.127,24.127,0,0,0,.045-7.028c-1.035-7.716-1.605-18.256-2.959-22.846a47.4,47.4,0,0,0-4.857-11.649,94.643,94.643,0,0,0-6.846-10.281,7.121,7.121,0,0,1-1.446-3.709,2.97,2.97,0,0,1,1.913-3,6.291,6.291,0,0,1,4.1.092c4.022,2.18,6.691,5.4,9.712,10.1,2.08,3.232,8.612,11.847,10.511,15.189l.189.294c1.6-.92,3.157-1.605,5.346-2.593.971-.438,3.92-1.426,4.995-1.28a7.094,7.094,0,0,1,6.073,6.346c2.049-.523,3.76.68,4.945,2.093,1.053,1.256,2.018,3.228.986,7.158h0a6.2,6.2,0,0,1,3.614,5.511c.151,2.092.345,3.934-.812,6.261-1.2,2.411-4.3.952-5.186-.168l-.341-.164c.889,3.15,2.2,8.689.616,12.718-.571,1.449-5.338,5.063-7.361,6.328-2.671,4.16-5.281,12.675-6.205,15.183Z"/><path class="b" d="M283.124,149.179a33.57,33.57,0,0,1,5.079-3.139c.908-.449,1.833-.864,2.756-1.281.266-.12.53-.247.8-.361-.247.1-.206.084.02,0q.616-.231,1.245-.43c1.614-.509,2.294-.842,3.737-.048a4.8,4.8,0,0,1,2.455,3.472,2.451,2.451,0,0,0,3.038,2.314,2.155,2.155,0,0,1,1.837.666c.111.095.987,1.093.648.64a6.313,6.313,0,0,1,.466.73q.178.375.055.074.093.24.163.486a3.259,3.259,0,0,1,.151.8,8.966,8.966,0,0,1-.342,2.9c-.742,3,3.886,4.278,4.629,1.276.684-2.766.866-5.842-.737-8.344-1.8-2.813-4.788-4.538-8.146-3.86l3.038,2.315a9.887,9.887,0,0,0-3.374-6.6,8.406,8.406,0,0,0-7.05-1.945,28.4,28.4,0,0,0-6.332,2.344,36.716,36.716,0,0,0-6.557,3.841,2.471,2.471,0,0,0-.861,3.283,2.417,2.417,0,0,0,3.283.861Z"/><path class="b" d="M290.245,154.866c1.021-.52,2.062-1,3.108-1.47q.916-.41,1.838-.8l.848-.362c.578-.245-.472.2.1-.043l.42-.176c1.889-.787,3.788-1.548,5.69-2.3a2.459,2.459,0,0,0,1.676-2.952,2.425,2.425,0,0,0-2.952-1.677c-4.426,1.76-8.907,3.482-13.155,5.645a2.416,2.416,0,0,0-.861,3.283,2.457,2.457,0,0,0,3.284.861Z"/><path class="b" d="M308.757,154.571c-2.684-1.182-5.451-.553-8.149.267-1.222.372-2.447.72-3.634,1.195-.751.3-1.494.622-2.233.949-.3.134-.6.269-.906.4q-.292.131-.587.258c-.041.019-.5.214-.286.126a2.466,2.466,0,0,0-1.676,2.952c.358,1.107,1.713,2.2,2.952,1.676.753-.316,1.5-.637,2.25-.969.3-.133.6-.267.9-.4.074-.032.9-.383.53-.231,1.107-.457,2.24-.8,3.383-1.151a31.192,31.192,0,0,1,3.188-.863c.141-.028.282-.053.423-.076-.288.035-.291.036-.011,0s.541-.042.814-.039c.18,0,.913.166.323,0,.13.035.879.294.3.038a2.464,2.464,0,0,0,3.284-.861,2.426,2.426,0,0,0-.861-3.283Z"/><path class="b" d="M303.465,169.944A6.512,6.512,0,0,0,307,171.969a4.844,4.844,0,0,0,5.231-2.017,10.586,10.586,0,0,0,1.443-5.821,14.012,14.012,0,0,0-.853-5.251,8.4,8.4,0,0,0-4.063-4.309,2.4,2.4,0,1,0-2.423,4.144c.175.085,1.105.467,1.128.67l-.237-.183c.08.066.158.134.235.2a5.679,5.679,0,0,1,.43.434c.39.438-.03.031,0-.014-.009.013.3.462.326.508a4.768,4.768,0,0,0,.275.542c-.087,0-.2-.548-.018,0a9.644,9.644,0,0,1,.27,1.084c.042.265.036.216-.016-.145.012.112.022.224.03.337.02.243.037.486.053.729a19.19,19.19,0,0,1,.017,2.492c-.03.491.091-.458-.032.179-.043.219-.093.436-.154.651-.073.262-.167.513-.256.769.163-.471-.083.173-.112.229-.046.092-.1.18-.15.266q-.219.318.121-.15a2.319,2.319,0,0,1-.187.184q.464-.339.234-.19c-.447.288.489-.106.083-.015-.615.138.469.023.051.018l-.364,0c-.408,0,.65.141.028-.012-.142-.035-.278-.084-.418-.126-.528-.159.442.235.059.025-.129-.071-.569-.432-.707-.423q.505.4.23.176-.077-.065-.15-.135a2.852,2.852,0,0,1-.247-.268,2.409,2.409,0,0,0-3.394,0,2.467,2.467,0,0,0,0,3.395Z"/><path class="b" d="M301.978,166.879a48.577,48.577,0,0,1,1.653,6.994,15.37,15.37,0,0,1,.011,4.441,9.51,9.51,0,0,1-.242,1.027c-.048.168-.1.333-.157.5.009-.025.1-.244.027-.056-.159.438.137-.1-.133.205-.191.219-.393.428-.6.633a29.787,29.787,0,0,1-2.863,2.457,32.775,32.775,0,0,0-3.295,2.354,13.246,13.246,0,0,0-2.129,3.79c-.676,1.472-1.29,2.974-1.871,4.486-1.01,2.632-1.857,5.319-2.822,7.966a2.42,2.42,0,0,0,1.676,2.952,2.45,2.45,0,0,0,2.952-1.676c1.793-4.915,3.151-10.144,5.964-14.61l-.861.861a46.453,46.453,0,0,0,5.449-4.091,9.264,9.264,0,0,0,3.5-5.346c.975-4.8-.357-9.563-1.631-14.161-.824-2.973-5.457-1.71-4.629,1.276Z"/><path class="b" d="M287.084,143.414c-2-3.477-4.508-6.69-6.843-9.944-2.6-3.619-4.9-7.53-7.8-10.912-2.962-3.454-7.506-7.345-12.391-5.628-3.185,1.12-4.276,4.476-3.275,7.521.845,2.569,2.84,4.675,4.365,6.864a55.987,55.987,0,0,1,8.47,17.2c.809,2.978,5.441,1.714,4.628-1.276a56.162,56.162,0,0,0-6.377-14.411c-1.288-2.117-2.7-4.149-4.157-6.154a30.611,30.611,0,0,1-1.956-2.788c-.279-.492-.852-1.59-.509-2.169.286-.483,1.353-.408,1.853-.362a4.288,4.288,0,0,1,2.006.967,20.653,20.653,0,0,1,4.542,4.342c2.337,2.909,4.277,6.19,6.455,9.226,2.335,3.254,4.843,6.466,6.844,9.943,1.54,2.677,5.689.263,4.144-2.422Z"/><path class="b" d="M269.913,189.693c1.368-2.093,2.9-4.079,4.325-6.131,1.352-1.944,2.762-3.868,3.08-6.264.463-3.489-.11-6.9-.49-10.362-.372-3.384-.675-6.775-1.051-10.159a57.68,57.68,0,0,0-1.538-9.535c-.849-2.964-5.482-1.7-4.628,1.276a58.4,58.4,0,0,1,1.554,10c.426,4.07.813,8.142,1.319,12.2a23.618,23.618,0,0,1,.041,6.39c-.024.158-.265.708,0,.118-.081.18-.173.355-.266.53-.318.6-.684,1.169-1.053,1.735-1.729,2.648-3.707,5.125-5.436,7.772-1.695,2.593,2.46,5,4.144,2.422Z"/><path class="b" d="M214.474,186.931c-1.9,21.28,1.57,42.663,8.526,62.784,3,8.665,6.943,18.03,15.3,22.79a19.938,19.938,0,0,0,13.076,2.575c3.931-.657,7.506-3.04,10.651-5.37a55.279,55.279,0,0,0,9.418-8.569,63.8,63.8,0,0,0,5.449-8c3.748-6.122,7.229-12.41,10.585-18.754,3.1-5.852,6.1-11.763,8.836-17.8.959-2.117,1.91-4.252,2.691-6.442.45-1.261.984-2.735.561-4.07-.626-1.974-2.766-3.36-4.36-4.482-2.379-1.677-4.908-3.144-7.438-4.577-6.029-3.415-12.21-6.554-18.373-9.714q-1.827-.937-3.65-1.882a2.464,2.464,0,0,0-3.284.861c-3.229,4.865-6.15,9.943-9.025,15.022s-5.724,10.2-8.244,15.466a2.464,2.464,0,0,0,.861,3.283,2.42,2.42,0,0,0,3.283-.861c2.521-5.267,5.369-10.386,8.245-15.465s5.8-10.158,9.025-15.022l-3.284.861c5.559,2.892,11.163,5.7,16.685,8.661,2.847,1.528,5.681,3.086,8.454,4.744,1.155.691,2.3,1.4,3.42,2.149.473.316.941.639,1.4.975.127.093.719.555.266.194.178.141.355.283.527.43.294.251.562.521.84.788.154.147.442.61-.007-.048a1.991,1.991,0,0,1,.221.356c-.2-.478-.022-.22-.168-.531-.115-.245-.038-.361-.038-.119,0,.424.178-.6.045-.3a2.821,2.821,0,0,0-.079.372c-.183.646-.381,1.282-.612,1.913-.139.38-.285.757-.434,1.134-.089.222-.178.444-.269.665-.063.154-.374.9-.167.408-2.266,5.345-4.874,10.552-7.523,15.714q-4.8,9.36-10.059,18.48c-3.151,5.428-6.231,10.994-10.782,15.385a52.1,52.1,0,0,1-9.3,7.231c-3.093,1.857-6.293,2.878-9.924,2.127-8.617-1.781-13.5-9.613-16.515-17.249a147.912,147.912,0,0,1-10.5-58.571q.126-3.775.468-7.538a2.417,2.417,0,0,0-2.4-2.4,2.45,2.45,0,0,0-2.4,2.4Z"/><path class="b" d="M248.965,272.766c-1.465,5.583-3.852,10.873-5.864,16.271a2.421,2.421,0,0,0,1.676,2.952,2.451,2.451,0,0,0,2.952-1.676c2.013-5.4,4.4-10.688,5.864-16.271a2.4,2.4,0,0,0-4.628-1.276Z"/><path class="b" d="M354.247,193.865q.743,14.647.89,29.316c.048,5.034.022,9.986-.383,15-.933,11.54-2.222,23.055-3.52,34.559-.622,5.51-1.256,11.02-1.95,16.521a2.413,2.413,0,0,0,2.4,2.4,2.46,2.46,0,0,0,2.4-2.4c1.372-10.882,2.571-21.788,3.711-32.7,1.029-9.857,2.212-19.733,2.168-29.655q-.074-16.528-.916-33.043c-.155-3.074-4.956-3.092-4.8,0Z"/><path class="b" d="M380.983,197.508c1.674,11.264,3.073,22.261,4.508,33.609q2.55,20.162,4.861,40.352c.666,5.876,1.317,11.753,1.892,17.638a2.467,2.467,0,0,0,2.4,2.4,2.417,2.417,0,0,0,2.4-2.4c-1.144-11.7-2.529-23.379-3.928-35.051q-2.415-20.151-5.069-40.275c-.778-5.854-1.567-11.707-2.436-17.549a2.416,2.416,0,0,0-2.952-1.676,2.46,2.46,0,0,0-1.676,2.952Z"/><path class="b" d="M245.415,292.075q11.335,0,22.671-.057,16.749-.06,33.5-.136,18.488-.079,36.974-.164,16.578-.074,33.156-.142,10.818-.043,21.636-.069h1.542c3.088,0,3.093-4.8,0-4.8-6.6,0-13.2.031-19.8.057q-16.011.061-32.023.135l-36.886.164q-17.232.077-34.464.143-12.165.045-24.329.069h-1.978c-3.089,0-3.094,4.8,0,4.8Z"/><path class="b" d="M295.649,117.279c.46-.291.932-.562,1.418-.808.231-.116.466-.226.7-.333.153-.067.138-.061-.047.017.145-.058.29-.115.437-.17a15.585,15.585,0,0,1,1.856-.568q.366-.087.735-.156c.165-.03.332-.058.5-.083q-.327.048.122,0c1.265-.083,2.522-.148,3.791-.109.524.016,1.048.046,1.57.1.134.012.268.027.4.042-.32-.045-.348-.049-.082-.009.213.039.426.076.638.124a2.4,2.4,0,0,0,1.277-4.629,24.54,24.54,0,0,0-7.851-.29,18.433,18.433,0,0,0-7.89,2.735,2.4,2.4,0,1,0,2.423,4.145Z"/><path class="b" d="M313.2,109.423a18.02,18.02,0,0,1,1.216,1.417l-.376-.486a23.844,23.844,0,0,1,1.506,2.211,2.5,2.5,0,0,0,1.434,1.1,1.823,1.823,0,0,0,.957.043,1.788,1.788,0,0,0,.893-.285,2.425,2.425,0,0,0,1.1-1.434,2.482,2.482,0,0,0-.242-1.85,23.521,23.521,0,0,0-3.1-4.113,2.4,2.4,0,0,0-3.394,0,2.414,2.414,0,0,0-.7,1.7,2.542,2.542,0,0,0,.7,1.7Z"/><path class="b" d="M298.688,93.262c.248.72.479,1.445.7,2.174a16.192,16.192,0,0,1,.61,2.317l-.085-.638a2.063,2.063,0,0,1,.006.458l.086-.638a1.36,1.36,0,0,1-.051.207l.242-.573a.943.943,0,0,1-.1.179l.375-.485a.65.65,0,0,1-.1.1l.485-.376a2.643,2.643,0,0,1-.5.292l.573-.242a2.324,2.324,0,0,1-.537.154l.638-.086a5.7,5.7,0,0,1-1.011-.046,2.4,2.4,0,0,0-2.4,2.4,2.454,2.454,0,0,0,2.4,2.4,7.617,7.617,0,0,0,.84.061,4.688,4.688,0,0,0,2.179-.629,3.175,3.175,0,0,0,1.59-2.081,4.9,4.9,0,0,0-.1-2.2c-.343-1.36-.759-2.7-1.215-4.029a2.555,2.555,0,0,0-1.1-1.434,2.4,2.4,0,0,0-3.284.861,2.4,2.4,0,0,0-.242,1.849Z"/><path class="b" d="M275.188,82.866c-.544,2.395.329,7.745,4.8,7.871,5.86-.475,5.683-7.009,3.48-9.922C281.663,78.43,276.834,77.743,275.188,82.866Z"/><path class="b" d="M322.129,79.346c.9,2.287.831,7.707-3.57,8.5-5.864.4-6.665-6.083-4.921-9.292C315.065,75.924,319.738,74.526,322.129,79.346Z"/><path class="a" d="M15.182,274.991a20.1,20.1,0,0,1-8.49-10.2c-6.792-16.17-6.009-43.094,5.938-80.5,2.64-7.647,5.194-12.345,8.4-15.71l.244.35c2.48,4.8,6.7,16.924,8.7,22.785a118.43,118.43,0,0,1,2.858,14.332l.415,2.187c1.673-3.2,3.231-6.157,4.554-8.645a2.013,2.013,0,0,1,2.713-.894c7.611,3.9,24.21,10.8,32.694,14.89,1.453.7,1.388,2.045,1.005,3.638-2.9,8.762-10.492,25.018-12.588,29.337-3.337,6.876-9.176,17.428-15.811,23.469a25.144,25.144,0,0,1-5.473,3.87c-5.283,2.54-12.57,4.353-18.918,3.256A19.2,19.2,0,0,1,15.182,274.991Z"/><path class="a" d="M192.264,282.508c-3.98,2.992-8.864,4.217-13.48,5.019-22.834,3.941-63.571,2.756-78.751,2.542-1.717-.328-2.062-38.451-.286-42.55,12.8-.706,46.105-.934,61.979-.888,0-.308.01-.5.01-.5,1.116-10.79,3.392-41.51,5.383-50.612,1.411-6.218,4.266-19.912,6.826-25.245l.156-.27q.719.455,1.426.925c4.107,3.967,7.231,10.09,8.872,14.492,7.877,22.466,13.866,47.36,15.619,66.044.828,8.825.885,17.779-2.072,24A18.606,18.606,0,0,1,192.264,282.508Z"/><path class="a" d="M64.424,153.1c2.515-.8,8.986-2.784,9.293-2.9,4.627-1.67,4.445-4.646,5.03-7.968.144-.777.26-1.536.375-2.285-13.459-4.777-22.318-16.374-26.931-28.866-2.829,1.412-5.132.081-6.951-1.143a18,18,0,0,1-5.134-5.713A28.329,28.329,0,0,1,36.012,89.5a9.465,9.465,0,0,1,.679-3.87,6.686,6.686,0,0,1,4.533-3.574A7.076,7.076,0,0,1,47,83.247a13.236,13.236,0,0,0,4.562-5.91c4.978-4.871-2.489-21.689,7.325-29.8a26.62,26.62,0,0,1,12.444-5.475c7.191-1.41,21.655-4.353,27.919-4.293,7.665.072,13.519.094,22.79,3.382,10.884,3.281,16.3,20.416,16.981,28.824,0,0,1.645,4.088,2.975,8.033a6.863,6.863,0,0,1,6.243-3.079,6.684,6.684,0,0,1,5.049,2.8,9.446,9.446,0,0,1,1.294,3.71,28.313,28.313,0,0,1-1.664,15.2,18,18,0,0,1-4.145,6.466c-1.75,1.645-3.572,2.521-6.766,1.26-2.881,15.854-11.032,26.746-20.11,31.758.16,2.089.439,4.17.792,6.241.561,3.181.383,6.024,4.812,7.62.2.08,6.257,2.941,10.107,4.768,0,0-7.187,23-39.613,23C71.972,177.746,64.424,153.1,64.424,153.1Z"/><path class="c" d="M37.384,61.481a64.148,64.148,0,0,1,6.65-31.4c5.126-10.339,15-19.454,24.856-21.329a50.323,50.323,0,0,0,7.671-2.381c12.2-6.8,33.841-4.893,43.352,5.871,14.142,3.132,21.861,11.908,26.372,25.642,4.037,12.29,4.768,28.033,2.536,37.117a4.307,4.307,0,0,0-.578-.073A6.863,6.863,0,0,0,142,78.012c-1.33-3.945-2.975-8.033-2.975-8.033-.683-8.408-6.1-25.543-16.981-28.824-9.271-3.288-15.125-3.31-22.79-3.382-6.264-.06-20.728,2.883-27.919,4.293a26.62,26.62,0,0,0-12.444,5.475c-9.814,8.107-2.347,24.925-7.325,29.8A13.236,13.236,0,0,1,47,83.247a7.076,7.076,0,0,0-5.78-1.194c-.112.026-.223.055-.331.091A84.805,84.805,0,0,1,37.384,61.481Z"/><path class="b" d="M144.427,78.74c1.794-1.79,5.056-2,6.731.116a8.035,8.035,0,0,1,1.222,3.93,26.82,26.82,0,0,1,.107,5.434,24.443,24.443,0,0,1-2.835,9.765c-1.06,1.927-2.97,5-5.559,4.514a2.465,2.465,0,0,0-2.952,1.676,2.421,2.421,0,0,0,1.676,2.952,7.852,7.852,0,0,0,6.117-1.077,15.925,15.925,0,0,0,4.456-4.938,29.466,29.466,0,0,0,3.953-13.8c.2-4.461-.188-10.093-4.068-12.981a9.487,9.487,0,0,0-12.242,1.014c-2.189,2.185,1.2,5.58,3.394,3.394Z"/><path class="b" d="M48.216,81.174a9.462,9.462,0,0,0-12.223,1.251c-3.272,3.569-2.613,9.249-1.687,13.616a29.557,29.557,0,0,0,5.952,12.534c2.8,3.4,7.315,6.55,11.891,5.117,2.938-.919,1.684-5.555-1.276-4.628-2.8.876-5.614-1.875-7.221-3.883a26.019,26.019,0,0,1-5.2-14.142c-.077-1.525-.2-3.3.565-4.678,1.384-2.491,4.685-2.546,6.78-1.042a2.419,2.419,0,0,0,3.284-.861,2.454,2.454,0,0,0-.861-3.284Z"/><path class="b" d="M141.425,69.979a48.767,48.767,0,0,0-3.178-13.217c-1.88-4.907-4.392-9.8-8.2-13.5a17.647,17.647,0,0,0-7.363-4.418c-2.974-.855-4.244,3.775-1.276,4.628,5.133,1.476,8.614,6.712,10.956,11.636a48.845,48.845,0,0,1,2.936,8.061c.346,1.263.648,2.537.9,3.822q.174.907.309,1.821a1.747,1.747,0,0,1,.048.4c.026.256.053.512.075.769a2.462,2.462,0,0,0,2.4,2.4,2.419,2.419,0,0,0,2.4-2.4Z"/><path class="b" d="M113.682,38.3c-.978-2.784-2.019-5.7-4.067-7.9a13.806,13.806,0,0,0-3.077-2.328,18.9,18.9,0,0,0-3.838-1.822,2.419,2.419,0,0,0-2.952,1.676,2.453,2.453,0,0,0,1.676,2.952c.1.034.208.068.311.106.08.029.59.232.174.063s.063.033.146.072c.131.061.261.123.39.187.569.281,1.125.587,1.67.911.479.285.952.584,1.4.911.349.253.019.044-.123-.1.082.083.185.151.273.229.193.17.377.35.553.538.082.088.162.178.24.269.06.071.348.436.081.09s.018.032.071.107c.086.122.169.245.249.371a14.131,14.131,0,0,1,.8,1.434q.2.405.379.818c.042.1.084.192.125.288l-.118-.276a2.033,2.033,0,0,1,.186.46c.291.734.559,1.476.82,2.221a2.4,2.4,0,0,0,4.629-1.276Z"/><path class="b" d="M101.829,37.666a27.641,27.641,0,0,0-11.664-7.858,27.093,27.093,0,0,0-5.442-1.244,23.473,23.473,0,0,0-6.28-.347,2.477,2.477,0,0,0-2.4,2.4,2.414,2.414,0,0,0,2.4,2.4,19.7,19.7,0,0,1,5.152.2,27.627,27.627,0,0,1,5.131,1.163,22.473,22.473,0,0,1,9.709,6.683,2.422,2.422,0,0,0,3.394,0,2.449,2.449,0,0,0,0-3.4Z"/><path class="b" d="M119.58,8.539c-6.7-5.76-15.7-8.26-24.407-8.518A43.622,43.622,0,0,0,82.332,1.49a33.49,33.49,0,0,0-5.769,2.182c-.408.2-.822.4-1.213.632-.5.295.307-.079-.294.136-.807.289-1.617.565-2.436.818-3.8,1.171-7.65,1.82-11.258,3.582a40.4,40.4,0,0,0-11.855,9.127c-6.932,7.584-11.24,17.377-13.238,27.4C33.837,57.557,35,70.069,38.346,81.974c.834,2.969,5.466,1.708,4.628-1.276-2.771-9.866-4.064-20.2-2.694-30.415C41.526,41,44.869,31.479,50.641,24.03A39.813,39.813,0,0,1,60.8,14.653a26.909,26.909,0,0,1,5.643-2.762c1.607-.545,3.275-.824,4.909-1.266,1.605-.435,3.213-.9,4.773-1.477,1.433-.531,2.728-1.331,4.139-1.907A34.5,34.5,0,0,1,91.5,4.862c8.5-.442,18.074,1.383,24.69,7.071a2.461,2.461,0,0,0,3.394,0,2.421,2.421,0,0,0,0-3.394Z"/><path class="b" d="M124.754,16.17c17.079,6.514,22.162,26.738,22.84,43.228a56.525,56.525,0,0,1-.93,14.3c-.654,3.012,3.972,4.3,4.629,1.276,2.1-9.681,1.333-20.16-.622-29.8-1.866-9.2-5.367-18.648-12-25.51a34.424,34.424,0,0,0-12.641-8.123,2.419,2.419,0,0,0-2.952,1.677,2.453,2.453,0,0,0,1.676,2.952Z"/><path class="b" d="M119.549,139.875c11.927-4.89,19.624-16.324,23.217-28.337a68.007,68.007,0,0,0,2.5-13.728,2.419,2.419,0,0,0-2.4-2.4,2.45,2.45,0,0,0-2.4,2.4c-1.065,12.473-5.721,25.426-15.693,33.525a29.087,29.087,0,0,1-3.118,2.165q-.906.548-1.851,1.028-.4.206-.817.4c-.436.2-.486.226-.717.32A2.479,2.479,0,0,0,116.6,138.2a2.417,2.417,0,0,0,2.953,1.676Z"/><path class="b" d="M47.109,101.777c3.041,15.685,12.083,31.411,26.867,38.6a43.246,43.246,0,0,0,14.792,4.088,2.417,2.417,0,0,0,2.4-2.4,2.452,2.452,0,0,0-2.4-2.4,37.085,37.085,0,0,1-20.935-9.141,49.164,49.164,0,0,1-12.52-18.006A62.472,62.472,0,0,1,51.738,100.5a2.423,2.423,0,0,0-2.953-1.676,2.448,2.448,0,0,0-1.676,2.952Z"/><path class="b" d="M70.517,40.626a26.107,26.107,0,0,0-9.955,2.929,19.144,19.144,0,0,0-6.91,6.938c-3.237,5.47-2.371,11.893-2.473,17.985a31.682,31.682,0,0,1-.311,4.411,12.666,12.666,0,0,1-.487,1.878c-.155.449-.052.129-.008.035-.075.157-.156.31-.241.462-.049.088-.1.172-.158.257-.335.528.3-.326-.1.119-2.085,2.273,1.3,5.676,3.394,3.394,1.823-1.987,2.3-4.664,2.553-7.26.283-2.961.156-5.95.154-8.919a25.611,25.611,0,0,1,.676-7.589c.031-.1.268-.736.192-.556-.143.333.172-.34.2-.4q.12-.24.245-.478a20.532,20.532,0,0,1,1.33-2.185,13.659,13.659,0,0,1,2.71-2.857,18.412,18.412,0,0,1,9.191-3.361,2.475,2.475,0,0,0,2.4-2.4,2.413,2.413,0,0,0-2.4-2.4Z"/><path class="d" d="M162.805,234.531c1.2-13.586,2.836-32.252,4.314-39.007,1.411-6.218,4.266-19.912,6.826-25.245l.131-.288c-12.6-8.018-27.5-13.186-34.942-16l-.493.406c-7.251,5.242-25.391,10.266-38.515,10.234-14.96-.038-27.727-3.9-36.952-11.969l-2.624-2.084c-10.922,3.55-24.661,8.414-33.378,13.3a26.047,26.047,0,0,0-6.151,4.705l.249.344c2.48,4.8,6.7,16.924,8.7,22.785a118.43,118.43,0,0,1,2.858,14.332l.332,2.344c1.705-3.258,3.292-6.274,4.637-8.8a2.013,2.013,0,0,1,2.713-.894c7.611,3.9,24.21,10.8,32.694,14.89,1.453.7,1.388,2.045,1.005,3.638-2.9,8.762-10.492,25.018-12.588,29.337l-.016.033c8.8,1.507,27.23,3.949,37.483,4.944a16.336,16.336,0,0,1,.662-4.016c12.794-.705,46.053-.934,61.938-.889l.051-.494C162.024,243.354,162.388,239.249,162.805,234.531Z"/><path class="b" d="M14.944,184.926a52.363,52.363,0,0,1,5.142-11.269,23.041,23.041,0,0,1,5.706-6.065,57.69,57.69,0,0,1,9.853-5.241c4.264-1.909,8.63-3.586,13.02-5.179q3.669-1.332,7.368-2.576,1.821-.617,3.647-1.215.928-.3,1.856-.606c.238-.077.5-.14.727-.235-.161.067-.538-.245-.226.045,2.259,2.1,5.66-1.283,3.394-3.394a4.688,4.688,0,0,0-3.527-1.432,15.275,15.275,0,0,0-3.688,1.055Q54.6,150.005,51,151.258c-4.993,1.746-9.948,3.6-14.82,5.664-7.244,3.065-14.471,6.36-19.244,12.863-3.036,4.137-4.948,9.053-6.621,13.865-1.016,2.924,3.62,4.18,4.629,1.276Z"/><path class="a" d="M55.927,260.055a54.154,54.154,0,0,1-8.2,9.972,30.5,30.5,0,0,1-3.049,2.431l.372.706c1.69,3.328,7.239,11.666,7.655,12.271a12.16,12.16,0,0,0,4.1,4.141,5.176,5.176,0,0,0,5.606-.273,23.825,23.825,0,0,0,2.167-2.873c2.617-3.136,7.524-2.621,11.663-2.8a26.2,26.2,0,0,0,14.437-5.118l8.066-.238a264.993,264.993,0,0,1,.339-26.8c-9.033-.816-26.987-3.174-35.677-4.652A118.472,118.472,0,0,1,55.927,260.055Z"/><path class="b" d="M119.508,136.213c.229,2.825.692,5.614,1.124,8.412a9.351,9.351,0,0,0,2.4,5.424,9.476,9.476,0,0,0,3.279,2.033c.835.324-.26-.17.087.025.075.042.154.078.23.117.315.164.632.326.948.489,2.271,1.172,4.552,2.326,6.861,3.425a2.465,2.465,0,0,0,3.283-.861,2.421,2.421,0,0,0-.861-3.284c-2.185-1.04-4.346-2.129-6.5-3.237-.521-.269-1.035-.556-1.565-.806-.422-.2-.826-.332-1.138-.484A7.076,7.076,0,0,1,127,147.1c-.085-.052-.6-.457-.254-.159-.16-.136-.3-.292-.454-.431-.412-.365.16.325-.114-.128-.1-.162-.2-.319-.291-.487-.116-.221-.185-.49-.061-.109a15.461,15.461,0,0,1-.561-2.435c-.367-2.376-.758-4.737-.953-7.136a2.461,2.461,0,0,0-2.4-2.4,2.419,2.419,0,0,0-2.4,2.4Z"/><path class="b" d="M136.993,155.752c.259-.164,2.3.848,2.746,1.016,1.345.5,2.691,1,4.035,1.508,3.349,1.262,6.688,2.557,9.98,3.962,3.872,1.652,7.694,3.428,11.42,5.388,3.708,1.952,7.927,3.872,10.625,7.151a40.131,40.131,0,0,1,6.285,11.287,2.468,2.468,0,0,0,2.953,1.676,2.418,2.418,0,0,0,1.676-2.952,48.028,48.028,0,0,0-6.047-11.505,19.28,19.28,0,0,0-4.993-5.117c-2.025-1.3-4.1-2.526-6.213-3.684a188.089,188.089,0,0,0-24.123-10.726c-1.63-.615-3.263-1.218-4.893-1.831-1.977-.743-3.871-1.588-5.873-.317-2.6,1.651-.2,5.806,2.422,4.144Z"/><path class="e" d="M63.174,152.658c9.225,8.071,21.992,11.931,36.952,11.969,13.124.032,31.264-4.992,38.515-10.234"/><path class="b" d="M65.062,155.418c2.8-.885,5.6-1.738,8.4-2.614a12.612,12.612,0,0,0,3.742-1.7,8.4,8.4,0,0,0,3.215-4.634,50.5,50.5,0,0,0,1.019-5.88,2.464,2.464,0,0,0-1.676-2.953,2.427,2.427,0,0,0-2.952,1.677c-.259,1.679-.49,3.38-.823,5.047-.066.33-.143.658-.239.981-.043.147-.094.291-.143.436-.171.508.166-.284-.024.057-.074.134-.14.273-.219.4-.038.066-.384.573-.166.274s-.116.12-.181.188c-.139.145-.3.267-.437.41.02-.021.357-.236.128-.1-.108.066-.208.146-.315.214-.17.11-.344.211-.523.307-.094.05-.189.1-.284.146-.014.007-.342.166-.124.065.165-.076-.314.123-.4.151-.273.1-.55.177-.826.263q-1.959.614-3.92,1.218c-1.511.468-3.022.935-4.53,1.412a2.4,2.4,0,0,0,1.276,4.629Z"/><path class="b" d="M167.116,244.264c-18.182-.2-36.388-.009-54.565.413-4.269.1-8.54.21-12.8.442a2.531,2.531,0,0,0-2.315,1.762,16.985,16.985,0,0,0-.783,4.987c-.227,2.695-.323,5.4-.391,8.1q-.24,9.6.118,19.212c.1,2.5.211,5,.471,7.486.158,1.516.2,3.477,1.169,4.751.929,1.218,2.406,1.053,3.783,1.075q2.173.036,4.346.075,5.392.094,10.785.162c17.68.2,35.5.259,53.1-1.616,7.819-.833,16.709-1.617,23.26-6.4,8.888-6.492,10.008-17.7,9.513-27.912a192.867,192.867,0,0,0-4.478-30.906,338.716,338.716,0,0,0-8.913-33.081q-1.3-4.032-2.7-8.029a2.46,2.46,0,0,0-2.952-1.677,2.423,2.423,0,0,0-1.677,2.953q5.523,15.782,9.528,32.044a245.125,245.125,0,0,1,5.6,29.532,99.286,99.286,0,0,1,.847,15.716c-.19,4.617-.94,9.338-3.507,13.276-4.373,6.708-12.821,8.149-20.168,9.163-16.56,2.286-33.783,2.279-50.576,2.2-6.982-.035-13.961-.159-20.941-.277l-1.875-.031a2.382,2.382,0,0,0-.771-.011c.609-.254,1.542.739,1.711,1.016-.191-.314.118.658.128.305a1.814,1.814,0,0,0-.09-.305c-.055-.278-.122-.552-.17-.832-.033-.193-.057-.387-.088-.581.08.486.04.331,0-.022-.054-.486-.105-.971-.148-1.458-.1-1.164-.179-2.331-.244-3.5-.331-6.041-.394-12.1-.333-18.15.03-2.928.094-5.857.238-8.781.057-1.167.127-2.334.225-3.5.039-.459.081-.918.132-1.375.024-.216.053-.431.076-.646-.086.808-.008.073.024-.127a6.983,6.983,0,0,1,.38-1.563l-2.314,1.762c8.584-.468,17.194-.556,25.788-.674q15.069-.207,30.141-.219c3.813,0,7.627,0,11.44.038,3.09.033,3.092-4.767,0-4.8Z"/><path class="b" d="M42.978,274.375c1.471,2.863,3.276,5.57,5.022,8.27a44.286,44.286,0,0,0,4.947,6.954,9.37,9.37,0,0,0,6.575,3.065,7.011,7.011,0,0,0,5.985-3.373,6.6,6.6,0,0,1,1.815-2.1,6.99,6.99,0,0,1,2.627-.872,46.277,46.277,0,0,1,5.936-.272,28.8,28.8,0,0,0,16-5.458,2.473,2.473,0,0,0,.861-3.284,2.417,2.417,0,0,0-3.283-.861,24.179,24.179,0,0,1-12.384,4.739c-4.013.309-8.395-.321-12.04,1.78a8.428,8.428,0,0,0-2.287,1.928,19,19,0,0,1-1.83,2.552c-1.192,1-3.029.167-4.022-.694-1.845-1.6-3.134-4.022-4.453-6.053a101.423,101.423,0,0,1-5.328-8.742c-1.413-2.748-5.556-.323-4.145,2.422Z"/><path class="b" d="M98.1,248.878c-5.584-.433-11.152-1.156-16.7-1.879-5.407-.7-10.825-1.423-16.193-2.392a2.467,2.467,0,0,0-2.952,1.676,2.42,2.42,0,0,0,1.676,2.952c5.676,1.025,11.407,1.771,17.125,2.519,5.667.741,11.349,1.482,17.049,1.924a2.42,2.42,0,0,0,2.4-2.4,2.448,2.448,0,0,0-2.4-2.4Z"/><path class="a" d="M120.085,176.84c6.865-6.9,11.257-15.15,16.24-23.407a36.106,36.106,0,0,0-7.93-9.677,76.3,76.3,0,0,1-21.554,15.255,10.481,10.481,0,0,0-2.62,1.6c-.218.354,1.625.14,1.823.508a68.567,68.567,0,0,0,4.7,5.483C113.936,170.13,117.941,174.454,120.085,176.84Z"/><path class="b" d="M121.782,178.537c6.882-6.977,11.6-15.567,16.616-23.892a2.413,2.413,0,0,0,0-2.423,38.874,38.874,0,0,0-8.306-10.163,2.452,2.452,0,0,0-3.4,0,73.022,73.022,0,0,1-20.508,14.615,12.267,12.267,0,0,0-3.572,2.123,2.591,2.591,0,0,0-.482,3.1,3.037,3.037,0,0,0,2.518,1.33,2.254,2.254,0,0,0,.439.039c.347-.034-.106.029-.085-.021-.175.4-1.359-1.423-.768-.528a18.531,18.531,0,0,0,1.437,1.779c1.363,1.594,2.775,3.146,4.184,4.7,2.835,3.122,5.707,6.209,8.528,9.343,2.07,2.3,5.456-1.1,3.394-3.394-3-3.335-6.061-6.618-9.073-9.945-1.481-1.636-2.975-3.268-4.375-4.975-.293-.357.054.08-.05-.064-.05-.069-.093-.142-.142-.212a3.026,3.026,0,0,0-1.1-1.044,4.228,4.228,0,0,0-1.6-.4c-.189-.021-.382-.024-.57-.052-.394-.057.454.128.04-.018l1.059.617-.06-.058.617,2.335.014-.077-.617,1.059c.228-.281-.276.092.036-.076.161-.087.313-.2.471-.3.365-.217.744-.415,1.124-.606.973-.488,1.964-.94,2.931-1.44a75.662,75.662,0,0,0,6.891-4.044,77.767,77.767,0,0,0,12.721-10.391h-3.4a34.9,34.9,0,0,1,7.556,9.192v-2.423c-4.8,7.974-9.274,16.238-15.865,22.921C116.216,177.345,119.608,180.741,121.782,178.537Z"/><path class="a" d="M45.548,199.675A104.469,104.469,0,0,0,52.414,188.7c.952-2.632,1.054-5.593,1.849-10.034,1.587-8.831.382-10.914,2.772-17.825,2.308-6.088,4.632-8.767,8.287-14.032,1.218-1.755,5.847-5.659,8.172-7.353a124.181,124.181,0,0,1,10.667-6.444,20.305,20.305,0,0,1,10.484-2.491c1.833.109,3.867.894,4.483,2.624.524,1.474.241,3.595-1.127,4.354-3.723,2.065-7.893,3.435-10.919,5.264-4.2,2.539-6.572,4.916-10.341,8.275l-.623.553c4.109-.566,9.661-.88,12.765-.135a9.915,9.915,0,0,1,1.787.671c.872.456,3.08,1.681,3.9,2.218,3.589,2.337,6.956,4.45,8.434,7.439a5.861,5.861,0,0,1,.172,4.273c-.451.916-1.535,2.013-3.907,1.832,1.049.832,1.229,2.867,1.036,4.489-.174,1.457-1.882,3.317-4.589,3.515,1.123,2.872-1.061,6.469-3.531,5.842-.8-.2-2.571-.8-4.213-1.139l-.244.263c-.867.933-1.415,3.981-1.683,5.226-.785,3.658-2.2,7.555-5.423,9.448-1.526.9-3.309,1.242-4.915,1.984-1.519.7-2.837,4.416-3.555,6.636L70.6,210.85"/><path class="b" d="M59.35,161.481A38.942,38.942,0,0,1,63.216,154c.73-1.109,1.5-2.191,2.268-3.273q.584-.82,1.164-1.643c.249-.354.488-.719.746-1.066-.356.479.129-.149.212-.243a44.106,44.106,0,0,1,9.652-7.935c4-2.53,8.194-5.389,12.846-6.527a13.4,13.4,0,0,1,4.541-.394,3,3,0,0,1,2.137.864,1.717,1.717,0,0,1-.015,1.672,8.829,8.829,0,0,1-2,1.016c-.816.4-1.642.768-2.47,1.135a49.837,49.837,0,0,0-9.2,4.917,101.252,101.252,0,0,0-8.048,6.816c-2.309,2.062,1.095,5.447,3.394,3.394A83.471,83.471,0,0,1,86,146.327a55.64,55.64,0,0,1,9.331-4.847c1.63-.733,3.662-1.423,4.927-2.733a5.985,5.985,0,0,0,1.507-4.4c-.2-3.693-3.156-5.81-6.631-6.174-6.364-.664-12.15,2.566-17.4,5.738a69.242,69.242,0,0,0-11.929,8.86,46.033,46.033,0,0,0-5.953,7.653,46.493,46.493,0,0,0-5.134,9.785,2.42,2.42,0,0,0,1.676,2.953,2.455,2.455,0,0,0,2.953-1.677Z"/><path class="b" d="M74.111,154.344a52.106,52.106,0,0,1,9.342-.921,22.734,22.734,0,0,1,4.269.238,11.708,11.708,0,0,1,3.563,1.539,34.656,34.656,0,0,1,8.28,5.853,4.375,4.375,0,0,1,1.531,3.595c-.013.1-.241.739-.08.373-.105.24.035.067-.109.179a2.619,2.619,0,0,1-1.634.291,2.423,2.423,0,0,0-1.7,4.1,1.415,1.415,0,0,1,.374.969,5.685,5.685,0,0,1,.017,1.107c-.011.17-.057.506-.043.468a2.889,2.889,0,0,1-2.2,1.363,2.469,2.469,0,0,0-2.4,2.4,2.417,2.417,0,0,0,2.4,2.4c2.779-.292,5.479-1.6,6.6-4.315.98-2.364.578-6-1.352-7.786l-1.7,4.1c3.626.163,6.518-2.1,6.633-5.821s-2.332-6.553-5.092-8.713a59.264,59.264,0,0,0-8.319-5.372,17.472,17.472,0,0,0-8.678-1.765,58.69,58.69,0,0,0-10.982,1.1,2.423,2.423,0,0,0-1.676,2.952,2.449,2.449,0,0,0,2.952,1.676Z"/><path class="b" d="M100.484,165.819a53.237,53.237,0,0,0-9.371-5.372,41.891,41.891,0,0,0-11.541-2.686,2.413,2.413,0,0,0-2.4,2.4,2.457,2.457,0,0,0,2.4,2.4,36.509,36.509,0,0,1,9.825,2.333,51.469,51.469,0,0,1,8.665,5.069,2.4,2.4,0,0,0,2.422-4.144Z"/><path class="b" d="M96.932,173.823a56.849,56.849,0,0,0-6.662-4.047,28.228,28.228,0,0,0-9.152-2.356,2.408,2.408,0,0,0-2.4,2.4,2.465,2.465,0,0,0,2.4,2.4c.3.027.6.059.9.094-.48-.057.457.07.543.085.668.112,1.333.25,1.99.416a20.69,20.69,0,0,1,3.757,1.32,63.774,63.774,0,0,1,6.2,3.832,2.422,2.422,0,0,0,3.284-.861,2.45,2.45,0,0,0-.861-3.283Z"/><path class="b" d="M86.327,182.477c.235-.265-.232.159-.285.2a.887.887,0,0,1,.125-.069c-.019.009-.521.162-.395.173a.828.828,0,0,0,.242-.061c.187-.091-.438.117-.414.054a1.25,1.25,0,0,1,.242-.017,5.857,5.857,0,0,1,.7.021c.118.01.235.031.352.038.043,0-.591-.1-.334-.043.082.016.167.026.249.04a30.063,30.063,0,0,1,3.366.844,7.124,7.124,0,0,0,3.733.41,5.809,5.809,0,0,0,3.634-3.03,7.311,7.311,0,0,0,.492-5.778,2.453,2.453,0,0,0-2.953-1.676,2.429,2.429,0,0,0-1.676,2.952c.1.281.129.608.241.878,0,0-.04-.522-.041-.266,0,.074.011.149.014.223.006.174,0,.346-.01.519a.926.926,0,0,0-.021.22c0-.02.11-.5.03-.275-.047.134-.062.287-.1.425s-.1.272-.135.411c-.058.232.095-.236.106-.245-.051.04-.092.193-.124.252-.064.122-.134.242-.21.358-.036.057-.082.111-.115.169-.115.2.164-.217.171-.22-.09.041-.194.216-.268.288a1.751,1.751,0,0,0-.141.13c-.152.187.4-.246.188-.142a1.714,1.714,0,0,0-.316.191c-.156.131.279-.115.3-.117a1.408,1.408,0,0,0-.169.058c-.106.026-.532.108-.088.042.476-.071-.074-.053-.16-.032a.714.714,0,1,0,.2.006c-.072-.021-.145-.039-.217-.059-.192-.053-.382-.11-.573-.166-.485-.144-.97-.289-1.458-.425a23.514,23.514,0,0,0-3.678-.749,4.5,4.5,0,0,0-3.9,1.076,2.4,2.4,0,1,0,3.394,3.394Z"/><path class="b" d="M74.47,204.793a28.8,28.8,0,0,1,1.166-3.163,11.586,11.586,0,0,1,.814-1.528c.38-.58-.149.092.273-.365.385-.418-.238.063.2-.146,1.349-.644,2.841-.955,4.2-1.606a10.4,10.4,0,0,0,3.358-2.577,18.164,18.164,0,0,0,3.573-7.346c.262-1.005.446-2.026.678-3.038.135-.59.281-1.178.466-1.754.02-.063.274-.733.151-.461.053-.118.426-.663.086-.251a2.469,2.469,0,0,0,0-3.394,2.419,2.419,0,0,0-3.394,0c-1.541,1.865-1.858,4.328-2.373,6.618-.533,2.371-1.276,4.943-3.029,6.72-2.017,2.045-5.342,1.788-7.3,3.841-1.825,1.91-2.687,4.719-3.487,7.174-.958,2.945,3.676,4.206,4.629,1.276Z"/><path class="b" d="M47.621,200.886a84.307,84.307,0,0,0,6-9.458,14.346,14.346,0,0,0,1.682-4.142c.4-1.822.595-3.684.87-5.527.58-3.88,1.208-7.7,1.489-11.617a32.36,32.36,0,0,1,1.684-8.661c1-2.93-3.636-4.188-4.629-1.276a36.85,36.85,0,0,0-1.8,9.24c-.268,3.582-.759,7.065-1.3,10.615-.272,1.774-.469,3.562-.808,5.326a11.78,11.78,0,0,1-.606,2.4c.14-.327-.176.27-.185.286-.181.311-.356.626-.534.939a84.242,84.242,0,0,1-6,9.457,2.414,2.414,0,0,0,.861,3.284,2.46,2.46,0,0,0,3.284-.861Z"/><path class="b" d="M26.609,226.191q3.661-7.082,7.347-14.151,1.753-3.36,3.517-6.715.7-1.339,1.413-2.679l.662-1.249c.022-.04.328-.576.326-.619-.005-.12-.177.136-.293.093,1.058.391,2.675,1.355,3.91,1.935q2.556,1.2,5.132,2.352c3.926,1.768,7.869,3.5,11.807,5.24,3.541,1.567,7.084,3.134,10.584,4.792a5.7,5.7,0,0,0,1.13.552c.526.087-.3.117-.084-.154l-.013-.024c-.023-.152-.027-.063-.013.269-.286.69-.409,1.55-.667,2.276-.585,1.649-1.217,3.28-1.867,4.9-2.736,6.83-5.785,13.542-8.931,20.192-3.342,7.064-7.062,14.143-11.967,20.263-2.752,3.434-5.942,6.731-9.992,8.6a31.852,31.852,0,0,1-13.675,3.01,16.96,16.96,0,0,1-11.144-4.008,21.479,21.479,0,0,1-5.329-8.28,58.6,58.6,0,0,1-3.484-17.4c-1.094-17.721,2.671-35.608,7.557-52.54q1.148-3.978,2.409-7.92c.94-2.95-3.693-4.213-4.629-1.276C4.333,202.434-.49,222.374.04,242.226.407,256,3.538,275.4,19.416,279.188A31.268,31.268,0,0,0,35.4,278.35a30.4,30.4,0,0,0,12.9-7.372c6.683-6.5,11.46-15.074,15.485-23.4q4.808-9.94,9.058-20.146c.808-1.933,1.6-3.875,2.34-5.834a21.178,21.178,0,0,0,1.627-5.439,4.845,4.845,0,0,0-.754-3.208,6.465,6.465,0,0,0-2.869-2.03C71.43,210.1,69.665,209.3,67.9,208.5c-7.947-3.574-16-6.938-23.847-10.725-1.916-.925-3.8-2.225-6-1.4-2.262.852-3.137,3.511-4.182,5.494q-3.785,7.179-7.516,14.388-1.948,3.752-3.891,7.509c-1.416,2.74,2.724,5.17,4.145,2.422Z"/><path class="b" d="M171.873,169.068c-2.417,5.121-3.635,10.849-4.923,16.332-1.031,4.389-2.137,8.792-2.816,13.252-1.627,10.687-2.455,21.508-3.409,32.27-.45,5.072-.867,10.148-1.389,15.214a2.416,2.416,0,0,0,2.4,2.4,2.454,2.454,0,0,0,2.4-2.4c1.019-9.893,1.757-19.814,2.725-29.711q.4-4.074.844-8.143.207-1.853.43-3.7.105-.861.216-1.721.049-.38.1-.761c.038-.287,0-.034,0,.021l.066-.482c.58-4.14,1.514-8.191,2.442-12.265.769-3.379,1.568-6.753,2.482-10.1.413-1.512.849-3.02,1.339-4.51a31.6,31.6,0,0,1,1.241-3.275,2.468,2.468,0,0,0-.861-3.283,2.421,2.421,0,0,0-3.284.861Z"/><path class="b" d="M35.139,205.407c-.586-4.077-1.311-8.146-2.279-12.151a81.674,81.674,0,0,0-2.543-7.854c-2.09-5.939-4.1-12.068-6.975-17.685-1.408-2.751-5.551-.325-4.145,2.422,2.714,5.3,4.608,11.176,6.6,16.854a78.78,78.78,0,0,1,2.432,7.539c.968,4,1.693,8.074,2.28,12.151a2.414,2.414,0,0,0,2.952,1.676,2.463,2.463,0,0,0,1.676-2.952Z"/><path class="b" d="M95.237,120.779a15.845,15.845,0,0,1,2.9-1.619c-.419.177.426-.152.5-.18.224-.078.45-.152.677-.219a14.351,14.351,0,0,1,1.9-.43c-.407.063.508-.056.594-.065q.493-.05.989-.084c.56-.038,1.12-.064,1.681-.073.579-.01,1.158,0,1.736.028.251.013.5.039.751.057.485.034-.523-.1.154.026a2.455,2.455,0,0,0,2.952-1.677,2.43,2.43,0,0,0-1.676-2.952,25.858,25.858,0,0,0-8.212.076,17.456,17.456,0,0,0-7.368,2.967,2.4,2.4,0,0,0,2.422,4.145Z"/><path class="b" d="M113.34,111.546a8.506,8.506,0,0,1,1.093,1.16l-.375-.485a8.57,8.57,0,0,1,1.073,1.833l-.242-.573a8.434,8.434,0,0,1,.521,1.746,2.418,2.418,0,0,0,1.1,1.434,2.4,2.4,0,0,0,3.284-.861l.242-.573a2.427,2.427,0,0,0,0-1.277,10.548,10.548,0,0,0-3.305-5.8,2.543,2.543,0,0,0-1.7-.7,2.439,2.439,0,0,0-1.7.7,2.4,2.4,0,0,0,0,3.394Z"/><path class="b" d="M98.453,94.886c.272.773.525,1.552.768,2.335a17.506,17.506,0,0,1,.672,2.49l-.086-.638a2.256,2.256,0,0,1,.011.493l.085-.638a1.237,1.237,0,0,1-.082.291l.242-.574a.723.723,0,0,1-.075.126l.375-.486a.672.672,0,0,1-.1.11l.486-.375a2.9,2.9,0,0,1-.537.316l.573-.242a2.419,2.419,0,0,1-.577.169l.638-.085a6.1,6.1,0,0,1-1.089-.043,2.416,2.416,0,0,0-2.4,2.4,2.454,2.454,0,0,0,2.4,2.4,8.284,8.284,0,0,0,.905.06,4.855,4.855,0,0,0,2.25-.658,3.241,3.241,0,0,0,1.623-2.133,5.051,5.051,0,0,0-.116-2.266c-.377-1.461-.834-2.9-1.334-4.328a2.563,2.563,0,0,0-1.1-1.434,2.4,2.4,0,0,0-3.284.861,2.384,2.384,0,0,0-.242,1.849Z"/><path class="b" d="M73.138,83.133c-.557,2.523.4,8.146,5.1,8.249,6.161-.537,5.933-7.41,3.6-10.461C79.921,78.423,74.837,77.732,73.138,83.133Z"/><path class="b" d="M122.3,79.143c.958,2.4.924,8.1-3.7,8.963-6.167.464-7.051-6.356-5.237-9.744C114.844,75.588,119.75,74.087,122.3,79.143Z"/></svg>