<svg xmlns="http://www.w3.org/2000/svg" width="330.615" height="309.761" viewBox="0 0 330.615 309.761" style="color: initial !important;"><defs><style>.a{fill:#3d8dcc;}.b{fill:#211715;}.c{fill:#f2a15f;}</style></defs><path class="a" d="M327.488,297.45,279.1,213.634a5.6,5.6,0,0,0-9.7,0L221.006,297.45a5.6,5.6,0,0,0,4.85,8.4h96.782A5.6,5.6,0,0,0,327.488,297.45Zm-32.407-10.935h-41.71a2.037,2.037,0,0,1-1.763-3.055l20.855-36.122a2.037,2.037,0,0,1,3.527,0l20.855,36.122A2.037,2.037,0,0,1,295.081,286.515Z"/><path class="b" d="M277.025,214.845,288.081,234,309.62,271.3l15.04,26.051a17.665,17.665,0,0,1,.927,1.611,3.236,3.236,0,0,1-3.165,4.487c-2.757.023-5.516,0-8.273,0H226.463c-1.6,0-2.989-.534-3.57-1.958-.527-1.291-.1-2.34.6-3.544l14.1-24.421,21.629-37.463c4.059-7.031,7.939-14.207,12.195-21.122a3.191,3.191,0,0,1,5.612-.1c1.613,2.628,5.767.22,4.144-2.423a8.083,8.083,0,0,0-13.5-.532c-.426.6-.77,1.266-1.137,1.9l-5.923,10.258-21.155,36.642-18.2,31.52c-1.7,2.94-3.866,5.821-3.273,9.424a8.1,8.1,0,0,0,8.037,6.614c.905.016,1.812,0,2.717,0h90.923c.928,0,1.857.009,2.786,0a8.112,8.112,0,0,0,8.013-6.325c.759-3.688-1.438-6.618-3.168-9.614l-7.531-13.044L297.8,241.221,282,213.853l-.826-1.431C279.625,209.748,275.476,212.162,277.025,214.845Z"/><path class="b" d="M273.918,248.55l13.562,23.49,6.713,11.628c.088.153.372.882.544.943-.091-.033.268-.481.249-.5-.164-.128-.953,0-1.155,0H253.984a5.324,5.324,0,0,0-.607-.012c.09-.113.578.5.319.541.039-.006.137-.243.159-.275.777-1.109,1.382-2.394,2.058-3.565l3.774-6.536,9.068-15.708,3.706-6.418,1.225-2.121a6.39,6.39,0,0,0,.721-1.25c.006-.02.133-.193.122-.21.006.008-.039-.028-.022.053.088.417-.767-.063-.144.111-.774-.217-.306.03-.445-.175,1.723,2.543,5.884.144,4.144-2.423a4.513,4.513,0,0,0-6.926-.956,6.337,6.337,0,0,0-1.02,1.431l-2.464,4.267-9.118,15.795L250.58,280.44c-.757,1.311-1.712,2.631-1.64,4.22a4.517,4.517,0,0,0,4.463,4.255c.345.014.694,0,1.039,0h39.3c2.325,0,4.7-.457,5.551-3.044.653-1.994-.314-3.524-1.246-5.139l-3.187-5.519-16.417-28.434-.376-.652C276.518,243.453,272.369,245.867,273.918,248.55Z"/><path class="c" d="M109.314,213.612a4.276,4.276,0,0,0-4.281-4.274H15.72a4.3,4.3,0,0,0-4.3,4.3v89.406a4.313,4.313,0,0,0,4.3,4.3h87.291a6.4,6.4,0,0,0,6.409-6.409C109.4,282.527,109.33,229.771,109.314,213.612ZM87.087,287.323H33.762a2.324,2.324,0,0,1-2.317-2.317V231.678a2.318,2.318,0,0,1,2.317-2.317H87.033a2.3,2.3,0,0,1,2.3,2.3c.009,9.733.054,44.077.066,53.345A2.317,2.317,0,0,1,87.087,287.323Z"/><path class="b" d="M105.033,206.938H20.548c-3.668,0-7.793-.572-10.254,2.8-1.8,2.467-1.271,6.234-1.271,9.136v58.742c0,8.439-.248,16.919,0,25.355a6.843,6.843,0,0,0,6.777,6.775c.836.023,1.677,0,2.513,0H74.336c9.41,0,18.82.034,28.23,0a9.175,9.175,0,0,0,7.77-3.915c2.167-3.13,1.483-7.591,1.478-11.214l-.033-25.829q-.033-26.136-.064-52.272a17.028,17.028,0,0,0-.288-4.834,6.808,6.808,0,0,0-6.4-4.744c-3.09-.118-3.084,4.682,0,4.8,1.769.068,1.881,1.6,1.882,3s0,2.784,0,4.176l.012,10.82q.016,13.6.034,27.2.018,13.92.035,27.838l.015,10.988c0,2.9.91,7.386-2.351,8.849a6.846,6.846,0,0,1-2.9.344H23.143c-2.439,0-4.945.169-7.38,0-2.624-.183-1.94-3.777-1.94-5.62V214.669c0-1.021-.1-2.065.938-2.671.923-.541,2.513-.26,3.566-.26h86.706C108.121,211.738,108.126,206.938,105.033,206.938Z"/><path class="b" d="M87.033,226.961H34.276a5,5,0,0,0-4.609,2.387,6.3,6.3,0,0,0-.622,3.256v48.358c0,1.974-.4,4.768.7,6.514,1.69,2.677,4.756,2.247,7.448,2.247H85.811c.482,0,.966.016,1.447-.013a4.745,4.745,0,0,0,4.479-4.045,20.517,20.517,0,0,0,.064-2.871q-.009-7.537-.019-15.075Q91.76,250.7,91.74,233.68a14.585,14.585,0,0,0-.113-3,4.818,4.818,0,0,0-4.594-3.719,2.4,2.4,0,0,0,0,4.8c-.188-.013-.026-.279-.095.186a8.611,8.611,0,0,0,0,1.2q0,1.406,0,2.81,0,3.591.008,7.181.011,8.873.022,17.744.011,8.394.022,16.787,0,2.993.007,5.985a7.989,7.989,0,0,0,0,1.072,1.088,1.088,0,0,1-.011.307c0-.017.225-.129.093-.112a2.132,2.132,0,0,1-.339,0c-2.229-.107-4.489,0-6.719,0H40.91c-2.252,0-4.534-.108-6.784,0a3.363,3.363,0,0,1-.362,0c.1.006.041.225.081-.029a12.607,12.607,0,0,0,0-1.914V232.4a5.6,5.6,0,0,0,0-.635c-.026-.229-.089,0-.076,0,1.63-.069,3.278,0,4.91,0H87.033C90.122,231.761,90.127,226.961,87.033,226.961Z"/><path class="c" d="M290.588,62.894l-2.531-2.531,17.424-17.424,12.451-12.451c3.617-3.617,3.887-10.243,0-13.81a9.941,9.941,0,0,0-13.81,0L276.778,44.022l-2.531,2.531L256.429,28.735,244.372,16.678c-3.617-3.617-10.243-3.887-13.81,0a9.941,9.941,0,0,0,0,13.81c11.321,11.321,15.478,15.479,26.8,26.8l3.076,3.076L242.619,78.181,230.562,90.238c-3.617,3.617-3.887,10.243,0,13.81a9.941,9.941,0,0,0,13.81,0l26.8-26.8,3.076-3.076L291.671,91.6l12.451,12.451c3.617,3.617,10.243,3.887,13.81,0a9.941,9.941,0,0,0,0-13.81Z"/><path class="b" d="M292.285,61.2l-2.531-2.531V62.06l20.669-20.668,5.422-5.423c2.714-2.714,5.726-5.2,6.815-9.028a12.212,12.212,0,0,0-1.654-10.37,12.711,12.711,0,0,0-10.162-5.082,12.244,12.244,0,0,0-5.481,1.339,20.466,20.466,0,0,0-4.973,4.188l-8.7,8.7L272.55,44.856h3.394l-20.8-20.8-5.336-5.336c-2.7-2.7-5.17-5.684-8.98-6.767a12.212,12.212,0,0,0-10.37,1.654,12.711,12.711,0,0,0-5.082,10.162,12.251,12.251,0,0,0,1.338,5.482,20.433,20.433,0,0,0,4.176,4.959l8.6,8.6L258.74,62.06V58.666l-20.8,20.8L232.6,84.805c-2.7,2.7-5.684,5.17-6.767,8.981a12.21,12.21,0,0,0,1.654,10.369,12.711,12.711,0,0,0,10.162,5.082,12.243,12.243,0,0,0,5.481-1.338,20.437,20.437,0,0,0,4.96-4.175l8.6-8.6L275.944,75.87H272.55l20.323,20.323,5.368,5.368c2.6,2.6,4.988,5.554,8.5,6.9A11.869,11.869,0,0,0,322.968,98.8a12.189,12.189,0,0,0-3.514-10.433c-2.953-2.989-5.943-5.943-8.914-8.914L292.285,61.2c-2.187-2.187-5.582,1.206-3.394,3.394l15.13,15.13,7.385,7.385,4.307,4.307a8.144,8.144,0,0,1,2.4,3.838,7.9,7.9,0,0,1-2.35,7.574A7.372,7.372,0,0,1,308.478,104a9.073,9.073,0,0,1-3.491-2.483l-3.352-3.352-4.8-4.8-20.89-20.89a2.438,2.438,0,0,0-3.394,0L256.194,88.832l-7.028,7.028-4.308,4.308a16.676,16.676,0,0,1-4.149,3.586,7.77,7.77,0,0,1-7.906-.935,7.027,7.027,0,0,1-2.5-7.124c.7-3.2,3.378-5.182,5.59-7.393l4.891-4.892,21.35-21.35a2.436,2.436,0,0,0,0-3.394L245.778,42.31l-7.028-7.028-4.308-4.308a16.676,16.676,0,0,1-3.586-4.149,7.772,7.772,0,0,1,.935-7.906,7.027,7.027,0,0,1,7.124-2.5c3.2.7,5.182,3.378,7.394,5.59L251.2,26.9q10.676,10.676,21.35,21.35a2.436,2.436,0,0,0,3.394,0l16.2-16.2,7.124-7.123,4.35-4.351c1.29-1.29,2.5-2.788,4.164-3.6a7.772,7.772,0,0,1,7.906.935,7.027,7.027,0,0,1,2.5,7.124c-.7,3.218-3.411,5.215-5.635,7.439l-4.988,4.988L286.36,58.666a2.436,2.436,0,0,0,0,3.394l2.531,2.531C291.078,66.778,294.473,63.385,292.285,61.2Z"/><path class="a" d="M117.551,49.722A56.249,56.249,0,0,0,70.943,3.26a71.226,71.226,0,0,0-10.5-.925c-12.176.036-24.7,3.548-34.51,10.924A61.384,61.384,0,0,0,18.6,19.536a62.367,62.367,0,0,0-6.071,7.455,56.263,56.263,0,0,0-7.52,15.572A58.781,58.781,0,0,0,2.423,60.22,65.258,65.258,0,0,0,5,78.367a55.768,55.768,0,0,0,7.159,15.405,57.12,57.12,0,0,0,12.72,13.339c9.228,7.089,20.817,10.556,32.336,11.183a61.939,61.939,0,0,0,34.167-7.789,52.261,52.261,0,0,0,21.492-23.9,65.707,65.707,0,0,0,3.287-8.933,70.947,70.947,0,0,0,1.791-9.739A64.406,64.406,0,0,0,117.551,49.722ZM98.19,66.6a51.015,51.015,0,0,1-2.752,10.38,44.268,44.268,0,0,1-4.679,8.094,42.049,42.049,0,0,1-5.83,5.823,43.577,43.577,0,0,1-7.855,4.54,49.827,49.827,0,0,1-10.061,2.674,57.4,57.4,0,0,1-12.791.017,49.414,49.414,0,0,1-9.929-2.651,44.594,44.594,0,0,1-8.13-4.712,43.2,43.2,0,0,1-6.022-6.027,44.927,44.927,0,0,1-4.742-8.2,50.342,50.342,0,0,1-2.717-10.227,53.552,53.552,0,0,1-.091-11.4,47.788,47.788,0,0,1,2.715-10.08,46.6,46.6,0,0,1,4.822-8.278A45.771,45.771,0,0,1,36.675,30a45.939,45.939,0,0,1,8.059-4.708,48.291,48.291,0,0,1,10.332-2.77,51.866,51.866,0,0,1,10.831.006,48.454,48.454,0,0,1,10.222,2.742,45.97,45.97,0,0,1,8.162,4.764,45.62,45.62,0,0,1,6.448,6.445,46.418,46.418,0,0,1,4.82,8.233A47.752,47.752,0,0,1,98.3,54.88,54.827,54.827,0,0,1,98.19,66.6Z"/><path class="b" d="M119.865,49.084C116.115,25.525,97.009,5.805,73.587,1.292a64.966,64.966,0,0,0-36.663,3.12A59.409,59.409,0,0,0,8.52,28.756C-4.942,51.178-2.314,82.383,15.433,101.749A57.9,57.9,0,0,0,46.3,119.264a67.792,67.792,0,0,0,36.305-2.111,56.375,56.375,0,0,0,27.7-21.011c7.347-10.618,10.75-24.019,10.509-36.848a77.66,77.66,0,0,0-.946-10.21,2.417,2.417,0,0,0-2.952-1.677,2.461,2.461,0,0,0-1.676,2.953,62.884,62.884,0,0,1-5.177,36.66,50.242,50.242,0,0,1-21.776,22.46c-19.582,10.342-46.484,8.641-63.7-5.66a53.744,53.744,0,0,1-18-28.811A59.834,59.834,0,0,1,9.044,38.391,54.5,54.5,0,0,1,32.019,12.1,56.767,56.767,0,0,1,64.278,4.884,56.341,56.341,0,0,1,95.036,16.217a53.815,53.815,0,0,1,20.2,34.143,2.417,2.417,0,0,0,2.952,1.676A2.458,2.458,0,0,0,119.865,49.084Z"/><path class="b" d="M95.853,65.965c-1.174,7.242-3.694,14.294-8.828,19.693a32.719,32.719,0,0,1-8.731,6.52,37.4,37.4,0,0,1-10.539,3.379,45.687,45.687,0,0,1-12.083.32,36.048,36.048,0,0,1-10.6-2.655,32.627,32.627,0,0,1-15.8-14.255c-7.036-12.611-6.236-30.591,3.387-41.729a35.306,35.306,0,0,1,7.976-7.03,35.847,35.847,0,0,1,10.032-4.329,39.413,39.413,0,0,1,22.626.923A33.666,33.666,0,0,1,91.37,41.883a37.289,37.289,0,0,1,4.185,11.382A43.632,43.632,0,0,1,95.767,66.6a2.416,2.416,0,0,0,2.4,2.4,2.456,2.456,0,0,0,2.4-2.4c.927-8.511.07-17.227-3.859-24.944A39.5,39.5,0,0,0,80.136,24.6c-14.759-7.943-34.748-5.972-47.187,5.441A40.313,40.313,0,0,0,20.9,50.926,45.428,45.428,0,0,0,22.583,75.88,36.82,36.82,0,0,0,37.717,94.72a43.5,43.5,0,0,0,24.357,6.139,42.274,42.274,0,0,0,23.674-7.621c6.611-4.746,11.185-12.08,13.384-19.832a54.76,54.76,0,0,0,1.349-6.165,2.473,2.473,0,0,0-1.676-2.952A2.418,2.418,0,0,0,95.853,65.965Z"/></svg>