<svg id="b" xmlns="http://www.w3.org/2000/svg" width="183.515" height="438.579" viewBox="0 0 183.515 438.579" style="color: initial !important;"><defs><style>.d{fill:none;}.d,.e,.f,.g,.h{stroke-width:0px;}.e{fill:#211715;}.f{fill:#f2635f;}.g{fill:#645d5c;}.h{fill:#ffffff;}</style></defs><g id="c"><path class="h" d="M22.231,112.01v-28.35c0-4.42,3.58-8,8-8h94c4.42,0,8,3.58,8,8v27.43l-110,.92Z"/><path class="e" d="M101.001,95.851c-1.38-.421-2.52-.736-3.194-.878-6.943-1.463-13.353-2.349-20.098-2.554-6.745.205-13.154,1.091-20.098,2.554-.97.205-2.906.768-5.132,1.492,2.227.528,4.162.939,5.132,1.088,6.943,1.066,13.353,1.711,20.098,1.861,6.745-.15,13.154-.795,20.098-1.861.972-.149,2.914-.561,5.147-1.087-.685-.221-1.343-.428-1.953-.614Z"/><path class="h" d="M8.518,234.256c-3.398,10.402-7.064,23.085-6.45,32.89.159,2.531.792,4.54,3.162,5.443,1.584.604,3.429-.006,4.714-1.112,1.285-1.106,2.119-2.635,2.89-4.144,2.278-4.455,3.565-7.323,4.847-10.735,1.507,2.744,4.08,4.638,5.899,4.703,1.378.043,2.283-.312,2.886-.851.818-.711,1.4-1.992,1.443-3.08.335-8.355-.313-20.846-.961-27.977-5.199-.272-10.994-.741-15.388-1.244-.305-.036-.636-.068-.976-.107-.649,1.938-1.352,4.025-2.066,6.213Z"/><path class="h" d="M166.478,225.669c.285-.014.566-.028.844-.042,1.877-.094,3.345-1.642,3.345-3.522v-4.189s0-1.493,0-3.605c2.77-2.326,5.052-6.176,5.491-7.096,1.237-2.598,2.237-5.351,2.998-8.2.752,3.024,1.344,5.391,1.344,5.391.665,3.088,1.332,6.261.846,9.382-.405,2.599-1.794,5.188-3.982,6.548-1.044,7.349-7.412,13.558-14.871,14.014-5.677.347-11.63-2.627-14.083-7.9,6.588-.258,12.869-.525,18.068-.78Z"/><path class="d" d="M96.815,13.95c-5.299-3.465-11.454-5.638-19.188-5.638-8.113,0-15.002,2.446-20.515,6.546-6.401,4.76-13.65,13.24-14.23,26.965-.139,3.28.279,7.039,1.271,10.853"/><path class="d" d="M111.123,52.677c.992-4.015,1.41-7.101,1.252-10.853-.489-11.567-5.518-19.409-11.085-24.439"/><path class="d" d="M119.974,231.424c.895-20.021,1.789-54.706,1.789-79.982"/><path class="h" d="M107.305,399.896c1.301,2.503,5.71,7.44,7.166,8.844,4.34,4.186,6.611,6.179,9.768,9.679,2.426,2.689,4.438,7.712,3.23,11.866-.826,2.843-3.283,4.522-6.022,5.646-1.195.491-5.703.832-7.983.409-3.561-.66-6.746-1.901-9.402-3.943-4.551-3.5-8.347-6.974-13.158-10.531-1.689-1.249-3.79-2.113-5.394-3.469-.926-.783-1.609-1.816-2.172-2.89-1.893-3.606-1.725-10.334-1.005-14.342"/><path class="h" d="M48.106,399.896c-1.301,2.503-5.71,7.44-7.166,8.844-4.34,4.186-6.611,6.179-9.768,9.679-2.426,2.689-4.438,7.712-3.23,11.866.826,2.843,3.283,4.522,6.022,5.646,1.195.491,5.703.832,7.983.409,3.561-.66,6.746-1.901,9.402-3.943,4.551-3.5,8.347-6.974,13.158-10.531,1.689-1.249,3.79-2.113,5.394-3.469.926-.783,1.609-1.816,2.172-2.89,1.893-3.606,1.725-10.334,1.005-14.342"/><path class="e" d="M105.578,400.905c1.323,2.461,3.284,4.649,5.125,6.732,1.967,2.225,4.144,4.229,6.29,6.277,4.146,3.957,10.351,9.119,8.597,15.654-.683,2.544-3.465,4.356-5.974,4.743-2.961.456-5.865.226-8.718-.658-3.751-1.162-6.623-3.567-9.609-6.021-3.182-2.616-6.306-5.375-9.696-7.724-1.655-1.147-3.68-1.894-5.11-3.339-1.196-1.209-1.842-2.82-2.202-4.453-.738-3.348-.604-7.056-.02-10.419.185-1.063-.284-2.155-1.397-2.46-.964-.265-2.274.327-2.46,1.397-1.216,7.007-1.268,16.095,5.379,20.429,1.704,1.111,3.472,2.037,5.1,3.27,1.86,1.409,3.662,2.894,5.46,4.38,3.354,2.771,6.672,5.975,10.697,7.741,6.18,2.713,14.516,3.44,19.81-1.521,3-2.811,3.473-7.084,2.507-10.91-.942-3.727-3.158-6.532-5.775-9.236-2.707-2.797-5.677-5.333-8.369-8.141-2.242-2.339-4.637-4.887-6.181-7.759-1.22-2.268-4.674-.25-3.454,2.019h0Z"/><path class="e" d="M46.379,398.886c-1.395,2.593-3.509,4.87-5.491,7.023-2.297,2.495-4.873,4.726-7.292,7.101-2.484,2.438-5.084,4.924-6.517,8.153-1.591,3.583-2.271,8.048-.234,11.61,3.609,6.308,12.36,6.656,18.533,4.8,8.641-2.598,14.107-10.455,21.641-14.961,2.015-1.205,4.096-2.275,5.554-4.176,1.228-1.601,2.035-3.453,2.451-5.424.853-4.043.687-8.326-.017-12.378-.185-1.065-1.491-1.663-2.46-1.397-1.125.309-1.582,1.392-1.397,2.46.519,2.988.643,6.2.205,9.206-.21,1.443-.57,2.859-1.302,4.126-.928,1.606-2.254,2.501-3.827,3.415-3.534,2.054-6.664,4.696-9.81,7.293-2.95,2.436-5.853,5.247-9.326,6.924-2.95,1.424-6.123,2.002-9.373,1.825-2.614-.142-5.189-.883-6.927-3.008-2.032-2.484-1.245-6.351.065-8.985,1.345-2.704,3.675-4.805,5.81-6.89,2.447-2.389,5.037-4.647,7.339-7.179,2.096-2.306,4.347-4.76,5.831-7.52,1.219-2.267-2.233-4.289-3.454-2.019h0Z"/><path class="e" d="M51.31,98.959c4.137-1.397,8.234-2.418,12.54-3.145,4.614-.778,9.406-1.446,14.094-1.387,9.059.114,18.188,1.816,26.747,4.721,2.443.829,3.492-3.033,1.063-3.857-8.875-3.012-18.42-4.746-27.81-4.864-4.884-.061-9.881.659-14.689,1.452-4.466.736-8.722,1.776-13.008,3.223-2.426.819-1.385,4.684,1.063,3.857h0Z"/><path class="h" d="M45.568,69.91c1.06.867,2.658,1.416,4.135,1.035,1.083,3.68,3.044,8.12,6.489,12.243,2.83,3.387,5.811,5.855,9.162,7.316-.097,1.139-.256,2.224-.459,3.402-.314,1.738-.276,3.313-2.024,4.373,3.623.455,7.163.793,10.742.981,1.356.071,2.718.122,4.095.153,5.334-.118,10.468-.557,15.812-1.259-1.549-1.057-1.524-2.578-1.826-4.248-.222-1.293-.393-2.475-.486-3.74-.004-.048-.007-.097-.01-.146,6.8-3.603,12.176-12.861,13.148-15.5.332-.692.875-2.116,1.315-3.569.233.039.367.062.367.062,1.387.234,2.837-.297,3.822-1.103,2.391-1.956,3.383-4.685,3.989-6.468.855-2.518.909-6.589-.365-8.798-.427-.74-1.418-2-3.748-2.083-1.071-.038-2.322.298-3.251,1.19,0,0-.095.092-.266.255v-4.034c-2.947.581-6.256,0-8.554-1.5s-3.517-3.879-3.153-6.147c-2.505,2.142-7.309,1.864-10.37.176-3.06-1.688-4.8-2.953-6.423-5.528-1.623,2.575-3.363,3.84-6.423,5.528-3.06,1.688-7.865,1.966-10.37-.176.364,2.268-.856,4.646-3.153,6.147s-5.607,2.081-8.554,1.5c0,0,0,2.133,0,4.033-.171-.164-.265-.255-.265-.255-.929-.893-2.18-1.228-3.251-1.19-2.33.082-3.322,1.343-3.749,2.083-1.274,2.209-1.22,6.279-.365,8.798.605,1.784,1.597,4.512,3.988,6.468Z"/><path class="e" d="M55.976,103.92c1.615-.745,3.204-1.545,4.786-2.356.537-.275,1.073-.553,1.609-.829.126-.065.255-.125.379-.194.103-.058.309-.179-.214.094.314-.164.662-.265.98-.423,1.58-.788,2.632-2.246,3.002-3.957.407-1.878.664-3.838.835-5.748.094-1.045-.987-2.045-2-2-1.164.052-1.9.881-2,2-.025.282-.053.565-.085.846-.016.14-.033.28-.05.42.021-.147.021-.149.001-.007-.069.501-.15,1-.235,1.499-.11.641-.185,1.291-.323,1.926-.044.205-.274.64-.24.828-.036-.194.175-.359-.003-.035-.04.072-.082.143-.127.212-.12.173-.092.139.087-.1.016.022-.238.248-.274.289-.161.139-.136.126.077-.041-.082.06-.166.117-.252.171-.14.089-.288.161-.432.241-.204.094-.213.101-.025.02-.224.082-.445.172-.662.271-2.308,1.089-4.534,2.347-6.854,3.417-.953.44-1.264,1.889-.718,2.736.633.982,1.717,1.188,2.736.718h0Z"/><path class="e" d="M102.711,100.251c-1.494-.687-2.987-1.379-4.479-2.071-.967-.448-1.926-.939-2.92-1.329-.561-.22.148.106-.127-.05-.166-.094-.341-.171-.504-.273-.085-.053-.168-.108-.249-.167.215.17.241.186.079.048-.009-.01-.281-.275-.273-.281.179.243.208.279.087.108-.045-.067-.088-.136-.128-.206-.033-.058-.292-.501-.105-.192.174.288-.03-.122-.056-.213-.045-.156-.083-.314-.116-.472-.124-.588-.195-1.187-.296-1.779-.206-1.209-.287-1.736-.388-2.868-.093-1.039-.853-2.051-2-2-1.004.045-2.1.884-2,2,.17,1.901.432,3.84.827,5.71.367,1.733,1.422,3.207,3.024,4.001.315.156.643.29.971.418.623.243-.535-.251-.219-.099.123.059.249.114.373.171.575.265,1.149.531,1.723.798,1.585.735,3.169,1.47,4.756,2.2.948.436,2.198.301,2.736-.718.465-.88.297-2.27-.718-2.736h0Z"/><path class="h" d="M73.615,99.261c-5.288-.278-10.477-.859-16.003-1.708-.684-.105-1.847-.34-3.254-.654-2.112-.472-4.306.076-6.008,1.411-1.013.795-2.185,1.539-3.465,2.041-6.413,2.63-12.557,5.201-15.985,6.939-1.21.62-4.01,2.21-5.71,3.8-4.24,3.95-7.03,8.51-8.51,14.21-.92,3.51-1.5,7.59-1.96,12.44-1.58,16.6-4.67,72.49-5.92,85.67-.13,1.37.14,2.86.67,3.48.88,1.03,2.74,1.1,4.09,1.26,4.71.54,11.03,1.04,16.5,1.3l2.866.136c.019.624.036,1.235.053,1.837,1.212,41.383,2.681,130.684,6.656,163.198.322,2.637,2.097,4.867,4.696,5.42,3.843.818,11.146,1.442,14.99,1.405,6.352-.062,16.746-.661,20.387-1.975,3.63,1.314,14.027,1.913,20.381,1.975,3.844.037,11.148-.586,14.99-1.405,2.599-.553,4.374-2.783,4.696-5.42,3.975-32.514,5.444-121.815,6.656-163.198.308-10.53.384-23.857.387-38.745,12.907-18.095,29.911-41.932,29.911-41.932-4.243-7.604-9.321-21.695-13.99-29.083-1.739-2.752-5.551-8.184-8.51-10.573-1.7-1.59-4.5-3.18-5.71-3.8-3.428-1.738-9.571-4.309-15.985-6.938-.789-.388-1.748-1.12-2.695-1.943-1.723-1.499-4.04-2.128-6.267-1.624-1.635.37-3,.65-3.766.768-6.943,1.066-13.353,1.711-20.098,1.861-1.376-.031-2.739-.082-4.095-.153Z"/><path class="g" d="M114.456,25.51c-.187-.467-.413-.931-.683-1.39-2.16-3.66-5.61-5.49-9.09-5.37.16-2.37-.98-6.19-4.09-8.45-2.66-1.93-6.74-2.72-11.33-1.42-.87-2.92-3.7-6.88-11.55-6.88s-10.69,3.96-11.56,6.88c-4.59-1.3-8.67-.51-11.33,1.42-3.11,2.26-4.25,6.08-4.09,8.45-3.47-.12-6.92,1.71-9.08,5.37-3.06,5.19-.53,11.15.88,11.82-6.556,3.242-7.744,14.219-.918,19.129.053.723.377-2.378,4.077-2.508,1.179-.042,2.576.369,3.521,1.477-.005-1.937-.005-4.065-.005-4.065,2.947.581,6.256,0,8.554-1.5s3.518-3.879,3.153-6.147c2.505,2.142,7.309,1.864,10.37.176s4.8-2.953,6.423-5.528c1.623,2.575,3.363,3.84,6.423,5.528s7.865,1.966,10.37-.176c-.364,2.268.856,4.646,3.153,6.147s5.607,2.081,8.554,1.5v4.07c.941-1.113,2.338-1.523,3.517-1.482,3.687.13,4.022,3.21,4.072,2.511,6.83-4.903,5.643-15.888-.905-19.132,1.276-.611,3.492-5.618,1.563-10.43Z"/><path class="e" d="M42.827,53.506c-2.696-2.098-4.008-5.193-3.773-8.592.208-3.007,1.774-5.847,4.488-7.246,1.334-.688,1.269-2.749,0-3.454-.17-.101-.143-.073.08.083-.081-.075-.158-.156-.229-.24.164.304-.232-.406-.268-.471-.325-.598-.522-1.252-.678-1.912-.396-1.679-.319-3.468.252-5.098,1.191-3.402,4.407-5.884,8.034-5.824,1.043.017,2.051-.931,2-2-.125-2.587,1.141-5.282,3.235-6.818,2.771-2.033,6.477-1.979,9.654-1.124,1.067.287,2.139-.358,2.46-1.397.359-1.163,1.108-2.461,2.346-3.416,2.05-1.581,4.768-1.994,7.285-1.996s5.239.413,7.28,1.996c1.245.965,1.977,2.235,2.341,3.416.32,1.037,1.388,1.685,2.46,1.397,3.176-.855,6.882-.909,9.654,1.124,2.094,1.536,3.359,4.23,3.235,6.818-.051,1.068.958,2.017,2,2,3.629-.06,6.853,2.414,8.041,5.824.568,1.631.643,3.42.248,5.098-.156.66-.353,1.315-.676,1.912-.036.066-.427.778-.266.471-.071.085-.147.165-.228.24.224-.156.251-.184.082-.083-1.267.709-1.337,2.764,0,3.454,2.713,1.4,4.273,4.241,4.481,7.246.235,3.398-1.072,6.493-3.765,8.592-.853.665-.697,2.131,0,2.828.842.842,1.973.666,2.828,0,6.967-5.43,6.621-17.916-1.525-22.121v3.454c1.546-.865,2.355-2.862,2.807-4.474.694-2.475.694-5.238-.129-7.682-1.709-5.077-6.469-8.85-11.898-8.76l2,2c.187-3.877-1.846-7.78-4.928-10.061-3.716-2.752-8.707-2.899-13.023-1.737l2.46,1.397C89.369,2.442,83.513,0,77.713,0s-11.665,2.441-13.489,8.348l2.46-1.397c-4.316-1.162-9.308-1.015-13.023,1.737-3.081,2.283-5.115,6.184-4.928,10.061l2-2c-5.44-.09-10.16,3.694-11.891,8.76-.817,2.391-.821,5.101-.175,7.533.44,1.658,1.267,3.741,2.856,4.624v-3.454c-8.155,4.203-8.502,16.692-1.525,22.121.852.663,1.998.83,2.828,0,.69-.69.857-2.161,0-2.828h0Z"/><path class="e" d="M50.358,52.337c-2.071-1.848-4.987-2.279-7.517-1.121-1.812.829-2.923,2.542-3.434,4.418-1.173,4.308-.075,9.346,2.395,13.021,1.689,2.513,4.355,4.778,7.588,4.358,1.071-.139,2-.82,2-2,0-.973-.921-2.14-2-2-2.278.296-3.771-1.589-4.759-3.412-.802-1.479-1.463-3.248-1.616-5.024-.157-1.826-.056-3.799.864-5.252-.317.5.513-.449.235-.243.386-.285.55-.348.967-.442.862-.193,1.769-.082,2.448.524,1.915,1.709,4.754-1.11,2.828-2.828h0Z"/><path class="e" d="M107.889,55.165c.64-.571,1.5-.706,2.317-.552.49.092.684.163,1.099.47-.276-.204.544.732.235.243.441.696.625,1.241.785,2.119.184,1.011.167,2.102.079,3.132-.152,1.774-.816,3.549-1.616,5.024-.988,1.822-2.48,3.707-4.759,3.412-1.073-.139-2,1.019-2,2,0,1.196.924,1.86,2,2,5.264.683,8.495-5.005,9.81-9.259,1.179-3.815,1.131-9.738-2.6-12.181-2.534-1.659-5.979-1.199-8.179.764-1.925,1.717.912,4.538,2.828,2.828h0Z"/><path class="e" d="M104.277,68.308c-.31,1.488-.771,2.947-1.31,4.367-.193.508-.355.841-.584,1.411-.204.507.137-.275-.036.086-.063.132-.122.266-.185.398-.893,1.866-2.008,3.637-3.199,5.325-2.785,3.947-6.597,8.256-11.493,9.407-2.505.589-1.444,4.446,1.063,3.857,5.778-1.358,10.224-6.183,13.572-10.809,1.3-1.796,2.511-3.692,3.477-5.691.207-.427.391-.862.575-1.3.217-.518-.147.344.081-.187.149-.347.296-.694.436-1.045.611-1.54,1.123-3.133,1.461-4.756.524-2.512-3.331-3.586-3.857-1.063h0Z"/><path class="e" d="M47.203,69.269c2.482,10.884,10.671,22.749,22.434,24.524,1.067.161,2.15-.268,2.46-1.397.26-.945-.322-2.298-1.397-2.46-10.47-1.579-17.437-12.068-19.64-21.73-.572-2.509-4.43-1.447-3.857,1.063h0Z"/><path class="e" d="M72.099,78.508c1.844.974,3.828,1.393,5.915,1.38,2.19-.014,4.329-.477,6.074-1.836.829-.646.729-2.159,0-2.828-.88-.807-1.944-.689-2.828,0,.69-.537-.037-.004-.256.111-.169.089-.626.23,0,.02-.162.054-.319.123-.482.175-.205.066-.413.122-.623.171-.221.051-.52.048-.725.137.203-.088.316-.038.014-.008-.132.013-.265.024-.397.033-.319.021-.638.029-.958.027-.286-.002-.572-.011-.858-.031-.131-.009-.262-.019-.393-.033-.075-.007-.149-.016-.224-.025-.156-.019-.098-.011.176.023-.113.055-.519-.092-.645-.12-.206-.046-.411-.099-.614-.159-.176-.053-.348-.116-.522-.176-.453-.155.415.199.005.006-.216-.102-.429-.208-.64-.319-.925-.488-2.217-.265-2.736.718-.488.924-.27,2.215.718,2.736h0Z"/><path class="e" d="M76.754,64.89c.246.938.482,1.892.623,2.852l-.071-.532c.017.132.024.261.011.394l.071-.532c-.009.061-.023.119-.043.177l.202-.478c-.018.041-.037.076-.062.114l.313-.405c-.029.036-.057.063-.093.092l.405-.313c-.072.046-.148.084-.226.12l.478-.202c-.124.052-.248.09-.381.111l.532-.071c-.12.014-.237.013-.357,0l.532.071c-.135-.019-.267-.052-.402-.07-.266-.083-.532-.095-.798-.036-.266.012-.514.091-.744.237-.415.243-.811.718-.919,1.195-.117.512-.091,1.087.202,1.541.26.403.695.852,1.195.919.354.048.698.136,1.059.152.578.025,1.108-.156,1.622-.395.647-.299,1.156-.911,1.328-1.606.147-.594.087-1.074-.014-1.67-.155-.919-.368-1.83-.604-2.731-.127-.483-.49-.944-.919-1.195s-1.061-.357-1.541-.202c-.484.157-.951.457-1.195.919-.253.48-.342,1.007-.202,1.541h0Z"/><path class="e" d="M62.19,56.669c-.476,1.548-.166,5.109,2.767,5.412,3.876-.023,4.082-4.328,2.777-6.353-1.068-1.657-4.209-2.347-5.544.941Z"/><path class="e" d="M93.229,56.669c.476,1.548.166,5.109-2.766,5.412-3.876-.023-4.082-4.329-2.778-6.353,1.068-1.657,4.209-2.346,5.544.941Z"/><path class="f" d="M116.058,267.625c-30.13,0-56.718,0-83.965-.002.107,4.544.215,9.228.324,14.003,29.209,0,57.678,0,90.588-.003.108-4.774.213-9.457.313-13.998-2.444,0-4.863,0-7.26,0Z"/><path class="e" d="M112.981,77.66h9.583c1.5,0,2.981-.076,4.362.636,2.055,1.059,3.267,3.107,3.304,5.401.104,6.494,0,12.998,0,19.493v7.899c0,2.574,4,2.578,4,0v-19.871c0-2.509.042-5.023,0-7.532-.095-5.725-4.678-10.006-10.333-10.027-3.639-.014-7.278,0-10.917,0-2.574,0-2.578,4,0,4h0Z"/><path class="e" d="M24.231,112.01v-19.641c0-2.827-.017-5.655,0-8.481.011-1.904.718-3.691,2.232-4.909,1.417-1.141,3.033-1.318,4.765-1.318h11.203c2.574,0,2.578-4,0-4h-10.475c-1.872,0-3.684.013-5.458.738-3.085,1.261-5.49,4.05-6.079,7.365-.457,2.571-.187,5.364-.187,7.957v22.289c0,2.574,4,2.578,4,0h0Z"/><path class="e" d="M28.647,149.441c-.001,24.756-.288,49.522.154,74.275.294,16.448.835,32.896,1.252,49.341.496,19.536,1.025,39.072,1.744,58.601.623,16.911,1.301,33.84,2.646,50.712.249,3.128.526,6.254.862,9.374.173,1.609.218,3.369.754,4.9.84,2.398,2.645,4.337,5.081,5.145,2.249.746,4.828.88,7.17,1.128,2.516.266,5.046.459,7.576.518,4.949.115,9.969-.199,14.888-.716,2.163-.228,4.348-.486,6.462-1.015,2.496-.624,1.438-4.483-1.063-3.857-4.514,1.129-9.334,1.278-13.961,1.471-4.785.199-9.513.079-14.277-.44-1.112-.121-2.221-.261-3.325-.44-1.047-.17-2.221-.273-3.124-.874-1.489-.99-1.817-2.609-2.006-4.251-.336-2.921-.612-5.849-.859-8.779-1.38-16.321-2.055-32.706-2.681-49.071-.733-19.162-1.267-38.332-1.761-57.501-.416-16.155-.835-32.31-1.253-48.465-.604-23.351-.317-46.727-.286-70.083.004-3.324.007-6.648.007-9.972,0-2.574-4-2.578-4,0h0Z"/><path class="e" d="M122.764,149.441c.001,24.401.271,48.81-.135,73.209-.27,16.246-.818,32.493-1.228,48.736-.483,19.106-.995,38.211-1.679,57.31-.608,16.982-1.28,33.976-2.542,50.925-.239,3.214-.504,6.427-.819,9.635-.263,2.676.041,7.033-2.719,8.472-1.794.936-4.375.955-6.354,1.167-2.475.265-4.962.459-7.45.53-4.871.139-9.812-.17-14.657-.652-1.995-.199-3.995-.44-5.943-.928-2.498-.625-3.563,3.232-1.063,3.857,4.733,1.184,9.793,1.384,14.647,1.597s9.637.114,14.467-.404c2.281-.245,4.791-.381,6.983-1.107,2.488-.825,4.325-2.837,5.137-5.303.51-1.547.547-3.326.719-4.943.159-1.492.305-2.985.441-4.478,1.471-16.13,2.144-32.34,2.783-48.52.773-19.562,1.325-39.133,1.832-58.704.427-16.458.822-32.916,1.275-49.373.65-23.591.344-47.211.312-70.807-.005-3.406-.007-6.813-.008-10.219,0-2.574-4-2.578-4,0h0Z"/><path class="e" d="M75.701,253.375c.009,5.779.006,11.558.006,17.337.001,11.078.001,22.156.001,33.235,0,12.985,0,25.969-.002,38.954,0,11.608-.002,23.216-.003,34.825,0,6.93-.001,13.86-.003,20.79,0,.365,0,.731,0,1.096,0,2.574,4,2.578,4,0,.001-6.11.002-12.22.002-18.33.001-11.248.002-22.497.003-33.745.001-12.994.002-25.989.002-38.983,0-11.458,0-22.916,0-34.375,0-6.619,0-13.238-.006-19.857,0-.315,0-.631-.001-.946-.004-2.574-4.004-2.578-4,0h0Z"/><path class="e" d="M33.66,223.522c10.719,0,21.437-.022,32.156-.041,12.581-.023,25.161-.049,37.742-.067,6.069-.008,12.137-.015,18.206-.015,2.574,0,2.578-4,0-4-11.429,0-22.858.021-34.287.041-12.383.022-24.765.048-37.148.067-5.556.008-11.112.015-16.668.015-2.574,0-2.578,4,0,4h0Z"/><path class="e" d="M33.66,206.032h88.103c2.574,0,2.578-4,0-4H33.66c-2.574,0-2.578,4,0,4h0Z"/><path class="e" d="M28.06,227.45c-5.137-.249-10.272-.624-15.386-1.176-.98-.106-2.021-.133-2.974-.396-.201-.055-.816-.407-.654-.208-.279-.343-.269-1.01-.277-1.431-.02-.992.14-2.005.222-2.993.429-5.164.767-10.336,1.11-15.507.966-14.573,1.851-29.151,2.818-43.723.41-6.18.826-12.36,1.312-18.534.566-7.194.863-14.84,3.675-21.568,1.697-4.06,4.575-8.073,8.208-10.612,3.456-2.415,7.41-4.027,11.268-5.675,2.592-1.108,5.2-2.178,7.806-3.252,1.127-.464,2.205-.954,3.218-1.64,1.027-.696,1.909-1.499,3.135-1.827,2.129-.57,4.611.441,6.745.757,2.833.418,5.674.786,8.524,1.074,10.829,1.091,21.884.635,32.586-1.444,2.251-.437,4.362-1.201,6.471.133,1.072.678,1.954,1.628,3.038,2.302,1.168.728,2.555,1.15,3.823,1.674,4.353,1.798,8.796,3.53,12.975,5.716,1.801.942,3.602,2.018,5.112,3.387,1.903,1.726,4.74-1.095,2.828-2.828-3.299-2.991-7.417-4.817-11.45-6.581-2.49-1.089-4.998-2.14-7.509-3.181-1.244-.516-2.613-.932-3.761-1.641-1.198-.739-2.139-1.823-3.38-2.502-2.54-1.389-5.044-1.222-7.774-.634-2.456.529-4.944.869-7.436,1.179-5.764.717-11.621,1.256-17.431,1.006-5.681-.244-11.397-.787-17.005-1.738-2.574-.436-5.005-1.259-7.612-.484-1.214.361-2.247.975-3.255,1.72-1.124.83-2.303,1.448-3.592,1.978-4.862,1.998-9.76,3.963-14.497,6.247-4.111,1.982-7.663,4.645-10.499,8.244-5.955,7.557-7.077,17.001-7.89,26.291-.503,5.745-.895,11.5-1.286,17.254-1.035,15.204-1.956,30.415-2.949,45.621-.378,5.781-.753,11.563-1.209,17.338-.205,2.602-.943,5.827.635,8.107,1.438,2.077,4.296,2.085,6.554,2.333,2.551.281,5.109.509,7.668.707,2.696.209,5.395.38,8.095.511,2.573.125,2.567-3.876,0-4h0Z"/><path class="e" d="M63.708,177.381c-3.862.05-7.259,2.426-8.432,6.142-1.075,3.407.023,7.482,2.864,9.692s7.069,2.479,10.206.686c3.249-1.857,4.588-5.686,4.047-9.264-.647-4.27-4.469-7.202-8.685-7.256-1.081-.014-2,.929-2,2,0,1.096.916,1.986,2,2,.199.003.396.016.594.023.592.019-.337-.098.23.028.303.067.603.132.899.229.115.038.229.079.342.123-.405-.156.127.069.174.093.311.161.613.347.892.558-.321-.243.283.275.376.371.121.124.233.254.346.384-.253-.292-.006-.012.051.076.173.268.324.542.481.818.037.066.157.35.012-.002.089.216.163.438.228.662.082.284.147.574.19.866-.062-.409-.006-.009-.004.096.003.152.015.304.015.457,0,.311-.019.621-.049.93.044-.461-.024.113-.036.177-.04.199-.087.397-.143.592-.039.137-.081.272-.128.406-.027.076-.26.56-.05.141-.123.244-.245.486-.391.718-.072.114-.149.224-.227.334-.18.252.319-.324-.037.034-.228.229-.444.455-.687.668.355-.309-.041.023-.112.07-.09.06-.182.117-.275.172-.142.084-.29.153-.433.233-.458.253.244-.081-.058.03-.297.109-.596.204-.904.276-.115.027-.232.046-.347.072-.234.038-.236.04-.006.007-.123.014-.246.025-.37.033-.315.021-.631.025-.946.01-.183-.008-.367-.022-.549-.044.089.011.37.08,0-.009-.312-.075-.622-.139-.927-.24-.135-.045-.268-.092-.4-.147.427.176-.12-.076-.203-.121-.265-.145-.522-.306-.762-.489.355.27-.242-.243-.33-.335-.095-.098-.184-.201-.274-.303-.21-.236.243.388-.039-.05-.182-.283-.344-.568-.508-.861-.261-.467.102.365-.067-.149-.036-.11-.078-.218-.113-.329-.108-.341-.186-.69-.246-1.042.069.409-.027-.459-.03-.589-.003-.156-.002-.311.004-.467.004-.094.074-.73.005-.274.053-.349.134-.695.24-1.031.052-.166.11-.332.177-.493-.134.326.028-.034.09-.152.16-.304.344-.6.551-.875-.269.357.088-.084.127-.126.117-.127.239-.25.366-.367.04-.037.48-.4.128-.131.138-.106.285-.204.433-.297.149-.094.303-.182.459-.264.101-.053.498-.221.174-.095.343-.134.697-.24,1.058-.317.042-.009.649-.093.222-.048.263-.028.526-.037.79-.041,1.081-.014,2-.909,2-2,0-1.073-.915-2.014-2-2Z"/><path class="e" d="M8.514,227.934c-3.258,9.724-6.586,19.548-7.966,29.75C.218,260.115-.006,262.561,0,265.017c.006,2.21.066,4.622,1.162,6.603,1.215,2.195,3.755,3.464,6.23,3.133,2.802-.375,4.853-2.393,6.252-4.727,2.93-4.887,5.101-10.36,6.987-15.722.856-2.433-3.007-3.48-3.857-1.063-1.425,4.051-3.089,7.96-5.016,11.798-.949,1.89-1.928,4.513-3.97,5.481-1.601.759-3.039-.105-3.47-1.723-.474-1.783-.357-3.787-.284-5.614.086-2.147.317-4.286.657-6.407.741-4.628,1.884-9.187,3.182-13.687,1.367-4.739,2.93-9.416,4.497-14.092.82-2.446-3.042-3.496-3.857-1.063h0Z"/><path class="e" d="M25.015,230.146c.562,6.58.89,13.19.97,19.793.02,1.659.022,3.318-.007,4.977-.022,1.216.228,2.92-.688,3.89-1.96,2.077-5.002-1.681-5.885-3.221-1.28-2.233-4.738-.22-3.454,2.019,1.88,3.28,5.337,6.398,9.387,5.544,2.045-.432,3.523-1.959,4.208-3.897.598-1.693.429-3.672.446-5.442.076-7.888-.306-15.805-.978-23.663-.218-2.546-4.22-2.569-4,0h0Z"/><path class="e" d="M58.612,144.153c-.007-5.931-.013-11.862-.015-17.793,0-.902-.251-2.162.74-2.638.46-.221,1.062-.127,1.555-.127.991,0,1.981,0,2.972,0,3.37,0,6.739,0,10.109,0,5.694,0,11.389,0,17.083,0,.943,0,1.887,0,2.83,0,.746,0,1.854-.222,2.477.288.641.525.462,1.454.462,2.182,0,1.264,0,2.527,0,3.791,0,3.151,0,6.301,0,9.452,0,1.551.213,3.294,0,4.829-.106.766-.513,1.217-1.298,1.297-1.218.123-2.512,0-3.734,0-6.416.002-12.832.003-19.249.005l-9.663.002c-1.209,0-4.173.545-4.268-1.287-.132-2.561-4.133-2.577-4,0,.154,2.97,2.329,5.168,5.306,5.288.478.019.962,0,1.44,0l8.157-.002,21.613-.005c1.463,0,2.938.056,4.4-.001,1.506-.058,2.954-.628,3.957-1.786,1.136-1.311,1.338-2.813,1.338-4.493,0-3.576,0-7.152,0-10.727,0-1.463,0-2.926,0-4.389,0-1.318.125-2.716-.088-4.019-.512-3.131-3.215-4.425-6.11-4.424-5.524.001-11.047.001-16.571.001-4.074,0-8.148,0-12.222,0-3.555,0-8.456-.976-10.563,2.723-.94,1.65-.673,3.671-.672,5.49,0,2.008.002,4.016.004,6.025.003,3.44.007,6.881.011,10.321.003,2.574,4.003,2.578,4,0Z"/><path class="e" d="M75.71,121.594c0,8.616,0,17.231,0,25.847,0,2.574,4,2.578,4,0,0-8.616,0-17.231,0-25.847,0-2.574-4-2.578-4,0h0Z"/><path class="e" d="M123.317,265.625c-23.931,0-47.862,0-71.794,0-6.492,0-12.984,0-19.477,0-2.574,0-2.578,4,0,4,23.308,0,46.617,0,69.925,0,7.115,0,14.23,0,21.345,0,2.574,0,2.578-4,0-4h0Z"/><path class="e" d="M123.317,279.626c-23.931,0-47.862,0-71.794,0-6.492,0-12.984,0-19.477,0-2.574,0-2.578,4,0,4,23.308,0,46.617,0,69.925,0,7.115,0,14.23,0,21.345,0,2.574,0,2.578-4,0-4h0Z"/><path class="e" d="M156.456,149.737c-5.806-10.481-9.07-22.281-16.036-32.129-1.987-2.81-4.109-5.726-6.777-7.932-1.97-1.629-4.815,1.186-2.828,2.828,2.233,1.846,4.049,4.201,5.735,6.54,1.53,2.122,2.951,4.31,4.19,6.614,3.017,5.609,5.422,11.533,8.02,17.341,1.324,2.96,2.67,5.919,4.242,8.757,1.248,2.252,4.703.237,3.454-2.019h0Z"/><path class="e" d="M102.678,103.405c-8.164,2.927-16.547,4.161-25.203,4.127-8.269-.032-16.859-1.016-24.733-3.601-2.451-.805-3.502,3.056-1.063,3.857,4.156,1.365,8.389,2.17,12.719,2.738s8.702.99,13.078,1.007c8.984.035,17.793-1.232,26.267-4.27,2.405-.862,1.368-4.729-1.063-3.857h0Z"/><path class="h" d="M127.391,131.5c-1.082-1.889-2.706-4.726-4.431-7.746-.418-.731-.161-1.671.57-2.088,5.934-3.388,8.914-5.09,11.463-6.546.733-.419,1.665-.165,2.083.568,1.006,1.763,2.649,4.64,4.424,7.747.418.733.164,1.666-.569,2.084l-11.457,6.546c-.732.418-1.664.166-2.083-.566Z"/><path class="e" d="M48.678,51.901c3.353.598,6.994.233,9.935-1.602,2.694-1.68,4.715-4.699,4.304-7.973l-3.414,1.414c6.426,5.157,16.041.27,19.934-5.757h-3.454c3.893,6.027,13.508,10.914,19.934,5.757l-3.414-1.414c-.411,3.275,1.61,6.293,4.304,7.973,2.942,1.835,6.582,2.2,9.935,1.602,1.064-.19,1.664-1.488,1.397-2.46-.308-1.121-1.393-1.587-2.46-1.397-3.669.655-9.772-.964-9.175-5.718.242-1.93-2.249-2.35-3.414-1.414-1.892,1.518-5.222,1.07-7.278.195-2.528-1.076-4.88-2.829-6.374-5.142-.833-1.289-2.621-1.289-3.454,0-1.494,2.313-3.847,4.067-6.374,5.142-2.058.876-5.385,1.324-7.278-.195-1.157-.928-3.656-.509-3.414,1.414.597,4.755-5.507,6.373-9.175,5.718-1.062-.19-2.156.288-2.46,1.397-.266.967.328,2.27,1.397,2.46h0Z"/><path class="e" d="M147.574,229.055c4.027,5.907,11.692,8.646,18.577,6.686,6.443-1.834,11.531-7.38,12.97-13.895.554-2.508-3.301-3.58-3.857-1.063-1.117,5.056-4.835,9.445-9.84,11.001-5.167,1.606-11.299-.205-14.396-4.748-1.442-2.115-4.909-.116-3.454,2.019h0Z"/><path class="e" d="M178.571,204.938c.641,2.982,1.409,6.217.657,9.253-.526,2.124-1.839,4.193-3.809,4.877-1.02.354-1.697,1.37-1.397,2.46.272.991,1.435,1.753,2.46,1.397,3.277-1.139,5.511-3.932,6.477-7.208,1.143-3.878.295-7.994-.532-11.842-.227-1.056-1.461-1.671-2.46-1.397-1.092.3-1.625,1.401-1.397,2.46h0Z"/><path class="h" d="M8.733,175.86c-1.566,2.819-2.415,5.737-2.508,8.661-.025.796.075,1.679,1.212,2.245.391.194.866.33,1.382.427,4.623.437,9.733-.372,14.058-1.204,5.171-.995,20.714-3.643,39.187-17.291.091-.08.225-.196.225-.196,1.426-1.227,2.245-3.097,2.245-5.338,0-3.683-2.804-6.784-6.826-6.784-1.42,0-2.686.387-3.73,1.048,0,0-.54.342-1.09.692-5.202,4.045-11.561,7.503-18.709,10.124-3.247,1.19-6.672,2.211-10.271,2.904-2.808.54-6.093,1.066-9.132.885-2.034-.122-3.981.641-4.804,1.837-.453.657-.865,1.322-1.237,1.991Z"/><path class="e" d="M51.878,156.392c-7.358,5.679-16.043,9.753-25.038,12.049-2.357.602-4.765,1.097-7.181,1.391-2.382.29-4.85-.068-7.195.39-4.578.895-6.801,6.354-7.736,10.434-.434,1.897-.968,4.396,0,6.212,1.115,2.095,3.741,2.365,5.845,2.432,4.429.14,8.853-.623,13.186-1.451,4.664-.89,9.249-2.045,13.725-3.643,9.237-3.297,17.865-8.082,25.748-13.9.868-.64,1.304-1.733.718-2.736-.501-.856-1.862-1.363-2.736-.718-10.832,7.995-23.035,13.982-36.26,16.698-2.418.497-4.85.968-7.294,1.309-2.196.307-4.423.488-6.642.451-.852-.014-1.756.012-2.57-.272-.325-.113-.145.102-.224-.249-.102-.453.036-1.068.088-1.52.244-2.09.948-4.139,1.928-5.993.911-1.722,1.632-3.099,3.729-3.247,1.033-.073,2.083.059,3.121.017,1.272-.052,2.537-.199,3.797-.373,2.206-.306,4.4-.725,6.562-1.26,9.456-2.337,18.727-6.607,26.449-12.567.854-.659,1.312-1.719.718-2.736-.491-.84-1.876-1.382-2.736-.718h0Z"/><path class="e" d="M129.118,130.49c-1.155-2.017-2.31-4.035-3.464-6.053-.107-.186-1.048-1.572-.968-1.693.188-.285.043.415.046.428l-.193.221c.208-.119.416-.238.625-.357,1.062-.607,2.125-1.213,3.187-1.82,1.603-.915,3.206-1.831,4.81-2.746.572-.327,1.144-.653,1.716-.98.237-.136.475-.271.712-.407.027-.016.412-.239.414-.236.129.196-.839.017-.653-.149-.07.063,1.287,2.254,1.392,2.439.65,1.139,1.301,2.278,1.951,3.417.287.502.547,1.111.897,1.571.417.549.056.286.129-.061.02-.094.114-.331.2-.269-.031-.023-.429.245-.463.265l-6.142,3.51-3.594,2.054c-.336.192-.711.359-1.024.585-.455.328.147-.122.424.283-.61-.89-1.757-1.291-2.736-.718-.882.516-1.331,1.841-.718,2.736,1.279,1.868,3.333,2.132,5.219,1.055l3.131-1.789,7.525-4.3c1.864-1.065,2.702-3.035,1.686-5.049-1.295-2.569-2.837-5.092-4.317-7.561-.802-1.337-2.143-2.132-3.725-1.881-.978.155-1.848.779-2.698,1.264-1.731.989-3.462,1.977-5.193,2.965-1.383.79-2.766,1.58-4.15,2.369-1.614.922-2.798,2.392-2.252,4.362.233.841.791,1.609,1.221,2.361.446.78.892,1.56,1.338,2.34.737,1.288,1.474,2.576,2.212,3.864,1.279,2.233,4.736.221,3.454-2.019Z"/><path class="h" d="M108.329,177.341c-.361-6.009.713-12.108,3.163-17.609,3.597-8.075,16.537-20.313,30.457-18.17-18.036-2.269-36.731,5.158-46.016,21.277-8.079,14.024-7.218,33.103-1.809,47.941.432,1.186,1.414,2.465,2.338,3.325.94.875,2.554.967,4.332.703.437,2.512,1.116,5.453,1.843,9.255.426,2.228,2.399,3.823,4.667,3.764,13.016-.338,42.897-1.345,60.017-2.2,1.877-.094,3.345-1.642,3.345-3.522v-4.189s0-1.451,0-3.605c-1.266,1.063-2.635,1.808-3.975,1.808-13.708,0-23.977-.065-31.479-.065l-2.937-.006c-3.28-.007-6.265-1.91-7.632-4.892-4.343-9.476-9.199-18.717-14.548-27.664-.912-1.525-1.517-3.223-1.679-4.992-.035-.386-.064-.772-.088-1.159Z"/><path class="e" d="M107.772,210.69c-2.743.905-5.621,2.25-8.558,2.249-1.511,0-2.289-.932-3.041-2.449-.819-1.65-1.269-3.602-1.759-5.373-2.206-7.976-3.014-16.376-2.057-24.61.902-7.768,3.681-15.426,8.62-21.55,4.601-5.705,10.727-10.091,17.575-12.693,7.749-2.945,16.252-3.813,24.444-2.553,1.066.164,2.151-.27,2.46-1.397.26-.947-.323-2.295-1.397-2.46-16.219-2.494-33.686,2.349-44.746,14.893-12.127,13.754-13.483,33.566-8.96,50.678,1.043,3.945,2.401,10.346,7.137,11.338,3.815.799,7.8-1.047,11.346-2.216,2.433-.803,1.391-4.667-1.063-3.857h0Z"/><path class="e" d="M98.866,215.335c.279,1.582.608,3.154.933,4.727.37,1.789.541,3.786,1.202,5.49.598,1.539,1.733,2.834,3.221,3.569,1.354.669,2.731.717,4.206.677,5.357-.144,10.713-.313,16.069-.489,12.978-.428,25.956-.892,38.927-1.493,1.568-.073,3.23-.008,4.776-.293,1.901-.351,3.475-1.754,4.136-3.555.668-1.819.33-4.146.33-6.051,0-2.574-4-2.578-4,0,0,1.378.107,2.798,0,4.171-.078.995-.687,1.458-1.631,1.555-1.297.132-2.624.127-3.926.188-5.851.27-11.704.507-17.557.731-11.376.435-22.754.828-34.134,1.154-1.941.056-5.247.835-6.464-1.124-.446-.717-.498-1.635-.659-2.445-.195-.985-.397-1.968-.6-2.95-.338-1.638-.683-3.275-.974-4.923-.188-1.064-1.489-1.664-2.46-1.397-1.123.309-1.585,1.393-1.397,2.46h0Z"/><path class="g" d="M138.695,141.315c-12.639,0-23.887,10.977-27.202,18.418-2.608,5.855-3.658,12.387-3.076,18.768.161,1.77.767,3.467,1.679,4.992,5.349,8.947,10.205,18.188,14.548,27.664,1.367,2.982,4.352,4.885,7.632,4.892l2.937.006c7.501,0,17.771.065,31.479.065,4.273,0,8.828-7.563,9.466-8.904,6.579-13.815,6.448-32.042-.655-45.595-7.103-13.553-21.561-21.598-36.808-20.306"/><path class="e" d="M138.695,139.315c-8.169.07-15.77,4.12-21.604,9.638-2.522,2.385-4.829,5.137-6.523,8.177-2.146,3.852-3.356,8.282-3.937,12.629-.632,4.732-.853,10.053,1.517,14.358,2.471,4.489,5.143,8.857,7.541,13.39s4.679,9.139,6.832,13.798c1.846,3.993,5.239,6.653,9.755,6.743,6.15.122,12.313.027,18.465.045,4.745.014,9.49.024,14.235.026,1.973,0,3.655-.086,5.384-1.127,1.422-.856,2.662-2.041,3.742-3.292,4.753-5.505,7.067-12.673,8.156-19.771,1.335-8.706.791-17.774-1.998-26.157-2.612-7.85-7.216-14.927-13.77-20.043-6.308-4.924-13.912-7.878-21.899-8.454-1.964-.142-3.933-.118-5.896.039-2.549.203-2.571,4.205,0,4,14.773-1.179,28.798,6.758,35.437,20.009,3.577,7.139,5.032,15.283,4.812,23.228-.112,4.058-.683,8.083-1.736,12.005-.808,3.007-1.802,6.124-3.42,8.804-1.334,2.208-3.011,4.608-5.209,6.029-1.488.963-2.791.73-4.567.729-2.286-.001-4.572-.005-6.858-.009-7.131-.014-14.263-.052-21.394-.055-2.176,0-4.585.301-6.557-.794-1.728-.96-2.525-2.456-3.328-4.189-.996-2.15-2.018-4.287-3.067-6.411-2.132-4.32-4.372-8.586-6.719-12.792-1.154-2.069-2.334-4.123-3.54-6.163-1.17-1.979-2.046-3.766-2.203-6.096-.511-7.596,1.186-15.792,5.947-21.881,4.258-5.447,10.31-9.972,17.058-11.717,1.76-.455,3.527-.682,5.344-.697,2.573-.022,2.579-4.022,0-4h0Z"/><path class="e" d="M57.708,154.38c-3.862.05-7.259,2.426-8.432,6.142-1.075,3.407.023,7.482,2.864,9.692s7.069,2.479,10.206.686c3.249-1.857,4.588-5.686,4.047-9.264-.647-4.27-4.469-7.202-8.685-7.256-1.081-.014-2,.929-2,2,0,1.096.916,1.986,2,2,.199.003.396.016.594.023.592.019-.337-.098.23.028.303.067.603.132.899.229.115.038.229.079.342.123-.405-.156.127.069.174.093.311.161.613.347.892.558-.321-.243.283.275.376.371.121.124.233.254.346.384-.253-.292-.006-.012.051.076.173.268.324.542.481.818.037.066.157.35.012-.002.089.216.163.438.228.662.082.284.147.574.19.866-.062-.409-.006-.009-.004.096.003.152.015.304.015.457,0,.311-.019.621-.049.93.044-.461-.024.113-.036.177-.04.199-.087.397-.143.592-.039.137-.081.272-.128.406-.027.076-.26.56-.05.141-.123.244-.245.486-.391.718-.072.114-.149.224-.227.334-.18.252.319-.324-.037.034-.228.229-.444.455-.687.668.355-.309-.041.023-.112.07-.09.06-.182.117-.275.172-.142.084-.29.153-.433.233-.458.253.244-.081-.058.03-.297.109-.596.204-.904.276-.115.027-.232.046-.347.072-.234.038-.236.04-.006.007-.123.014-.246.025-.37.033-.315.021-.631.025-.946.01-.183-.008-.367-.022-.549-.044.089.011.37.08,0-.009-.312-.075-.622-.139-.927-.24-.135-.045-.268-.092-.4-.147.427.176-.12-.076-.203-.121-.265-.145-.522-.306-.762-.489.355.27-.242-.243-.33-.335-.095-.098-.184-.201-.274-.303-.21-.236.243.388-.039-.05-.182-.283-.344-.568-.508-.861-.261-.467.102.365-.067-.149-.036-.11-.078-.218-.113-.329-.108-.341-.186-.69-.246-1.042.069.409-.027-.459-.03-.589-.003-.156-.002-.311.004-.467.004-.094.074-.73.005-.274.053-.349.134-.695.24-1.031.052-.166.11-.332.177-.493-.134.326.028-.034.09-.152.16-.304.344-.6.551-.875-.269.357.088-.084.127-.126.117-.127.239-.25.366-.367.04-.037.48-.4.128-.131.138-.106.285-.204.433-.297.149-.094.303-.182.459-.264.101-.053.498-.221.174-.095.343-.134.697-.24,1.058-.317.042-.009.649-.093.222-.048.263-.028.526-.037.79-.041,1.081-.014,2-.909,2-2,0-1.073-.915-2.014-2-2Z"/></g></svg>