<svg id="b" xmlns="http://www.w3.org/2000/svg" width="370.244" height="330.542" viewBox="0 0 370.244 330.542" style="color: initial !important;"><defs><style>.e{fill:#3f88c9;}.f{fill:#ffffff;}.g{fill:#211715;}.h{fill:#3f88c9;}.i{fill:#645d5c;}</style></defs><g id="c"><g id="d"><path class="f" d="M169.869,48.566c-2.337-.101-4.432,1.866-4.432,4.401,0,13.223-.004,46.613-.004,60.484,5.819,2.39,28.957,13.144,54.368,24.945l41.542,21.236c21.54,11.25,43.61,22.94,49.22,25.88,9.328,4.894,48.48,23.363,57.464,28.905-.004-15.973.088-52.914.101-71.488.004-5.101-3.784-11.001-8.426-13.115-34.916-15.901-152.488-66.899-188.515-80.966-.44-.172-.883-.262-1.318-.281Z"/><path class="f" d="M153.606,180.157c-20.544-8.163-40.931-14.932-53.449-15.604l.304-.238.822-.643c22.67-17.75,53.63-42.66,64.15-50.22,5.819,2.39,28.957,13.144,54.368,24.944l41.542,21.236c21.54,11.25,43.61,22.94,49.22,25.88,9.321,4.891,48.42,23.335,57.444,28.892-.005,12.93.033,40.254.239,54.936.007.521-.184,1.01-.541,1.388-1.721,1.822-3.507,3.703-5.339,5.626-11.261,11.819-24.26,25.199-34.605,35.879-3.931,4.059-7.479,7.728-10.403,10.774,0,0-.159.166-.471.497-.272-11.662-2.382-33.092-2.847-35.798-2.378-13.847-6.409-21.933-16.488-31.72-6.369-6.185-68.161-41.506-78.539-46.553-9-4.377-37.351-18.127-65.408-29.276Z"/><path class="e" d="M27.339,45.822c-.22,12.627.948,87.438,1.407,94.422,5.529-3.782,64.57-46.734,70.65-51.945,0-8.459-1.484-80.052-1.537-86.293-1.944.532-68.18,42.159-70.521,43.816Z"/><path class="g" d="M25.339,45.822c-.201,11.795.096,23.612.251,35.405.202,15.334.437,30.668.774,46,.095,4.334.103,8.69.382,13.017.09,1.397,1.671,2.644,3.009,1.727,8.313-5.694,16.383-11.772,24.526-17.703,11.81-8.603,23.61-17.224,35.319-25.965,3.514-2.623,7.058-5.222,10.47-7.978.792-.639,1.29-1.191,1.325-2.312.02-.636-.008-1.276-.015-1.912-.022-2.014-.052-4.029-.084-6.043-.222-14.105-.504-28.209-.775-42.313-.22-11.457-.473-22.914-.644-34.371-.007-.456-.014-.911-.018-1.367-.011-1.275-1.272-2.303-2.532-1.929-.947.282-1.85.921-2.692,1.413-1.75,1.024-3.483,2.077-5.215,3.13-5.525,3.362-11.022,6.771-16.515,10.184-12.422,7.719-24.816,15.483-37.18,23.294-3.131,1.978-6.365,3.863-9.396,5.995-2.09,1.47-.093,4.939,2.019,3.454,2.505-1.761,5.171-3.323,7.758-4.959,5.482-3.468,10.974-6.922,16.47-10.369,12.285-7.707,24.575-15.41,36.948-22.976,2.133-1.304,4.267-2.606,6.419-3.88.656-.388,1.313-.777,1.979-1.148.2-.112.407-.214.606-.328.476-.275-.238.077-.136.047l-2.532-1.929c.086,9.86.353,19.721.543,29.579.279,14.486.565,28.971.811,43.457.075,4.418.181,8.838.182,13.257l.586-1.414c-.425.363-.862.711-1.3,1.058-.277.219-.554.436-.833.653-.156.122-.313.243-.47.364.502-.389-.197.151-.31.238-1.892,1.454-3.799,2.889-5.709,4.319-5.347,4.006-10.724,7.974-16.106,11.933-11.741,8.637-23.515,17.23-35.327,25.769-3.384,2.446-6.745,4.936-10.191,7.296l3.009,1.727c-.235-3.639-.252-7.3-.336-10.944-.157-6.811-.282-13.623-.4-20.435-.272-15.708-.504-31.417-.638-47.127-.045-5.303-.124-10.612-.033-15.915.044-2.575-3.956-2.575-4,0Z"/><path class="g" d="M260.334,161.358c16.828,8.79,33.523,17.855,50.424,26.503,12.743,6.52,25.726,12.57,38.535,18.96,5.945,2.966,12.032,5.83,17.701,9.308l-.991-1.727c0,14.577.026,29.154.13,43.73.027,3.737.059,7.473.11,11.21.035,2.572,4.035,2.579,4,0-.178-13.17-.2-26.342-.225-39.513-.006-3.071-.01-6.141-.013-9.212-.001-1.32-.002-2.641-.002-3.961,0-1.469.298-3.121-1.096-4.046-3.026-2.006-6.426-3.573-9.649-5.228-9.898-5.084-19.918-9.93-29.918-14.808-7.186-3.506-14.374-6.997-21.447-10.725-13.165-6.939-26.325-13.887-39.508-20.79-2.01-1.052-4.02-2.104-6.031-3.154-2.279-1.191-4.304,2.26-2.019,3.454h0Z"/><path class="g" d="M317.988,264.078c11.594-10.616,22.86-21.585,34.325-32.339,2.435-2.284,4.875-4.565,7.357-6.799,1.917-1.726-.919-4.547-2.828-2.828-11.188,10.072-21.932,20.644-32.894,30.959-2.914,2.742-5.836,5.477-8.787,8.18-1.903,1.742.932,4.565,2.828,2.828h0Z"/><path class="g" d="M167.433,113.451c0-12.652.001-25.304.002-37.956,0-6.173,0-12.346.001-18.519,0-1.9-.733-5.508,1.596-6.3.995-.338,2.005.248,2.921.608.77.303,1.539.608,2.308.914,8.237,3.279,16.427,6.675,24.608,10.09,10.692,4.463,21.362,8.981,32.021,13.522,11.929,5.082,23.845,10.196,35.752,15.331s23.755,10.274,35.617,15.446c10.478,4.569,20.949,9.155,31.405,13.774,7.766,3.43,15.528,6.871,23.26,10.376,2.501,1.134,4.68,2.366,6.379,4.613,1.064,1.407,1.904,3.019,2.391,4.717.434,1.514.434,2.984.432,4.544-.006,6.438-.017,12.876-.028,19.314-.024,14.087-.055,28.173-.069,42.26-.003,2.57-.005,5.14-.005,7.71s4,2.578,4,0c0-13.401.032-26.801.057-40.202.013-7.174.026-14.348.036-21.522.004-2.954.016-5.909.01-8.863-.007-3.83-1.42-7.456-3.747-10.473-1.95-2.528-4.35-4.153-7.218-5.453-1.627-.738-3.256-1.472-4.885-2.204-3.949-1.774-7.904-3.536-11.861-5.291-10.08-4.472-20.176-8.906-30.279-13.323-11.899-5.202-23.808-10.377-35.728-15.531-12.237-5.291-24.485-10.559-36.745-15.796-11.359-4.852-22.729-9.68-34.12-14.458-8.878-3.724-17.766-7.427-26.695-11.027-1.692-.682-3.385-1.36-5.082-2.03-.876-.346-1.775-.793-2.696-1-1.848-.415-3.754.053-5.224,1.231-2.675,2.145-2.41,5.337-2.411,8.413,0,2.841,0,5.682,0,8.523,0,13.679-.002,27.357-.003,41.036,0,2.508,0,5.016,0,7.524,0,2.574,4,2.578,4,0h0Z"/><path class="g" d="M164.902,115.38c.167.069.334.139.501.208.245.102-.362-.154-.107-.045.088.037.176.075.264.112.477.205.953.411,1.429.619,1.084.474,2.166.956,3.246,1.44,3.059,1.371,6.109,2.762,9.157,4.158,8.635,3.954,17.251,7.949,25.867,11.946,5.855,2.716,11.709,5.435,17.563,8.154.979.455,2.155.276,2.736-.718.506-.865.267-2.279-.718-2.736-17.288-8.029-34.54-16.149-51.928-23.961-2.305-1.036-4.611-2.072-6.948-3.034-.999-.411-2.199.446-2.46,1.397-.315,1.148.394,2.047,1.397,2.46h0Z"/><path class="g" d="M102.698,165.085c18.191-14.246,36.166-28.77,54.449-42.898,3.07-2.372,6.146-4.742,9.296-7.009.875-.63,1.3-1.741.718-2.736-.506-.865-1.855-1.352-2.736-.718-6.915,4.976-13.581,10.312-20.277,15.575-9.45,7.427-18.859,14.904-28.286,22.36-5.322,4.209-10.649,8.414-15.991,12.598-.851.667-.699,2.13,0,2.828.84.84,1.975.668,2.828,0h0Z"/><path class="g" d="M146.664,167.047c1.131-2.048,2.288-4.112,3.719-5.969,1.357-1.76,2.929-3.358,4.436-4.988,2.778-3.004,5.619-5.951,8.613-8.742,3.601-3.357,7.511-6.963,12.443-8.097,2.701-.621,5.553-.502,8.224.211,2.406.642,4.473,1.853,6.644,3.02,4.781,2.568,9.679,4.929,14.383,7.639,2.235,1.287,4.251-2.168,2.019-3.454-4.432-2.553-9.039-4.798-13.554-7.197-2.316-1.231-4.551-2.591-7.046-3.445-2.926-1.001-6.123-1.388-9.199-1.047-5.822.644-10.322,3.849-14.605,7.605-3.466,3.04-6.708,6.335-9.85,9.706-1.691,1.814-3.428,3.605-4.994,5.53-1.821,2.24-3.293,4.684-4.686,7.207-1.245,2.255,2.208,4.275,3.454,2.019h0Z"/><path class="g" d="M294.591,253.993c5.838-4.483,11.461-9.751,15.815-15.721,2.695-3.695,5.01-7.568,6.201-12.026,1.01-3.783,1.182-7.729.468-11.578-.597-3.214-1.888-6.454-3.805-9.115-1.816-2.521-4.341-4.528-6.743-6.46-6.388-5.139-13.254-9.391-20.5-13.223-6.874-3.635-13.87-7.1-20.964-10.284-.985-.442-2.15-.284-2.736.718-.5.855-.273,2.292.718,2.736,5.549,2.49,10.996,5.202,16.426,7.943,7.314,3.691,14.549,7.624,21.125,12.535,2.616,1.954,5.207,3.992,7.554,6.266,1.872,1.814,3.145,3.746,4.108,6.411,2.615,7.233.843,14.873-3.259,21.183-.642.988-1.351,1.925-2.046,2.875-.098.134-.193.27-.291.405-.205.282-.024.034.017-.019-.097.125-.196.249-.296.372-1.008,1.247-2.072,2.451-3.16,3.629-3.284,3.555-6.809,6.949-10.651,9.9-.855.657-1.312,1.721-.718,2.736.492.842,1.874,1.38,2.736.718h0Z"/><path class="h" d="M83.178,47.63c-2.267-2.057-5.421-2.739-9.056-1.844-.379.093-.494.565-.198.82,2.104,1.815,2.659,5.024,2.711,9.474.121,10.504-5.822,22.807-14.967,28.486-3.248,2.017-6.322,3.012-9.14,3.284-.359.035-.544.424-.356.731,3.238,5.281,12.961,5.668,20.278,1.135,10.165-6.297,15.771-19.235,15.611-30.9-.064-4.669-2.596-9.11-4.883-11.186Z"/><path class="h" d="M49.983,53.058c.015,2.865-1.992,6.456-4.482,8.015s-4.509.494-4.518-2.371,1.994-6.439,4.475-7.997,4.51-.508,4.525,2.353Z"/><path class="i" d="M202.746,144.607c-6.556,5.31-11.78,13.743-14.285,25.644l-4.889,13.556c-.808,2.693-2.35,5.141-3.625,6.566l-.543.637c18.093,7.977,33.423,15.415,39.61,18.423,4.256,2.069,17.157,9.23,31.337,17.385.829-.487,1.34-.788,1.34-.788,3.778-2.222,7.954-8.971,9.028-12.167,1.502-4.472,1.195-8.819,1.667-17.254.353-6.149.746-12.59,1.018-18.75.25-5.44-.31-10.207-2.35-15.237-1.07-2.65-1.888-4.279-3.148-6.259,0,0-3.086-5.142-4.407-6.63-6.251-7.037-11.556-9.185-16.296-10.519-4.783-1.345-12.691-2.011-17.481-1.481-6.028.527-11.9,2.765-16.974,6.874Z"/><path class="g" d="M190.39,170.783c1.624-7.59,4.565-15.097,9.79-20.955,4.121-4.621,9.439-7.975,15.478-9.421,3.248-.778,6.585-.941,9.914-.815,3.856.147,7.759.585,11.474,1.659,6.798,1.965,12.851,6.404,16.619,12.119,1.82,2.761,3.651,5.598,4.978,8.631,2.226,5.087,2.992,10.334,2.761,15.858l2.532-1.929h-.001c-1.281-.475-2.479.735-2.532,1.928-.364,8.192-.971,16.372-1.272,24.566-.098,2.676-.116,5.404-.605,8.045-.44,2.376-1.289,4.391-2.511,6.464-1.596,2.706-3.599,5.696-6.332,7.368-2.193,1.341-.185,4.802,2.019,3.454,2.765-1.691,4.872-4.368,6.651-7.029,1.542-2.305,2.921-4.803,3.647-7.494s.911-5.519,1.034-8.297c.176-3.969.33-7.936.56-11.903.294-5.057.585-10.114.81-15.175l-2.532,1.929h.001c1.278.474,2.482-.734,2.532-1.928.218-5.219-.345-10.444-2.25-15.338-1.272-3.266-2.922-6.252-4.777-9.209-2.149-3.426-4.51-6.437-7.598-9.093-3.05-2.623-6.45-4.67-10.235-6.04-3.701-1.34-7.589-1.99-11.497-2.356-3.972-.372-7.947-.377-11.896.227-6.669,1.021-12.888,4.226-17.77,8.855-6.916,6.557-10.881,15.621-12.848,24.815-.537,2.51,3.318,3.583,3.857,1.063h0Z"/><path class="g" d="M181.644,183.275c-.108.354-.226.705-.356,1.052-.065.172-.134.342-.203.513-.093.232.182-.413.034-.086-.033.074-.066.147-.099.221-.3.656-.637,1.296-1.008,1.915-.327.545-.687,1.064-1.06,1.578-.142.195.284-.359.136-.175-.049.061-.097.123-.146.183-.085.105-.171.208-.259.31-.169.196-.344.385-.525.569-.737.744-.798,2.096,0,2.828s2.041.794,2.828,0c2.114-2.133,3.645-4.991,4.514-7.845.305-1.001-.363-2.225-1.397-2.46-1.081-.246-2.134.325-2.46,1.397h0Z"/><path class="f" d="M215.899,162.805c-6.712,3.156-17.811,7.703-23.523,10.37-.629-.847-1.648-1.53-2.751-1.83-1.258-.342-2.595-.185-3.48.412-.624.418-1.019,1.024-1.353,1.635-1.299,2.419-1.762,5.238-1.338,8.102.206,1.396.634,2.826,1.506,4.139.674,1,1.621,1.926,2.765,2.577,0,0,.102.058.285.162-.145.724-.214,2.023-.272,2.983-.077,1.149-.028,2.268.043,3.392,14.351,6.486,26.029,12.153,31.234,14.684,2.313,1.125,7.178,3.752,13.415,7.226,3.177-1.121,5.443-3.316,6.366-4.296.676-.697,1.584-1.773,2.354-2.756.165.068.263.107.263.107,1.227.477,2.542.628,3.744.52,1.57-.151,2.95-.721,4.162-1.442,2.49-1.478,4.386-3.615,5.444-6.149.264-.646.485-1.334.416-2.082-.095-1.064-.816-2.2-1.875-2.961-1.032-.742-2.369-1.105-3.506-.957-.834-.865-.789-2.232-1.142-3.386-.237-.775-.678-1.486-1.264-2.045-4.552-2.578-6.118-13.103-6.865-16.671-.501-2.396-.381-7.139-.382-10.649,0,0,0-.136.003-.315-.205-.433-.578-.788-1.03-.951-.632-.229-1.387-.07-1.874.393l-.042-.094c-6.647,4.503-14.046,6.863-22.244,6.599-1.958-.042,1.436-5.003,2.557-7.496-.503.247-1.043.506-1.616.775Z"/><path class="g" d="M189.749,194.455c-.105-1.596-.034-3.188.1-4.78.015-.182.032-.365.052-.547.022-.198.148-.458-.008.043.09-.289.12-.618.182-.915.151-.727.31-1.452.522-2.164.298-1.003-.358-2.224-1.397-2.46-1.075-.245-2.141.323-2.46,1.397-.898,3.023-1.197,6.284-.99,9.426.068,1.042.871,2.051,2,2,1.025-.046,2.074-.882,2-2h0Z"/><path class="g" d="M232.882,218.625c2.691-.949,5.096-2.556,7.086-4.596.803-.823,1.549-1.698,2.268-2.595.727-.907,1.529-1.836,2.092-2.862.504-.917.255-2.223-.718-2.736-.937-.495-2.199-.262-2.736.718-.188.342-.416.661-.644.976-.169.233-.333.498-.529.709.36-.385.042-.055-.027.032-.088.112-.177.224-.266.335-.702.875-1.43,1.728-2.21,2.535-.3.31-.611.611-.931.9-.199.179-.401.354-.607.524-.084.069-.212.206-.311.251.225-.172.25-.191.075-.059-.057.043-.114.085-.172.127-.536.393-1.094.754-1.674,1.078-.313.175-.631.338-.956.489-.128.06-.473.201-.148.071-.216.086-.434.168-.653.245-.984.347-1.746,1.382-1.397,2.46.315.972,1.404,1.769,2.46,1.397h0Z"/><path class="g" d="M194.355,172.524c-1.514-2.384-4.345-3.692-7.141-3.254-2.953.463-4.439,3.128-5.258,5.754-1.668,5.345-.28,11.924,4.759,14.914,2.219,1.317,4.233-2.14,2.019-3.454-3.126-1.855-3.934-5.895-3.219-9.258.249-1.17.799-3.512,2.032-3.958,1.133-.41,2.724.281,3.354,1.274,1.376,2.167,4.839.163,3.454-2.019h0Z"/><path class="g" d="M249.71,198.651c.232-.028.462-.045.696-.04.103.001.205.007.307.017-.187-.027-.157-.018.091.026.419.11.724.194.936.327.461.289.617.361.988.791-.131-.152.198.287.203.295.021.034.259.57.151.268.043.124.08.251.108.379-.018-.236-.018-.205,0,.093.004.286.029.131-.052.415-.137.481-.18.609-.362.987-.373.778-.954,1.703-1.337,2.165-1.227,1.481-2.469,2.46-4.227,3.269-.571.263-1.704.577-2.398.61-1.083.052-1.82-.082-2.871-.471-1.013-.376-2.192.419-2.46,1.397-.307,1.118.38,2.083,1.397,2.46,4.26,1.58,8.718-.099,11.974-2.979,2.858-2.528,5.919-7.312,3.291-10.972-1.43-1.991-3.941-3.345-6.435-3.04-1.072.131-2,.825-2,2,0,.979.921,2.132,2,2h0Z"/><path class="g" d="M212.592,187.465c-.716.797-1.416,1.622-2.043,2.49l.313-.405c-.369.474-.704.89-.846,1.494-.108.461-.1.866.017,1.325.115.448.416.832.713,1.17.516.588,1.192.812,1.899,1.06.47.165,1.123.043,1.541-.202.415-.243.811-.718.919-1.195.117-.512.091-1.087-.202-1.541s-.682-.739-1.195-.919c-.167-.059-.34-.096-.504-.164l.478.202c-.101-.046-.194-.1-.283-.165l.405.313c-.11-.087-.204-.183-.293-.292l.313.405c-.052-.068-.1-.134-.135-.212l.202.478c-.012-.033-.02-.067-.024-.102l.071.532c-.004-.035-.004-.07,0-.105l-.071.532c.011-.075.03-.143.057-.214l-.202.478c.065-.147.151-.277.247-.405l-.313.405c.188-.241.369-.485.555-.726l-.313.405c.483-.622.997-1.223,1.523-1.809.355-.395.586-.873.586-1.414,0-.491-.218-1.076-.586-1.414-.381-.35-.882-.61-1.414-.586-.514.023-1.059.191-1.414.586h0Z"/><path class="g" d="M232.385,186.914c-.182-.007-.362-.023-.543-.046l.532.071c-.662-.093-1.303-.282-1.92-.537l.478.202c-.586-.248-1.146-.554-1.655-.939l.405.313c-.288-.223-.555-.47-.783-.756l.313.405c-.035-.046-.07-.093-.103-.141-.305-.434-.669-.774-1.195-.919-.479-.132-1.116-.072-1.541.202-.427.275-.803.685-.919,1.195-.114.5-.104,1.105.202,1.541.729,1.039,1.733,1.836,2.878,2.383,1.22.582,2.494.974,3.852,1.026,1.047.04,2.047-.949,2-2-.05-1.118-.879-1.957-2-2h0Z"/><path class="g" d="M203.356,178.48c1.663,1.507,3.838,2.251,6.053,2.405.49.034,1.076-.248,1.414-.586.347-.347.608-.916.586-1.414-.023-.517-.193-1.054-.586-1.414-.406-.373-.861-.547-1.414-.586-.182-.013-.363-.03-.544-.053l.532.071c-.775-.105-1.53-.308-2.251-.611l.478.202c-.543-.235-1.057-.524-1.526-.885l.405.313c-.109-.086-.215-.176-.318-.269-.392-.355-.875-.586-1.414-.586-.491,0-1.076.218-1.414.586-.35.381-.61.882-.586,1.414.023.515.192,1.057.586,1.414h0Z"/><path class="g" d="M238.144,163.893c-.003,3.168-.15,6.379.208,9.533.24,2.113.726,4.231,1.19,6.305,1.027,4.594,2.471,10.417,6.696,13.136,2.171,1.397,4.179-2.064,2.019-3.454-1.417-.912-2.373-2.836-3.021-4.462-.878-2.201-1.459-4.522-1.958-6.835-.365-1.694-.812-3.44-.975-5.167-.283-3.003-.162-6.044-.159-9.056.002-2.574-3.998-2.578-4,0h0Z"/><path class="g" d="M236.192,161.2c-4.731,3.172-10.061,5.428-15.75,6.103-1.392.165-2.796.242-4.197.243-.105,0-1.232-.084-1.288-.02-.029.033,1.882,1.263,1.384,1.461-.032.165-.026.139.018-.078l.051-.193c.059-.178.114-.356.183-.531.698-1.772,1.844-3.402,2.649-5.146.844-1.829-.872-3.648-2.736-2.736-8.019,3.923-16.373,7.124-24.486,10.842-.982.45-1.224,1.87-.718,2.736.59,1.008,1.751,1.169,2.736.718,8.113-3.719,16.467-6.919,24.486-10.842l-2.736-2.736c-1.018,2.204-2.596,4.269-3.235,6.632-.3,1.111-.274,2.343.616,3.184,1.163,1.1,3.321.737,4.773.669,7.288-.344,14.225-2.799,20.269-6.851,2.127-1.426.127-4.893-2.019-3.454h0Z"/><path class="e" d="M290.179,250.697c-18.27-11.89-62.527-37.064-71.165-41.265-16.425-7.987-97.303-47.197-123.23-44.84-12.69,1.154-24.378,7.194-35.363,13.653-25.816,15.179-36.725,23.425-58.396,44.094h0c0,58.696,47.58,106.278,106.276,106.278,101.978,0,208.539,0,208.539,0,.574-8.609-2.252-37.727-2.799-40.912-2.378-13.847-6.409-21.933-16.488-31.72-1.068-1.037-3.694-2.893-7.374-5.288Z"/><path class="g" d="M3.44,223.754c6.862-6.542,13.82-13,21.161-19.006,6.405-5.24,13.139-10.046,20.088-14.535,8.596-5.552,17.392-10.998,26.507-15.657,8.22-4.202,17.569-8.053,26.954-8.065,5.008-.007,9.335.868,14.32,2.032,6.268,1.463,12.435,3.355,18.534,5.404,14.095,4.736,27.895,10.352,41.538,16.253,11.747,5.081,23.386,10.411,34.941,15.913,6.626,3.154,13.184,6.366,19.616,9.902,11.227,6.171,22.341,12.55,33.398,19.02,10.305,6.029,20.67,12.047,30.602,18.681.77.515,1.537,1.035,2.294,1.568.313.221.626.443.935.669.198.145,1.1.837.566.415,2.134,1.683,3.984,3.749,5.761,5.792,5.599,6.437,8.936,13.918,10.714,22.22.247,1.154.47,2.313.674,3.475.028.161.215,1.47.113.656.105.838.205,1.677.297,2.517.316,2.875.592,5.755.854,8.635.649,7.158,1.232,14.332,1.508,21.515.095,2.481.184,4.98.026,7.46-.163,2.57,3.837,2.561,4,0,.395-6.208-.235-12.548-.69-18.735-.475-6.468-1.03-12.937-1.754-19.383-.779-6.933-2.432-13.86-5.474-20.164-1.858-3.849-4.311-7.368-7.084-10.612-1.85-2.164-3.792-4.374-6.037-6.143-3.205-2.525-6.699-4.696-10.144-6.871-5.239-3.307-10.545-6.508-15.868-9.678-11.773-7.011-23.645-13.86-35.597-20.56-6.909-3.873-13.838-7.652-20.972-11.092-10.525-5.076-21.118-10.011-31.794-14.762-13.837-6.158-27.81-12.055-42.035-17.266-12.017-4.402-24.439-8.744-37.184-10.414-18.043-2.365-34.78,7.558-49.671,16.474-7.795,4.667-15.496,9.508-22.847,14.852-7.002,5.09-13.655,10.629-20.081,16.425-3.719,3.354-7.371,6.783-10.997,10.239-1.867,1.78.964,4.605,2.828,2.828h0Z"/></g></g></svg>