<svg id="b" xmlns="http://www.w3.org/2000/svg" width="404.777" height="251.222" viewBox="0 0 404.777 251.222" style="color: initial !important;">
             <defs>
              <style>.d{fill:#494949;}.e{fill:#ffffff;}.f{fill:#211715;}.g{fill:#c6c6c6;}</style>
             </defs><g id="c">
              <path class="e" d="M398.122,159.062c.279.356.433.75.384,1.173.192,1.278-.154,2.72-1.317,3.576-8.276,6.075-29.509,14.937-42.092,17.763-.692.144-1.394.298-1.97.702-.682.471-1.105,1.23-1.509,1.961-.01.019-.029.048-.038.067-8.141-4.402-15.456-8.276-24.069-12.784-.327-7.997.038-15.86,4.076-22.762,4.133-7.055,8.363-11.121,13.14-17.763.279-.384,2.095-2.259,3.566-2.461,1.336-.173,2.72.384,3.48,1.509.759,1.115,1.173,2.297.942,3.643-.634,3.806-1.721,8.113-3.758,12.4l.509.25c8.661-2.24,21.012-5.642,30.163-7.795,2.153-.509,4.864-1.048,7.036-.596,2.249.452,5.46,1.721,5.902,4.027,3.287-1.029,5.181-.135,6.969.875,1.701.961,2.509,2.163,2.759,3.528.288,1.644-.087,2.538-1.009,3.922-.115.183-.26.365-.288.586-.038.221.038.452.115.663.788,2.288.01,5.585-2.345,7.459l-.644.058Z"/>
              <path class="f" d="M400.907,160.239c.018-2.599-2.255-4.33-4.658-4.648-2.595-.344-5.502.939-7.975,1.636-5.152,1.452-10.284,2.969-15.476,4.274-2.994.753-1.725,5.383,1.276,4.629,4.165-1.047,8.294-2.225,12.423-3.406,2.061-.589,4.124-1.176,6.192-1.74.882-.24,1.948-.748,2.862-.667.182.016.354.112.525.139.594.094.027.356.032-.216-.022,3.089,4.778,3.093,4.8,0h0Z"/>
              <path class="f" d="M402.68,149.328c-2.781-4.465-9.171-1.857-13.096-.791-5.169,1.404-10.32,2.875-15.48,4.315-1.848.516-3.694,1.052-5.558,1.51-2.998.736-1.728,5.366,1.276,4.629,8.323-2.044,16.493-4.697,24.795-6.823.733-.188,1.468-.366,2.206-.534.128-.029.257-.055.387-.079.073-.014.23-.025-.079.006-.462.047.296.006.387.011.278.017.438.055.733.138.196.055.455.316.283.04,1.63,2.617,5.784.209,4.145-2.423h0Z"/>
              <path class="f" d="M396.107,160.239c.186,1.666-.812,2.014-2.112,2.849-1.394.895-2.831,1.723-4.286,2.515-3.563,1.94-7.24,3.672-10.958,5.292-7.48,3.259-15.241,6.18-23.181,8.103-1.242.301-2.561.494-3.652,1.206-1.192.778-1.906,1.979-2.572,3.197-1.25,2.287-2.492,4.57-3.606,6.926-.554,1.171-.326,2.59.861,3.284,1.044.611,2.727.316,3.284-.861.999-2.111,2.095-4.166,3.216-6.213.406-.741.807-2.003,1.601-2.403.799-.402,1.983-.463,2.857-.684,3.904-.986,7.741-2.236,11.528-3.596,8.113-2.912,16.171-6.285,23.714-10.474,3.551-1.972,8.647-4.308,8.106-9.14-.144-1.288-1-2.4-2.4-2.4-1.186,0-2.545,1.104-2.4,2.4h0Z"/>
              <path class="f" d="M350.107,148.65c7.371-1.913,14.718-3.92,22.097-5.806,3.583-.916,7.257-2.092,10.932-2.561,1.639-.209,3.148-.093,4.699.471.993.361,2.199.956,2.421,1.855.307,1.245,1.731,2.033,2.952,1.676,1.758-.514,3.164-.427,4.733.423,1.207.654,2.388,1.61,1.99,3.085-.239.886-1.012,1.541-1.251,2.454-.253.969.235,1.943.317,2.771.168,1.7-.662,3.222-1.923,4.292-.99.838-.863,2.531,0,3.394.98.98,2.402.84,3.394,0,2.085-1.767,3.311-4.485,3.339-7.213.007-.673-.075-1.362-.219-2.019l-.071-.288c-.076-.38-.116-.373-.121.02-.094.417-.032.405.184-.036l.196-.32c.72-1.252,1.115-2.627.975-4.077-.279-2.886-2.001-4.948-4.516-6.278-2.672-1.413-5.389-1.688-8.302-.837l2.952,1.676c-.937-3.795-5.474-5.595-9.006-5.911-4.152-.371-8.561,1.182-12.55,2.185-8.187,2.057-16.327,4.294-24.497,6.415-2.988.776-1.721,5.406,1.276,4.629h0Z"/>
              <path class="f" d="M391.932,139.656c-7.69,2.259-15.395,4.465-23.061,6.803-1.728.527-3.46,1.048-5.169,1.635-2.904.998-1.657,5.636,1.276,4.629,8.024-2.756,16.266-4.953,24.409-7.324,1.274-.371,2.548-.739,3.821-1.113,2.957-.869,1.699-5.502-1.276-4.629h0Z"/>
              <path class="f" d="M359.838,152.042c4.032,4.638,7.641,9.218,11.171,14.181.726,1.021,2.127,1.607,3.284.861,1.013-.653,1.639-2.19.861-3.284-3.727-5.239-7.704-10.3-11.922-15.152-.826-.951-2.559-.91-3.394,0-.93,1.013-.882,2.38,0,3.394h0Z"/>
              <path class="f" d="M329.927,172.055c-.194-4.51-.262-9.105.616-13.554.904-4.58,2.896-8.481,5.516-12.309,2.363-3.453,5.092-6.624,7.668-9.915,1.185-1.515,2.191-3.235,3.56-4.479.907-.824,1.997-1.392,2.724-.038.465.866.358,1.538.182,2.47-.235,1.242-.51,2.477-.833,3.7-.698,2.642-1.619,5.204-2.826,7.656-.572,1.162-.313,2.597.861,3.284,1.058.619,2.709.307,3.284-.861,1.291-2.621,2.353-5.353,3.138-8.168.68-2.44,1.661-5.419,1.256-7.962-.411-2.584-2.254-5.005-4.874-5.605-2.533-.58-4.727.609-6.512,2.325-1.588,1.526-2.77,3.56-4.141,5.284-1.583,1.992-3.201,3.955-4.756,5.969-3.266,4.23-6.342,8.702-7.974,13.84-1.876,5.906-1.951,12.23-1.687,18.364.132,3.077,4.933,3.094,4.8,0h0Z"/>
              <path class="e" d="M55.824,146.085c-2.038-4.287-3.124-8.593-3.768-12.4-.221-1.346.192-2.528.952-3.643.759-1.125,2.144-1.682,3.47-1.509,1.48.202,3.297,2.076,3.566,2.461,4.787,6.642,9.016,10.708,13.14,17.763,4.085,6.978,4.422,14.937,4.076,23.021-8.478,4.508-15.629,8.507-23.838,12.938-.096-.154-.183-.317-.269-.481-.394-.731-.827-1.49-1.499-1.961-.586-.404-1.288-.558-1.98-.702-12.573-2.826-33.806-11.688-42.082-17.763-1.163-.855-1.509-2.297-1.317-3.576-.038-.346.058-.682.24-.98l-.509-.25c-2.345-1.874-3.124-5.171-2.345-7.459.087-.211.163-.442.125-.663s-.173-.404-.298-.586c-.913-1.384-1.288-2.278-1-3.922.25-1.365,1.057-2.566,2.749-3.528,1.797-1.009,3.691-1.903,6.969-.875.452-2.307,3.662-3.576,5.911-4.027,2.163-.452,4.873.087,7.036.596,9.151,2.153,21.502,5.556,30.153,7.795l.519-.25Z"/>
              <path class="f" d="M8.67,160.239c.004.575-.562.306.032.216.174-.026.341-.122.525-.139.893-.079,2.002.433,2.862.667,2.068.564,4.131,1.15,6.192,1.74,4.129,1.181,8.258,2.359,12.423,3.406,2.997.753,4.275-3.875,1.276-4.629-5.192-1.305-10.324-2.822-15.476-4.274-1.275-.359-2.551-.713-3.829-1.059-1.253-.338-2.515-.739-3.827-.62-2.514.227-4.997,1.961-4.977,4.691.022,3.087,4.822,3.094,4.8,0h0Z"/>
              <path class="f" d="M6.241,151.751c-.129.207-.252.062.133-.004.174-.03.443-.129.598-.152.232-.035.559-.017.832-.012-.253-.005-.407-.082-.104-.001.609.162,1.234.278,1.847.431,1.963.491,3.915,1.026,5.866,1.562,4.821,1.323,9.628,2.692,14.444,4.035,1.695.473,3.388.961,5.097,1.381,2.999.737,4.279-3.891,1.276-4.629-8.763-2.152-17.336-5.043-26.111-7.152-2.815-.676-6.302-.645-8.022,2.118-1.638,2.629,2.513,5.042,4.145,2.423h0Z"/>
              <path class="f" d="M3.87,160.239c-.497,4.446,3.667,6.592,6.948,8.485,3.435,1.982,7.01,3.724,10.623,5.357,7.905,3.571,16.075,6.766,24.459,9.025.951.256,1.906.497,2.866.718.441.101,1.084.12,1.462.369.412.272.627.846.855,1.256,1.334,2.401,2.636,4.818,3.811,7.302.554,1.172,2.235,1.475,3.284.861,1.2-.702,1.417-2.108.861-3.284-.999-2.111-2.095-4.166-3.216-6.213-.556-1.015-1.066-2.056-1.836-2.932-.912-1.037-2.143-1.568-3.463-1.88-3.726-.88-7.387-1.952-11.011-3.186-7.944-2.707-15.767-5.935-23.197-9.847-1.729-.91-3.437-1.864-5.092-2.903-.661-.415-1.337-.829-1.959-1.301s-.692-.938-.593-1.827c.144-1.29-1.206-2.4-2.4-2.4-1.417,0-2.255,1.106-2.4,2.4h0Z"/>
              <path class="f" d="M55.946,144.022c-8.17-2.121-16.31-4.358-24.497-6.415-3.99-1.003-8.396-2.555-12.55-2.185-3.532.315-8.068,2.116-9.006,5.911l2.952-1.676c-2.857-.835-5.535-.594-8.171.768-2.571,1.329-4.365,3.402-4.647,6.347-.133,1.39.219,2.709.889,3.923.025.046.501.81.501.81.007-.64-.03-.793-.113-.459-.046.141-.084.283-.114.428-.133.603-.213,1.243-.221,1.86-.037,2.774,1.227,5.581,3.341,7.372.988.837,2.424.97,3.394,0,.859-.859.993-2.552,0-3.394-1.231-1.043-2.027-2.481-1.929-4.135.046-.78.495-1.707.366-2.609-.154-1.08-1.023-1.773-1.293-2.773-.381-1.411.695-2.37,1.86-3.015,1.622-.898,3.034-1.028,4.863-.494,1.22.357,2.645-.43,2.952-1.676.223-.901,1.423-1.492,2.421-1.855,1.545-.562,3.067-.68,4.699-.471,3.675.469,7.349,1.646,10.932,2.561,7.379,1.886,14.726,3.893,22.097,5.806,2.992.777,4.268-3.852,1.276-4.629h0Z"/>
              <path class="f" d="M11.569,144.285c7.69,2.259,15.395,4.465,23.061,6.803,1.728.527,3.46,1.048,5.169,1.635,2.928,1.006,4.185-3.629,1.276-4.629-8.024-2.756-16.266-4.953-24.409-7.324-1.274-.371-2.548-.739-3.821-1.113-2.97-.872-4.238,3.758-1.276,4.629h0Z"/>
              <path class="f" d="M41.545,148.648c-4.218,4.852-8.195,9.913-11.922,15.152-.73,1.026-.215,2.715.861,3.284,1.236.653,2.504.234,3.284-.861,3.531-4.963,7.139-9.543,11.171-14.181.823-.947,1.001-2.476,0-3.394-.903-.829-2.515-1.012-3.394,0h0Z"/>
              <path class="f" d="M79.65,172.055c.234-5.443.186-10.973-1.11-16.297s-4.126-9.997-7.38-14.367c-1.492-2.004-3.065-3.947-4.632-5.892-1.646-2.043-3.134-4.24-4.819-6.244-1.288-1.531-3.19-2.941-5.228-3.121-2.666-.235-5.017,1.349-6.128,3.721-1.345,2.87-.418,6.007.327,8.929.812,3.187,1.967,6.273,3.419,9.223.573,1.163,2.222,1.482,3.284.861,1.186-.693,1.436-2.117.861-3.284-1.078-2.189-1.929-4.462-2.595-6.809-.275-.968-.518-1.945-.734-2.928-.206-.935-.593-2.043-.521-3.009.094-1.268,1.109-2.389,2.302-1.651,1.427.882,2.18,2.268,3.181,3.574,5.258,6.859,11.825,13.443,13.984,22.064,1.244,4.969,1.209,10.144.99,15.229-.133,3.089,4.668,3.082,4.8,0h0Z"/>
              <path class="d" d="M225.891,7.158c-7.034-2.852-14.36-4.744-24.767-4.744-17.062,0-32.248,8.79-38.987,15.241-11.18,10.703-18.271,30.253-17.376,57.211,0,18.271-1.497,31.447-3.595,38.939-1.426,5.126-2.646,13.662-2.697,18.87-.062,7.565,8.382,18.069,21.618,15.873l83.223-.238c8.951,3.188,19.256-2.304,22.129-11.227,2.354-7.312-.572-16.788-2.752-24.152-3.758-12.692-5.265-25.582-5.443-38.796.25-7.629-.282-16.673-.554-20.46-.941-13.127-6.851-27.786-15.354-35.933-3.386-3.244-4.56-4.895-7.85-6.821l-7.594-3.764Z"/>
              <path class="e" d="M182.426,58.019c12.948-2.374,32.287-12.996,37.535-20.589,1.951,6.123,3.191,11.669,9.756,20.522,4.297,5.787,9.804,9.42,13.044,11.938l2.153,2.518c1.394-1.336,3.278-1.836,4.883-1.769,3.499.135,4.979,2.038,5.613,3.143.884,1.548,1.336,3.701,1.432,5.931.115,2.576-.24,5.258-.932,7.276-.923,2.672-2.422,6.757-6.027,9.679-1.48,1.211-3.662,1.999-5.738,1.634l-.433-.125c-.682,2.317-1.586,4.652-2.115,5.758-1.48,3.96-9.612,17.84-19.849,23.194v.894c.01,1.317,0,2.22.154,4.297.087,1.182.183,2.451.615,3.605.586,1.519,1.375,2.826,2.643,3.845.865.702,1.74,1.278,2.643,1.788-1.173,5.056-2.432,10.189-3.778,15.341-6.95,3.143-14.649,4.556-22.339,4.345-7.699.211-15.408-1.202-22.358-4.345-1.346-5.152-2.605-10.285-3.778-15.341.904-.509,1.778-1.086,2.643-1.788,1.269-1.019,2.057-2.326,2.643-3.845.442-1.153.529-2.422.615-3.605.154-2.076.144-2.98.154-4.297v-.99c-4.47-2.259-8.488-5.758-12.323-10.381-5.143-6.209-8.065-12.9-9.67-18.427l-.461.125c-2.086.336-4.258-.471-5.729-1.682-3.576-2.951-5.056-7.046-5.95-9.728-.663-1.99-1-4.614-.884-7.142.106-2.288.567-4.479,1.48-6.056.644-1.115,2.144-2.999,5.642-3.105,1.605-.058,3.48.461,4.864,1.797l1.817-2.288c2.884-1.336,10.91-4.816,12.073-5.508,3.499-2.067,6.844-4.268,9.958-6.623Z"/>
              <path class="f" d="M242.105,94.779c-.392,1.866-.957,3.693-1.599,5.486-.209.582-.534,1.452-.693,1.824-.131.308-.277.609-.408.917-.01.022-.363.902-.183.459.165-.406-.066.147-.108.238-.092.198-.183.396-.278.592-.207.427-.424.849-.647,1.268-.529.994-1.094,1.968-1.683,2.928-3.137,5.11-6.961,9.93-11.634,13.72-2.53,2.052-5.385,3.666-8.54,4.384-3.011.685-1.736,5.314,1.276,4.629,6.611-1.505,12.126-6.308,16.455-11.309,3.562-4.115,6.89-8.749,9.163-13.719.091-.198.177-.398.263-.598.099-.231.195-.463.292-.694.031-.072.178-.418.035-.091-.147.338.015-.019.04-.073.159-.344.304-.703.449-1.052.159-.382.313-.766.46-1.152.805-2.108,1.503-4.273,1.968-6.483.633-3.014-3.992-4.302-4.629-1.276h0Z"/>
              <path class="f" d="M156.462,95.568c1.44,6.466,4.056,12.741,7.739,18.254,3.893,5.827,8.98,11.281,15.147,14.724,3.171,1.771,6.633,2.978,10.223,3.525,1.28.195,2.58-.323,2.952-1.676.312-1.135-.387-2.756-1.676-2.952-7.866-1.197-14.077-5.737-19.172-11.666-5.279-6.142-8.828-13.599-10.584-21.484-.671-3.014-5.3-1.738-4.629,1.276h0Z"/>
              <path class="f" d="M193.456,109.1c2.667,1.422,5.543,2.025,8.565,2.017,3.108-.008,6.206-.627,8.697-2.552.998-.772.872-2.593,0-3.394-1.059-.972-2.329-.823-3.394,0,.742-.573.206-.166.017-.045-.17.108-.346.208-.525.301-.093.048-.188.091-.281.139-.229.116-.311,0,.135-.051-.229.026-.501.189-.724.26-.66.209-1.339.355-2.024.454.364-.053.053-.012-.14.007-.198.019-.397.035-.596.047-.479.029-.958.039-1.437.035-.429-.004-.858-.021-1.287-.051-.197-.014-.393-.034-.589-.051-.733-.065.455.087-.231-.027-.638-.106-1.268-.239-1.887-.427-.264-.08-.522-.176-.783-.266-.595-.208.402.202-.136-.055-.323-.155-.642-.314-.958-.483-1.107-.59-2.662-.315-3.284.861-.588,1.113-.322,2.653.861,3.284h0Z"/>
              <path class="f" d="M200.79,89.057c.364,1.41.713,2.842.919,4.284l-.086-.638c.024.198.035.392.014.591l.086-.638c-.014.092-.035.178-.066.265l.242-.573c-.028.062-.056.114-.094.171l.375-.486c-.044.053-.086.094-.14.137l.486-.375c-.108.069-.223.125-.34.178l.573-.242c-.187.077-.372.133-.572.164l.638-.086c-.18.021-.356.019-.536-.003l.638.086c-.202-.029-.4-.079-.603-.107-.319-.1-.638-.114-.957-.043-.319.014-.617.109-.892.285-.498.291-.973.862-1.103,1.434-.14.614-.11,1.304.242,1.849.313.485.834,1.02,1.434,1.103.478.066.942.187,1.429.21.756.036,1.456-.198,2.131-.507.84-.384,1.492-1.147,1.718-2.048.192-.764.109-1.42-.017-2.186-.228-1.38-.541-2.748-.89-4.102-.149-.579-.59-1.134-1.103-1.434s-1.273-.429-1.849-.242c-1.254.406-2.013,1.649-1.676,2.952h0Z"/>
              <path class="f" d="M178.401,76.785c-.724,2.32-.279,7.665,4.12,8.137,5.816-.012,6.151-6.471,4.205-9.516-1.593-2.493-6.303-3.546-8.325,1.379Z"/>
              <path class="f" d="M224.977,76.966c.706,2.326.219,7.667-4.183,8.105-5.816-.058-6.101-6.519-4.131-9.549,1.613-2.481,6.33-3.496,8.314,1.444Z"/>
              <path class="f" d="M246.61,74.103c1.122-.999,2.689-1.269,4.136-.946.636.142,1.201.363,1.72.762-.18-.138.812.913.479.468,1.641,2.192,1.651,5.453,1.447,8.057-.212,2.698-1.142,5.383-2.396,7.771-1.322,2.516-3.894,6.23-7.214,5.777-1.283-.175-2.577.309-2.952,1.676-.308,1.119.384,2.776,1.676,2.952,8.018,1.093,12.714-6.646,14.814-13.287,1.039-3.286,1.168-6.912.64-10.3-.446-2.86-1.646-5.566-4.071-7.259-3.536-2.469-8.547-1.847-11.673.935-2.312,2.058,1.092,5.443,3.394,3.394h0Z"/>
              <path class="f" d="M160.279,70.745c-2.937-2.655-7.22-3.25-10.791-1.508-2.534,1.237-4.03,3.718-4.711,6.374-1.601,6.239-.062,13.367,3.432,18.719,2.401,3.677,6.247,7.02,10.942,6.417,1.285-.165,2.4-.985,2.4-2.4,0-1.169-1.105-2.566-2.4-2.4-3.689.474-6.163-2.657-7.718-5.612-1.25-2.376-2.182-5.08-2.394-7.764-.208-2.638-.16-5.811,1.391-8.066.152-.212.153-.213.002-.004.099-.116.202-.228.31-.336.044-.042.522-.45.292-.278.525-.392,1.087-.613,1.728-.744,1.458-.3,3.003-.017,4.123.997,2.287,2.067,5.691-1.317,3.394-3.394h0Z"/>
              <path class="f" d="M254.843,74.136c.197,13.452,1.815,26.881,5.638,39.804,2.815,9.516,6.971,22.347-2.448,29.606-4.023,3.1-9.273,4.106-14.086,2.451-2.927-1.006-4.185,3.629-1.276,4.629,10.523,3.618,22.765-3.24,25.396-14.016,1.518-6.217.143-12.823-1.495-18.87-1.781-6.575-3.734-13.026-4.888-19.756-1.351-7.876-1.923-15.863-2.04-23.848-.045-3.086-4.845-3.095-4.8,0h0Z"/>
              <path class="f" d="M232.273,12.995c1.682,1.002,3.089,2.204,4.473,3.581,1.583,1.575,3.234,3.1,4.724,4.764,2.953,3.299,5.264,7.159,7.158,11.147,2.023,4.262,3.505,8.791,4.511,13.397.861,3.942,1.19,7.909,1.409,11.928.297,5.433.462,10.883.294,16.324-.095,3.09,4.705,3.087,4.8,0,.157-5.095.018-10.197-.24-15.286-.219-4.315-.519-8.612-1.349-12.86-1.882-9.637-5.871-19.19-12.133-26.811-1.692-2.059-3.651-3.867-5.532-5.749-1.74-1.74-3.572-3.317-5.693-4.58-2.66-1.584-5.077,2.564-2.423,4.145h0Z"/>
              <path class="f" d="M226.529,4.844C217.778,1.317,208.37-.353,198.928.062c-9.692.426-19.222,3.409-27.673,8.122-6.288,3.507-11.762,7.992-16.034,13.805-4.487,6.106-7.51,13.267-9.506,20.545-2.876,10.487-3.697,21.495-3.355,32.332.097,3.081,4.898,3.095,4.8,0-.515-16.316,1.48-33.934,10.497-47.967,3.413-5.312,7.935-9.609,13.341-12.989,7.354-4.597,15.821-7.828,24.469-8.781,10.15-1.118,20.353.541,29.786,4.343,1.203.485,2.637-.528,2.952-1.676.377-1.37-.469-2.466-1.676-2.952h0Z"/>
              <path class="f" d="M142.361,74.867c-.006,7.548-.232,15.105-.927,22.623-.461,4.996-1.089,9.964-2.359,14.846-1.619,6.224-2.721,12.646-2.975,19.083-.202,5.133,1.864,9.883,5.436,13.549,5.05,5.183,12.159,7.001,19.187,5.897,1.282-.201,1.992-1.804,1.676-2.952-.375-1.366-1.667-1.878-2.952-1.676-5.173.813-10.489-.71-14.21-4.355-.837-.82-1.455-1.54-2.062-2.45-.301-.452-.582-.917-.841-1.395-.126-.233-.247-.47-.362-.709-.137-.286-.2-.431-.227-.498-.895-2.231-.94-3.517-.823-5.909.291-5.943,1.368-11.77,2.837-17.522,1.21-4.739,1.847-9.634,2.338-14.493.806-7.983,1.057-16.017,1.063-24.037.002-3.089-4.798-3.094-4.8,0h0Z"/>
              <path class="f" d="M179.208,128.025c-.006,1.118-.022,2.233-.088,3.349-.079,1.328-.148,2.804-.566,3.866-.96,2.439-3.083,3.745-5.467,4.909-2.801,1.367-6.015,2.434-9.031,3.621-1.205.474-2.046,1.607-1.676,2.952.316,1.148,1.739,2.154,2.952,1.676,3.639-1.432,7.481-2.654,10.933-4.489,1.437-.764,2.871-1.695,4.059-2.812,1.255-1.179,2.098-2.685,2.727-4.269,1.069-2.69.942-5.942.957-8.804.016-3.089-4.784-3.093-4.8,0h0Z"/>
              <path class="f" d="M219.353,128.025c.015,2.862-.111,6.114.957,8.804.629,1.584,1.472,3.09,2.727,4.269,1.188,1.117,2.622,2.048,4.059,2.812,3.452,1.835,7.294,3.057,10.933,4.489,1.206.475,2.635-.521,2.952-1.676.374-1.362-.465-2.476-1.676-2.952-3.012-1.186-6.235-2.256-9.031-3.621-2.378-1.161-4.517-2.468-5.467-4.909-.415-1.066-.487-2.536-.566-3.866-.066-1.116-.082-2.231-.088-3.349-.016-3.088-4.816-3.094-4.8,0h0Z"/>
              <path class="f" d="M194.778,41.889c-3.645,5.591-8.556,10.318-13.882,14.303-2.912,2.178-5.956,4.176-9.076,6.042-1.666.997-3.484,1.737-5.252,2.53-2.462,1.104-4.937,2.18-7.385,3.316-1.176.546-1.471,2.24-.861,3.284.705,1.206,2.104,1.409,3.284.861,3.98-1.847,8.198-3.364,12.039-5.491,6.361-3.524,12.477-8.069,17.662-13.164,2.854-2.806,5.43-5.903,7.616-9.257,1.692-2.595-2.462-5.003-4.145-2.423h0Z"/>
              <path class="f" d="M218.032,36.005c-.562.835-1.283,1.647-2.263,2.605-1.047,1.023-2.165,1.98-3.325,2.873-2.728,2.101-5.674,3.938-8.671,5.626-6.373,3.589-13.209,6.625-20.36,8.265-3.01.69-1.736,5.319,1.276,4.629,5.906-1.354,11.603-3.69,17.02-6.376,5.374-2.664,10.583-5.789,15.213-9.619,1.976-1.635,3.818-3.444,5.256-5.58,1.73-2.57-2.427-4.975-4.145-2.423h0Z"/>
              <path class="f" d="M244.46,68.192c-2.348-1.816-4.764-3.537-7.001-5.492-2.926-2.557-5.41-5.433-7.576-8.656-1.813-2.697-3.445-5.547-4.684-8.556-1.008-2.447-1.768-4.984-2.552-7.508-.914-2.94-5.549-1.685-4.629,1.276,1.897,6.102,4.133,11.872,7.721,17.21,2.314,3.443,4.925,6.613,8.033,9.369,1.347,1.194,2.757,2.312,4.185,3.407.557.427,1.118.849,1.68,1.27.42.315,1.249.934,1.43,1.074,1.024.792,2.396.998,3.394,0,.826-.826,1.031-2.596,0-3.394h0Z"/>
              <path class="e" d="M224.027,156.899c-3.287,12.736-7.026,25.588-10.948,37.632-1.855,5.69-6.181,18.052-9.987,27.029h-2.807c-3.816-8.978-8.151-21.339-10.006-27.029-3.922-12.044-7.661-24.895-10.948-37.632,6.95,3.143,14.659,4.556,22.358,4.345,7.69.211,15.389-1.202,22.339-4.345Z"/>
              <path class="g" d="M203.088,221.559c3.812-8.976,8.136-21.334,9.99-27.031,5.892-18.075,11.353-37.954,15.544-56.541,2.367,1.515,5.507,3.756,8.506,6.265,13.363,5.53,28.499,9.056,39.295,19.217,9.958,9.371,16.022,21.862,21.037,34.379l3.389-.244c7.347-9.41,14.978-19.311,22.58-28.224,12.8,6.698,22.929,11.4,35.483,17.8-7.224,14.743-15.62,30.247-25.118,42.705-6.934,9.096-15.808,16.566-27.264,18.368-10.924,1.718-22.579-.776-31.804-6.502-3.248-2.016-5.758-4.115-9.219-6.963.001,4.417.002,9.059.002,13.999h-125.778c0-4.941,0-9.583.003-14-3.461,2.849-5.971,4.947-9.219,6.964-9.225,5.726-20.881,8.219-31.804,6.502-11.456-1.801-20.33-9.272-27.264-18.368-9.497-12.458-17.893-27.962-25.118-42.705,12.554-6.399,22.683-11.102,35.483-17.8,7.602,8.913,15.233,18.814,22.58,28.224l3.39.244c5.015-12.518,11.079-25.008,21.036-34.379,9.862-9.282,23.346-13.027,35.793-17.819,3.446-3.065,7.325-5.871,10.123-7.662,4.191,18.587,9.652,38.466,15.544,56.541,1.855,5.697,6.189,18.055,10.001,27.031h2.807Z"/>
              <path class="f" d="M299.775,197.21c-4.354-10.843-9.383-21.525-16.986-30.507-3.672-4.338-7.928-8.098-12.765-11.092-4.712-2.917-9.822-5.133-14.976-7.141-5.72-2.229-11.548-4.171-17.226-6.506-1.199-.493-2.639.534-2.952,1.676-.378,1.377.472,2.457,1.676,2.952,9.664,3.974,19.867,6.777,29.003,11.95,9.487,5.371,16.396,13.659,21.698,23.067,3.054,5.419,5.583,11.111,7.899,16.878.483,1.202,1.601,2.048,2.952,1.676,1.142-.314,2.162-1.742,1.676-2.952h0Z"/>
              <path class="f" d="M302.547,199.301c7.413-9.497,14.766-19.05,22.579-28.224l-2.908.375c11.608,6.074,23.188,12.197,34.69,18.469l-.861-3.284c-3.884,7.922-7.841,15.816-12.219,23.479-4.122,7.214-8.557,14.436-13.92,20.806-4.535,5.387-10.011,10.257-16.598,12.956-7.103,2.911-15.224,3.143-22.681,1.6-4.3-.89-8.469-2.352-12.336-4.437-4.04-2.178-7.558-5.044-11.086-7.949-1-.823-2.415-.979-3.394,0-.849.849-1.006,2.566,0,3.394,3.344,2.754,6.683,5.55,10.417,7.771,3.679,2.188,7.692,3.882,11.811,5.042,8.05,2.268,17.025,2.698,25.119.387,16.075-4.588,26.224-19.406,34.378-32.987,5.371-8.945,10.063-18.276,14.653-27.639.557-1.137.344-2.627-.861-3.284-11.502-6.272-23.083-12.395-34.69-18.469-.885-.463-2.205-.451-2.908.375-7.814,9.175-15.166,18.727-22.579,28.224-.797,1.021-.995,2.399,0,3.394.83.83,2.592,1.028,3.394,0h0Z"/>
              <path class="f" d="M110.101,198.49c3.82-9.532,8.246-19.107,14.726-27.156,3.158-3.922,6.747-7.516,10.923-10.351s8.791-5.083,13.479-6.995c5.296-2.16,10.717-3.996,16.052-6.054,1.209-.466,2.044-1.614,1.676-2.952-.317-1.155-1.736-2.145-2.952-1.676-9.91,3.822-20.293,6.909-29.326,12.645-9.297,5.903-16.2,14.753-21.434,24.324-2.984,5.456-5.461,11.171-7.772,16.939-.482,1.204.526,2.636,1.676,2.952,1.368.376,2.468-.468,2.952-1.676h0Z"/>
              <path class="f" d="M106.091,195.907c-7.413-9.497-14.766-19.05-22.579-28.224-.707-.83-2.016-.843-2.908-.375-11.634,6.092-23.074,12.541-34.674,18.696-1.204.639-1.413,2.158-.861,3.284,4.068,8.297,8.24,16.554,12.897,24.54,4.373,7.499,9.125,14.978,14.861,21.521,5.088,5.803,11.276,10.685,18.537,13.437,7.798,2.955,16.651,2.989,24.735,1.279,4.686-.992,9.253-2.685,13.459-4.976,4.316-2.351,8.094-5.489,11.873-8.6,1.001-.825.854-2.54,0-3.394-.99-.99-2.39-.827-3.394,0-3.09,2.544-6.165,5.09-9.625,7.126-3.414,2.009-7.073,3.527-10.895,4.565-7.442,2.023-15.666,2.346-23.075-.002-6.796-2.154-12.553-6.614-17.316-11.818-5.491-6-9.947-13.015-14.089-19.986-5.033-8.471-9.487-17.27-13.823-26.113l-.861,3.284c11.6-6.154,23.041-12.604,34.674-18.696l-2.908-.375c7.814,9.175,15.166,18.727,22.579,28.224.798,1.023,2.557.837,3.394,0,1.01-1.01.8-2.369,0-3.394h0Z"/>
              <path class="f" d="M137.333,195.918c0,13.072,0,26.143,0,39.215,0,4.551,0,9.102,0,13.653,0,3.089,4.8,3.094,4.8,0,0-14.056,0-28.112,0-42.169,0-3.566,0-7.133,0-10.699,0-3.089-4.8-3.094-4.8,0h0Z"/>
              <path class="f" d="M263.111,195.918c0,13.072,0,26.143,0,39.215,0,4.551,0,9.102,0,13.653,0,3.089,4.8,3.094,4.8,0,0-14.056,0-28.112,0-42.169,0-3.566,0-7.133,0-10.699,0-3.089-4.8-3.094-4.8,0h0Z"/>
              <path class="f" d="M178.105,158.964c7.534,3.362,15.37,4.666,23.58,4.682s16.054-1.329,23.57-4.682c1.184-.528,1.464-2.252.861-3.284-.713-1.219-2.095-1.391-3.284-.861-6.714,2.996-13.849,4.041-21.147,4.027s-14.426-1.024-21.157-4.027c-1.183-.528-2.579-.343-3.284.861-.599,1.024-.329,2.753.861,3.284h0Z"/>
              <path class="f" d="M180.118,208.441c-4.773-8.437-9.481-16.91-14.062-25.453-2.23-4.158-4.43-8.332-6.588-12.529-.158-.307-.609-.874-.632-1.233.004.063-.416.326.232-.234.94-.813,1.753-1.84,2.634-2.721,1.672-1.671,3.388-3.297,5.11-4.916,1.121-1.054.828-3.023-.486-3.769-1.281-.728-2.561-1.457-3.841-2.188-.569-.325-1.138-.65-1.707-.976-.356-.203-.711-.407-1.067-.61-.142-.081-.284-.163-.427-.244-.292-.19-.288-.158.012.093l.328,1.211c-.013.284-.043.119.09-.05.138-.176.231-.409.347-.6.203-.334.419-.659.644-.978.47-.668.997-1.291,1.541-1.9,1.402-1.572,2.937-3.024,4.523-4.408,2.883-2.515,5.96-4.809,9.178-6.878l-3.526-1.434c5.126,22.692,11.331,45.262,19.208,67.162,2.055,5.714,4.211,11.391,6.579,16.983.505,1.194,2.267,1.455,3.284.861,1.236-.723,1.368-2.085.861-3.284-8.54-20.172-14.79-41.405-20.322-62.566-1.773-6.783-3.436-13.594-4.981-20.432-.333-1.474-2.26-2.248-3.526-1.434-4.957,3.187-9.785,6.869-13.852,11.147-1.781,1.873-4.311,4.444-4.788,7.091-.434,2.415,1.726,3.418,3.47,4.415,1.848,1.057,3.697,2.112,5.548,3.163l-.486-3.769c-1.434,1.348-2.863,2.701-4.267,4.081-1.44,1.416-3.045,2.831-4.236,4.467-1.312,1.803-.955,3.692-.013,5.55.877,1.731,1.778,3.45,2.676,5.17,3.744,7.164,7.596,14.271,11.511,21.342,2.275,4.108,4.572,8.204,6.884,12.292,1.521,2.689,5.669.272,4.145-2.423h0Z"/>
              <path class="f" d="M205.16,222.77c8.708-20.567,15.155-42.131,20.796-63.713,1.773-6.783,3.436-13.594,4.981-20.432l-3.526,1.434c3.218,2.069,6.295,4.363,9.178,6.878,1.544,1.347,3.037,2.758,4.409,4.281.55.611,1.089,1.235,1.568,1.903.229.32.45.647.658.981.121.195.225.412.354.601.1.146.174.565.156.169l.328-1.211c.187-.368.194-.175-.201.029-.362.187-.713.408-1.067.61-.64.366-1.28.732-1.92,1.098-1.279.731-2.56,1.46-3.841,2.188-1.314.746-1.607,2.715-.486,3.769,1.722,1.619,3.438,3.245,5.11,4.916.881.881,1.694,1.908,2.634,2.721.6.519.245.383.245.203,0,.311-.5.981-.646,1.264-2.158,4.196-4.358,8.37-6.588,12.529-4.581,8.542-9.289,17.016-14.062,25.453-1.523,2.692,2.622,5.114,4.145,2.423,4.023-7.111,8-14.249,11.894-21.431,1.935-3.569,3.849-7.149,5.737-10.743.907-1.726,1.807-3.455,2.7-5.189.873-1.693,2.02-3.431,1.501-5.421-.559-2.143-2.823-3.863-4.335-5.369-1.619-1.612-3.278-3.184-4.942-4.749l-.486,3.769c1.851-1.051,3.7-2.107,5.548-3.163,1.678-.959,3.652-1.828,3.513-4.096-.088-1.432-1.155-2.893-1.986-4.02-.877-1.189-1.827-2.319-2.845-3.389-4.067-4.278-8.895-7.96-13.852-11.147-1.265-.814-3.193-.04-3.526,1.434-5.069,22.442-11.2,44.761-18.944,66.435-1.989,5.566-4.044,11.12-6.349,16.563-.505,1.193-.358,2.571.861,3.284,1.007.589,2.775.339,3.284-.861h0Z"/>
             </g>
            </svg>