<svg style="max-height: 500px" viewBox="212.31299999999996 0 107.9316923076923 355.015" xmlns="http://www.w3.org/2000/svg" id="b" width="107.9316923076923" height="355.015"><defs><style>.e{fill:#ffffff;}.f{fill:#7abee6;}.g{fill:#211715;}.h{fill:#ffaf71;}.i{fill:#645d5c;}</style></defs><g id="c"><g id="d"><path d="M283.294,8.326c-6.594-5.023-12.817-6.397-19.088-6.298-9.936.156-18.043,3.716-23.605,9.83-3.211,3.53-5.611,8.737-6.621,13.417-.949,4.397-1.182,11.084-.231,16.672l42.524,44.336h15.968c5.288-2.136,5.567-5.704,5.725-7.846.241-3.053-.068-5.453-.852-8.482-.961-3.779-2.69-11.436-1.731-24.784.459-2.543.657-5.865.746-8.44.045-1.317.064-2.432.069-3.163.079-7.477-3.15-16.112-7.998-21.128l-4.908-4.113Z" class="i"/><path d="M286.788,13.853c3.733,3.93,5.947,9.22,6.949,14.495,1.052,5.54.239,11.284-.352,16.822-.586,5.491-.418,11.238.228,16.718.41,3.48,1.23,6.801,1.958,10.216.364,1.707.521,3.414.463,5.16-.02.595-.063,1.19-.115,1.783-.014.157-.028.314-.05.47.053-.378-.063.297-.079.374-.459,2.132-1.98,3.581-4.078,4.464-.995.419-1.71,1.322-1.397,2.46.258.938,1.458,1.819,2.46,1.397,2.463-1.037,4.786-2.492,6.038-4.95.916-1.798,1.127-3.78,1.213-5.769.201-4.614-1.383-8.955-2.111-13.454-.852-5.271-.947-10.671-.701-15.995.289-6.238,1.529-12.412.705-18.677-.879-6.684-3.622-13.413-8.304-18.342-1.776-1.87-4.602.961-2.828,2.828h0Z" class="g"/><path d="M239.061,79.925c-6.477,2.305-10.545,3.346-14.924,7.495v83.392c26.301,0,81.12,0,81.12,0,1.306-2.007,2.328-3.994,2.99-5.612,3.454-8.482,4.025-30.222,3.766-39.598l-.04.26c-.41-11.269-1.613-23.392-8.411-33.334-3.472-5.079-12.665-11.303-19.119-12.895-7.283,7.688-17.884,10.45-27.883,9.791-3.42-.225-6.703-.908-9.856-2.428-3.145-1.527-5.94-3.739-7.604-6.995" class="e"/><path d="M301.04,334.864c-.17-1.686-1.472-3.222-2.486-4.014l-8.875,4.375c-3.06-4.307-6.601-6.752-10.579-7.851-3.334-.922-7.081-1.359-10.895-.234-1.965.58-3.811,1.521-5.379,2.766l-.355.153c-3.142,1.615-5.698,3.166-9.278,4.556,0,0-2.715.798-4.964,1.459-2.357-9.164-10.067-15.935-19.804-11.79-6.519,2.775-9.828,5.087-12.899,11.887-4.335,12.927,18.667,11.222,27,9.25,5.676-1.343,8.994-3.074,13.11-5.861l.56-.172c-1.074,2.345-1.747,4.785-1.517,7.172.454,4.714,5.708,6.474,10.491,6.417,3.507-.042,6.491-.325,9.835-.933,8.078-1.469,16.846-6.804,24.502-12.722.829-.548,1.714-2.664,1.533-4.456Z" class="e"/><path d="M256.261,312.902c-6.1,1.856-8.377,1.626-13.951,1.129-6.72-.599-15.865-2.315-19.724-3.074-1.046-.206-1.77-1.155-1.688-2.218,1.347-17.531,9.227-105.694,12.868-133.133l6.298-13.152c11.045.158,22.113-1.344,32.717-4.439l25.726,12.029c4.854,43.934,10.277,102.689,13.615,133.063.185,1.681-.714,3.288-2.243,4.011-7.641,3.611-17.119,7.997-23.267,8.648-2.03.215-4.076-.18-6.098-.46-6.01-.832-18.591-2.573-19.152-2.65l-5.102.247Z" class="f"/><path d="M240.064,164.453c11.23.136,22.461-1.387,33.249-4.51,2.468-.714,1.418-4.575-1.063-3.857-10.469,3.031-21.288,4.499-32.186,4.367-2.575-.031-2.576,3.969,0,4h0Z" class="g"/><path d="M231.766,175.605c-1.226,9.255-2.184,18.547-3.143,27.832-1.3,12.581-2.521,25.17-3.71,37.761-1.176,12.445-2.318,24.893-3.428,37.344-.79,8.858-1.574,17.716-2.298,26.58-.112,1.368-.399,2.864-.251,4.231.432,3.986,5.535,4.012,8.572,4.554,4.044.721,8.104,1.372,12.185,1.85,3.616.424,7.352.894,10.986.442,2.085-.259,4.106-.766,6.115-1.369,2.459-.739,1.412-4.6-1.063-3.857-3.595,1.08-6.95,1.564-10.695,1.289-3.942-.29-7.856-.789-11.759-1.413-1.915-.307-3.827-.636-5.735-.984-1.375-.25-2.872-.388-4.211-.795-.479-.146-.418-.065-.412-.583.003-.288.045-.581.068-.868.051-.647.103-1.294.156-1.941.685-8.428,1.429-16.851,2.178-25.273,1.074-12.081,2.179-24.159,3.314-36.234,1.168-12.42,2.365-24.837,3.632-37.247.983-9.626,1.975-19.255,3.184-28.855.103-.821.209-1.642.318-2.463.142-1.073-1.021-2-2-2-1.199,0-1.857.924-2,2h0Z" class="g"/><path d="M260.831,314.583c3.898.539,7.796,1.079,11.694,1.618,2.564.355,5.129.701,7.691,1.065,2.034.289,4.099.686,6.162.518,1.438-.117,2.867-.395,4.263-.75,6.892-1.749,13.497-4.949,19.882-8.019,1.565-.753,2.776-1.97,3.332-3.642.436-1.313.227-2.628.082-3.964-.265-2.441-.525-4.883-.782-7.326-1.251-11.915-2.435-23.838-3.619-35.76-1.39-13.991-2.77-27.984-4.181-41.973-1.393-13.812-2.811-27.623-4.312-41.424-.177-1.628-.356-3.256-.535-4.884-.119-1.074-.834-2-2-2-.989,0-2.119.919-2,2,1.468,13.291,2.848,26.592,4.199,39.896,1.393,13.712,2.751,27.427,4.111,41.142,1.207,12.17,2.41,24.341,3.663,36.506.502,4.872,1.011,9.743,1.543,14.612.139,1.269.255,2.387-.994,3.106-1.48.852-3.138,1.488-4.689,2.201-3.184,1.462-6.396,2.873-9.689,4.072-2.697.982-5.615,2.047-8.506,2.225-2.943.181-6.002-.553-8.916-.956-4.73-.655-9.459-1.309-14.189-1.964-.382-.053-.763-.106-1.145-.158-1.069-.148-2.148.259-2.46,1.397-.257.935.32,2.311,1.397,2.46h0Z" class="g"/><path d="M254.936,199.566c.868,16.897,1.514,33.805,2.167,50.712.645,16.713,1.257,33.426,1.842,50.141.143,4.079.295,8.157.417,12.236.077,2.568,4.077,2.579,4,0-.315-10.498-.723-20.995-1.105-31.491-.673-18.516-1.369-37.032-2.141-55.545-.362-8.686-.735-17.371-1.181-26.053-.132-2.561-4.132-2.577-4,0h0Z" class="g"/><path d="M250.094,335.298c-2.051-7.404-7.867-14.401-16.143-14.26-4.041.069-8.039,1.89-11.461,3.931-3.117,1.859-5.584,4.426-7.375,7.579-1.522,2.68-2.741,5.783-1.809,8.888.705,2.347,2.53,4.122,4.698,5.174,5.058,2.455,11.247,2.416,16.73,1.971,2.791-.226,5.596-.594,8.325-1.234,4.942-1.158,9.391-3.235,13.588-6.063,2.124-1.431.124-4.898-2.019-3.454-3.166,2.134-6.433,3.904-10.108,4.992-2.197.65-4.961,1.21-6.961,1.465-4.832.616-10.066.875-14.695-.204-1.997-.466-3.642-1.13-4.859-2.309-.45-.436-.742-1.049-.933-1.748-.031-.115-.052-.241-.071-.357.006.036.035.308.013.067-.023-.261-.029-.522-.023-.783.017-.672.049-.76.218-1.42.714-2.798,2.83-5.63,4.996-7.496,2.35-2.024,5.582-3.593,8.538-4.473,3.389-1.009,6.911-.501,9.758,1.641,2.954,2.222,4.767,5.657,5.736,9.156.686,2.477,4.546,1.425,3.857-1.063h0Z" class="g"/><path d="M291.406,334.216c-2.255-3.122-5.024-5.906-8.553-7.557-3.756-1.758-8.155-2.548-12.276-2.028-3.992.503-7.945,2.282-10.7,5.271-1.392,1.51-2.507,3.327-3.574,5.075-1.113,1.825-2.102,3.744-2.8,5.768-1.23,3.567-1.408,7.817,1.344,10.725,2.272,2.401,5.792,3.281,8.98,3.474,8.496.513,16.97-1.762,24.401-5.761,4.373-2.354,8.637-5.153,12.49-8.291,1.607-1.309,2.382-3.598,2.344-5.638-.043-2.287-1.363-4.395-3.095-5.816-1.975-1.62-4.821,1.194-2.828,2.828,1.03.845,2.028,1.96,1.916,3.382-.138,1.739-1.065,2.351-2.372,3.322-3.04,2.258-6.194,4.374-9.5,6.225-2.952,1.653-6.023,3.1-9.267,4.081-3.374,1.02-6.913,1.469-10.426,1.634-2.776.131-5.793.216-8.316-1.152-2.321-1.258-2.862-3.402-2.373-5.919.684-3.519,2.74-6.634,4.719-9.553,1.664-2.455,4.018-4.198,6.848-5.103,3.821-1.221,8.127-.8,11.833.659,3.184,1.253,5.771,3.652,7.752,6.395.632.874,1.74,1.3,2.736.718.864-.505,1.353-1.856.718-2.736h0Z" class="g"/><path d="M253.725,336.543c3.388-1.323,6.53-3.095,9.756-4.757.932-.48,1.281-1.862.718-2.736-.613-.95-1.74-1.231-2.736-.718-1.476.761-2.93,1.564-4.405,2.327-.729.377-1.463.743-2.206,1.089-.402.187-.807.366-1.212.544-.21.09-.209.089.005-.001-.107.045-.214.089-.322.133-.219.089-.439.176-.66.262-.971.379-1.753,1.358-1.397,2.46.305.944,1.417,1.804,2.46,1.397h0Z" class="g"/><path d="M275.401,72.9c-.038-.273-.071-.546-.105-.819-.149-1.213-.297-2.427-.445-3.64,2.433-2.018,4.267-4.115,5.956-6.382,0,0,3.052-4.263,1.781-3.43,1.715.265,3.62-.281,4.378-.691,2.41-1.311,3.605-3.284,4.394-4.71,1.121-2.018,1.741-5.47.917-7.539-.276-.692-.986-1.911-3.056-2.324-.951-.19-2.118-.09-3.072.528,0,0-.7.453-1.4.906-2.026-1.187-4.053-2.373-4.053-2.373-3.206-1.877-6.536-7.295-7.721-10.406-.755-1.981-1.887-5.426-2.594-8.391-4.707,4.698-11.501,8.109-18.697,9.811-.755.179-1.472-.443-1.374-1.213.186-1.468.507-2.875,1.026-4.21.09-.232-.18-.435-.379-.286-4.783,3.585-9.943,7.309-14.733,10.301-.523.329-1.153.678-1.554.924l-.962.591c.009.108.018.216.018.216.355,4.179.527,8.353.769,12.197.42,6.666,2.164,12.759,6.635,16.778,3.259,2.93,6.715,4.73,10.623,5.467-.254,1.683-2.19,2.541-3.708,2.97-2.285.841-6.528,1.917-9,2.724,1.66,3.311,4.48,5.553,7.658,7.096,3.153,1.52,6.437,2.202,9.856,2.428,9.861.65,20.308-2.027,27.581-9.478-3.005-1.233-7.386-2.336-8.254-4.834-.248-.714-.383-1.46-.486-2.21Z" class="e"/><path d="M250.05,63.481c1.366.813,3.013,1.152,4.585,1.219.794.034,1.601-.04,2.379-.203.328-.069.643-.173.953-.299.302-.122.601-.252.901-.38.082-.035.166-.068.247-.106-.501.235-.08.037.021-.002.501-.194.915-.44,1.195-.919.251-.429.357-1.061.202-1.541-.306-.945-1.416-1.803-2.46-1.397-.287.111-.569.232-.852.352-.083.035-.165.07-.248.106-.03.013-.437.188-.127.056.276-.117-.003,0-.06.022-.077.03-.154.059-.232.086-.134.046-.269.087-.406.121-.149.037-.299.063-.449.092-.3.058.216-.039.217-.028,0,.002-.199.02-.215.021-.316.027-.633.033-.95.023-.153-.005-.305-.013-.457-.025-.098-.008-.604-.067-.248-.02s-.146-.028-.242-.046c-.166-.032-.331-.067-.495-.108-.281-.07-.554-.159-.827-.255-.317-.112.359.171.146.066-.059-.029-.121-.055-.18-.084-.128-.063-.253-.132-.376-.205-.9-.536-2.235-.232-2.736.718-.51.965-.243,2.165.718,2.736h0Z" class="g"/><path d="M260.163,47.625c-.303-1.371.216-4.426,2.771-4.481,3.347.293,3.223,4.027,1.953,5.684-1.039,1.357-3.802,1.731-4.724-1.203Z" class="g"/><path d="M240.231,46.631c-.271-1.374.217-4.44,2.557-4.507,3.065.279,2.934,4.025,1.764,5.692-.958,1.365-3.49,1.753-4.322-1.186Z" class="g"/><path d="M249.825,49.956c-.454.688-.902,1.388-1.289,2.116-.179.336-.37.683-.453,1.057-.098.445-.123.871-.002,1.316.113.415.325.742.605,1.058.382.433.857.687,1.383.895.326.129.695.143,1.035.188l-.532-.071c.045.006.089.013.134.022.534.104,1.059.08,1.541-.202.415-.243.811-.718.919-1.195.117-.512.091-1.087-.202-1.541-.27-.419-.688-.82-1.195-.919-.243-.047-.491-.07-.736-.103l.532.071c-.15-.02-.293-.05-.433-.108l.478.202c-.095-.044-.181-.096-.265-.158l.405.313c-.098-.079-.19-.164-.267-.263l.313.405c-.019-.028-.034-.057-.045-.088l.202.478c-.011-.031-.019-.063-.023-.095l.071.532c-.004-.053-.003-.1.002-.152l-.071.532c.015-.092.041-.177.074-.264l-.202.478c.194-.456.476-.888.733-1.311.241-.395.487-.787.742-1.173.277-.419.332-1.068.202-1.541-.128-.464-.486-.967-.919-1.195-.464-.245-1.026-.368-1.541-.202-.511.165-.897.468-1.195.919h0Z" class="g"/><path d="M274.82,70.998c2.25-1.734,4.295-3.651,6.097-5.851,1.257-1.535,2.503-3.159,3.457-4.906.502-.918.256-2.222-.718-2.736-.936-.494-2.2-.263-2.736.718-.448.82-.981,1.596-1.514,2.363-.139.2-.278.399-.424.594-.081.109-.165.217-.246.326-.143.192.198-.25-.036.048-.202.257-.405.513-.612.765-.772.944-1.588,1.852-2.453,2.712-.453.45-.918.887-1.396,1.309-.27.239-.544.474-.822.704-.142.118-.285.234-.429.349-.057.046-.479.376-.187.151-.432.333-.768.646-.919,1.195-.132.479-.072,1.116.202,1.541.526.815,1.85,1.401,2.736.718h0Z" class="g"/><path d="M284.304,6.599c-4.664-3.505-9.966-5.735-15.773-6.378-5.256-.582-10.832-.006-15.855,1.646-4.68,1.539-9.007,4.075-12.51,7.555-3.862,3.836-6.482,8.93-7.84,14.175-1.574,6.076-1.515,12.724-.503,18.882.175,1.067,1.498,1.661,2.46,1.397,1.133-.311,1.573-1.39,1.397-2.46-1.559-9.489-.366-20.734,6.337-28.142,6.173-6.823,15.429-9.626,24.447-9.212,5.873.269,11.151,2.483,15.822,5.993.864.649,2.236.139,2.736-.718.598-1.023.149-2.085-.718-2.736h0Z" class="g"/><path d="M267.666,70.022c-6.56,2.634-14.09,3.901-20.619.459-2.955-1.558-5.665-3.779-7.386-6.671s-2.594-6.293-2.971-9.63c-.54-4.781-.564-9.623-.963-14.418-.212-2.547-4.214-2.57-4,0,.702,8.431-.061,17.763,4.121,25.437,3.733,6.849,11.464,11.046,19.129,11.37,4.744.201,9.375-.931,13.753-2.688,1.002-.402,1.706-1.334,1.397-2.46-.261-.951-1.452-1.802-2.46-1.397h0Z" class="g"/><path d="M287.159,45.62c.485-.291.694-.344,1.205-.341.147,0,.293.009.438.024-.194-.02-.151-.005.13.045.087.027.798.285.548.163.084.041.701.453.348.169.161.13.289.283.436.426-.489-.478.332.358.211.418-.146-.36-.167-.404-.063-.132.041.118.077.237.109.358.02.077.132.796.098.447.056.576.033,1.148-.006,1.725-.027.393.02-.003-.044.359-.053.295-.11.589-.181.881-.07.286-.149.569-.24.849-.023.071-.278.771-.169.508-.336.814-.831,1.598-1.336,2.317-.074.105-.149.209-.226.312.111-.144.091-.122-.06.066-.185.21-.367.422-.564.621-.417.423-.759.712-1.19.992-.241.157-.504.28-.744.436-.323.209.421-.129-.015.006-.455.14-.9.264-1.366.365-.239.038-.261.044-.067.017-.138.015-.276.027-.414.036-.283.017-.561.006-.844.004-.248-.024-.281-.023-.098.002-.138-.023-.275-.051-.411-.086-.135-.034-.267-.074-.398-.121.158.072.129.054-.087-.053-.959-.497-2.172-.247-2.736.718-.525.898-.245,2.237.718,2.736,2.083,1.08,4.662,1.022,6.836.214,2.244-.834,4.03-2.586,5.331-4.555,2.185-3.306,3.714-8.857.83-12.213-1.914-2.228-5.529-2.646-7.998-1.165-2.205,1.323-.196,4.783,2.019,3.454h0Z" class="g"/><path d="M268.492,24.327c.931,3.784,2.056,7.696,3.892,11.153,1.732,3.262,4.087,6.724,7.304,8.673,2.207,1.338,4.22-2.12,2.019-3.454-2.583-1.566-4.562-4.728-5.985-7.46-.7-1.345-1.066-2.366-1.589-3.913-.675-1.996-1.28-4.017-1.783-6.063-.614-2.498-4.473-1.44-3.857,1.063h0Z" class="g"/><path d="M268.959,22.223c-2.755,2.71-6.006,4.809-9.499,6.446-1.755.823-3.576,1.498-5.429,2.064-.543.166-1.089.322-1.638.467-.206.055-.412.108-.619.159-.56.074-.385.394.525.961.148-.083.275-1.496.328-1.716.118-.489.257-.973.419-1.449.393-1.154.43-2.318-.714-3.075-.949-.627-1.878-.392-2.752.2-1.801,1.22-3.506,2.603-5.275,3.873-3.464,2.487-6.985,4.883-10.643,7.076-2.206,1.322-.197,4.782,2.019,3.454,2.72-1.63,5.365-3.368,7.967-5.181,1.411-.983,2.81-1.984,4.2-2.996.631-.46,1.261-.922,1.889-1.386.374-.277.748-.554,1.121-.832.213-.159.634-.628.839-.671l-1.541-.202.158.12-.991-1.727c.028.428-.445,1.288-.552,1.734-.171.711-.288,1.431-.388,2.155-.2,1.443.334,2.761,1.673,3.444,1.282.653,2.729.111,4.018-.251,1.363-.382,2.708-.826,4.029-1.332,5.059-1.939,9.807-4.689,13.685-8.505,1.838-1.808-.991-4.636-2.828-2.828h0Z" class="g"/><path d="M272.84,68.361c.253,2.064.394,4.184.827,6.218.363,1.704,1.204,2.971,2.586,4.007,1.158.868,2.519,1.426,3.856,1.956.654.259,1.315.5,1.974.744.293.109.587.218.879.331.141.054.282.109.422.165.091.036.182.073.273.111-.256-.109-.283-.12-.083-.034.957.415,2.191.315,2.736-.718.456-.863.308-2.292-.718-2.736-1.253-.543-2.536-.999-3.811-1.484-.305-.116-.608-.236-.911-.357-.506-.202.377.17-.117-.048-.145-.064-.291-.128-.435-.195-.547-.253-1.086-.532-1.59-.864-.098-.064-.288-.146-.346-.241l.188.146c-.07-.056-.138-.113-.205-.173-.083-.074-.441-.545-.532-.553.121.01.255.378.034.005-.096-.161-.33-.32-.009.05-.202-.233-.269-.876-.333-1.174-.196-.913-.209-1.278-.328-2.249s-.237-1.938-.356-2.907c-.127-1.035-.829-2.052-2-2-.974.044-2.136.888-2,2h0Z" class="g"/><path d="M239.497,81.854c2.561-.837,5.182-1.481,7.749-2.299,2.536-.808,5.881-1.781,6.438-4.828.187-1.026-.28-2.206-1.397-2.46-.979-.223-2.259.296-2.46,1.397-.02.108-.092.281-.094.392-.003.213.138-.294-.025.021-.186.361.151-.091-.014.035-.099.076-.192.191-.282.282-.246.249.142-.048-.047.037-.122.054-.235.153-.353.221-.122.07-.247.132-.371.196-.165.085-.322.143-.059.038-.996.4-2.048.709-3.074,1.023-2.351.72-4.738,1.325-7.076,2.089-.993.324-1.74,1.399-1.397,2.46.321.991,1.395,1.745,2.46,1.397h0Z" class="g"/><path d="M238.529,77.996c-2.925,1.039-5.891,1.983-8.726,3.258-2.62,1.178-4.986,2.785-7.08,4.751-.788.74-.747,2.082,0,2.828.786.786,2.039.742,2.828,0,1.062-.997,1.786-1.588,2.949-2.339,1.058-.684,2.174-1.271,3.322-1.787.122-.055.245-.108.367-.162.59-.261-.17.068.176-.075.286-.118.574-.233.862-.345.635-.247,1.275-.482,1.917-.711,1.479-.529,2.968-1.034,4.448-1.56,1.017-.361,1.698-1.365,1.397-2.46-.271-.985-1.438-1.76-2.46-1.397h0Z" class="g"/><path d="M237.373,81.01c3.385,6.394,10.54,9.449,17.415,10.252,6.695.782,13.759-.094,19.987-2.693,3.645-1.521,6.959-3.625,9.862-6.308,1.895-1.751-.939-4.574-2.828-2.828-5.633,5.207-13.164,7.756-20.753,8.052-7.404.289-16.429-1.317-20.228-8.493-1.205-2.276-4.659-.257-3.454,2.019h0Z" class="g"/><path d="M283.774,81.523c3.156.783,6.083,2.29,8.83,3.999,2.861,1.78,5.588,3.851,7.871,6.342,2.426,2.646,4.152,6.074,5.434,9.401,1.42,3.682,2.347,7.537,2.961,11.431.686,4.353.939,8.767,1.102,13.166.079,2.134,3.567,2.861,3.929.532l.04-.26-3.929-.532c.15,5.615.019,11.244-.286,16.851-.327,6.006-.774,12.1-2.129,17.975-.788,3.413-2.171,6.42-4.068,9.375-1.395,2.173,2.066,4.181,3.454,2.019,1.782-2.777,3.264-5.739,4.124-8.933.769-2.856,1.213-5.793,1.593-8.723.847-6.524,1.189-13.118,1.321-19.692.059-2.957.071-5.915-.008-8.872-.057-2.147-3.568-2.848-3.929-.532l-.04.26,3.929.532c-.312-8.381-1.017-16.944-3.914-24.881-1.425-3.904-3.301-7.78-5.944-11.012-2.244-2.743-5.131-5.004-8.057-6.973-3.411-2.295-7.207-4.335-11.22-5.33-2.499-.62-3.564,3.237-1.063,3.857h0Z" class="g"/><path d="M255.547,178.297c-.399,8.803,2.991,13.75,1.079,22.352-.794,3.575-4.947,24.267-6.567,33.7-.334,1.943.125,3.685,1.4,5.189,1.625,1.917,4.5,3.377,6.049,4.126,7.382,3.532,15.257,6.031,23.326,7.401,1.6.272,3.209.499,4.827.626,8.636.678,17.478-1.621,24.691-6.418.917-.61,1.841-1.296,2.341-2.277.498-.979.511-2.126.528-3.219,4.757-.124,9.497-.865,14.067-2.191,1.004-.291,2.077-.668,2.651-1.541.634-.966.462-2.231.266-3.37-2.83-16.432-5.661-32.864-8.491-49.296-1.38-8.01-2.76-16.021-4.364-23.988-.191-.947-.402-1.932-1.006-2.686-.557-.696-1.383-1.111-2.182-1.506-3.51-1.734-7.021-3.467-10.531-5.201l-40.687-3.675-7.395,31.974Z" class="e"/><path d="M253.547,178.297c-.244,6.384,2.092,12.561,1.596,18.926-.287,3.675-1.397,7.424-2.122,11.032-1.036,5.153-2.051,10.311-3.036,15.474-.454,2.378-.901,4.756-1.332,7.138-.487,2.692-1.149,5.364.025,7.981,1.315,2.931,4.323,4.784,7.084,6.18,3.147,1.591,6.445,2.938,9.767,4.118,7.05,2.504,14.745,4.486,22.259,4.653,7.022.157,14.078-1.557,20.281-4.839,2.762-1.462,6.203-3.234,6.927-6.552.387-1.775.243-3.697.269-5.501.028-1.985.053-3.97.075-5.955.199-18.195.123-36.393-.221-54.586-.049-2.571-4.049-2.579-4,0,.291,15.381.391,30.766.294,46.15-.024,3.805-.06,7.609-.108,11.413-.025,1.985-.041,3.97-.085,5.955-.034,1.567-.246,2.519-1.571,3.457-5.215,3.688-11.683,5.866-18.031,6.353-6.954.534-13.988-.998-20.622-2.97-3.533-1.05-7.01-2.311-10.375-3.814-2.497-1.115-5.286-2.287-7.25-4.25-1.899-1.897-1.333-4.104-.908-6.464.407-2.258.83-4.513,1.259-6.767.95-4.996,1.93-9.987,2.929-14.974.795-3.969,1.856-7.971,2.363-11.989.858-6.792-1.725-13.373-1.466-20.168.098-2.574-3.902-2.57-4,0h0Z" class="g"/><path d="M302.62,151.725c3.218,1.589,6.436,3.179,9.653,4.768.325.16.694.3.995.502-.299-.201-.026-.004.032.051.392.372.753.79,1.083,1.218.252.327.487.674.703,1.025.106.171.219.346.303.53.071.143.068.131-.008-.038.058.203.103.409.134.619,1.452,6.917,2.611,13.903,3.813,20.867,2.455,14.221,4.9,28.444,7.349,42.666.336,1.952.673,3.905,1.009,5.857.168.976.338,1.952.504,2.928.092.539.393,1.568.13,2.111-.217.449-.784.586-1.229.727-.845.268-1.708.487-2.568.698-1.946.479-3.915.843-5.899,1.118-1.071.148-1.656,1.517-1.397,2.46.317,1.153,1.386,1.546,2.46,1.397,1.832-.254,3.65-.583,5.45-1.01,1.594-.378,3.364-.718,4.798-1.543,3.464-1.991,2.285-6.015,1.733-9.219-1.331-7.728-2.662-15.456-3.993-23.184-2.614-15.174-5.043-30.395-8.019-45.503-.294-1.494-.558-2.7-1.423-3.969-.687-1.009-1.465-2.065-2.41-2.853-1.414-1.179-3.396-1.832-5.043-2.645l-6.143-3.034c-2.3-1.136-4.329,2.313-2.019,3.454h0Z" class="g"/><path d="M283.02,126.308c.68-2.798,4.316-2.851,6.122-1.108,1.763,1.701,1.679,4.794-.079,6.514-1.182,1.157-2.589,1.825-2.969,3.596-.26,1.212-.198,2.546-.164,3.781.063,2.329.297,4.656.323,6.986.03,2.572,4.03,2.579,4,0-.032-2.785-.379-5.563-.339-8.351.009-.593-.087-1.271.239-1.751.48-.707,1.471-1.106,2.048-1.765,1.207-1.378,1.906-3.088,2.131-4.895.478-3.843-1.724-7.626-5.445-8.904-3.948-1.356-8.706.639-9.725,4.834-.608,2.501,3.248,3.568,3.857,1.063h0Z" class="g"/><path d="M279.994,146.601c1.152.386,2.33.687,3.526.9.266.083.532.095.798.036.266-.012.514-.091.744-.237.415-.243.811-.718.919-1.195.117-.512.091-1.087-.202-1.541-.267-.415-.69-.829-1.195-.919-1.196-.213-2.374-.514-3.526-.9-.476-.16-1.117-.047-1.541.202-.415.243-.811.718-.919,1.195-.117.512-.091,1.087.202,1.541.291.452.682.747,1.195.919h0Z" class="g"/><path d="M290.264,137.665c-2.086,1.87-3.617,3.735-4.992,5.838-.506.774-.829,1.733-.64,2.638.899,2.921,3.335,3.402,5.927,2.203.683,2.533,3.401,3.664,5.753,4.183.146.035.31.081.383.212.226,1.511,1.22,2.477,2.477,3.092,3.665,1.793,7.936-.501,8.827-4.483.704-3.146.07-5.821-2.208-8.143-1.119-1.005-2.171-2.889-3.068-4.098-2.359-2.673-6.299-4.763-9.591-3.249-1.011.511-2.026,1.052-2.87,1.808Z" class="e"/><path d="M288.85,136.251c-1.574,1.429-2.974,2.997-4.238,4.706-1.316,1.78-2.513,3.755-1.797,6.041.537,1.714,1.88,3.19,3.615,3.717,1.759.535,3.514.068,5.139-.645l-2.938-1.195c1.096,3.539,4.174,4.625,7.369,5.65l-.883-.514.165.142-.514-.883c.674,3.491,4.438,5.472,7.789,5.13s6.162-2.704,7.204-5.906c1.149-3.53.345-7.337-2.039-10.139-.492-.578-1.056-1.075-1.508-1.688-.555-.754-1.035-1.56-1.581-2.319-1.044-1.453-2.509-2.668-4.064-3.547-1.742-.984-3.786-1.618-5.801-1.408-2.218.232-4.245,1.435-5.918,2.858-1.964,1.67.877,4.487,2.828,2.828,1.061-.902,2.498-1.749,3.927-1.728,1.401.02,2.735.685,3.858,1.479,1.26.89,2.025,2.01,2.882,3.262.898,1.312,2.147,2.378,2.986,3.708,1.346,2.131,1.367,5.45-.475,7.325-1.437,1.464-4.401,1.999-5.826.156-.514-.664-.418-1.488-1.084-2.1-.663-.609-1.621-.68-2.447-.947-1.252-.405-2.596-1.084-3.011-2.423s-1.744-1.719-2.938-1.195c-.604.265-1.493.488-2.051.247-.636-.274-1.053-1.063-.822-1.751.346-1.028,1.313-2.084,1.996-2.912.922-1.118,1.933-2.148,3.005-3.121,1.91-1.734-.926-4.556-2.828-2.828Z" class="g"/><path d="M262.41,144.395c-4.317,1.302-8.534,2.926-12.609,4.857-1.918.909-3.598,1.972-4.239,4.121-.595,1.994-.646,4.25-.916,6.31-.968,7.382-1.936,14.764-2.905,22.145-.606,4.617-1.211,9.234-1.817,13.851-.141,1.073,1.02,2,2,2,1.198,0,1.859-.924,2-2,.943-7.19,1.886-14.379,2.829-21.569.443-3.375.885-6.751,1.328-10.126.258-1.968.516-3.935.774-5.903.198-1.508.017-3.735,1.455-4.616,1.912-1.172,4.157-1.995,6.237-2.816,2.274-.898,4.585-1.691,6.925-2.397,2.458-.742,1.411-4.604-1.063-3.857h0Z" class="g"/><path d="M256.692,197.043c.38,2.213-.143,4.198-1.595,5.911-1.851,2.183-5.126,3.846-6.89,4.7-8.409,4.024-17.38,6.87-26.571,8.431-1.823.309-3.655.569-5.498.713-9.838.772-19.91-1.846-28.127-7.311-1.045-.695-2.097-1.476-2.666-2.594-.549-1.078-.58-2.336-.6-3.546l-6.764-.663c-3.13-.421-6.229-1.074-9.262-1.954-1.143-.332-2.366-.761-3.019-1.756-.722-1.1-.526-2.541-.303-3.838,3.224-18.718,6.448-37.436,9.672-56.154,1.572-9.124,3.143-18.249,4.971-27.326.112-.554.619-1.909,1.412-2.934.75-.97,1.777-1.622,2.219-1.84,3.999-1.975,7.997-3.95,11.996-5.925l37.048-5.832,6.393.219c6.487-.109,12.372,4.31,15.821,9.805,3.449,5.495,4.91,11.969,6.315,18.303,4.5,20.292,9,40.584,13.5,60.876.201.908.399,1.881.056,2.746-.343.868-1.157,1.444-1.929,1.969-3.272,2.225-6.544,4.45-9.817,6.675-.816.555-2.256.908-2.505-.047l-3.86,1.372Z" class="h"/><path d="M231.187,100.171c.333-.367.621-.747.851-1.128,3.756-6.232-5.352-7.899-9.529-5.636-.428.198-1.04.628-1.188.968-.347.5-.698,1.275-.696,1.913.005,1.371.251,2.742.724,4.029,1.479,4.927,7.137,2.827,9.837-.145Z" class="e"/><path d="M232.601,101.585c2.159-2.437,3.351-6.011.959-8.713-1.691-1.909-4.668-2.499-7.101-2.423-1.263.04-2.571.232-3.753.692-.868.337-1.659.731-2.375,1.335-.776.655-1.355,1.805-1.575,2.781-.271,1.204-.079,2.513.146,3.708.197,1.045.532,2.087.976,3.053.673,1.467,1.981,2.619,3.548,3.038,3.302.884,6.986-1.096,9.175-3.472.709-.77.818-2.077,0-2.828-.771-.708-2.071-.822-2.828,0-.182.198-.371.39-.568.572-.082.076-.533.564-.632.54,0,0,.406-.294.095-.078-.054.037-.106.076-.159.114-.107.075-.215.148-.325.219-.256.166-.518.321-.787.463-.115.061-.23.119-.347.176-.075.036-.464.181-.172.084s-.147.054-.234.085c-.137.049-.276.094-.416.135-.255.075-.512.127-.771.182-.359.076.424-.028.063-.008-.135.007-.269.02-.404.022-.132.002-.264-.012-.396-.01-.346.007.424.098.091.018-.106-.026-.214-.042-.32-.071-.052-.014-.104-.033-.156-.046-.353-.086.075-.023.123.068-.013-.025-.583-.312-.57-.322.047-.036.388.349.015-.011-.056-.054-.212-.289-.279-.302.022.004.222.339.128.16-.029-.054-.072-.105-.105-.157-.083-.131-.153-.267-.225-.403-.024-.046-.085-.136-.088-.187,0-.004.118.374.067.144-.041-.186-.129-.373-.19-.553-.143-.423-.268-.85-.366-1.285-.045-.201-.085-.403-.12-.605-.017-.101-.035-.203-.048-.305.037.282,0-.076-.009-.184-.017-.205-.028-.41-.035-.616-.003-.103-.003-.206-.006-.309-.001-.054.045-.291-.003-.064-.053.252.023-.043.034-.073.042-.112.07-.228.115-.34-.13.329.085-.124.148-.226.041-.068.09-.132.129-.201.064-.111.116-.094-.007-.01-.279.189.104.007.053-.015.017.007-.414.258.007.007.237-.141.481-.263.726-.388.376-.191-.363.127-.058.021.098-.034.194-.074.292-.108.235-.081.474-.152.716-.212.213-.053.428-.099.644-.138.093-.017.248-.011.33-.054-.261.137-.42.047-.197.028.075-.006.15-.016.225-.023.491-.046.984-.059,1.477-.039.245.01.489.032.733.054.4.036-.212-.04-.088-.014.126.027.255.041.382.066.475.092.931.229,1.386.39.358.127-.205-.102-.102-.044.086.048.181.085.269.131.202.104.389.225.579.347.334.213-.273-.26-.072-.059.085.085.181.16.266.247.072.074.133.162.208.232.122.115-.179-.231-.179-.23.006.055.094.134.121.183.048.088.094.183.147.268.139.227-.137-.476-.055-.11.025.11.047.245.089.348.065.158-.036-.306-.036-.304-.007.059.015.128.016.188.002.114.006.227.001.341-.003.067-.015.135-.015.201.001.219.098-.436.028-.22-.088.27-.141.556-.23.829-.098.3.181-.355-.025.054-.073.145-.144.29-.223.431-.111.199-.232.391-.358.58.002-.003-.192.259-.084.121.091-.117-.248.282-.243.276-.694.783-.829,2.068,0,2.828.759.697,2.087.836,2.828,0Z" class="g"/><path d="M248.44,133.192c.139,3.545-.288,6.999-.885,10.485-.561,3.278-1.116,6.584-.998,9.922.15,4.271,1.36,8.551,2.206,12.73,1.094,5.404,2.164,10.814,3.21,16.227.546,2.826,1.086,5.653,1.612,8.482.426,2.292,1.093,4.694,1.215,7.024.181,3.45-3.08,5.466-5.748,6.917-3.202,1.742-6.618,3.14-10.034,4.398-7.478,2.753-15.542,4.958-23.524,5.464-7.497.476-15.116-1.031-21.839-4.397-1.706-.854-3.382-1.808-4.949-2.897-1.449-1.007-1.905-2.054-1.955-3.797-.124-4.373-.128-8.754-.17-13.129-.172-17.715-.117-35.431.164-53.144.034-2.162.072-4.324.113-6.486.049-2.575-3.951-2.575-4,0-.349,18.461-.457,36.926-.315,55.389.035,4.574.085,9.148.151,13.722.03,2.083-.161,4.35.375,6.384.512,1.941,1.871,3.283,3.462,4.406,6.434,4.538,14.309,7.121,22.108,7.845,8.286.77,16.763-.988,24.692-3.285,4.132-1.197,8.173-2.673,12.125-4.37,3.241-1.391,6.512-2.858,9.293-5.063,3.121-2.475,4.481-5.799,3.831-9.734-.414-2.507-.893-5.006-1.361-7.504-1.108-5.916-2.263-11.824-3.438-17.728-.826-4.151-1.641-8.307-2.536-12.444-.673-3.111-.852-6.189-.518-9.357.357-3.389,1.142-6.719,1.508-10.109.214-1.98.281-3.964.203-5.954-.1-2.566-4.101-2.578-4,0h0Z" class="g"/><path d="M194.659,99.229c-3.851,1.902-7.706,3.794-11.552,5.705-3.014,1.498-4.599,4.191-5.238,7.405-1.677,8.432-3.142,16.904-4.602,25.376-2.913,16.91-5.825,33.82-8.738,50.73-.398,2.313-.852,4.625-1.184,6.949-.293,2.049-.119,4.184,1.53,5.637,1.519,1.338,3.689,1.766,5.599,2.243,2.299.575,4.628,1.013,6.975,1.337,1.069.148,2.148-.259,2.46-1.397.257-.934-.32-2.311-1.397-2.46-1.878-.259-3.744-.588-5.593-1.007-1.601-.363-3.61-.618-5.04-1.462-1.2-.708-.577-2.488-.385-3.604.354-2.052.707-4.105,1.061-6.157,1.372-7.963,2.743-15.927,4.115-23.89,2.705-15.703,5.259-31.442,8.249-47.093.596-3.119.62-7.225,3.762-8.933,3.908-2.124,8.008-3.955,11.996-5.925,2.308-1.14.284-4.591-2.019-3.454h0Z" class="g"/><path d="M207.786,80.334c-.123-2.847,3.294-3.992,5.529-2.817,2.139,1.125,2.914,3.882,1.907,6.068-.671,1.456-1.916,2.363-1.996,4.104-.061,1.319.489,2.762.886,4.009.712,2.24,1.592,4.427,2.271,6.677.742,2.458,4.604,1.411,3.857-1.063-.626-2.074-1.427-4.096-2.102-6.155-.16-.488-.317-.977-.459-1.47-.147-.507-.514-1.29-.457-1.798.047-.42.517-.905.779-1.246.454-.591.785-1.212,1.057-1.906,1.001-2.549.695-5.731-.809-8.028-1.689-2.579-4.92-4.063-7.974-3.605-3.614.542-6.653,3.449-6.489,7.23.111,2.564,4.112,2.578,4,0h0Z" class="g"/><path d="M219.223,95.441c-1.152.386-2.33.687-3.526.9-.467.083-.964.524-1.195.919-.251.429-.357,1.061-.202,1.541.157.484.457.951.919,1.195l.478.202c.354.095.709.095,1.063,0,1.196-.213,2.374-.514,3.526-.9.494-.166.927-.461,1.195-.919.251-.429.357-1.061.202-1.541-.157-.484-.457-.951-.919-1.195s-1.03-.373-1.541-.202h0Z" class="g"/><path d="M210.016,90.363c2.086,1.87,3.617,3.735,4.992,5.838.506.774.829,1.733.64,2.638-.899,2.921-3.335,3.402-5.927,2.203-.683,2.533-3.401,3.664-5.753,4.183-.146.035-.31.081-.383.212-.226,1.511-1.22,2.477-2.477,3.092-3.665,1.793-7.936-.501-8.827-4.483-.704-3.146-.07-5.821,2.208-8.143,1.119-1.005,2.171-2.889,3.068-4.098,2.359-2.673,6.299-4.763,9.591-3.249,1.011.511,2.026,1.052,2.87,1.808Z" class="e"/><path d="M208.602,91.777c1.025.931,1.996,1.913,2.884,2.976.733.878,1.736,1.968,2.117,3.057.237.677-.18,1.472-.827,1.755-.531.233-1.448.011-2.046-.252-1.194-.524-2.522-.146-2.938,1.195-.924,2.982-5.339,1.764-6.169,4.565-.696,2.346-3.807,2.552-5.587,1.279-2.08-1.488-2.544-4.69-1.584-6.955.601-1.416,1.839-2.385,2.749-3.587.88-1.162,1.553-2.471,2.626-3.47,1.163-1.083,2.672-2.026,4.272-2.254,1.657-.237,3.272.645,4.503,1.691,1.951,1.658,4.793-1.158,2.828-2.828-3.012-2.56-6.602-3.675-10.363-2.101-1.666.697-3.181,1.747-4.45,3.033-1.226,1.241-1.923,2.886-3.1,4.162-1.263,1.37-2.338,2.669-2.979,4.449-.616,1.711-.62,3.564-.33,5.338.538,3.29,2.865,6.132,6.129,7.024,3.682,1.007,8.396-.85,9.176-4.888l-.514.883.165-.142-.883.514c3.197-1.025,6.272-2.11,7.369-5.65l-2.938,1.195c1.625.713,3.38,1.18,5.139.645,1.735-.527,3.078-2.003,3.615-3.717.716-2.286-.481-4.261-1.797-6.041-1.264-1.709-2.664-3.277-4.238-4.706-1.902-1.727-4.739,1.093-2.828,2.828Z" class="g"/><path d="M258.623,196.202c.895,2.128,2.975,2.473,4.947,1.518,1.042-.505,1.994-1.295,2.95-1.945,1.091-.742,2.181-1.483,3.272-2.225,1.909-1.298,4.293-2.485,5.866-4.197,1.762-1.916,1.313-4.217.8-6.532-2.304-10.39-4.608-20.779-6.912-31.169-2.28-10.283-4.513-20.577-6.845-30.848-1.947-8.576-4.682-17.571-11.903-23.206-3.47-2.708-7.4-4.149-11.796-4.259-2.095-.053-4.19-.144-6.285-.216-2.575-.088-2.571,3.912,0,4,4.21.144,8.813-.247,12.662,1.718,7.067,3.608,10.372,11.09,12.332,18.382,2.389,8.885,4.097,17.989,6.088,26.97,2.07,9.334,4.14,18.669,6.21,28.003.576,2.597,1.152,5.195,1.728,7.792.288,1.299.576,2.597.864,3.896.186.837.713,2.026.106,2.764-.655.796-1.844,1.347-2.684,1.918-1.091.742-2.181,1.483-3.272,2.225s-2.181,1.483-3.272,2.225c-.509.346-1.006.759-1.55,1.046-.717.379-.337-.118.133.422l.514.883-.096-.229c-.418-.995-1.322-1.71-2.46-1.397-.938.258-1.818,1.458-1.397,2.46h0Z" class="g"/><path d="M23.895,155.066c-.79,6.021-1.566,12.044-2.349,18.066-1.764,13.566-3.529,27.132-5.298,40.697-2.16,16.575-4.324,33.15-6.495,49.723-1.971,15.049-3.947,30.098-5.943,45.144-.397,2.992-.795,5.984-1.194,8.976-.178,1.332-.356,2.664-.534,3.995-.042.314-.084.629-.127.943-.021.154-.041.309-.062.463.072-.538.003-.019-.01.076-.079.587-.158,1.174-.237,1.761-.462,3.428-.923,6.857-1.413,10.282-.066.464-.134.929-.203,1.392-.189,1.26.505,2.532,1.929,2.532,11.852,0,23.704,0,35.556,0,2.574,0,2.578-4,0-4-11.852,0-23.704,0-35.556,0l1.929,2.532c1.201-8.024,2.211-16.08,3.281-24.122,1.931-14.513,3.838-29.03,5.742-43.547,2.192-16.716,4.376-33.433,6.556-50.15,1.85-14.189,3.698-28.379,5.543-42.569.938-7.213,1.873-14.426,2.813-21.639.024-.185.048-.37.072-.556.141-1.073-1.02-2-2-2-1.198,0-1.859.924-2,2h0Z" class="g"/><path d="M149.848,337.117c-2.936-27.253-29.578-312.975-30.205-319.625-5.568.003-76.895.006-101.468.006,2.52,25.598,28.152,299.69,29.975,319.619,1.117,0,83.947,0,101.698,0" class="e"/><path d="M151.848,337.117c-.533-4.953-1.007-9.913-1.491-14.872-.868-8.883-1.72-17.767-2.569-26.651-1.129-11.809-2.251-23.619-3.37-35.429-1.301-13.735-2.598-27.471-3.893-41.207-1.382-14.661-2.761-29.322-4.138-43.984-1.37-14.586-2.739-29.173-4.106-43.76-1.266-13.512-2.532-27.023-3.796-40.535-1.07-11.436-2.14-22.873-3.209-34.31-.781-8.361-1.563-16.722-2.344-25.083-.4-4.285-.8-8.571-1.201-12.856-.029-.313-.059-.626-.088-.939-.101-1.076-.834-2.001-2-2-9.99.004-19.98.003-29.971.003-16.586.001-33.173.002-49.759.003-7.246,0-14.492,0-21.738,0-1.003,0-2.106.92-2,2,.463,4.703.906,9.408,1.353,14.113.811,8.538,1.617,17.077,2.422,25.616,1.072,11.37,2.142,22.74,3.21,34.11,1.25,13.296,2.498,26.591,3.745,39.887,1.34,14.289,2.68,28.578,4.018,42.867,1.349,14.405,2.698,28.811,4.046,43.217,1.261,13.473,2.521,26.945,3.78,40.418,1.09,11.665,2.18,23.33,3.269,34.995.833,8.925,1.666,17.849,2.497,26.774.489,5.252.979,10.504,1.463,15.756.057.622.115,1.244.172,1.867.099,1.077.836,2,2,2,9.993,0,19.987,0,29.98,0,17.38,0,34.76,0,52.14,0,6.526,0,13.052,0,19.578,0,2.574,0,2.578-4,0-4-13.953,0-27.906,0-41.86,0-16.272,0-32.545,0-48.817,0-3.674,0-7.347,0-11.021,0l2,2c-.385-4.206-.778-8.411-1.169-12.616-.758-8.146-1.517-16.293-2.278-24.439-1.034-11.087-2.07-22.174-3.106-33.261-1.226-13.121-2.453-26.241-3.68-39.362-1.33-14.222-2.661-28.444-3.993-42.665-1.353-14.447-2.707-28.893-4.061-43.34-1.277-13.622-2.555-27.243-3.835-40.865-1.12-11.922-2.241-23.844-3.364-35.765-.875-9.289-1.751-18.579-2.631-27.868-.542-5.725-1.084-11.45-1.638-17.173-.073-.755-.146-1.51-.221-2.265l-2,2c14.516,0,29.032,0,43.548-.001,15.316,0,30.631-.002,45.947-.003,3.991,0,7.982,0,11.973-.002l-2-2c.296,3.142.588,6.284.881,9.427.697,7.461,1.394,14.923,2.091,22.384,1.007,10.78,2.015,21.56,3.024,32.341,1.225,13.099,2.451,26.198,3.679,39.296,1.351,14.417,2.703,28.834,4.056,43.251,1.383,14.735,2.768,29.471,4.156,44.206,1.323,14.053,2.649,28.106,3.978,42.159,1.17,12.371,2.343,24.742,3.523,37.112.924,9.688,1.85,19.376,2.79,29.063.582,6.006,1.162,12.012,1.779,18.014.081.791.164,1.582.249,2.373.273,2.533,4.276,2.56,4,0h0Z" class="g"/></g></g></svg>