<svg id="b" xmlns="http://www.w3.org/2000/svg" width="431.871" height="324.427" viewBox="0 0 431.871 324.427" style="color: initial !important;"><defs><style>.d{fill:#3f88c9;}.e{fill:#bdbdbd;}.f{fill:#ffffff;}.g{fill:#211715;}.h{fill:#645d5c;}</style></defs><g id="c"><path class="f" d="M72.324,2.615C40.217,5.036,14.07,27.666,5.771,58.879c-12.166,45.752,8.671,82.255,53.893,94.28,14.449,3.842,27.802,4.374,39.716,1.912,6.669,5.054,11.395,8.441,20.247,14.33.185-10,.259-14.333.165-22.33,15.831-9.638,27.46-26.351,33.475-48.973,10.579-39.784-10.818-81.351-54.27-92.905-9.164-2.437-18.129-3.223-26.673-2.579Z"/><path class="f" d="M112.927,69.328c1.006-.908,2.497-1.347,3.892-1.139s2.664,1.049,3.302,2.195c.451.804.597,1.719.68,2.612.305,3.52-.388,7.107-1.984,10.314-.777,1.563-1.79,3.059-3.198,4.197-1.082.863-2.406,1.503-3.813,1.719,0,0-.238.037-.653.102-.313,1.171-.664,2.157-.837,2.68-1.106,3.003-7.28,13.37-15.064,17.203.1,1.748.31,3.477.62,5.205.38,2.18.26,4.14,3.29,5.23.21.07,8.82,4.17,9.12,4.3,0,0-2.441,16.539-27.997,16.539s-28.353-16.073-28.353-16.073c.585-.199,10.188-4.691,10.389-4.764,3.036-1.096,2.916-3.048,3.299-5.232.291-1.664.499-3.159.599-4.839-3.618-1.626-6.936-4.308-9.896-7.851-3.36-4.021-5.242-8.5-6.339-12.428-1.849.055-3.636-.685-5.023-1.792-1.408-1.139-2.421-2.634-3.198-4.197-1.596-3.207-2.289-6.794-1.984-10.314.083-.893.229-1.808.68-2.612.638-1.146,1.908-1.987,3.302-2.195s2.886.231,3.892,1.139c0,0-.844-29.561,31.744-28.989,33.778.593,33.531,28.989,33.531,28.989Z"/><path class="f" d="M71.893,121.012c-3.792-2.224-6.798-4.753-8.409-6.919-2.625,2.413-3.254,4.217-5.195,7.831,3.584,10.691,7.594,22.6,11.43,33.407,7.302,1.204,14.279,1.518,20.883.986,4.088-11.365,8.7-24.071,11.602-35.591-1.482-2.846-2.244-4.502-4.562-6.632-2.388,3.21-7.84,7.219-14.375,9.848-.552.222-1.177.544-1.27.718-.156.291.148.547.291.776.115.184.462.517,1.025,1.077-2.053.003-3.579.008-5.51.012.569-.568.918-.903,1.034-1.088.143-.229.447-.485.291-.776-.094-.175-.718-.496-1.27-.718-2.126-.855-4.138-1.857-5.966-2.929Z"/><path class="h" d="M117.76,44.175c-2.166-5.753-6.246-12.554-11.838-15.222l-6.282-4.751c-2.355-2.27-6.667-4.516-10.207-5.487-3.946-1.083-7.389-1.284-11.481-1.284-11.557,0-44.385,11.698-35.605,51.198.446-.214.922-.366,1.414-.439,1.394-.208,2.886.231,3.892,1.139l3.165-2.421c4.031-1.17,6.428-4.45,8.366-8.28,1.401-2.768,2.235-6.002,4.632-7.972,1.805-1.483,4.213-1.986,6.537-2.224,3.265-.336,7.625-.342,11.061.155l15.247.396c4.924,1.235,8.03,4.304,10.59,8.196,1.589,2.416,3.113,5.694,3.801,9.549l1.874,2.601c1.006-.908,2.497-1.347,3.892-1.139.399.06.787.171,1.154.326,2.205-6.2,2.996-15.383.011-23.73-.072-.202-.147-.406-.225-.612Z"/><path class="d" d="M74.439,131.95c-.097-.48-.198-.991-.31-1.569.511-.532,1.016-1.067,1.503-1.601.909-.998,1.637-1.729,2.171-2.258,1.931-.002,3.457-.006,5.51-.013.536.531,1.268,1.265,2.184,2.271.626.687,1.283,1.375,1.944,2.058-.277,1.223-.573,2.453-1.036,3.874-.37,1.13-.74,2.29-.77,3.48-.01.52,1.26,8.97,2.66,18.27-4.794.246-9.781.049-14.94-.602,1.14-8.949,2.32-17.578,2.32-17.878,0-.67-.16-1.33-.32-1.97-.08-.3-.15-.58-.22-.88-.273-1.181-.475-2.104-.694-3.183Z"/><path class="g" d="M63.816,109.68c-.104,1.53-.234,2.487-.485,3.958-.144.84-.219,1.703-.451,2.524-.028.097-.063.193-.09.291-.095.342-.044-.152.073-.153-.016,0-.253.45-.26.466-.109.258.328-.268.088-.11-.06.04-.116.128-.168.18-.082.081-.168.155-.255.23.251-.215.18-.13-.052,0-.095.053-.658.35-.304.186-.253.118-.588.233-.821.336-.088.039-.175.079-.262.118-2.406,1.094-4.796,2.225-7.197,3.329-.62.285-1.241.57-1.863.851-.222.1-.444.198-.666.297-.494.223.64-.243.194-.083-1.179.422-2.096,1.655-1.676,2.952.376,1.162,1.687,2.129,2.952,1.676,1.019-.364,2.007-.872,2.989-1.323,1.477-.677,2.95-1.361,4.424-2.044,1.088-.505,2.177-1.007,3.266-1.512.074-.034.18-.108.262-.118.044-.005-.869.352-.439.19.208-.078.411-.167.616-.253.356-.15.707-.304,1.034-.51,1.219-.765,2.065-1.817,2.587-3.147.351-.895.441-1.846.596-2.787.304-1.841.583-3.681.71-5.544.086-1.255-1.165-2.455-2.4-2.4-1.374.062-2.308,1.055-2.4,2.4h0Z"/><path class="g" d="M92.852,109.208c.155,2.562.494,5.152.999,7.67.49,2.446,2.259,4.383,4.673,5.084-1.111-.323-.183-.066.168.098.524.245,1.047.492,1.57.739,1.357.641,2.713,1.284,4.069,1.927.912.432,1.817.885,2.74,1.294,1.145.507,2.632.372,3.284-.861.551-1.043.364-2.741-.861-3.284-1.998-.885-3.956-1.871-5.931-2.806-.959-.454-1.916-.913-2.88-1.355-.089-.041-.177-.082-.267-.121-.203-.089-.41-.176-.616-.259-.008-.003-.379-.163-.16-.06.232.109-.263-.146-.307-.172-.085-.049-.167-.115-.255-.159-.284-.142.211.278.043.037-.133-.19-.412-.471-.136-.07-.096-.139-.172-.353-.289-.47-.187-.188.151.189.081.22-.005.002-.116-.329-.128-.367-.277-.9-.354-1.861-.512-2.787-.241-1.416-.389-2.696-.486-4.299-.076-1.251-1.05-2.46-2.4-2.4-1.235.055-2.481,1.058-2.4,2.4h0Z"/><path class="g" d="M114.624,71.026c.973-.814,2.66-.593,3.345.442.485.732.473,1.82.495,2.663.029,1.107-.024,2.226-.223,3.317-.719,3.938-2.691,8.68-7.074,9.466-1.277.229-1.997,1.784-1.676,2.952.37,1.345,1.672,1.906,2.952,1.676,6.929-1.242,10.239-9.052,10.761-15.333.272-3.275-.034-6.953-2.86-9.064-2.799-2.091-6.513-1.688-9.114.487-.995.832-.859,2.535,0,3.394.985.985,2.397.834,3.394,0h0Z"/><path class="g" d="M109.356,85.607c-.068,1.677-.539,3.3-1.06,4.888-.096.292-.209.582-.294.878-.046.161-.239.553.054-.104-.154.346-.313.689-.484,1.028-1.019,2.026-2.261,3.948-3.595,5.779-3.104,4.256-7.348,8.76-12.603,9.993-3.006.705-1.734,5.335,1.276,4.629,6.473-1.519,11.488-6.804,15.295-11.959,3.283-4.445,5.982-9.483,6.211-15.13.125-3.089-4.675-3.083-4.8,0h0Z"/><path class="g" d="M49.35,67.631c-2.605-2.179-6.309-2.573-9.114-.487-2.829,2.104-3.131,5.796-2.86,9.064.522,6.281,3.832,14.091,10.761,15.333,1.274.228,2.587-.346,2.952-1.676.319-1.162-.394-2.722-1.676-2.952-4.382-.786-6.355-5.528-7.074-9.466-.188-1.03-.243-2.082-.226-3.128.014-.862-.007-1.945.419-2.723.628-1.147,2.413-1.416,3.424-.571.994.831,2.42.974,3.394,0,.854-.854.999-2.559,0-3.394h0Z"/><path class="g" d="M46.986,87.129c2.692,12.654,11.926,25.088,25.565,26.552,1.291.139,2.4-1.202,2.4-2.4,0-1.413-1.106-2.261-2.4-2.4-5.463-.586-10.112-3.887-13.691-7.879-3.838-4.281-6.059-9.575-7.245-15.149-.642-3.02-5.271-1.742-4.629,1.276h0Z"/><path class="g" d="M78.194,79.638c-.261.996-.496,2.003-.668,3.019-.118.701-.188,1.247-.015,1.947.198.8.781,1.518,1.521,1.873.604.29,1.239.507,1.922.478.416-.018.813-.12,1.221-.175.312-.074.584-.217.816-.43.261-.169.467-.394.618-.673.301-.514.429-1.273.242-1.849-.188-.581-.548-1.141-1.103-1.434l-.573-.242c-.425-.114-.851-.114-1.276,0-.149.02-.295.056-.444.077l.638-.086c-.133.015-.262.016-.395,0l.638.086c-.147-.023-.284-.065-.421-.123l.573.242c-.086-.04-.17-.081-.25-.132l.486.375c-.04-.032-.071-.062-.103-.102l.375.486c-.028-.041-.049-.08-.069-.126l.242.573c-.023-.065-.038-.128-.048-.196l.086.638c-.015-.146-.007-.29.012-.435l-.086.638c.156-1.062.417-2.116.689-3.154.159-.607.076-1.305-.242-1.849-.291-.498-.862-.973-1.434-1.103-.614-.14-1.304-.11-1.849.242-.522.337-.942.82-1.103,1.434h0Z"/><path class="g" d="M62.905,71.776c-.527,1.711-.183,5.648,3.059,5.983,4.285-.026,4.513-4.785,3.071-7.023-1.181-1.832-4.654-2.594-6.129,1.04Z"/><path class="g" d="M97.221,71.776c.527,1.711.184,5.648-3.059,5.983-4.285-.026-4.513-4.786-3.071-7.023,1.181-1.832,4.654-2.594,6.13,1.04Z"/><path class="g" d="M83.014,101.969c.781-.584,1.6-1.129,2.268-1.847s1.292-1.489,1.868-2.287c1.161-1.607,2.645-4.107,1.404-6.029-.72-1.115-1.873-1.521-3.151-1.524-.616-.002-1.232-.004-1.847-.006-1.429-.005-2.858-.01-4.288-.016-1.441-.005-2.883-.011-4.324-.014-1.255-.003-2.458,1.106-2.4,2.4.058,1.303,1.054,2.397,2.4,2.4,2.922.007,5.844.021,8.767.03.626.002,1.252.004,1.878.006.079,0,.157,0,.236,0-.796-.064-1.305-.451-1.528-1.161l-.011-.818c-.04.124-.084.247-.13.369-.1.253-.095.243.015-.03-.041.09-.083.179-.127.267-.102.207-.211.411-.327.611-.235.407-.502.789-.771,1.175-.317.454.206-.23-.122.158-.175.208-.347.418-.527.622-.302.343-.618.664-.946.981-.353.342.355-.245-.094.078-.224.161-.445.325-.666.49-1.002.749-1.618,2.109-.861,3.284.639.992,2.208,1.665,3.284.861h0Z"/><path class="g" d="M76.123,140.289c3.074-.001,6.147-.068,9.221-.069,1.255,0,2.458-1.104,2.4-2.4s-1.055-2.401-2.4-2.4c-3.074.001-6.147.068-9.221.069-1.255,0-2.458,1.104-2.4,2.4s1.055,2.401,2.4,2.4h0Z"/><path class="g" d="M71.959,131.761c.238,1.197.487,2.391.761,3.58.199.866.574,1.792.55,2.687-.027,1.013-.256,2.057-.388,3.06-.647,4.925-1.301,9.848-1.929,14.775-.164,1.288,1.221,2.4,2.4,2.4,1.433,0,2.235-1.108,2.4-2.4.64-5.02,1.308-10.036,1.966-15.053.121-.923.33-1.882.354-2.814.031-1.252-.394-2.51-.675-3.715-.293-1.26-.559-2.526-.811-3.795s-1.768-2.002-2.952-1.676c-1.326.365-1.93,1.677-1.676,2.952h0Z"/><path class="g" d="M83.136,124.113c-1.823.003-3.646.008-5.468.011-.616.001-1.261.267-1.697.703-.416.416-.73,1.099-.703,1.697.058,1.298,1.055,2.402,2.4,2.4,1.823-.003,3.646-.008,5.468-.011.616-.001,1.261-.267,1.697-.703.416-.416.73-1.099.703-1.697-.058-1.298-1.055-2.402-2.4-2.4h0Z"/><path class="g" d="M90.608,155.825c-.718-4.773-1.444-9.544-2.135-14.321-.103-.71-.204-1.421-.303-2.131-.011-.077-.087-.645-.035-.252.045.341-.003-.02-.011-.089-.021-.18-.053-.36-.066-.541-.132-1.883.935-3.906,1.39-5.711.755-2.996-3.873-4.275-4.629-1.276-.557,2.212-1.694,4.543-1.574,6.864.066,1.282.335,2.578.518,3.848.713,4.965,1.47,9.924,2.216,14.884.193,1.283,1.81,1.99,2.952,1.676,1.373-.377,1.87-1.666,1.676-2.952h0Z"/><path class="f" d="M91.887,135.584c4.398-5.223,7.147-9.69,9.896-15.669-1.228-2.367-2.053-3.902-4.141-5.822-2.388,3.21-7.84,7.219-14.375,9.848-.552.222-1.177.544-1.27.718-.156.291.148.547.291.776.225.36,1.329,1.283,3.207,3.345,2.131,2.339,4.627,4.696,6.391,6.804Z"/><path class="f" d="M69.24,135.584c-4.398-5.223-7.147-9.69-9.896-15.669,1.228-2.367,2.053-3.902,4.141-5.822,2.388,3.21,7.84,7.219,14.375,9.848.552.222,1.177.544,1.27.718.156.291-.148.547-.291.776-.225.36-1.329,1.283-3.207,3.345-2.131,2.339-4.627,4.696-6.391,6.804Z"/><path class="g" d="M93.584,137.282c3.148-3.755,5.975-7.737,8.266-12.074.562-1.063,1.096-2.141,1.609-3.229.359-.762.813-1.509.682-2.382-.104-.69-.496-1.308-.823-1.919-1.054-1.971-2.342-3.75-3.978-5.281-1.233-1.154-2.826-.758-3.769.486.266-.351-.31.362-.365.425-.168.191-.34.378-.516.562-.447.467-.916.912-1.4,1.341-1.048.928-2.168,1.756-3.335,2.528-1.412.933-2.881,1.78-4.391,2.543-1.464.74-3.181,1.23-4.555,2.115-1.919,1.236-1.653,3.325-.323,4.864.644.745,1.398,1.404,2.08,2.114,2.495,2.599,5.096,5.159,7.425,7.909.838.99,2.531.863,3.394,0,.98-.98.84-2.402,0-3.394-1.884-2.224-4.006-4.23-5.987-6.365-.836-.901-1.671-1.799-2.544-2.666-.245-.244-.488-.491-.736-.733-.009-.009-.245-.237-.238-.259l.282.36c-.126-.152-.232-.318-.317-.497l.328,1.211.026-.28-.703,1.697c-.323.338.405-.174.573-.249.545-.242,1.1-.459,1.645-.7.814-.361,1.617-.746,2.408-1.154,1.595-.823,3.143-1.738,4.623-2.754,2.55-1.749,4.898-3.724,6.771-6.195l-3.769.486c1.667,1.56,2.709,3.3,3.766,5.336v-2.423c-2.532,5.481-5.639,10.553-9.521,15.184-.832.993-.973,2.421,0,3.394.855.855,2.557.998,3.394,0Z"/><path class="g" d="M70.937,133.887c-3.882-4.631-6.989-9.703-9.521-15.184v2.423c1.057-2.035,2.099-3.776,3.766-5.336l-3.769-.486c1.873,2.47,4.222,4.446,6.771,6.195,1.48,1.015,3.028,1.931,4.623,2.754.791.408,1.594.793,2.408,1.154.545.242,1.1.459,1.645.7.168.074.896.586.573.249l-.703-1.697.026.28.328-1.211c-.061.136-.138.261-.23.377-.178.241-.113.161.195-.241.007.023-.229.25-.238.259-.221.212-.434.434-.652.65-.901.894-1.765,1.819-2.628,2.749-1.981,2.135-4.104,4.141-5.987,6.365-.837.988-.97,2.424,0,3.394.859.859,2.553.994,3.394,0,2.329-2.75,4.929-5.31,7.425-7.909,1.735-1.807,5.205-4.757,1.757-6.978-1.376-.886-3.088-1.374-4.555-2.115-1.51-.763-2.98-1.61-4.391-2.543-1.167-.771-2.288-1.599-3.335-2.528-.484-.429-.953-.874-1.4-1.341-.176-.184-.348-.371-.516-.562-.055-.063-.632-.776-.365-.425-.943-1.244-2.536-1.64-3.769-.486-1.594,1.492-2.869,3.223-3.904,5.141-.295.547-.689,1.137-.855,1.739-.255.929.178,1.72.559,2.533.537,1.145,1.097,2.279,1.688,3.398,2.292,4.337,5.118,8.319,8.266,12.074.833.994,2.534.86,3.394,0,.984-.984.835-2.398,0-3.394Z"/><path class="g" d="M104.711,31.025c5.569,2.746,9.062,8.958,11.035,14.616,2.41,6.91,2.374,14.647.132,21.596-.951,2.947,3.682,4.209,4.629,1.276,2.521-7.814,2.535-16.783-.265-24.522-2.407-6.652-6.525-13.864-13.108-17.11-1.162-.573-2.597-.313-3.284.861-.619,1.059-.306,2.708.861,3.284h0Z"/><path class="g" d="M101.337,22.505c-6.486-6.082-16.329-8.073-24.966-7.409-4.18.321-8.292,1.431-12.157,3.03-10.821,4.476-19.701,12.76-23.553,23.984-2.9,8.449-2.599,17.618-.82,26.265.622,3.024,5.25,1.744,4.629-1.276-1.467-7.131-1.767-14.544.14-21.505,1.456-5.314,4.19-10.128,7.916-14.019.921-.961,1.894-1.873,2.911-2.731,1.078-.91,1.441-1.185,2.685-2.038,1.967-1.348,4.049-2.527,6.211-3.533.243-.113.486-.224.731-.332.162-.072.807-.346.336-.15.536-.224,1.077-.437,1.621-.64.979-.365,1.971-.695,2.974-.989,1.763-.517,3.557-.912,5.376-1.175-.79.114.006.003.201-.018.201-.022.402-.041.603-.058.398-.034.796-.059,1.195-.071,2.261-.07,4.56.018,6.808.271,4.877.55,10.13,2.378,13.765,5.787,2.252,2.112,5.653-1.276,3.394-3.394h0Z"/><path class="g" d="M96.024,51.297c1.814.471,3.124,1.042,4.727,2.184.083.059.447.336.204.145.193.152.382.312.567.473.309.27.609.551.899.842.321.322.63.655.929.997.137.157.271.315.404.476-.009-.011.452.568.248.304,2.471,3.208,4.003,6.686,4.737,10.648.236,1.275,1.779,1.999,2.952,1.676,1.339-.368,1.913-1.673,1.676-2.952-1.576-8.506-7.342-17.157-16.068-19.421-1.254-.325-2.605.414-2.952,1.676-.341,1.239.417,2.625,1.676,2.952h0Z"/><path class="g" d="M92.604,48.263c-1.21-4.53-5.441-7.544-9.751-8.797-1.205-.35-2.667.425-2.952,1.676-.292,1.284.386,2.577,1.676,2.952.583.17,1.153.371,1.714.604l-.573-.242c.657.28,1.295.598,1.902.974.288.178.565.371.84.568s-.147-.142-.185-.146c.051.006.155.124.196.157.145.119.287.241.425.367.244.221.478.453.701.696.11.12.217.242.322.367.323.387-.299-.414-.003-.01.385.527.709,1.092.967,1.692l-.242-.573c.133.324.245.652.335.99.324,1.213,1.725,2.073,2.952,1.676,1.245-.403,2.023-1.653,1.676-2.952h0Z"/><path class="g" d="M82.052,46.272c-3.631-.5-7.301-.617-10.956-.31-3.737.314-7.629,1.128-10.131,4.174-3.776,4.597-4.295,12.449-10.786,14.457-2.942.91-1.687,5.545,1.276,4.629,3.151-.974,5.59-2.972,7.525-5.602,1.909-2.594,2.935-5.562,4.385-8.4.645-1.263,1.409-2.469,2.669-3.189,1.356-.774,2.963-1.066,4.501-1.217,3.368-.331,6.881-.376,10.24.087,1.282.177,2.577-.311,2.952-1.676.308-1.121-.384-2.774-1.676-2.952h0Z"/><path class="g" d="M41.683,87.761c-.01,5.897-.62,12.078.805,17.865,1.211,4.919,5.531,7.766,9.895,9.725,1.182.53,2.58.341,3.284-.861.6-1.026.327-2.75-.861-3.284-1.705-.765-3.458-1.595-4.929-2.765-1.648-1.311-2.503-2.775-2.924-4.818-1.061-5.15-.479-10.643-.47-15.862.005-3.089-4.795-3.093-4.8,0h0Z"/><path class="g" d="M56.796,108.801c1.968,1.542,2.329,4.058.87,5.811-1.117,1.342-3.041,1.978-4.898,1.921-1.969-.064-4.601-1.985-4.91-4.187-.3-2.135,2.257-3.964,4.614-4.473,1.231-.266,2.81-.258,4.324.928Z"/><path class="f" d="M43.543,63.764c-4.403.78-6.23,6.736-5.872,11.81.339,4.804,1.614,9.938,5.801,12.364,1.654.749,4.154,1.124,5.61-.449,1.456-1.573,1.78-3.924,1.907-6.116.223-3.849.062-7.726-.482-11.548-.305-2.144-.741-3.718-2.348-5.073-1.409-1.188-3.367-1.21-4.615-.989Z"/><path class="g" d="M42.905,61.449c-4.813.987-6.955,6.026-7.511,10.416-.575,4.547.205,9.978,2.629,13.927,1.274,2.075,3.155,3.953,5.504,4.731,2.415.799,5.23.608,7.132-1.221,1.971-1.896,2.493-4.773,2.692-7.378.237-3.103.17-6.242-.12-9.338-.276-2.949-.488-6.14-2.423-8.533-1.981-2.451-4.912-3.074-7.904-2.604-1.281.202-1.992,1.804-1.676,2.952.375,1.366,1.667,1.879,2.952,1.676.956-.15,2.365.149,3.13,1.283.952,1.41.966,3.583,1.121,5.225.217,2.305.294,4.624.234,6.938-.046,1.768-.002,3.799-.765,5.441-1.412,3.043-4.853-.058-5.902-1.879-1.594-2.769-2.089-6.374-1.956-9.53.069-1.644.384-3.372,1.115-4.854.723-1.465,1.568-2.327,3.022-2.625,1.27-.261,2.003-1.762,1.676-2.952-.363-1.32-1.678-1.938-2.952-1.676Z"/><path class="e" d="M95.381,155.776c-1.57.231-3.163.411-4.78.541,4.222-11.735,9.002-24.9,11.889-36.715.605.453,5.97,4.445,5.97,4.445,1.746.845,8.061,3.487,12.236,5.201,4.609,2.075,8.533,3.919,13.006,6.379-4.173,4.521-8.825,8.348-13.911,11.444.095,7.996.021,12.33-.165,22.33-8.852-5.889-13.578-9.277-20.247-14.33-1.315.272-2.648.507-3.998.705Z"/><path class="e" d="M31.138,133.08c-1.842.906-3.691,1.858-5.559,2.884,8.976,7.69,20.417,13.56,34.085,17.195,3.415.908,6.769,1.631,10.057,2.174-4.109-11.574-8.417-24.411-12.189-35.662-.025.021-.052.041-.052.041l-6.082,4.582c-1.99.892-7.672,3.157-12.046,4.955-2.75,1.238-5.474,2.484-8.213,3.832Z"/><path class="g" d="M72.324.215c-17.361,1.351-33.839,8.488-46.56,20.413C12.891,32.695,4.95,48.743,1.696,65.97c-2.975,15.755-2.282,32.202,4.046,47.075,5.935,13.947,16.687,25.262,29.728,32.839,7.345,4.268,15.355,7.407,23.555,9.588,10.845,2.884,22.254,4.257,33.451,3.07,2.53-.268,5.048-.651,7.541-1.158l-1.849-.242c6.598,4.997,13.358,9.744,20.247,14.33,1.564,1.041,3.579-.346,3.611-2.072.138-7.444.251-14.884.165-22.33l-1.189,2.072c11.797-7.225,20.922-18.034,27.074-30.35,6.344-12.7,10.301-26.938,10.261-41.19-.036-12.684-3.174-25.313-9.178-36.491-6.064-11.292-15.054-20.888-25.807-27.841C110.262,4.807,94.49.179,78.922.005c-2.202-.025-4.402.051-6.598.21-1.293.094-2.4,1.036-2.4,2.4,0,1.226,1.1,2.494,2.4,2.4,16.78-1.215,33.979,3.079,48.178,12.126,11.324,7.215,20.423,17.551,26.174,29.681,5.688,11.996,7.79,25.511,6.48,38.691-.747,7.511-2.749,14.887-5.368,21.95-2.701,7.282-6.313,14.252-10.892,20.535-4.066,5.579-9.036,10.614-14.674,14.607-.684.485-1.379.956-2.082,1.412-.983.639-2.325,1.189-2.662,2.416-.245.893-.07,1.981-.063,2.9.008.981.014,1.963.017,2.944.009,3.482-.029,6.964-.086,10.445-.036,2.226-.077,4.452-.119,6.678l3.611-2.072c-4.366-2.906-8.707-5.852-12.959-8.922-1.934-1.397-3.851-2.817-5.757-4.252-.455-.343-.896-.73-1.375-1.038-.811-.522-1.514-.441-2.403-.279-1.343.245-2.681.502-4.035.687-11.48,1.57-23.223.227-34.359-2.774-15.958-4.3-31.021-12.49-41.458-25.544-9.696-12.128-14.022-27.633-13.726-43.092.339-17.702,5.742-35.818,16.791-49.819S48.367,8.818,65.904,5.799c2.128-.366,4.267-.617,6.42-.785,1.292-.101,2.4-1.031,2.4-2.4,0-1.221-1.101-2.501-2.4-2.4Z"/><path class="g" d="M92.915,156.957c4.353-12.098,8.816-24.216,11.89-36.717l-3.526,1.434c1.555,1.164,3.116,2.321,4.675,3.481,1.491,1.109,3.04,1.761,4.759,2.497,7.057,3.022,14.118,5.916,20.888,9.562,2.72,1.464,5.146-2.678,2.423-4.145-6.77-3.645-13.833-6.539-20.888-9.562-1.676-.718-3.218-1.35-4.674-2.434-1.587-1.181-3.176-2.359-4.76-3.545-1.242-.929-3.187.057-3.526,1.434-3.073,12.501-7.537,24.619-11.89,36.717-.439,1.22.495,2.628,1.676,2.952,1.332.366,2.512-.452,2.952-1.676h0Z"/><path class="g" d="M72.037,154.702c-4.201-11.843-8.196-23.757-12.191-35.67-.619-1.847-2.575-2.183-4.011-1.059.87-.681.264-.206.054-.048-.323.242-.645.486-.968.729l-2.67,2.012c-.636.479-1.261,1.034-1.935,1.458-.829.521-1.41.65-2.333,1.031-7.698,3.175-15.363,6.308-22.715,10.249-2.724,1.46-.302,5.605,2.423,4.145,7.271-3.897,14.848-6.961,22.448-10.129.885-.369,1.869-.67,2.67-1.203.71-.472,1.375-1.036,2.056-1.549,1.456-1.097,2.928-2.176,4.364-3.299l-4.011-1.059c3.994,11.913,7.99,23.827,12.191,35.67.433,1.221,1.638,2.037,2.952,1.676,1.182-.325,2.112-1.725,1.676-2.952h0Z"/><path class="f" d="M321.889,273.796c-26.082.085-55.701.17-74.89.233,2.325,13.417,4.802,27.653,7.514,43.184,0,0,.297,1.405.655,3.099,8.939-4.948,38.989-22.419,54.129-31.711,0,0,7.485-4.893,13.429-8.835-.125-1.308-.401-3.418-.838-5.969Z"/><path class="h" d="M342.93,145.638c10.482-3.887,10.655-10.483,10.738-14.321.134-5.055-.556-8.977-2.064-13.911-1.856-6.152-5.258-18.642-4.825-40.728h.004c.788-6.376.494-15.635.351-19.195-.497-12.34-5.717-26.284-13.628-34.211-.074-.074-.162-.154-.251-.233l-6.464-5.032c-.151-.111-.301-.215-.466-.322-3.229-2.095-6.86-4.028-10.046-5.08-6.459-2.488-13.284-4.129-22.81-4.177-16.336-.082-28.716,6.849-35.311,12.669-13.039,11.506-19.882,27.318-17.872,53.465,2.811,19.631-4.438,40.995-2.973,57.181.426,4.856,2.846,10.697,9.569,15.317l96.048-1.421Z"/><path class="f" d="M338.331,98.075c.438-.503.856-1.026,1.253-1.568,2.254-3.076,3.917-6.704,4.063-10.515.146-3.811-1.407-7.798-4.518-10.003-3.111-2.206-7.802-2.199-10.53.466l-6.684-3.597c-7.39-1.379-20.092-14.401-23.752-24.994-12.896,10.05-27.248,18.225-42.465,24.204-3.774,1.483-7.535,2.877-11.264,4.466.057,2.03.172,3.93.544,7.15.433,3.744,1.092,9.188,3.235,15.562,1.187,3.529,3.181,9.301,7.836,15.532,2.062,2.761,5.017,6.642,10.241,10.046.851.554,5.044,3.236,11.273,4.891,4.398,1.169,8.044,1.357,10.036,1.379,2.423.027,7.068-.14,12.499-1.83,8.405-2.615,13.724-7.332,16.967-10.27,2.973-2.694,7.135-7.073,10.777-13.49,4.01-1.716,7.656-4.171,10.489-7.428Z"/><path class="f" d="M335.065,134.937c-4-2.33-11.07-7.8-12-9.68-1.618-3.266-2.587-5.179-3.531-8.649-.881.908-1.713,1.701-2.469,2.386-3.243,2.939-8.562,7.656-16.967,10.27-5.431,1.69-10.076,1.856-12.499,1.83-1.992-.022-5.638-.21-10.036-1.379-.157-.042-.313-.084-.463-.122-.523.49-1.102.901-1.765,1.194-5.34,2.36-8.83,3.52-12.79,5.23,0,0,.796,6.024,5.184,8.656,5.185,3.111,9.419,4.196,9.419,4.196,2.573.765,5.126,1.24,7.416,1.453,9.738.909,18.864.214,27.574-1.578,0,0,9.368-2.294,16.257-7.182,2.639-1.873,5.644-5.446,6.668-6.625Z"/><path class="g" d="M317.267,117.422c.74,2.634,1.8,5.13,3.002,7.583.468.955.88,1.805,1.561,2.624.489.588,1.039,1.121,1.602,1.638,3.158,2.904,6.72,5.569,10.421,7.741,2.67,1.567,5.088-2.58,2.423-4.145-3.492-2.05-6.409-4.228-9.299-6.853-.549-.498-1.074-1.016-1.573-1.564-.047-.053-.093-.106-.138-.161-.161-.198-.114-.136.14.187-.051-.012-.162-.228-.181-.268-.22-.449-.453-.894-.674-1.343-1.129-2.293-1.951-4.206-2.656-6.716-.834-2.969-5.467-1.708-4.629,1.276h0Z"/><path class="g" d="M263.757,138.089c.129-.056.259-.111.388-.166.618-.265-.258.104.1-.042.255-.104.509-.211.763-.315.57-.233,1.141-.461,1.713-.687,1.152-.456,2.307-.903,3.459-1.36,1.379-.547,2.75-1.11,4.116-1.688,1.589-.672,3.058-1.283,4.376-2.427.951-.826.909-2.559,0-3.394-1.014-.93-2.38-.881-3.394,0-.072.063-.289.239-.088.089-.13.098-.27.187-.409.272-.335.203-.69.359-1.048.516-.336.147-.673.294-1.01.438-.203.087-.406.174-.61.26.223-.094-.075.031-.138.057-1.223.51-2.453,1.005-3.686,1.491-2.327.917-4.657,1.822-6.955,2.811-1.158.498-1.504,2.286-.861,3.284.775,1.202,2.045,1.394,3.284.861h0Z"/><path class="g" d="M328.003,15.935c-5.898-4.209-13.191-6.892-20.24-8.421-7.867-1.706-16.132-1.976-24.079-.7-12.322,1.979-23.813,8.1-32.108,17.44-8.152,9.178-12.35,20.612-13.597,32.724-.373,3.624-.489,7.271-.419,10.912.079,4.069.632,8.069.861,12.123.46,8.17-.464,16.341-1.516,24.431-.987,7.589-2.222,15.224-2.188,22.898.014,3.105.177,6.295,1.149,9.266,1.058,3.233,2.853,6.156,5.181,8.63,1.384,1.472,2.972,2.738,4.625,3.894,1.063.743,2.667.194,3.284-.861.7-1.197.204-2.539-.861-3.284-2.73-1.907-5.057-4.334-6.605-7.297-1.219-2.333-1.721-4.812-1.871-7.207-.446-7.117.537-14.271,1.463-21.311,1.023-7.778,2.131-15.572,2.249-23.43.06-3.995-.392-7.878-.693-11.846-.283-3.739-.37-7.501-.242-11.248.395-11.5,3.252-22.788,10.196-32.107,6.527-8.759,15.962-14.957,26.631-17.861,13.439-3.658,29.088-2.09,41.446,4.455,1.678.889,3.365,1.84,4.913,2.944,1.056.753,2.671.186,3.284-.861.705-1.205.197-2.529-.861-3.284h0Z"/><path class="g" d="M343.568,147.952c5.084-1.927,9.686-5.006,11.581-10.314,1.529-4.285,1.093-9.597.417-13.96-.654-4.224-2.142-8.254-3.156-12.397-1.007-4.114-1.757-8.313-2.254-12.498-.871-7.332-1.112-14.727-.976-22.105l-1.762,2.314h.004c1.112-.386,1.628-1.193,1.762-2.316.828-6.921.781-14.164.236-21.113-.643-8.206-2.955-16.331-6.781-23.623-2.002-3.815-4.514-7.648-7.686-10.599-2.26-2.102-5.662,1.285-3.394,3.394,5.309,4.938,8.659,12.16,10.744,18.987,2.032,6.651,2.531,13.346,2.597,20.255.041,4.232-.013,8.491-.516,12.698l1.762-2.314h-.004c-1.024.355-1.742,1.208-1.762,2.316-.206,11.192.449,22.492,2.84,33.453.684,3.136,1.597,6.192,2.473,9.276.895,3.153,1.492,6.334,1.578,9.616.029,1.088.014,2.178-.029,3.266-.012.293-.026.586-.048.878-.014.184-.032.368-.048.553-.059.69.035-.102-.038.319-.343,1.955-.832,3.346-1.913,4.701-1.755,2.199-4.311,3.602-6.902,4.584-1.211.459-2.043,1.619-1.676,2.952.319,1.161,1.734,2.138,2.952,1.676h0Z"/><path class="g" d="M330.296,78.152c2.088-1.937,5.548-1.712,7.718-.018,2.602,2.032,3.542,5.637,3.166,8.801-.924,7.773-7.764,13.533-14.502,16.473-1.188.518-1.461,2.259-.861,3.284.717,1.226,2.091,1.382,3.284.861,7.083-3.091,13.156-8.616,15.848-15.983,2.541-6.955.471-16.03-7.014-18.877-3.74-1.423-8.097-.659-11.033,2.064-2.27,2.105,1.131,5.494,3.394,3.394h0Z"/><path class="g" d="M326.584,104.328c-3.62,1.855-7.346,3.559-11.21,4.842-4.063,1.349-8.259,2.204-12.428,3.142-3.012.678-1.737,5.307,1.276,4.629,4.294-.966,8.619-1.842,12.793-3.265,4.119-1.404,8.121-3.22,11.992-5.203,2.75-1.409.324-5.552-2.423-4.145h0Z"/><path class="g" d="M297.762,111.874c-1.941,1.892-2.037,4.645-.261,6.364,1.361,1.316,3.508,1.777,5.502,1.5,2.114-.298,4.727-2.675,4.805-5.085.075-2.336-2.894-4.01-5.494-4.283-1.358-.143-3.059.049-4.552,1.504Z"/><path class="g" d="M328.061,97.915c-.582,3.337-1.805,6.967-2.893,10.392-.257.807.49,1.889,1.234,2.293,1.418.769,2.348.932,4.148,1.111.862.086,2.059-.169,2.444-.944,1.63-3.278,2.78-8.552,3.188-11.811l-8.121-1.041Z"/><path class="g" d="M323.843,110.601c2.79-2.19,5.073-5.119,6.519-8.358.272-.608.426-1.181.242-1.849-.153-.557-.584-1.16-1.103-1.434-.557-.294-1.232-.442-1.849-.242-.557.18-1.185.545-1.434,1.103-.334.748-.709,1.477-1.128,2.181-.221.37-.453.734-.697,1.089-.11.16-.221.319-.336.475-.063.087-.128.173-.192.26-.24.329.282-.354.1-.127-1.041,1.3-2.205,2.478-3.516,3.507-.45.353-.703,1.155-.703,1.697,0,.589.261,1.292.703,1.697.457.42,1.058.732,1.697.703.678-.03,1.168-.288,1.697-.703h0Z"/><path class="f" d="M338.969,86.215c1.338,2.21,1.769,4.745,1.586,7.202-.183,2.458-.722,4.691-2.158,6.445-1.89,2.385-5.044,2.52-6.627,1.9-1.23-.481-2.17-1.379-2.919-2.331-2.309-2.937-2.875-6.691-1.983-10.095.569-2.17,1.823-4.343,4.095-5.463,2.272-1.12,6.491-.665,8.006,2.341"/><path class="g" d="M336.897,87.427c1.63,2.782,1.67,6.234.6,9.241-.428,1.202-1.161,2.103-2.235,2.681-.423.228-.168.067-.067.032-.143.05-.287.098-.432.139-.179.05-.36.083-.54.126-.37.089.368-.021-.001.004-.307.021-.609.035-.917.019-.128-.007-.255-.018-.382-.032.291.032.316.065.022-.023-.131-.039-.262-.072-.393-.112.117.037.428.234-.08-.041-.162-.088-.32-.176-.476-.275-.401-.256-.259-.179-.169-.108-.611-.484-1.059-1.024-1.431-1.586-.863-1.303-1.397-2.811-1.498-4.203-.12-1.638.056-2.862.629-4.393.146-.391-.123.249.055-.133.09-.194.186-.385.29-.573.166-.3.347-.598.553-.872-.069.091-.204.23.113-.122.117-.13.237-.257.362-.379.356-.345.372-.358.786-.604.142-.085.353-.163.488-.266-.355.27-.161.057.091-.024.304-.098.618-.168.934-.216-.109.016-.48.018-.038.022.207.002.412-.017.619-.013.14.003.279.017.419.021.623.02-.406-.127.203.03.348.089.688.17,1.03.287-.435-.149.363.201.485.268.101.055.472.339.125.058.14.113.264.243.395.365.084.079.357.45.113.102.13.185.24.381.346.58.611,1.143,2.195,1.498,3.284.861,1.156-.676,1.474-2.137.861-3.284-1.845-3.452-6.413-4.876-10.052-3.71-4.441,1.423-6.642,6.061-6.901,10.43-.26,4.409,1.852,9.766,5.96,11.881,3.91,2.012,8.586.36,10.917-3.211,1.414-2.165,1.902-4.879,2.014-7.42.122-2.777-.532-5.57-1.939-7.971-1.561-2.664-5.711-.251-4.145,2.423h0Z"/><path class="g" d="M295.808,48.387c2.235,6.437,6.409,12.186,11.086,17.075,2.241,2.343,4.686,4.508,7.345,6.367,2.105,1.471,4.493,2.836,7.037,3.343,1.27.253,2.592-.363,2.952-1.676.325-1.182-.399-2.697-1.676-2.952-2.217-.442-3.897-1.466-5.891-2.859-2.321-1.622-4.42-3.572-6.374-5.616-4.082-4.27-7.896-9.326-9.851-14.957-.425-1.224-1.644-2.036-2.952-1.676-1.189.327-2.103,1.722-1.676,2.952h0Z"/><path class="g" d="M296.497,46.143c-12.158,9.453-25.703,17.269-39.986,23.032-4.418,1.783-8.89,3.422-13.278,5.282-1.194.506-1.456,2.267-.861,3.284.723,1.236,2.085,1.369,3.284.861,7.558-3.203,15.294-5.895,22.705-9.453,7.107-3.412,13.977-7.317,20.545-11.676,3.766-2.5,7.417-5.161,10.985-7.935,1.024-.796.836-2.558,0-3.394-1.011-1.011-2.367-.798-3.394,0h0Z"/><path class="e" d="M390.001,246.353c-1.286-22.968-8.842-60.746-13.172-77.466-1.082-4.178-2.159-8.392-4.693-11.886-4.296-5.926-7.943-8.873-13.389-11.787-6.981-3.735-18.035-8.686-26.589-12.895-.348-.49-.714-.981-1.1-1.471-1.885-2.395-4.226-4.757-7.017-6.774-3.081,5.875-6.56,14.462-10.354,21.805-5.729,11.086-16.932,44.57-19.834,52.903-1.572,4.515-2.765,9.038-4.476,14.136-.61-1.177-1.044-2.017-1.044-2.017-2.273-5.856-5.445-15.415-6.899-21.776-2.177-9.525-3.674-17.826-4.324-27.106-.757-10.801-.627-21.661-.127-32.463-1.327-.374-2.557-.791-3.671-1.217-11.49,9.52-30.61,11.79-38.919,25.609-1.97,3.28-3.04,7.02-4.08,10.7-.76,2.7-6.75,26.25-7.51,28.95l-5.776,21.26-.388,1.427c6.531.208,11.941.377,15.641.488,2.854.086,5.245,2.171,5.725,4.986,1.599,9.363,3.226,18.852,4.919,28.681,6.006-9.107,9.838-18.257,14.312-27.02,1.802,3.652,3.885,7.175,5.589,10.873,1.065,2.312,1.861,4.666,2.554,7.111.13.46.285.911.457,1.357.888,2.301.969,5.891,2.08,9.891h47.727c4.928,9.638,7.065,25.452,7.162,28.16,5.037-.074,28.501-.444,36.095-1.217,5.991-.61,12.136-.744,17.751-2.921,5.615-2.177,10.741-6.477,12.354-12.279,1.132-4.072,1.667-12.437,1.042-16.617"/><path class="f" d="M299.456,150.499c-4.813.336-9.767.302-14.891-.177-2.456-.229-5.215-.759-7.976-1.624.048,4.445.209,8.887.52,13.32.65,9.28,2.147,17.581,4.324,27.106,1.454,6.361,4.627,15.921,6.899,21.776l1.015,2.097c1.728-5.13,2.925-9.677,4.505-14.216,2.686-7.716,12.49-36.992,18.477-50.077-4.189.87-8.473,1.487-12.875,1.795Z"/><path class="f" d="M315.164,252.476c-3.344.088-5.568.99-9.54.012-5.64-1.38-8.393-3.889-14.073-5.119-4.45-.96-9.01.88-13.08,2.95-5.01,2.55-9.82,5.5-14.37,8.82-1.14.83-5.52,4.18-6.53,5.18-.72.71-1.78,1.79-2.23,2.72-.37.75-.9,2.84-.06,4.08,1.13,1.66,3.07,2,4.54,1.69,0,0,.576-.121,1.152-.243-.443.562-.886,1.124-.886,1.124-.855,1.085-1.173,1.886-1.229,3.097-.005.111-.005.226,0,.343.038.823.335,1.747.862,2.33.716.792,2.16,1.088,3.219.948,1.145-.151,2.156-.575,3.209-1.063,0,0,.616-.286,1.652-.768-.642,1.011-1.051,2.011-1.066,2.803-.039,2.016,1.233,3.637,3.219,3.985,2.081.365,3.57-.617,5.355-1.747,5.492-3.477,10.793-7.485,16.304-10.909-3.324,4.246-4.601,7.663-7.606,12.269-.624.957-.92,3.411.345,4.484,1.924,1.633,4.285-.103,4.997-.675,4.124-3.311,7.421-6.357,10.649-9.971,3.677,1.583,7.984,1.581,11.676.05,4.153-1.722,7.761-3.958,9.188-4.558,0,0,.273-.082.693-.207.127-.034.244-.088.365-.133-1.062-6.25-3.115-15.233-6.374-21.509-.128.007-.251.003-.381.015Z"/><path class="g" d="M339.959,203.346c3.551,13.043,6.791,26.169,9.72,39.366.669,3.014,5.298,1.739,4.629-1.276-2.928-13.197-6.169-26.323-9.72-39.366-.81-2.977-5.442-1.713-4.629,1.276h0Z"/><path class="g" d="M322.194,245.137c12.944,1.159,26.105-.249,39.037-.963,3.072-.17,3.092-4.971,0-4.8-12.932.714-26.093,2.122-39.037.963-1.293-.116-2.4,1.186-2.4,2.4,0,1.394,1.104,2.284,2.4,2.4h0Z"/><path class="g" d="M248.405,187.673c.531,1.998.519,4.144.685,6.197.187,2.311.318,4.627.476,6.94.312,4.576.719,9.185,1.785,13.656,1.073,4.503,3.004,8.698,5.151,12.779,2.079,3.952,4.313,7.829,5.73,12.082.724,2.172,1.535,4.393,1.953,6.647.455,2.448.767,4.905,1.415,7.315.801,2.98,5.433,1.716,4.629-1.276-.581-2.163-.91-4.363-1.284-6.567-.328-1.935-.959-3.719-1.518-5.593-1.325-4.445-3.327-8.549-5.503-12.629-2.114-3.962-4.245-7.916-5.481-12.257-1.228-4.315-1.693-8.772-2.013-13.232-.188-2.621-.329-5.246-.541-7.866-.2-2.481-.215-5.058-.856-7.473-.792-2.983-5.424-1.718-4.629,1.276h0Z"/><path class="g" d="M254.955,222.619c-4.008,7.915-7.597,16.039-12.21,23.635-1.608,2.647,2.542,5.062,4.145,2.423,4.612-7.596,8.202-15.72,12.21-23.635,1.392-2.75-2.747-5.182-4.145-2.423h0Z"/><path class="g" d="M259.182,270.495c-.307.055-1.049.029-1.492-.274-.667-.455-.483-1.209-.28-1.899.147-.5.059-.191.003-.072.1-.213.231-.428.366-.62.291-.414.671-.785,1.023-1.148.492-.506,1.013-.969,1.556-1.42,3.009-2.495,6.161-4.81,9.461-6.964,4.53-2.958,9.449-6.078,14.624-7.759,2.615-.85,5.095-1.062,7.763-.343,2.274.613,4.375,1.598,6.519,2.549,2.682,1.189,5.424,2.249,8.35,2.633,2.706.355,5.311-.194,8.008-.301,3.078-.123,3.094-4.923,0-4.8-2.557.102-5.132.736-7.691.332-2.777-.438-5.371-1.616-7.912-2.76-2.612-1.177-5.303-2.315-8.155-2.746-3.205-.484-6.416.111-9.422,1.256-6.08,2.317-11.835,5.873-17.156,9.581-3.194,2.226-6.618,4.549-9.34,7.347-2.076,2.135-3.689,5.016-2.723,8.092,1.034,3.292,4.665,4.501,7.773,3.943,1.277-.229,1.997-1.785,1.676-2.952-.37-1.345-1.672-1.906-2.952-1.676h0Z"/><path class="g" d="M276.252,258.21c-4.448,2.673-8.669,5.788-12.731,9.011-3.502,2.778-8.323,6.483-6.787,11.627.6,2.008,2.17,3.452,4.238,3.839,2.282.427,4.338-.33,6.388-1.27,1.178-.54,1.469-2.244.861-3.284-.708-1.21-2.101-1.403-3.284-.861-.586.269-1.172.501-1.8.659-.495.124-.815.151-1.162.072-.106-.024-.608-.228-.445-.146.135.068-.087-.096-.13-.183-.146-.3-.191-.668-.123-1.182-.029.219.093-.338.121-.418-.057.161.213-.397.296-.527.133-.208.412-.806.652-.935-.142.076-.395.459-.102.147.103-.11.201-.226.305-.336.23-.244.47-.478.714-.709,3.109-2.945,6.203-5.13,9.721-7.604,1.859-1.307,3.742-2.586,5.69-3.757,2.645-1.589.234-5.741-2.423-4.145h0Z"/><path class="g" d="M284.098,263.171c-3.626,2.281-7.115,4.761-10.605,7.241-3.18,2.261-6.636,4.372-8.362,8.042-1.639,3.486-.396,7.64,3.402,9.006,4.079,1.468,7.849-1.628,11.032-3.756,4.172-2.79,8.238-5.737,12.474-8.43,2.599-1.653.194-5.809-2.423-4.145-3.98,2.53-7.81,5.283-11.717,7.922-1.857,1.254-3.789,2.82-5.858,3.704-.916.391-2.258.447-2.733-.442-.535-1.001.213-2.115.994-3.158,1.295-1.728,3.141-2.841,4.873-4.071,3.739-2.653,7.464-5.325,11.347-7.768,2.608-1.641.202-5.796-2.423-4.145h0Z"/><path class="g" d="M288.83,272.441c-1.737,2.378-3.138,4.949-4.589,7.505-1.366,2.406-3.384,4.692-3.151,7.631.134,1.683.834,3.172,2.265,4.126,1.368.912,3.148,1.051,4.689.529,1.243-.422,2.235-1.128,3.245-1.942,1.241-1,2.463-2.025,3.658-3.08,2.547-2.25,4.949-4.652,7.196-7.201.857-.972.957-2.437,0-3.394-.874-.874-2.533-.976-3.394,0-1.712,1.942-3.51,3.804-5.401,5.572-.981.917-1.985,1.809-3.007,2.682-.493.421-.991.838-1.492,1.25-.277.228-.555.455-.834.68-.111.089-.238.229-.364.293.152-.077.475-.338.129-.104-.328.222-.657.425-1.007.612-.357.191.203-.006-.21.07-.142.026-.279.079-.422.103.335-.056.086.043-.019-.028.024.016.528.193-.032-.007-.013-.005-.34-.15-.158-.054.274.144-.152-.28.115.146-.148-.236-.131-.451-.087-.115-.003-.021-.089-.279-.076-.284-.036-.177-.034-.127.007.148l-.014-.2c.004-.199.004-.399.008-.598.008-.453.014-.031-.01.062.023-.089.033-.182.06-.27.026-.082.054-.172.072-.257.085-.397-.013.039-.065.122.162-.261.319-.525.485-.785.709-1.114,1.378-2.253,2.028-3.403,1.425-2.517,2.811-5.044,4.521-7.385.765-1.047.177-2.676-.861-3.284-1.216-.711-2.517-.189-3.284.861h0Z"/><path class="g" d="M300.776,281.654c4.253,1.267,8.575.81,12.61-.926,2.98-1.282,5.719-3.059,8.686-4.346,1.189-.516,1.46-2.26.861-3.284-.718-1.228-2.09-1.379-3.284-.861-2.636,1.143-5.08,2.721-7.7,3.911-3.199,1.453-6.497,1.891-9.897.878-2.967-.884-4.234,3.747-1.276,4.629h0Z"/><path class="g" d="M387.732,248.414c-.045-.319.032.328.04.419.032.344.056.688.076,1.033.044.765.061,1.531.063,2.296.003,1.628-.066,3.257-.191,4.88-.208,2.705-.459,5.622-1.513,8.153-2.629,6.313-9.487,9.527-15.814,10.725-3.816.723-7.716.907-11.576,1.282-1.968.191-3.944.301-5.918.399-5.377.267-10.76.414-16.142.543-4.65.111-9.301.199-13.952.267l2.4,2.4c-.141-3.459-.833-6.964-1.495-10.352-1.02-5.221-2.332-10.448-4.353-15.38-1.076-2.628-2.292-5.221-4.035-7.48-.791-1.024-2.063-1.575-3.284-.861-1.008.59-1.658,2.251-.861,3.284,3.83,4.962,5.566,11.424,6.984,17.437.678,2.874,1.243,5.776,1.696,8.694.091.582.176,1.166.257,1.75-.085-.617.026.209.04.322.029.228.056.457.082.685.072.631.142,1.265.168,1.9.052,1.282,1.057,2.42,2.4,2.4,9.943-.147,19.895-.313,29.828-.797,6.258-.305,12.655-.689,18.816-1.825,7.265-1.339,14.633-5.095,18.315-11.784,1.807-3.283,2.316-6.993,2.663-10.672.345-3.653.449-7.355-.066-10.995-.182-1.285-1.817-1.988-2.952-1.676-1.381.38-1.859,1.664-1.676,2.952h0Z"/><path class="f" d="M105.849,217.665c4.819,28.211,9.905,57.618,16.392,94.853.321,1.843,1.836,3.251,3.699,3.417,22.379,1.992,98.063,5.27,124.379,6.121,2.618.085,4.646-2.262,4.195-4.842-6.477-37.083-11.624-66.851-16.509-95.454-.481-2.815-2.871-4.9-5.725-4.986-21.583-.653-101.349-3.247-122.244-3.921-2.606-.084-4.626,2.242-4.187,4.812Z"/><path class="g" d="M103.534,218.303c3.285,19.232,6.6,38.459,9.932,57.682,1.922,11.089,3.849,22.176,5.78,33.263.459,2.633.576,5.504,2.696,7.412,1.505,1.355,3.296,1.618,5.228,1.781,2.22.187,4.443.35,6.666.504,13.505.939,27.029,1.62,40.549,2.287,15.661.773,31.326,1.476,46.993,2.124,6.517.27,13.034.529,19.553.77,2.59.096,5.18.189,7.77.275,1.745.058,3.426.091,5.003-.811,2.003-1.145,3.303-3.403,3.273-5.712-.018-1.407-.42-2.86-.661-4.243-.267-1.53-.534-3.06-.801-4.59-.508-2.911-1.015-5.821-1.522-8.732-.945-5.424-1.889-10.849-2.831-16.274-1.773-10.209-3.54-20.418-5.301-30.629-1.648-9.558-3.289-19.116-4.924-28.676-.377-2.205-.53-4.56-1.77-6.487s-3.295-3.352-5.573-3.73c-2.162-.358-4.468-.24-6.656-.308-12.425-.386-24.849-.786-37.274-1.185-15.085-.484-30.17-.972-45.255-1.46-11.116-.36-22.232-.72-33.348-1.079-1.683-.054-3.316.066-4.756,1.055-1.975,1.356-3.164,3.718-2.855,6.124.165,1.285.985,2.4,2.4,2.4,1.169,0,2.566-1.105,2.4-2.4-.193-1.501.51-2.436,2.052-2.403.857.018,1.715.055,2.572.083,2.171.07,4.341.14,6.512.211,5.743.186,11.487.372,17.23.558,14.321.464,28.643.927,42.964,1.388,13.292.428,26.584.855,39.876,1.274,2.402.076,4.805.151,7.207.226,1.908.059,3.89-.03,5.788.183,1.461.164,2.654,1.144,3.09,2.553.661,2.137.816,4.551,1.193,6.755.771,4.506,1.544,9.012,2.318,13.518,3.439,20.02,6.908,40.034,10.394,60.046.48,2.756.961,5.511,1.441,8.267.239,1.368.477,2.736.716,4.104.199,1.138.766,2.63.566,3.78-.23,1.325-1.418,1.464-2.554,1.426-1.115-.037-2.23-.075-3.345-.113-5.753-.2-11.506-.422-17.258-.652-14.835-.593-29.669-1.242-44.499-1.945-14.172-.671-28.344-1.375-42.506-2.245-4.894-.301-9.789-.614-14.675-1.023-1.005-.084-2.086-.053-2.6-1.105-.519-1.062-.527-2.691-.729-3.849-.252-1.447-.504-2.894-.756-4.341-.955-5.489-1.91-10.978-2.863-16.467-3.352-19.296-6.689-38.594-10-57.898-.741-4.323-1.481-8.646-2.22-12.969-.218-1.279-1.792-1.995-2.952-1.676-1.353.372-1.895,1.67-1.676,2.952Z"/><path class="g" d="M308.087,286.528c-15.77,9.674-31.776,18.987-47.842,28.16-2.55,1.456-5.097,2.923-7.683,4.313-2.722,1.463-.301,5.608,2.423,4.145,5.802-3.118,11.481-6.478,17.18-9.778,8.631-4.999,17.238-10.041,25.81-15.141,4.192-2.495,8.377-5.003,12.535-7.554,2.629-1.613.22-5.766-2.423-4.145h0Z"/><path class="g" d="M55.331,276.23c5.563-.002,11.127-.018,16.69-.027,8.795-.014,17.59-.029,26.385-.043,2.234-.004,4.468-.009,6.703-.01,3.089,0,3.094-4.801,0-4.8-5.751,0-11.502.017-17.253.027-8.743.014-17.486.029-26.229.043-2.099.003-4.198.009-6.297.01-3.089,0-3.094,4.801,0,4.8h0Z"/><path class="g" d="M396.063,276.23c9.598-.005,19.196-.047,28.793-.07,1.565-.004,3.131-.01,4.696-.01,3.089,0,3.094-4.801,0-4.8-9.733.002-19.467.046-29.2.07-1.43.003-2.86.009-4.29.01-3.089.001-3.094,4.801,0,4.8h0Z"/><path class="g" d="M325.295,131.518c8.691,4.635,17.753,8.547,26.59,12.89,3.987,1.959,8.175,3.884,11.634,6.714,3.784,3.096,7.321,7.184,9.047,11.802,1.497,4.005,2.402,8.269,3.386,12.426.923,3.9,1.787,7.815,2.614,11.736,2.001,9.484,3.793,19.015,5.348,28.582,1.651,10.162,3.101,20.398,3.687,30.684.175,3.071,4.976,3.091,4.8,0-.539-9.45-1.814-18.862-3.263-28.21-1.521-9.814-3.314-19.587-5.314-29.314-1.674-8.137-3.347-16.353-5.691-24.329-.815-2.774-1.841-5.572-3.435-8.002-1.499-2.284-3.288-4.46-5.202-6.409-3.316-3.377-7.301-5.816-11.482-7.967-9.988-5.138-20.382-9.462-30.294-14.749-2.725-1.453-5.152,2.689-2.423,4.145h0Z"/><path class="g" d="M276.511,151.183c5.912,1.719,12.168,2.037,18.296,1.922,6.037-.113,12.057-.843,17.971-2.047,1.271-.259,2.003-1.764,1.676-2.952-.363-1.322-1.678-1.936-2.952-1.676-5.504,1.12-11.077,1.769-16.695,1.875-5.721.108-11.499-.145-17.02-1.75-2.972-.864-4.241,3.767-1.276,4.629h0Z"/><path class="e" d="M276.906,131.305c-.435,10.227-.512,20.496.204,30.714.65,9.28,2.147,17.581,4.324,27.106,1.454,6.361,4.627,15.921,6.899,21.776,0,0,.429.934.996,2.161-.494,1.465-1.031,2.978-1.632,4.552-.323,2.471-.058,4.157.305,7.514l-9.834-19.266c-7.067-14.538-13.217-30.611-19.411-48.057-.146-.411-.068-.876.22-1.204,1.54-1.757,3.6-3.772,5.518-5.473-.107-2.321.186-4.514.186-4.514.076-2.31.516-4.608,1.3-6.783,0,0,3.084-6.603,6.75-8.27s4.176-.257,4.176-.257Z"/><path class="g" d="M264.986,147.579c-1.467,1.183-2.876,2.438-4.238,3.741-1.339,1.28-3.111,2.707-4.021,4.339-1.158,2.078.397,4.707,1.112,6.698.788,2.192,1.583,4.381,2.388,6.567,3.1,8.417,6.352,16.779,9.888,25.024,1.895,4.419,3.882,8.799,5.981,13.125.566,1.166,2.227,1.479,3.284.861,1.191-.696,1.429-2.113.861-3.284-7.171-14.783-12.993-30.174-18.512-45.636-.052-.145-.534-1.834-.658-1.847.362.04-.69.998-.028.717.188-.08.526-.574.65-.707.698-.743,1.417-1.466,2.15-2.175,1.454-1.407,2.963-2.759,4.538-4.029,1.01-.814.848-2.546,0-3.394-.998-.998-2.382-.816-3.394,0h0Z"/><path class="g" d="M269.083,149.276c.042-1.741-.397-3.504-.672-5.216-.035-.216-.069-.433-.101-.65-.016-.108-.031-.215-.046-.323-.043-.302.074.605.027.19-.046-.41-.092-.819-.114-1.231-.021-.388-.027-.777.002-1.165.005-.065.04-.194.024-.251.017.06-.127.685-.034.307.039-.158.073-.313.126-.468.407-1.189-.466-2.677-1.676-2.952-1.333-.304-2.517.403-2.952,1.676-.618,1.806-.224,3.926.056,5.752.134.873.292,1.741.427,2.613.033.213.123,1.02.024.124.02.182.045.364.063.547.034.348.055.696.047,1.045-.03,1.256,1.125,2.457,2.4,2.4,1.326-.059,2.368-1.054,2.4-2.4h0Z"/><path class="e" d="M288.002,225.128c-.363-3.358-.629-5.043-.305-7.514,2.719-7.115,4.119-12.979,6.157-18.832,2.902-8.333,14.105-41.817,19.834-52.903,3.795-7.343,7.273-15.93,10.354-21.805,2.791,2.018,5.131,4.379,7.017,6.774,3.911,4.968,5.864,10.078,5.816,12.559-.008.398-8.946,3.962-11.717,5.219,2.584,1.867,7.123,5.954,9.719,8.571,1.044,1.052,1.24,2.738.332,3.91-5.854,7.551-23.41,33.927-33.662,46.68l-13.546,17.341Z"/><path class="g" d="M322.831,126.146c3.296,2.417,6.133,5.514,8.315,8.964.95,1.502,1.831,3.082,2.467,4.745.26.681.489,1.377.663,2.086.083.337.163.681.206,1.026-.036-.25-.041-.237-.014.038-.001.347.027.276.086-.213l.617-1.059c.41-.498.335-.237-.098-.005-.369.198-.755.369-1.136.544-1.111.509-2.237.987-3.362,1.464-2.116.898-4.444,1.834-6.626,2.818-1.812.817-1.288,3.203,0,4.145,2.081,1.521,4.036,3.299,5.946,5.053.965.886,1.919,1.785,2.85,2.706.855.846.73.996.11,1.808-2.089,2.736-4.063,5.561-6.045,8.375-5.903,8.384-11.718,16.83-17.719,25.145-3.025,4.192-6.066,8.351-9.238,12.305-.81,1.01-.987,2.407,0,3.394.839.839,2.579,1.016,3.394,0,6.697-8.347,12.816-17.162,18.956-25.92,2.975-4.244,5.933-8.499,8.917-12.735,1.183-1.679,2.37-3.356,3.573-5.02.448-.62.898-1.238,1.353-1.852.216-.292.433-.582.651-.872.1-.133.201-.265.301-.397.159-.207.129-.168-.091.116.21-.251.403-.513.579-.789.971-1.667.891-3.812-.086-5.456-.844-1.419-2.357-2.574-3.554-3.686-2.389-2.218-4.842-4.394-7.476-6.319v4.145c2.549-1.149,4.971-2.105,7.683-3.269,2.076-.891,5.267-1.662,5.214-4.425-.072-3.74-2.242-7.656-4.219-10.696-2.619-4.027-5.926-7.471-9.794-10.308-1.046-.767-2.677-.176-3.284.861-.712,1.217-.187,2.515.861,3.284h0Z"/><path class="g" d="M321.97,122.862c-2.073,3.975-3.872,8.088-5.735,12.163-1.72,3.762-3.593,7.442-5.377,11.171-2.613,5.462-4.768,11.155-6.898,16.818-4.278,11.374-8.182,22.88-12.154,34.363-1.462,4.227-2.686,8.527-4.049,12.785-.439,1.37-.894,2.734-1.373,4.09s-1.032,2.61-1.164,4.048c-.208,2.281.135,4.563.382,6.828.141,1.288,1.002,2.4,2.4,2.4,1.188,0,2.542-1.103,2.4-2.4-.217-1.992-.52-4.001-.436-6.01.042-1.017.378-1.735.726-2.695.472-1.303.922-2.615,1.353-3.932,1.38-4.214,2.551-8.495,3.991-12.69,1.561-4.546,3.121-9.092,4.698-13.633,2.244-6.465,4.525-12.919,6.904-19.336,2.119-5.717,4.284-11.479,6.691-16.769,1.685-3.703,3.601-7.296,5.305-10.992,2.125-4.61,4.132-9.284,6.48-13.787,1.427-2.736-2.714-5.166-4.145-2.423h0Z"/><path class="g" d="M274.506,131.305c-.491,11.691-.603,23.474.583,35.129,1.049,10.3,3.011,20.641,5.98,30.564,1.467,4.904,3.104,9.767,4.95,14.541.467,1.208,1.613,2.044,2.952,1.676,1.154-.317,2.146-1.737,1.676-2.952-3.306-8.551-5.991-17.324-7.897-26.291-2.308-10.857-3.498-21.749-3.723-32.845-.134-6.608.001-13.219.278-19.822.13-3.089-4.671-3.083-4.8,0h0Z"/><path class="g" d="M271.615,126.641c-7.495,6.149-17.222,8.883-25.57,13.61-4.271,2.418-8.36,5.384-11.44,9.246-3.486,4.373-5.249,9.526-6.703,14.863-2.912,10.685-5.475,21.463-8.378,32.151-1.604,5.903-3.208,11.807-4.811,17.71-.811,2.985,3.818,4.258,4.629,1.276,2.493-9.176,5.044-18.337,7.422-27.544,1.79-6.931,3.547-13.871,5.364-20.795,1.076-4.101,2.142-8.334,4.338-11.998,2.357-3.932,5.864-6.972,9.709-9.396,9.291-5.857,20.258-8.692,28.835-15.728,1.003-.823.853-2.541,0-3.394-.992-.992-2.389-.825-3.394,0h0Z"/><path class="g" d="M242.052,77.117c.319,8.738,1.818,17.538,4.891,25.734,3.117,8.314,8.219,16.447,15.278,21.978,13.866,10.865,34.229,11.404,48.921,1.879,7.72-5.004,14.238-12.069,18.793-20.032,1.536-2.686-2.609-5.106-4.145-2.423-3.703,6.474-8.729,12.188-14.708,16.663-6.727,5.034-14.852,7.826-23.27,7.778-7.071-.04-14.286-2.051-20.242-5.9-6.904-4.461-12.048-11.762-15.219-19.247-3.524-8.316-5.17-17.431-5.498-26.431-.112-3.08-4.913-3.094-4.8,0h0Z"/><path class="g" d="M279.038,93.047c-.343.814-.61,1.67-.86,2.517-.42,1.424-.924,3.214.269,4.419.211.213.582.485.879.637.323.165.676.329,1.036.404.519.107.967.097,1.479.102.612.006,1.266-.272,1.697-.703.416-.416.73-1.099.703-1.697-.028-.621-.232-1.264-.703-1.697s-1.045-.697-1.697-.703c-.262-.003-.519.029-.78-.006l.638.086c-.133-.023-.258-.058-.384-.107l.573.242c-.187-.082-.353-.186-.515-.308l.486.375c-.007-.005-.013-.011-.018-.018l.375.486c-.009-.012-.015-.024-.021-.038l.242.573c-.011-.03-.017-.059-.022-.091l.086.638c-.014-.126,0-.252.015-.377l-.086.638c.104-.765.349-1.518.583-2.251.198-.619.4-1.244.652-1.844.224-.531.034-1.378-.242-1.849-.291-.498-.862-.973-1.434-1.103-.614-.14-1.304-.11-1.849.242l-.486.375c-.297.299-.503.652-.617,1.059h0Z"/><path class="g" d="M261.071,82.511c-.679,2.131-.376,7.068,3.507,7.563,5.145.068,5.55-5.887,3.88-8.723-1.367-2.322-5.516-3.357-7.387,1.16Z"/><path class="g" d="M305.227,82.692c.643,2.253.087,7.393-4.163,7.743-5.604-.15-5.774-6.382-3.827-9.27,1.594-2.365,6.157-3.267,7.989,1.527Z"/><path class="g" d="M288.616,119.081c1.616-1.505,2.967-3.171,4.012-5.129,1.175-2.2,2.713-5.767-.096-7.434-1.387-.823-3.3-.412-4.829-.277-1.635.144-3.267.315-4.898.502-1.828.209-3.656.435-5.476.709-1.246.187-2.042,1.821-1.676,2.952.44,1.359,1.617,1.877,2.952,1.676.333-.05.666-.098.999-.144.697-.097-.289.036.169-.023.172-.022.343-.045.515-.067.871-.111,1.742-.216,2.614-.315,1.772-.202,3.547-.387,5.324-.535.706-.059,1.412-.114,2.119-.15.072-.004.301.015.366-.017-.333-.014-.627-.14-.885-.379-.35-.389-.497-.814-.442-1.274-.097.143-.147.554-.2.722-.05.16-.104.318-.162.475-.108.27-.122.313-.04.129-.453,1.093-1.102,2.12-1.779,3.086-.147.209-.293.421-.449.622.236-.304-.213.231-.27.289-.401.416-.842.793-1.264,1.187-.921.858-.932,2.539,0,3.394.986.905,2.412.915,3.394,0h0Z"/></g></svg>