<svg xmlns="http://www.w3.org/2000/svg" width="175" height="143" viewBox="183.00184631347656 -1.0000125169754028 175.00218200683594 143.00179779529572" style=""><defs><style>.a{fill:#ffffff;}.b{fill:#211715;}.c{fill:#3d8dcc;}.d{fill:#aecfea;}</style></defs><path class="a" d="M297.032,259.4a10.479,10.479,0,0,1,2.677-.622l9.441-1.257c-3.467-.6-3.649-3.153-4.264-4.555-.372-2.29-.686-6.492.56-9.49H239.371c1.246,3,.932,7.2.56,9.49-.616,1.4-.8,3.954-4.269,4.555l9.446,1.258c5.712.408,8.542,5.628,11.048,8.843,3.511,5.819,17.029,3.472,23.508,3.921C289.44,271.939,289.9,262.12,297.032,259.4Z"/><path class="b" d="M260.408,260.107h24c3.089,0,3.094-4.8,0-4.8h-24c-3.088,0-3.093,4.8,0,4.8Z"/><path class="b" d="M316,241.078h-87.18c-3.088,0-3.093,4.8,0,4.8H316c3.089,0,3.094-4.8,0-4.8Z"/><path class="b" d="M320.738,253.581l-17.744,2.362c-2.75.366-5.582.524-8.1,1.8-3.8,1.923-5.667,5.555-8.258,8.377a8.249,8.249,0,0,1-4.127,2.76c-1.819.493-4.023.184-6.084.217-4.674.075-9.713.6-14.151-.436a9.99,9.99,0,0,1-2.362-.807c-.21-.118-.418-.236-.622-.363-.026-.016-.61-.478-.262-.181-.174-.149-.335-.309-.493-.474-.281-.294.06.114-.247-.323a51.78,51.78,0,0,0-4.431-5.716,13.387,13.387,0,0,0-7.054-4.191c-.441-.085-.89-.135-1.336-.189.666.08-.042.01-.376-.034l-.221-.03-1.144-.152-19.649-2.616a2.411,2.411,0,0,0-2.4,2.4,2.462,2.462,0,0,0,2.4,2.4l17.743,2.362,3.05.406.221.03c-1.593-.2.743.105,1.105.2a7.832,7.832,0,0,1,2.9,1.5A27.734,27.734,0,0,1,253.6,268.2a11.675,11.675,0,0,0,5.135,4.36c4.481,1.846,9.739,1.556,14.486,1.42,2.151-.062,4.291-.108,6.443-.032a12.94,12.94,0,0,0,6.994-1.646c3.608-2.107,5.29-5.562,7.925-8.316a8.217,8.217,0,0,1,4.352-2.653c.66-.156,1.359-.228,2.153-.333l19.65-2.616a2.48,2.48,0,0,0,2.4-2.4c0-1.164-1.106-2.573-2.4-2.4Z"/><path class="b" d="M226.825,234.945h14.167a2.4,2.4,0,1,0,0-4.8H226.825a2.4,2.4,0,1,0,0,4.8Z"/><path class="b" d="M204.825,234.945h14.167a2.4,2.4,0,1,0,0-4.8H204.825a2.4,2.4,0,1,0,0,4.8Z"/><path class="b" d="M220.508,226.862v14a2.4,2.4,0,0,0,4.8,0v-14a2.4,2.4,0,0,0-4.8,0Z"/><path class="c" d="M222.908,239.983c-6.083,0-9.652.022-11.435.022-6.667,0-6.207,9.142-5.587,12.963.7,1.6.839,4.684,5.906,4.684,1.951,0,5.261.034,11.114.055,5.855-.021,9.168-.055,11.119-.055,5.067,0,5.2-3.087,5.906-4.684.62-3.821,1.08-12.963-5.588-12.963C232.561,240.005,228.992,239.982,222.908,239.983Z"/><path class="b" d="M222.908,237.583c-3.809,0-7.626-.057-11.435.022-3.932.082-6.681,2.627-7.718,6.328-1.483,5.294-1.032,14.613,5.721,15.9a27.744,27.744,0,0,0,5.017.234q3.168.02,6.337.036c4.164.019,8.328-.034,12.493-.046a9.857,9.857,0,0,0,5.733-1.321,7.594,7.594,0,0,0,2.745-3.891,18.54,18.54,0,0,0,.728-8.29c-.454-3.856-2.2-7.956-6.444-8.768a27.9,27.9,0,0,0-5.115-.187q-4.031-.014-8.062-.013c-3.088,0-3.093,4.8,0,4.8,3.538,0,7.075.013,10.613.021.225,0,.449,0,.674,0,.1,0,.892.046.614.006a3.946,3.946,0,0,1,.965.264c-.425-.183.58.409.384.255a3.092,3.092,0,0,1,.7.864c.038.069.416.854.266.489a8.505,8.505,0,0,1,.339,1.046,12.159,12.159,0,0,1,.4,3.63c0,.6-.027,1.2-.071,1.8-.022.293-.052.585-.08.877-.013.137-.032.274-.048.41.066-.557.027-.088,0,.025-.117.418-.252.83-.4,1.245-.069.2-.136.4-.214.593.216-.541-.175.306-.27.46-.019.032-.216.3-.049.086.185-.234-.1.109-.157.15-.36.264.021.128-.445.3-.391.146.268-.092-.164.072a3.7,3.7,0,0,1-.425.126,6.576,6.576,0,0,1-1.51.15c-6.905.1-13.813.038-20.718,0a12.779,12.779,0,0,1-3.5-.293c-.782-.287-.986-.9-1.218-1.566-.145-.411-.29-.825-.413-1.239a2.684,2.684,0,0,1-.053-.364c.012.088.061.52.01.048-.034-.324-.068-.647-.094-.972a23.538,23.538,0,0,1,.011-3.938c0-.048.068-.569.033-.315-.028.194.079-.444.077-.433.071-.368.156-.733.261-1.093.04-.137.344-.959.216-.674a7.089,7.089,0,0,1,.506-.915c.206-.325-.212.232.032-.06.12-.145.253-.276.385-.41.052-.052.346-.281.037-.053a4.516,4.516,0,0,1,.487-.3c.339-.188-.3.1.076-.044a4.428,4.428,0,0,1,.6-.173,2.712,2.712,0,0,1,.794-.057c3.785-.06,7.575-.022,11.36-.022C226,242.383,226,237.583,222.908,237.583Z"/><path class="b" d="M325.825,234.945h14.167a2.4,2.4,0,1,0,0-4.8H325.825a2.4,2.4,0,1,0,0,4.8Z"/><path class="b" d="M303.825,234.945h14.167a2.4,2.4,0,1,0,0-4.8H303.825a2.4,2.4,0,1,0,0,4.8Z"/><path class="b" d="M319.508,226.862v14a2.4,2.4,0,1,0,4.8,0v-14a2.4,2.4,0,1,0-4.8,0Z"/><path class="c" d="M321.908,239.983c-6.083,0-9.652.022-11.435.022-6.667,0-6.207,9.142-5.587,12.963.7,1.6.839,4.684,5.906,4.684,1.951,0,5.261.034,11.114.055,5.855-.021,9.168-.055,11.119-.055,5.067,0,5.205-3.087,5.906-4.684.62-3.821,1.08-12.963-5.588-12.963C331.561,240.005,327.992,239.982,321.908,239.983Z"/><path class="b" d="M321.908,237.583c-3.809,0-7.626-.057-11.435.022-3.932.082-6.681,2.627-7.718,6.328-1.483,5.294-1.032,14.613,5.721,15.9a27.744,27.744,0,0,0,5.017.234q3.168.02,6.337.036c4.164.019,8.328-.034,12.493-.046a9.857,9.857,0,0,0,5.733-1.321,7.594,7.594,0,0,0,2.745-3.891,18.54,18.54,0,0,0,.728-8.29c-.454-3.856-2.2-7.956-6.444-8.768a27.9,27.9,0,0,0-5.115-.187q-4.031-.014-8.062-.013c-3.088,0-3.093,4.8,0,4.8,3.538,0,7.075.013,10.613.021.225,0,.449,0,.674,0,.1,0,.892.046.614.006a3.946,3.946,0,0,1,.965.264c-.425-.183.58.409.384.255a3.092,3.092,0,0,1,.7.864c.038.069.416.854.266.489a8.505,8.505,0,0,1,.339,1.046,12.159,12.159,0,0,1,.4,3.63c0,.6-.027,1.2-.071,1.8-.022.293-.052.585-.08.877-.013.137-.032.274-.048.41.066-.557.027-.088,0,.025-.117.418-.252.83-.4,1.245-.069.2-.136.4-.214.593.216-.541-.175.306-.27.46-.019.032-.216.3-.049.086.185-.234-.1.109-.157.15-.36.264.021.128-.445.3-.391.146.268-.092-.164.072a3.7,3.7,0,0,1-.425.126,6.576,6.576,0,0,1-1.51.15c-6.9.1-13.813.038-20.718,0a12.779,12.779,0,0,1-3.5-.293c-.782-.287-.986-.9-1.218-1.566-.145-.411-.29-.825-.413-1.239a2.684,2.684,0,0,1-.053-.364c.012.088.061.52.01.048-.034-.324-.068-.647-.094-.972a23.538,23.538,0,0,1,.011-3.938c0-.048.068-.569.033-.315-.028.194.079-.444.077-.433.071-.368.156-.733.261-1.093.04-.137.344-.959.216-.674a7.089,7.089,0,0,1,.506-.915c.206-.325-.212.232.032-.06.12-.145.253-.276.385-.41.052-.052.346-.281.037-.053a4.516,4.516,0,0,1,.487-.3c.339-.188-.3.1.076-.044a4.428,4.428,0,0,1,.6-.173,2.712,2.712,0,0,1,.794-.057c3.785-.06,7.575-.022,11.36-.022C325,242.383,325,237.583,321.908,237.583Z"/><path class="b" d="M241.52,267.247a12.561,12.561,0,0,0-11.194,6.623c-1.353,2.632-1.429,5.336-1.429,8.2V291c0,2.395-.177,4.892.554,7.206a12.55,12.55,0,0,0,11.846,8.728c3.089,0,3.094-4.8,0-4.8a7.635,7.635,0,0,1-7.217-5.2,17.9,17.9,0,0,1-.383-5.406v-8.019a30.715,30.715,0,0,1,.094-5.112,7.713,7.713,0,0,1,7.729-6.348c3.088,0,3.093-4.8,0-4.8Z"/><path class="b" d="M303.3,272.047a7.706,7.706,0,0,1,7.333,4.888,15.637,15.637,0,0,1,.49,5.52v8a36.365,36.365,0,0,1-.058,5.146,7.689,7.689,0,0,1-7.542,6.536c-3.089,0-3.094,4.8,0,4.8a12.471,12.471,0,0,0,11.117-6.918c1.248-2.628,1.283-5.277,1.283-8.094v-8.956c0-2.442.167-4.967-.661-7.309a12.607,12.607,0,0,0-11.962-8.412c-3.088,0-3.093,4.8,0,4.8Z"/><path class="d" d="M294.02,282.536H249.575V321.2h45.333V282.536Z"/><path class="b" d="M294.02,280.136H249.575a2.435,2.435,0,0,0-2.4,2.4V321.2a2.435,2.435,0,0,0,2.4,2.4h45.333a2.435,2.435,0,0,0,2.4-2.4V282.536a2.435,2.435,0,0,0-2.4-2.4h-.888c-3.089,0-3.094,4.8,0,4.8h.888l-2.4-2.4V321.2l2.4-2.4H249.575l2.4,2.4V282.536l-2.4,2.4H294.02C297.108,284.936,297.113,280.136,294.02,280.136Z"/><path class="a" d="M279.074,282.536H265.131V299.4h14.222V282.536Z"/><path class="b" d="M279.074,280.136H265.131a2.435,2.435,0,0,0-2.4,2.4V299.4a2.434,2.434,0,0,0,2.4,2.4h14.222a2.435,2.435,0,0,0,2.4-2.4V282.536a2.435,2.435,0,0,0-2.4-2.4h-.279a2.4,2.4,0,0,0,0,4.8h.279l-2.4-2.4V299.4l2.4-2.4H265.131l2.4,2.4V282.536l-2.4,2.4h13.943a2.4,2.4,0,0,0,0-4.8Z"/><path class="a" d="M32.733,296.338v17.437a1.96,1.96,0,0,0,1.96,1.96H84.736a1.959,1.959,0,0,0,1.959-1.96V296.332a26.624,26.624,0,0,0-26.624-26.623h-.708A26.63,26.63,0,0,0,32.733,296.338Z"/><path class="b" d="M30.333,296.338V309.8c0,1.714-.311,3.882.307,5.523.815,2.165,2.832,2.815,4.921,2.815H79.4c3,0,7.549.8,9.2-2.388a8.374,8.374,0,0,0,.487-3.965v-13.7a32.654,32.654,0,0,0-2.267-12.956,29.312,29.312,0,0,0-17.7-16.369,30.382,30.382,0,0,0-23.649,2.089,29.182,29.182,0,0,0-14.419,19.036,30.727,30.727,0,0,0-.724,6.461c-.02,3.089,4.78,3.093,4.8,0A24.523,24.523,0,0,1,44.3,277.344a25.14,25.14,0,0,1,19.288-5,24.476,24.476,0,0,1,17.349,11.668A23.825,23.825,0,0,1,84.2,294.063c.21,2.487.1,5.009.1,7.5v8.224a26.959,26.959,0,0,0,0,3.986c-.164-.058.337-.485.4-.44-.114-.081-.588,0-.722,0H35.748a3.045,3.045,0,0,0-.924,0c-.283.122.491.147.309.366.193-.233,0-1.441,0-1.739V296.338C35.133,293.25,30.333,293.244,30.333,296.338Z"/><rect class="d" x="52.431" y="283.842" width="14.566" height="14.566" rx="7.187"/><path class="b" d="M50.031,291.029a9.7,9.7,0,0,0,16.82,6.694,9.951,9.951,0,0,0,1.363-11.31,9.822,9.822,0,0,0-10.339-4.8,9.659,9.659,0,0,0-7.844,9.416,2.4,2.4,0,0,0,4.8,0c0-.2.015-.406.026-.61.025-.46.007-.049-.011.043a8.926,8.926,0,0,1,.23-.956c.029-.091.265-.692.031-.152.051-.118.106-.234.164-.348a8.292,8.292,0,0,1,.6-.98c-.324.47.034-.029.1-.106.085-.094.172-.187.262-.276.135-.135.28-.258.419-.388.091-.085.355-.229-.036.022.269-.173.526-.356.809-.508.169-.091.342-.177.518-.253-.384.167-.049.033.153-.031a8.966,8.966,0,0,1,.955-.23c-.523.1-.088.014.059,0,.169-.012.338-.017.508-.018a8.578,8.578,0,0,1,1,.045c-.535-.056-.089,0,.049.026.224.047.446.1.664.173.124.039.244.086.368.127-.541-.181.032.017.133.068.286.145.552.316.823.487.366.231.044.025-.027-.033.147.121.291.245.429.376.092.087.182.177.269.269s.566.729.233.246a8.918,8.918,0,0,1,.508.809c.061.113.115.229.173.343.28.547-.11-.453.05.143.084.315.173.63.255.946.029.114.05.459.005-.048.021.236.039.47.044.707,0,.3-.013.6-.024.9-.025.646.122-.47-.025.152-.031.128-.055.257-.087.385-.049.19-.113.373-.168.561-.123.416-.009.057.03-.033a6.96,6.96,0,0,1-.546,1.013c-.053.083-.439.577-.072.132-.081.1-.162.195-.247.289-.214.238-.448.447-.681.664-.445.415.4-.228-.119.088-.109.066-.213.141-.321.208-.164.1-.332.193-.5.279-.122.062-.655.242-.133.068a9.56,9.56,0,0,1-.935.28c-.01,0-.647.124-.267.062s-.267.017-.28.018c-.267.015-.537.017-.8.009-.169,0-.337-.025-.505-.033s-.134-.012.142.021c-.13-.022-.259-.048-.388-.077s-.254-.061-.38-.1c-.11-.031-.894-.327-.34-.087a7.027,7.027,0,0,1-.931-.494c-.135-.085-.265-.176-.4-.267.451.311-.009-.016-.107-.1a7.769,7.769,0,0,1-.785-.827c.367.444-.019-.049-.072-.132-.1-.161-.2-.326-.292-.494-.076-.141-.135-.292-.214-.431q-.108-.238.057.127c-.046-.121-.088-.243-.127-.367s-.075-.25-.107-.376-.157-.954-.093-.337a9.554,9.554,0,0,1-.045-1,2.4,2.4,0,0,0-4.8,0Z"/><path class="b" d="M32.733,328.176H86.7c3.089,0,3.094-4.8,0-4.8H32.733c-3.088,0-3.094,4.8,0,4.8Z"/><path class="b" d="M22.466,252.977l14.071,24.371c1.544,2.675,5.694.26,4.145-2.422L26.611,250.554c-1.544-2.674-5.694-.26-4.145,2.423Z"/><path class="b" d="M39.845,246.164q4.97,8.576,9.915,17.167a2.4,2.4,0,1,0,4.144-2.423q-4.944-8.591-9.915-17.167a2.4,2.4,0,1,0-4.144,2.423Z"/><path class="a" d="M30.865,222.288h.463a17.454,17.454,0,0,1,17.454,17.454v.466a17.454,17.454,0,0,1-17.454,17.454h-.467a17.453,17.453,0,0,1-17.453-17.453v-.465a17.457,17.457,0,0,1,17.457-17.457Z"/><path class="b" d="M11.008,239.742a20.182,20.182,0,0,0,12.73,18.989,20.447,20.447,0,0,0,22.193-5.075A20.614,20.614,0,0,0,48.69,230.1a20.361,20.361,0,0,0-21.227-9.912C18,221.708,11.1,230.293,11.008,239.742c-.03,3.09,4.77,3.092,4.8,0A15.19,15.19,0,0,1,26.113,225.45,15.658,15.658,0,0,1,43.3,230.592a15.789,15.789,0,0,1,.471,18.1A15.494,15.494,0,0,1,27.569,254.9a15.283,15.283,0,0,1-11.761-15.161C15.808,236.654,11.008,236.648,11.008,239.742Z"/><path class="b" d="M71.4,227.862H47c-3.089,0-3.094,4.8,0,4.8H71.4c3.089,0,3.094-4.8,0-4.8Z"/><path class="b" d="M71.4,245.287H54.731a2.4,2.4,0,0,0,0,4.8H71.4a2.4,2.4,0,1,0,0-4.8Z"/><path class="b" d="M93.488,232.659q4.509-3.525,9.207-6.8h-2.423l9.925,7.518a2.414,2.414,0,0,0,3.284-.861,2.459,2.459,0,0,0-.861-3.283l-9.925-7.519a2.321,2.321,0,0,0-2.423,0q-5.192,3.638-10.178,7.552a2.413,2.413,0,0,0,0,3.394,2.461,2.461,0,0,0,3.394,0Z"/><path class="b" d="M90.094,248.609q4.994,3.9,10.178,7.551a2.317,2.317,0,0,0,2.423,0l9.925-7.518a2.478,2.478,0,0,0,.861-3.284,2.417,2.417,0,0,0-3.284-.861l-9.925,7.519H102.7q-4.687-3.285-9.207-6.8a2.479,2.479,0,0,0-3.394,0,2.417,2.417,0,0,0,0,3.4Z"/><polygon class="d" points="91.791 243.952 91.791 233.604 82.83 228.431 73.869 233.604 73.869 243.952 82.83 249.125 91.791 243.952"/><path class="b" d="M94.191,243.952v-6.784c0-1.1.03-2.213,0-3.316a2.975,2.975,0,0,0-1.788-2.666l-7.092-4.094c-1.188-.686-2.248-1.463-3.7-.731-.722.365-1.411.815-2.112,1.22l-6.844,3.951a2.414,2.414,0,0,0-1.189,2.072v10.348a2.414,2.414,0,0,0,1.189,2.072l8.052,4.648c.3.174.6.369.909.525a2.851,2.851,0,0,0,2.931-.293l4.589-2.65L93,246.024c2.675-1.544.26-5.694-2.422-4.145l-8.961,5.174h2.423l-8.961-5.174,1.188,2.073V233.6l-1.188,2.073,8.961-5.174H81.619l8.961,5.174L89.391,233.6v10.348C89.391,247.04,94.191,247.045,94.191,243.952Z"/><path class="a" d="M218.951,64.038a35.946,35.946,0,0,1,1.008-3.833l.024-.074a36.158,36.158,0,0,1,9.352-14.971c7.642-7.287,18.086-10.371,29.146-10.207,11.061-.165,21.507,2.919,29.149,10.207a36.171,36.171,0,0,1,9.353,14.971l.024.074a35.495,35.495,0,0,1,1.612,8.129c2.825.145,4.984.2,6.836.34a3.664,3.664,0,0,1,1.745.684c1.13.751,2.031,2.116,2.277,4.669a54.934,54.934,0,0,1-1.364,19.361,4.95,4.95,0,0,1-1,1.948,5.4,5.4,0,0,1-3.238,1.527c-2.028.358-3.436.545-6.167.8a38.286,38.286,0,0,1-15.582,22.356c-7.277,4.778-15,5.649-23.644,5.649-8.24,0-16.368-.871-23.645-5.649a38.293,38.293,0,0,1-15.591-22.39c-2.5-.235-3.869-.42-5.806-.762a5.4,5.4,0,0,1-3.238-1.527,4.952,4.952,0,0,1-1-1.948,54.934,54.934,0,0,1-1.363-19.361c.245-2.553,1.147-3.918,2.276-4.669a3.668,3.668,0,0,1,1.745-.684c1.775-.135,3.832-.19,6.484-.322A34.844,34.844,0,0,1,218.951,64.038Z"/><path class="b" d="M220.742,68.391a33.157,33.157,0,0,1,25.924-29.8,45.871,45.871,0,0,1,10.367-1.244,56.323,56.323,0,0,1,10.54.671,35.366,35.366,0,0,1,18.072,8.564,33.89,33.89,0,0,1,10.579,21.805,2.461,2.461,0,0,0,2.4,2.4,2.419,2.419,0,0,0,2.4-2.4,39.25,39.25,0,0,0-9.683-22.838,38.472,38.472,0,0,0-19.576-11.539,57.7,57.7,0,0,0-23.651-.62,39.7,39.7,0,0,0-20.476,10.069,38.95,38.95,0,0,0-11.7,24.928,2.419,2.419,0,0,0,2.4,2.4,2.45,2.45,0,0,0,2.4-2.4Z"/><path class="b" d="M216.475,96.136c2.819,14.844,14.192,27.731,29.187,30.81a68.609,68.609,0,0,0,23.421.42,35.779,35.779,0,0,0,19.863-9.786A41.009,41.009,0,0,0,300.49,96.136a2.463,2.463,0,0,0-1.676-2.952,2.421,2.421,0,0,0-2.952,1.676c-2.481,13.064-12.064,24.478-25.29,27.374a51.62,51.62,0,0,1-10.159,1.014,71.9,71.9,0,0,1-10.8-.47,31.664,31.664,0,0,1-18.338-8.729A36.591,36.591,0,0,1,221.1,94.86a2.424,2.424,0,0,0-2.953-1.676,2.451,2.451,0,0,0-1.676,2.952Z"/><path class="b" d="M247.986,78.891c.73,2.373.254,7.831-4.241,8.3-5.942-.036-6.258-6.635-4.258-9.738C241.124,74.908,245.939,73.852,247.986,78.891Z"/><path class="b" d="M279.194,78.891c.731,2.373.255,7.831-4.241,8.3-5.941-.036-6.257-6.635-4.257-9.738C272.333,74.908,277.148,73.852,279.194,78.891Z"/><path class="b" d="M298.176,100.015c3.981-.383,9.475-.354,11.621-4.39a20.83,20.83,0,0,0,1.6-6.328,57.86,57.86,0,0,0,.737-7.06,59.462,59.462,0,0,0-.177-7.25,11.421,11.421,0,0,0-1.6-5.79,6.86,6.86,0,0,0-5.227-2.946c-2.065-.172-4.145-.2-6.214-.3-3.088-.15-3.08,4.65,0,4.8,1.739.085,3.481.143,5.22.239a4.218,4.218,0,0,1,1.531.244,1.961,1.961,0,0,1,.778.74c.777,1.267.725,3,.812,4.427a57.4,57.4,0,0,1,.075,5.837A40.231,40.231,0,0,1,305.8,92.75c-.461,1.434-1.556,1.624-2.936,1.864-1.555.271-3.116.45-4.687.6a2.467,2.467,0,0,0-2.4,2.4,2.417,2.417,0,0,0,2.4,2.4Z"/><path class="b" d="M219.14,95.215c-1.57-.151-3.132-.329-4.686-.6-1.257-.219-2.424-.374-2.886-1.692a30.544,30.544,0,0,1-1.093-5.326,46.938,46.938,0,0,1-.5-5.359c-.073-1.868-.046-3.739.062-5.6.085-1.471.038-3.2.751-4.535a2.56,2.56,0,0,1,.7-.765,3.42,3.42,0,0,1,1.689-.343c1.739-.095,3.48-.154,5.22-.239,3.075-.15,3.093-4.951,0-4.8-2.069.1-4.15.129-6.214.3a6.864,6.864,0,0,0-5.228,2.946,11.421,11.421,0,0,0-1.6,5.79,59.664,59.664,0,0,0-.177,7.25,58.258,58.258,0,0,0,.737,7.06,20.8,20.8,0,0,0,1.605,6.328c2.147,4.036,7.64,4.007,11.621,4.39a2.416,2.416,0,0,0,2.4-2.4,2.452,2.452,0,0,0-2.4-2.4Z"/><path class="b" d="M318.74,30.863h11.335a14.468,14.468,0,0,0,5.1-.441,6.85,6.85,0,0,0,3.889-3.637c.778-1.756.621-3.652.621-5.527q0-5.645,0-11.288a16.87,16.87,0,0,0-.329-5.167A6.918,6.918,0,0,0,335.887.744a8.679,8.679,0,0,0-3.9-.744H287.54a8.34,8.34,0,0,0-4.008.817,6.951,6.951,0,0,0-3.374,4.141c-.519,1.774-.276,3.809-.276,5.636q0,5.994,0,11.987a8.82,8.82,0,0,0,1.142,5.177,6.89,6.89,0,0,0,4.45,2.971,33.368,33.368,0,0,0,5.753.134h14.291a10.256,10.256,0,0,0,1.109,0,2.265,2.265,0,0,0,.451,0q-.734-2.667-1.3-1.462l-.251.433q-1.813,3.134-3.623,6.271c-1.547,2.68,2.6,5.1,4.145,2.422q1.748-3.027,3.5-6.055a6.243,6.243,0,0,0,1.2-2.949,3.383,3.383,0,0,0-1.353-2.764c-1.388-1.028-3.427-.7-5.066-.7H287.893c-1.177,0-2.358.075-2.976-1.127-.561-1.091-.234-2.827-.234-4.035q0-5.757,0-11.516c0-1.885-.382-4.431,2.144-4.585,1.858-.113,3.757,0,5.617,0h39.506a3.483,3.483,0,0,1,1.934.313c1.092.673,1,1.773,1,2.914v5.009c0,3.539.035,7.08,0,10.619-.029,3.116-3.488,2.407-5.7,2.407H318.74c-3.089,0-3.094,4.8,0,4.8Z"/><path class="c" d="M122.418,72.7v33.65l-29.39,16.96-.62-1.07V90.017Q107.408,81.347,122.418,72.7Z"/><path class="a" d="M92.408,90.017q-15-8.67-30-17.32c.21-.12.41-.24.62-.36q14.685-8.49,29.38-16.97,15,8.67,30.01,17.33Q107.418,81.352,92.408,90.017Z"/><path class="a" d="M92.408,122.237l.62,1.07c-.21.12-.41.24-.62.36q-15-8.655-30-17.32V72.7q15,8.655,30,17.32Z"/><path class="a" d="M92.408,21.717v33.65q-14.685,8.49-29.38,16.97l-.62-1.08V39.047Q77.408,30.377,92.408,21.717Z"/><path class="c" d="M62.408,39.047q-14.64-8.46-29.29-16.92c-.24-.14-.47-.27-.71-.41q15-8.655,30-17.32,15,8.655,30,17.32Q77.408,30.387,62.408,39.047Z"/><path class="a" d="M62.408,71.257l.62,1.08c-.21.12-.41.24-.62.36q-15-8.67-30-17.33V21.717c9.76,5.64,20.24,11.69,30,17.33Z"/><path class="c" d="M62.408,72.7v33.65q-14.685,8.475-29.38,16.96l-.62-1.07V90.017Q47.408,81.347,62.408,72.7Z"/><path class="a" d="M32.408,90.017q-14.655-8.46-29.3-16.91c-.24-.14-.47-.27-.71-.41q15-8.67,30.01-17.33,15,8.67,30,17.33Q47.408,81.352,32.408,90.017Z"/><path class="a" d="M32.408,122.237l.62,1.07c-.21.12-.41.24-.62.36q-15.015-8.655-30.01-17.32V72.7c9.76,5.63,20.24,11.68,30.01,17.32Z"/><path class="b" d="M4.8,106.032v-31.7c0-3.088-4.8-3.093-4.8,0v31.7c0,3.089,4.8,3.094,4.8,0Z"/><path class="b" d="M30,89.83v32.405c0,3.088,4.8,3.093,4.8,0V89.83c0-3.088-4.8-3.093-4.8,0Z"/><path class="b" d="M60.008,72.693v33.651c0,3.089,4.8,3.094,4.8,0V72.693c0-3.088-4.8-3.093-4.8,0Z"/><path class="b" d="M1.189,108.416l30,17.323a2.425,2.425,0,0,0,2.422,0l30-17.323c2.675-1.544.26-5.693-2.422-4.144l-30,17.322h2.422l-30-17.322c-2.68-1.548-5.1,2.6-2.422,4.144Z"/><path class="b" d="M1.189,74.766l30,17.323a2.43,2.43,0,0,0,2.422,0l30-17.323c2.675-1.544.26-5.694-2.422-4.145l-30,17.323h2.422l-30-17.323c-2.68-1.547-5.1,2.6-2.422,4.145Z"/><path class="b" d="M3.611,74.766l30-17.323H31.193l30,17.323c2.68,1.547,5.1-2.6,2.422-4.145l-30-17.323a2.43,2.43,0,0,0-2.422,0l-30,17.323c-2.675,1.544-.26,5.694,2.422,4.145Z"/><path class="b" d="M90.012,89.83v32.405c0,3.088,4.8,3.093,4.8,0V89.83c0-3.088-4.8-3.093-4.8,0Z"/><path class="b" d="M120.016,72.693v33.651c0,3.089,4.8,3.094,4.8,0V72.693c0-3.088-4.8-3.093-4.8,0Z"/><path class="b" d="M61.2,108.416l30,17.323a2.425,2.425,0,0,0,2.422,0l30-17.323c2.675-1.544.26-5.693-2.422-4.144l-30,17.322h2.422l-30-17.322c-2.68-1.548-5.1,2.6-2.422,4.144Z"/><path class="b" d="M61.2,74.766l30,17.323a2.43,2.43,0,0,0,2.422,0l30-17.323c2.675-1.544.26-5.694-2.422-4.145l-30,17.323h2.422l-30-17.323c-2.68-1.547-5.1,2.6-2.422,4.145Z"/><path class="b" d="M63.619,74.766l30-17.323H91.2l30,17.323c2.68,1.547,5.1-2.6,2.422-4.145l-30-17.323a2.43,2.43,0,0,0-2.422,0l-30,17.323c-2.675,1.544-.26,5.694,2.422,4.145Z"/><path class="b" d="M34.8,55.059v-31.7c0-3.089-4.8-3.094-4.8,0v31.7c0,3.089,4.8,3.094,4.8,0Z"/><path class="b" d="M60.008,38.857v32.4c0,3.089,4.8,3.094,4.8,0v-32.4c0-3.089-4.8-3.094-4.8,0Z"/><path class="b" d="M90.012,21.72V55.371c0,3.088,4.8,3.093,4.8,0V21.72c0-3.089-4.8-3.094-4.8,0Z"/><path class="b" d="M31.193,23.792l30,17.323a2.425,2.425,0,0,0,2.422,0l30-17.323c2.675-1.544.26-5.693-2.422-4.144L61.2,36.97h2.422l-30-17.322c-2.68-1.548-5.1,2.6-2.422,4.144Z"/><path class="b" d="M33.615,23.792l30-17.323H61.2l30,17.323c2.68,1.548,5.1-2.6,2.422-4.144l-30-17.323a2.425,2.425,0,0,0-2.422,0l-30,17.323c-2.675,1.544-.26,5.693,2.422,4.144Z"/></svg>