<svg id="b" xmlns="http://www.w3.org/2000/svg" width="354.891" height="320.197" viewBox="0 0 354.891 320.197" style="color: initial !important;"><defs><style>.e{fill:#ffffff;}.f{fill:#7abee6;}.g{fill:#211715;}.h{fill:#645d5c;}.i{fill:#febe69;}.j{fill:#85807f;}</style></defs><g id="c"><g id="d"><path class="e" d="M298.295,94.946c1.314-1.253,3.08-1.719,4.59-1.66,3.285.129,4.676,1.911,5.273,2.957,1.784,3.121,1.685,8.86.466,12.406-.863,2.511-2.277,6.352-5.659,9.098-1.394,1.131-3.441,1.872-5.394,1.534l-.516-.089c-.629,2.047-1.402,4.052-1.874,5.025-1.323,3.548-8.341,15.587-17.338,21.054.049-.569.1-.089.151.216.525,3.182,1.109,6.451,2.788,9.195,2.817,4.568,12.323,8.159,19.382,11.078l-9.248,4.743c-5.96,3.284-11.827,6.103-29.19,6.487-14.676.324-23.92-1.703-37.46-8.108,0,0-4.099-2.394-8.693-5.078,8.524-3.048,17.071-5.219,21.171-7.968.464-.311,1.023-.529,1.313-1.007.192-.317.261-.691.326-1.056.442-2.476.883-4.952,1.322-7.422-4.548-2.098-8.607-5.528-12.461-10.177-4.834-5.831-7.574-12.103-9.081-17.295-2.086.527-4.335-.256-5.825-1.484-3.36-2.771-4.744-6.624-5.588-9.141-1.192-3.555-1.245-9.294.563-12.402.606-1.041,2.01-2.813,5.296-2.916,1.51-.047,3.272.432,4.577,1.696,0,0-10.901-34.829,40.525-34.829s40.585,35.145,40.585,35.145Z"/><path class="e" d="M150.965,71.926c1.422-1.281,3.295-1.719,4.883-1.612,3.456.233,4.867,2.152,5.466,3.271,1.786,3.34,1.511,9.38.122,13.078-.984,2.619-2.587,6.622-6.23,9.413-1.501,1.15-3.679,1.869-5.727,1.455l-.541-.109c-.722,2.137-1.597,4.226-2.122,5.236-1.018,2.512-4.922,9.073-10.342,14.743-8.774,5.407-12.182,16.54-12.2,26.377-.048,1.679-.134,3.355-.236,5.007-18.262,6.337-37.04,2.912-52.041-10.433,3.967-1.513,8.748-3.359,8.909-3.405,3.015-1.124,4.047-3.6,4.655-6.26.395-1.746.702-3.33.892-5.045-4.207-2.36-7.978-5.859-11.541-10.413-4.917-6.285-7.617-12.971-9.049-18.485-2.212.495-4.558-.396-6.09-1.734-3.456-3.019-4.799-7.116-5.613-9.793-1.149-3.78-1.035-9.825.961-13.044.669-1.078,2.201-2.902,5.664-2.913,1.591-.005,3.433.552,4.769,1.922,0,0-15.067-40.001,43.378-40.001s42.032,42.745,42.032,42.745Z"/><path class="g" d="M147.531,93.675c-.426,1.775-1.011,3.51-1.669,5.212-.238.615-.484,1.225-.761,1.823-.114.248-.245.489-.357.737-.74,1.628.171-.293-.196.455-.878,1.791-1.866,3.507-2.957,5.177-3.17,4.851-7.022,9.51-11.661,13.042-2.648,2.016-5.55,3.603-8.818,4.251-1.272.252-2.002,1.768-1.676,2.952.365,1.327,1.677,1.929,2.952,1.676,6.569-1.303,12.163-5.934,16.576-10.749,3.653-3.987,7.097-8.523,9.481-13.402.095-.194.187-.388.275-.585.093-.208.46-1.006.315-.721-.181.355.062-.096.102-.178.1-.202.19-.409.281-.615.212-.477.414-.959.613-1.441.854-2.065,1.606-4.185,2.128-6.359.72-3.002-3.907-4.283-4.629-1.276h0Z"/><path class="e" d="M131.643,121.49c-5.223,5.929-7.355,14.514-7.369,22.289-.114,4.037-.456,8.056-.687,11.755-.375,6.104.649,11.859,4.652,16.074,4.244,4.468,8.666,7.318,14.704,5.061,3.641-2.39,9.218-3.543,13.731-4.221,6.815-1.024,13.26.718,18.762,4.331,6.375-3.884,10.731-9.004,12.915-14.314,2.582-6.347,3.52-14.43,3.027-21.316-1.433-20.512-20.241-28.96-38.989-28.147-5.423.25-10.904,1.424-15.58,4.19-1.981,1.171-3.696,2.629-5.166,4.298Z"/><path class="e" d="M76.866,313.82c-23.638-2.39-41.821-6.924-49.384-9.325-10.66-3.384-17.56-11.737-21.609-19.946-4.378-8.879-3.735-26.311-2.392-34.704,3.243-20.271,5.311-30.852,9.203-50.818,1.591-8.16,4.582-25.197,11.919-35.046,5.431-7.29,14.266-12.616,24.177-17.07,7.34-3.298,15.27-6.117,22.846-8.901,15.059,13.631,33.997,17.166,52.413,10.775-.144,2.317-.317,4.588-.452,6.749-.375,6.104.649,11.859,4.652,16.074,3.739,3.937,7.616,6.617,12.615,5.656l1.312-.252c-6.747,3.699-12.753,8.089-17.132,15.814-1.705-3.645-3.824-7.115-6.307-10.32,1.205-2.296,1.597-5.013,1.076-7.554-.417-2.034-1.777-4.204-3.851-4.309-1.662-.084-3.051,1.179-4.228,2.356-3.261-3.831-7.882-7.231-12.874-6.604-5.425.682-9.355,6.335-9.173,11.8.208,6.219,4.802,11.759,10.256,14.549-1.138,7.571,4.212,27.576,6.202,34.322,1.26,4.271,3.088,8.751,6.97,11.233,2.021,1.292,4.439,1.92,6.852,2.185l-.579,1.855c-9.586.99-16.53,12.358-13.036,21.338l1.59,3.88c.166,3.805.325,7.478.325,7.478.484,11.133-1.498,31.137-2.501,40.347-10.224-.059-19.948-.657-28.89-1.561Z"/><path class="e" d="M302.599,306.514c-16.044,0-46.313-.056-75.237-.118-37.007-.08-71.815-.171-71.815-.171,3.044-28.959,11.86-103.35,11.86-103.35l24.356-23.536c4.035-4.566,9.101-8.1,14.231-11.384,2.085-1.338,5.439-2.744,9.517-4.188,4.619,2.697,8.754,5.113,8.754,5.113,13.541,6.406,22.784,8.433,37.46,8.108,17.363-.384,23.23-3.203,29.19-6.487l9.248-4.743c7.477,2.778,14.855,6.218,21.659,10.395,6.344,3.895,11.007,9.777,14.113,16.512,2.439,5.289,4.01,10.929,5.568,16.542,3.34,12.029,6.929,24.031,8.987,36.365,1.832,10.984,3.81,25.015-1.098,35.443-3.122,6.634-8.64,11.745-14.205,16.342,0,0-18.267,4.121-32.588,9.158Z"/><path class="e" d="M299.055,236.682c1.034-.933,2.567-1.384,4-1.17s2.738,1.078,3.394,2.256c.463.826.613,1.767.699,2.685.314,3.618-.399,7.304-2.039,10.601-.799,1.606-1.839,3.143-3.287,4.314-1.237.987-2.48,1.499-4.411.692-.355,1.407-.827,2.635-1.039,3.234-1.137,2.881-7.504,13.1-15.51,16.84.046.366.115.779.195,1.248.424,2.465,1.112,5.251,4.391,7.063.218.069,4.494,2.098,4.827,2.247l1.27.569c-.144.181-.289.361-.289.361-3.59,4.494-12.023,8.327-20.584,8.845-5.165.313-10.391,0-15.457-1.053s-10.034-3.248-13.56-7.035c0,0-.406-.436-.812-.873l1.943-.815c.355-.149,4.609-2.178,4.85-2.247,3.256-1.812,3.956-4.598,4.38-7.063.034-.149.057-.287.08-.424-4.115-1.722-7.909-4.647-11.215-8.341-3.792-4.237-6.025-8.786-7.305-12.635-2.278,1.187-3.645.676-5.005-.409-1.447-1.17-2.488-2.708-3.287-4.314-1.64-3.296-2.353-6.983-2.039-10.601.086-.918.235-1.859.699-2.685.656-1.178,1.961-2.042,3.394-2.256s2.966.237,4,1.17c0,0-8.283-30.138,30.138-30.138s37.58,29.933,37.58,29.933Z"/><path class="i" d="M215.826,304.647c-2.486,3.91-4.039,7.837-5.913,13.263h114.579c-2.219-5.51-6.331-12.485-11.772-18.932-4.133-4.898-12.324-9.255-20.764-12.347-3.066,4.909-12.101,9.279-21.284,9.835-5.165.313-10.391,0-15.457-1.053-5.469-1.137-10.824-3.605-14.372-7.971-7.702,3.028-17.126,7.341-20.748,11.536-1.717,1.989-3.096,3.827-4.268,5.669Z"/><path class="i" d="M292.832,42.708c-2.385-2.242-5.23-4.49-8.746-6.987-2.177-1.35-4.461-2.533-6.824-3.526-6.117-2.581-12.776-3.878-19.527-3.537-22.361-1.316-43.763,15.424-48.162,36.609-1.196,5.716-.735,14.559-.089,19.201.329,2.367.998,5.472,2.001,7.574l.448.938c.213-.024.44-.04.676-.048,1.422-.045,3.067.378,4.344,1.482,3.975-4.679,8.559-6.738,16.006-9.811.814-.304,1.519-.61,2.207-.968.635-.003,1.084-.003,1.084-.003-.109.878.101,1.821.914,2.245s2.196.408,3.123.422c3.315.05,6.358-.26,10.767-2.534h5.954c-.255.841,0,1.832,1.487,2.041,2.461.345,6.987-.02,11.512-2.939,2.613-1.824,5.407-5.552,6.31-7.297,1.685-3.258,2.846-5.78,3.493-9.684h3.768c.708,5.723,3.014,11.117,5.483,16.328,1.484,3.134,3.307,6.492,6.536,7.755l2.698,4.973c1.314-1.253,3.08-1.719,4.59-1.66.993.039,1.813.229,2.483.507,3.245-8.156,1.582-21.448.229-28.151-.682-3.421-1.813-6.731-3.322-9.872-2.485-5.206-5.253-9.123-9.442-13.061Z"/><path class="j" d="M280.606,195.655c.835-5.86,5.612-8.375,10.893-9.124,5.543-.786,9.442.665,13.875,4.623,1.301,1.152,2.9,3.145,3.726,5.236,1.273,3.224,1.921,5.441,2.657,8.824.893,4.038,1.807,6.613,4.56,9.441-4.911,1.532-9.185,1.832-13.205.151"/><path class="h" d="M233.918,238.047c-.317.128-.446-.407-.361-.739.98-3.802,2.615-7.465,5.039-10.553,3.265-4.162,8.006-7.248,13.392-7.738,1.972,2.843,4.734,5.214,7.759,6.926.64.362,1.315.707,2.047.775,0,0,13.128,0,22.825-.001.977.289,1.936.619,2.856,1.045,4.343,2.009,7.595,6.22,8.442,10.93l.127.708c1.505-1.359,3.011-2.718,3.011-2.718.953-.86,2.33-1.311,3.661-1.195.542-3.166.871-6.629.692-10.699-.275-6.277-1.982-12.453-5.285-17.778-1.384-2.232-3.025-4.294-4.863-6.151-.74-.748-1.865-1.842-2.631-2.507-1.222-1.062-3.938-2.893-6.399-4.243-1.794-.985-3.663-1.826-5.588-2.506-4.256-1.501-8.751-2.173-13.248-2.173-8.876,0-16.412,2.581-22.443,6.907-7.003,5.023-14.933,13.97-15.568,28.452-.202,4.601,1.042,12.281.937,10.883,1.119.06,2.217.494,3.016,1.215"/><path class="g" d="M70.3,140.049c11.739,10.369,27.035,15.812,42.707,13.771,4.465-.582,8.811-1.649,13.034-3.213,1.215-.45,2.041-1.626,1.676-2.952-.321-1.169-1.731-2.129-2.952-1.676-13.346,4.942-28.009,4.683-40.69-2.08-3.742-1.995-7.204-4.438-10.38-7.244-2.308-2.038-5.715,1.344-3.394,3.394h0Z"/><path class="h" d="M59.536,37.948c4.116-12.994,12.497-21.498,20.02-26.726,8.38-5.824,18.724-9.127,30.769-8.74,11.482.369,20.516,3.889,28.218,9.285l6.479,5.313c8.025,7.732,15.116,19.614,15.29,36.81.059,5.799-.774,10.499-2.578,16.761-.548-.169-1.174-.288-1.886-.337-1.588-.107-3.462.331-4.883,1.612l-6.601-5.584c-2.01-5.573-6.753-11.812-11.762-16.41-2.923-2.683-4.964-3.891-7.657-5.166l-8.452-1.315c-5.8,2.227-14.033,7.032-18.642,9.402-1.1.565-2.341-.429-2.155-1.735.122-.86.153-1.772-.1-2.983-.262-1.253-1.2-1.811-1.957-1.445-6.451,3.124-15.768,11.436-21.074,16.98l-7.01,5.512c-1.336-1.369-3.178-1.927-4.769-1.922-.795.002-1.489.101-2.093.263-1.429-5.976-1.928-11.865-1.549-16.948.344-4.616,1.184-8.815,2.392-12.627Z"/><path class="g" d="M67.253,67.484c-2.834-2.711-7.122-3.371-10.676-1.716-2.546,1.185-4.058,3.595-4.811,6.221-1.761,6.136-.378,13.24,2.928,18.63,2.287,3.728,6.034,7.075,10.702,6.61,1.29-.129,2.4-1.011,2.4-2.4,0-1.198-1.102-2.529-2.4-2.4-3.642.363-5.987-2.883-7.425-5.814-1.17-2.385-1.98-5.089-2.115-7.746-.131-2.598.006-5.754,1.632-7.92-.34.453.25-.238.327-.312.314-.301-.122.035.302-.249.538-.36,1.086-.569,1.731-.67,1.471-.23,2.926.122,4.01,1.16,2.232,2.136,5.632-1.254,3.394-3.394h0Z"/><path class="g" d="M152.662,73.623c1.128-.948,2.726-1.11,4.111-.749.498.13,1.1.393,1.418.63.296.221.653.64.678.677,1.523,2.229,1.476,5.486,1.164,8.066-.329,2.717-1.354,5.347-2.698,7.694-1.395,2.435-3.993,5.808-7.216,5.275-1.277-.211-2.583.334-2.952,1.676-.315,1.148.39,2.74,1.676,2.952,7.878,1.301,12.672-6.26,14.962-12.693,1.908-5.359,2.196-13.89-2.94-17.608-3.49-2.526-8.401-2.002-11.596.684-.993.835-.861,2.533,0,3.394.983.983,2.399.837,3.394,0h0Z"/><path class="g" d="M62.805,92.076c1.24,6.416,3.655,12.666,7.123,18.209,3.7,5.913,8.634,11.467,14.674,15.059,3.078,1.83,6.484,3.107,10.006,3.745,1.274.231,2.587-.348,2.952-1.676.32-1.164-.394-2.72-1.676-2.952-7.733-1.403-13.74-6.097-18.605-12.089-5.05-6.219-8.33-13.731-9.846-21.572-.246-1.273-1.772-2.001-2.952-1.676-1.331.366-1.923,1.675-1.676,2.952h0Z"/><path class="g" d="M139.754,9.695C124.89-.65,104.737-2.972,87.944,3.967c-13.808,5.705-24.924,17.272-30.031,31.313-3.753,10.32-4.081,21.439-1.713,32.106.669,3.014,5.298,1.739,4.629-1.276-3.508-15.803.012-32.722,10.966-44.885,4.377-4.86,9.309-8.701,15.192-11.598,7.703-3.793,16.36-5.17,24.89-4.675,9.226.535,17.885,3.618,25.456,8.888,1.064.741,2.666.195,3.284-.861.699-1.195.206-2.541-.861-3.284h0Z"/><path class="g" d="M160.251,70.581c1.204-4.317,2.122-8.707,2.382-13.191.256-4.426-.056-8.894-.764-13.267-1.158-7.15-3.786-14.113-7.858-20.118-2.004-2.956-4.318-5.699-6.881-8.183-2.219-2.151-5.617,1.24-3.394,3.394,4.281,4.149,7.741,9.003,10.15,14.466,2.996,6.794,4.159,14.376,4.021,21.765-.088,4.736-1.014,9.308-2.284,13.857-.831,2.98,3.798,4.252,4.629,1.276h0Z"/><path class="g" d="M100.374,106.596c2.564,1.461,5.362,2.106,8.306,2.201,2.765.089,6.013-.274,8.323-1.959,1.012-.737,1.612-2.118.861-3.284-.646-1.003-2.199-1.652-3.284-.861-.283.206-.583.387-.896.545-.089.045-.184.082-.271.13-.245.135.544-.205.15-.063-.258.093-.514.186-.777.264-.303.089-.609.165-.918.228-.155.032-.311.06-.467.087-.234.039-.402.047-.068.014-.883.088-1.764.126-2.652.098-.429-.013-.859-.039-1.287-.08-.032-.003-.799-.099-.286-.024-.178-.026-.355-.055-.531-.087-.637-.114-1.267-.267-1.883-.468-.263-.086-.518-.189-.778-.284-.285-.104.506.242.144.058-.108-.055-.22-.102-.329-.156-.318-.156-.627-.329-.935-.505-1.091-.622-2.674-.293-3.284.861-.602,1.14-.304,2.62.861,3.284h0Z"/><path class="g" d="M108.139,86.985c.287,1.256.552,2.525.728,3.802l-.086-.638c.042.318.083.637.13.955l-.086-.638c.032.244.048.486.015.731l.086-.638c-.017.091-.039.175-.073.261l.242-.573c-.029.06-.059.112-.098.166l.375-.486c-.027.034-.057.065-.09.092l.486-.375c-.12.09-.257.148-.394.206l.573-.242c-.162.062-.324.109-.496.137l.638-.086c-.183.023-.362.023-.545,0l.638.086c-.22-.033-.434-.095-.654-.132-.654-.11-1.257-.105-1.849.242-.498.291-.973.862-1.103,1.434-.14.614-.11,1.304.242,1.849.319.494.829,1.002,1.434,1.103.478.08.926.194,1.418.231.778.059,1.526-.195,2.218-.518.827-.386,1.437-1.168,1.654-2.053.187-.763.098-1.451-.024-2.216l.086.638c-.19-1.553-.488-3.092-.836-4.616-.28-1.225-1.757-2.063-2.952-1.676-1.283.415-1.976,1.64-1.676,2.952h0Z"/><path class="g" d="M86.335,74.145c-.781,2.275-.49,7.577,3.849,8.166,5.755.15,6.267-6.231,4.426-9.298-1.507-2.511-6.137-3.685-8.276,1.132Z"/><path class="g" d="M132.415,75.626c.633,2.321.003,7.592-4.365,7.902-5.753-.22-5.854-6.621-3.821-9.564,1.665-2.409,6.361-3.283,8.186,1.661Z"/><path class="g" d="M123.734,46.838c4.216,2.011,7.595,4.912,10.713,8.37,3.1,3.439,5.99,7.396,7.603,11.772.448,1.216,1.627,2.04,2.952,1.676,1.17-.322,2.127-1.73,1.676-2.952-1.871-5.075-5.009-9.585-8.585-13.607-3.415-3.841-7.278-7.181-11.937-9.403-1.169-.558-2.591-.323-3.284.861-.612,1.047-.314,2.723.861,3.284h0Z"/><path class="g" d="M74.263,65.366c5.249-5.465,11.018-10.772,17.443-14.83.684-.432,1.379-.847,2.09-1.232.169-.091.38-.173.534-.282.332-.236.237.049.021-.088-.099-.063-1.607.559-1.046-.256-.083.12.048.396.06.535.076.864-.119,1.716-.042,2.571.104,1.152.692,2.201,1.635,2.875,1.948,1.391,3.798.442,5.646-.542,1.595-.849,3.181-1.718,4.772-2.576,3.832-2.067,7.693-4.196,11.757-5.776,1.207-.469,2.045-1.611,1.676-2.952-.317-1.153-1.738-2.149-2.952-1.676-3.801,1.478-7.437,3.343-11.033,5.257-1.742.927-3.473,1.873-5.21,2.81-.698.377-1.397.753-2.099,1.122-.555.292-.866.211-.12.448s.708.635.774-.314c.148-2.137-.337-4.739-2.376-5.852-1.928-1.052-3.858.195-5.517,1.177-3.469,2.055-6.673,4.581-9.754,7.172-3.37,2.834-6.602,5.841-9.652,9.016-2.14,2.228,1.249,5.627,3.394,3.394h0Z"/><path class="g" d="M72.635,140.666c2.146-.819,4.289-1.642,6.434-2.465,1.305-.5,2.718-.927,3.95-1.589,4.512-2.424,5.252-8.197,5.813-12.764.154-1.251-1.214-2.453-2.4-2.4-1.432.064-2.235,1.06-2.4,2.4-.038.305-.045.363-.02.173-.025.178-.052.356-.08.534-.042.266-.086.531-.133.796-.111.626-.236,1.25-.37,1.871-.194.904-.397,1.807-.71,2.679-.043.119-.087.237-.134.355.123-.282.129-.301.019-.055-.085.167-.163.336-.253.5-.105.191-.226.371-.339.557-.308.509.184-.143-.134.182-.133.135-.255.28-.393.411-.093.089-.189.175-.287.257.232-.171.236-.176.015-.016-.174.109-.343.224-.523.324-.08.044-.693.324-.5.251.196-.074-.093.026-.139.043-.21.074-.418.158-.626.237-.697.265-1.393.533-2.089.8-1.992.764-3.983,1.529-5.976,2.289-1.169.446-2.102,1.637-1.676,2.952.369,1.14,1.696,2.155,2.952,1.676h0Z"/><path class="g" d="M70.492,135.877c-9.936,3.645-20.009,7.158-29.396,12.098-8.338,4.387-16.242,10.139-20.949,18.489-4.528,8.033-6.822,17.243-8.656,26.21-1.957,9.57-3.771,19.176-5.555,28.78-1.888,10.167-3.917,20.4-5.174,30.667-1.074,8.768-1.163,18.059.709,26.723,1.912,8.847,7.727,17.043,14.86,22.494,5.81,4.44,12.756,6.296,19.729,8.014,19.057,4.694,38.732,7.277,58.326,8.143,3.049.135,6.1.221,9.152.264,3.09.044,3.091-4.756,0-4.8-20.367-.29-40.762-2.55-60.658-6.944-3.142-.694-6.273-1.444-9.381-2.278-2.621-.703-5.314-1.39-7.819-2.443-8.074-3.395-14.709-10.768-18.078-18.694-1.529-3.598-2.141-7.843-2.457-11.794-.353-4.404-.342-8.839-.072-13.247.276-4.514.895-8.194,1.634-12.706.843-5.144,1.717-10.284,2.635-15.415,1.805-10.093,3.791-20.153,5.743-30.218,1.58-8.15,3.24-16.334,6.27-24.093,1.507-3.86,3.424-7.709,6.096-10.903,2.834-3.387,6.28-6.178,9.979-8.567,8.371-5.406,17.771-9.032,27.072-12.482,2.419-.897,4.844-1.78,7.267-2.668,1.216-.446,2.04-1.628,1.676-2.952-.322-1.172-1.729-2.125-2.952-1.676h0Z"/><path class="g" d="M52.812,209.951c-1.505,11.98-3.647,24.435-5.663,36.557-.542,3.26-1.089,6.52-1.636,9.78-.214,1.277.336,2.584,1.676,2.952,1.151.316,2.737-.391,2.952-1.676,2.128-12.683,4.272-25.367,6.153-38.09.469-3.17.918-6.344,1.317-9.523.162-1.288-1.219-2.4-2.4-2.4-1.431,0-2.238,1.108-2.4,2.4h0Z"/><path class="g" d="M249.695,276.945c0,.044.125-.709.049-.418-.023.089-.037.182-.054.272-.021.113-.04.226-.06.339-.049.268-.103.535-.162.801-.119.528-.263,1.05-.449,1.559-.035.095-.233.586-.061.171.164-.395-.015.02-.059.11-.13.267-.274.526-.433.776-.082.129-.17.252-.256.378-.232.343.326-.38.047-.064-.216.245-.435.484-.675.705-.126.116-.26.223-.39.335-.195.166.188-.145.185-.144-.063.023-.135.097-.191.135-.153.106-.325.193-.473.305-.325.248.238-.06.245-.061-.301.015-.808.341-1.122.485-.771.353-1.538.716-2.306,1.077-.65.306-1.295.631-1.956.913-.513.219-.962.924-1.103,1.434-.158.574-.087,1.339.242,1.849.33.512.822.964,1.434,1.103.672.153,1.222.026,1.849-.242,1.418-.606,2.795-1.317,4.196-1.96.132-.06.264-.12.396-.18.432-.197-.61.278-.322.136.481-.237.902-.413,1.341-.716.436-.301.863-.628,1.26-.98,1.202-1.065,2.02-2.42,2.622-3.89.245-.598.433-1.214.58-1.844.173-.745.425-1.625.425-2.385,0-1.255-1.104-2.458-2.4-2.4s-2.4,1.055-2.4,2.4h0Z"/><path class="g" d="M278.461,276.131c.397,3.025,1.014,5.991,3.128,8.326.574.634,1.264,1.176,1.973,1.649.395.264.807.504,1.259.656.164.055-.729-.321-.457-.193.059.028.119.053.179.08.792.358,1.577.732,2.364,1.102.718.338,1.433.685,2.156,1.012,1.141.516,2.635.366,3.284-.861.555-1.051.36-2.731-.861-3.284-1.376-.623-2.732-1.29-4.103-1.923-.219-.101-.438-.202-.658-.298-.207-.091-.412-.191-.626-.264.025.009.541.289.328.104-.062-.054-.155-.093-.225-.136-.144-.09-.283-.188-.423-.282-.053-.036-.28-.212-.019-.008.272.212-.015-.018-.068-.063-.25-.213-.487-.442-.707-.685-.095-.106-.179-.233-.282-.331-.005-.005.29.417.161.204-.048-.079-.108-.152-.16-.229-.164-.245-.314-.5-.449-.762-.061-.119-.116-.24-.175-.36-.17-.346.19.515.014.027-.21-.584-.383-1.174-.514-1.781-.061-.282-.116-.566-.167-.85-.037-.209-.073-.419-.108-.629-.028-.169-.137-.932-.043-.223-.087-.662-.21-1.205-.703-1.697-.416-.416-1.099-.73-1.697-.703-1.16.052-2.575,1.067-2.4,2.4h0Z"/><path class="g" d="M283.531,193.942c2.521-5.17,10.488-6.425,15.396-4.292,2.942,1.279,5.753,3.625,7.354,6.413,1.788,3.114,2.488,6.926,3.289,10.384.874,3.771,2.346,7.079,5.046,9.901l1.059-4.011c-3.996,1.224-7.955,1.75-11.921.149-1.202-.485-2.637.529-2.952,1.676-.377,1.371.469,2.465,1.676,2.952,4.68,1.89,9.759,1.295,14.473-.149,1.742-.534,2.327-2.686,1.059-4.011-2.475-2.587-3.329-5.635-4.095-9.052-.889-3.965-1.996-8.372-4.428-11.693-2.301-3.142-5.578-5.696-9.19-7.156-3.512-1.419-7.423-1.354-11.074-.542-4.071.905-7.956,3.151-9.836,7.007-.568,1.164-.316,2.595.861,3.284,1.055.617,2.713.309,3.284-.861h0Z"/><path class="g" d="M300.752,238.379c1.113-.931,3.022-.553,3.624.6.421.807.42,1.851.438,2.742.023,1.115-.034,2.238-.236,3.336-.406,2.215-1.166,4.352-2.368,6.262-.496.788-1.109,1.576-1.84,2.16-.675.54-.978.68-1.755.473-2.988-.797-4.263,3.832-1.276,4.629,3.708.989,6.616-1.386,8.639-4.272,1.983-2.829,3.066-6.29,3.481-9.691.395-3.236.374-7.32-2.242-9.673-2.855-2.568-6.999-2.352-9.86.041-.995.832-.859,2.535,0,3.394.985.985,2.397.834,3.394,0h0Z"/><path class="g" d="M233.034,235.19c-2.86-2.392-7.007-2.607-9.86-.041-2.614,2.351-2.636,6.439-2.242,9.673.415,3.401,1.497,6.862,3.481,9.691,2.024,2.887,4.927,5.262,8.639,4.272,2.982-.795,1.717-5.427-1.276-4.629-.768.205-1.072.077-1.755-.473-.731-.588-1.341-1.37-1.84-2.16-1.203-1.908-1.962-4.048-2.368-6.262-.19-1.038-.252-2.099-.239-3.154.012-.945-.008-2.066.442-2.923.604-1.149,2.507-1.534,3.624-.6.994.831,2.42.974,3.394,0,.854-.854.999-2.559,0-3.394h0Z"/><path class="g" d="M295.448,253.618c-.15,1.014-.384,2.003-.686,2.982-.202.653-.61,1.381-.705,2.055-.052.365.28-.534.063-.155-.09.157-.156.333-.237.495-.173.349-.358.692-.548,1.031-1.045,1.866-2.394,3.857-3.609,5.38-3.338,4.18-7.563,8.395-12.831,9.546-3.016.659-1.74,5.288,1.276,4.629,6.118-1.337,11.162-6.021,14.949-10.78,3.277-4.118,6.173-8.595,6.957-13.906.189-1.281-.319-2.579-1.676-2.952-1.131-.311-2.762.386-2.952,1.676h0Z"/><path class="g" d="M230.542,254.167c1.656,6.397,4.945,12.3,9.505,17.082,4.518,4.738,10.351,8.59,16.935,9.523,1.282.182,2.578-.314,2.952-1.676.309-1.125-.385-2.769-1.676-2.952-11.572-1.641-20.291-12.45-23.088-23.253-.774-2.988-5.405-1.721-4.629,1.276h0Z"/><path class="g" d="M305.074,235.866c1.695-10.389.659-21.398-5.112-30.438-5.463-8.558-14.393-14.814-24.254-17.197s-20.669-1.312-29.67,3.388c-6.675,3.485-12.49,9.06-16.187,15.623-2.54,4.51-4.023,9.459-4.629,14.586-.552,4.668-.094,9.418.657,14.041.208,1.28,1.799,1.993,2.952,1.676,1.361-.374,1.885-1.668,1.676-2.952-.516-3.181-.904-7.133-.676-10.667.256-3.983,1.176-8.011,2.837-11.65,2.754-6.032,7.38-11.2,12.722-14.709,7.374-4.844,16.406-6.522,25.109-5.439,9.052,1.126,17.476,5.828,23.256,12.854,6.762,8.221,8.367,19.343,6.692,29.608-.208,1.278.332,2.583,1.676,2.952,1.146.315,2.742-.39,2.952-1.676h0Z"/><path class="g" d="M326.313,316.09c-2.948-6.958-7.258-13.702-12.329-19.304-5.117-5.654-12.665-9.073-19.631-11.805-1.207-.473-2.635.52-2.952,1.676-.374,1.361.465,2.477,1.676,2.952,6.292,2.468,13.192,5.633,17.733,10.817,4.66,5.321,8.598,11.572,11.359,18.086.506,1.194,2.267,1.456,3.284.861,1.236-.723,1.369-2.085.861-3.284h0Z"/><path class="g" d="M212.227,318.548c2.364-6.827,5.288-14.176,10.809-19.127,2.651-2.377,5.992-4.062,9.167-5.618,3.655-1.792,7.418-3.348,11.22-4.799,1.21-.462,2.043-1.617,1.676-2.952-.318-1.159-1.735-2.141-2.952-1.676-6.339,2.419-12.792,5.018-18.527,8.687-5.16,3.301-8.969,8.24-11.745,13.659-1.731,3.381-3.036,6.967-4.276,10.55-1.013,2.925,3.622,4.182,4.629,1.276h0Z"/><path class="g" d="M259.225,263.308c1.788,1.75,4.552,2.315,6.965,2.313s5.177-.562,6.966-2.313c.899-.88.948-2.524,0-3.394-.967-.887-2.435-.939-3.394,0-.092.09-.437.365-.04.058.413-.318-.035.013-.152.084-.137.084-.277.161-.42.233-.095.048-.201.085-.293.137.112-.064.57-.218.192-.088-.46.158-.921.293-1.4.383-.078.015-.155.028-.233.04-.182.029-.105.02.232-.028-.109.055-.312.034-.43.044-.342.029-.685.042-1.028.042-.314,0-.628-.011-.942-.035-.161-.012-.358-.058-.519-.051.23-.01.44.066.076,0-.482-.086-.959-.208-1.42-.376-.192-.07-.504-.271.136.067-.079-.042-.164-.075-.245-.114-.159-.078-.316-.163-.467-.256-.116-.071-.222-.157-.337-.228.697.429.341.276.147.086-.898-.879-2.511-.962-3.394,0-.872.95-.959,2.456,0,3.394h0Z"/><path class="g" d="M265.85,250.236c-.064.036-.129.069-.197.097l.573-.242c-.105.043-.213.074-.325.089l.638-.086c-.108.013-.216.01-.324-.004l.638.086c-.063-.009-.125-.021-.187-.033-.263-.052-.533-.08-.798-.113-.33-.012-.639.056-.925.207-.298.097-.555.262-.772.496-.234.217-.399.475-.496.772-.15.286-.219.594-.207.925l.086.638c.114.407.32.76.617,1.059l.486.375c.374.217.778.326,1.211.328h.011c-.213-.027-.425-.056-.638-.084.08.011.158.029.237.043.25.046.504.074.756.104.047.006.094.01.142.01.049,0,.099-.002.148-.007.216-.023.454-.057.669-.09.013-.002.027-.004.04-.006.028-.005.055-.011.083-.018.064-.016.126-.038.187-.063.243-.097.53-.204.77-.339.28-.151.504-.357.673-.618.212-.232.355-.504.43-.816.1-.319.114-.638.043-.957-.014-.319-.109-.617-.285-.892l-.375-.486c-.299-.297-.652-.503-1.059-.617l-.638-.086c-.433.001-.837.111-1.211.328h0Z"/><path class="g" d="M248.48,239.88c-.537,1.744-.187,5.755,3.117,6.097,4.366-.026,4.599-4.876,3.129-7.156-1.203-1.867-4.742-2.643-6.246,1.06Z"/><path class="g" d="M283.301,239.88c.537,1.744.187,5.755-3.116,6.096-4.366-.026-4.599-4.876-3.129-7.156,1.203-1.867,4.742-2.643,6.246,1.06Z"/><path class="g" d="M247.328,217.572c-4.796,1.703-8.739,4.933-11.632,9.092-1.447,2.08-2.552,4.378-3.434,6.75-.413,1.11-.832,2.269-1.044,3.435-.304,1.677.719,3.774,2.7,3.598,1.291-.115,2.4-1.021,2.4-2.4,0-1.209-1.101-2.515-2.4-2.4l-.143.013,1.211.328-.111-.074.861.861c.171.299-.038,1.795.254.722.068-.249.138-.498.212-.746.133-.446.275-.89.426-1.33.271-.787.565-1.554.913-2.305.776-1.677,1.709-3.318,2.842-4.779,2.139-2.757,5.019-5,8.219-6.136,1.221-.433,2.038-1.638,1.676-2.952-.325-1.182-1.725-2.112-2.952-1.676h0Z"/><path class="g" d="M246.798,212.585c.577,3.773,2.491,7.206,4.997,10.04,1.275,1.442,2.746,2.691,4.301,3.821,1.728,1.256,3.552,2.384,5.699,2.672,1.25.168,2.453-1.224,2.4-2.4-.065-1.444-1.061-2.22-2.4-2.4.433.058-.282-.136-.306-.146.297.119-.107-.07-.206-.123-.37-.197-.732-.411-1.09-.63-.669-.409-1.313-.853-1.944-1.317-.207-.152.197.165-.136-.104-.175-.141-.349-.282-.52-.427-.286-.241-.566-.488-.84-.743-.601-.557-1.173-1.146-1.71-1.765-.122-.14-.241-.282-.359-.425-.098-.12-.313-.392-.107-.123-.247-.322-.481-.653-.707-.99-.428-.64-.818-1.306-1.161-1.995-.098-.196-.189-.395-.282-.594-.189-.403.04.12-.057-.132-.145-.375-.283-.751-.403-1.135-.242-.772-.417-1.561-.539-2.36-.19-1.245-1.819-2.043-2.952-1.676-1.356.439-1.88,1.618-1.676,2.952h0Z"/><path class="g" d="M264.738,213.739c1.677,3.381,3.839,6.618,6.473,9.332,2.617,2.696,5.817,4.113,9.398,5.061,3.016.799,6.108,1.445,8.553,3.514,2.356,1.994,3.856,4.667,4.44,7.683.246,1.273,1.772,2.001,2.952,1.676,1.331-.366,1.923-1.675,1.676-2.952-.638-3.299-2.287-6.366-4.607-8.79-2.454-2.565-5.584-4.089-8.966-5.032-3.267-.912-6.726-1.449-9.311-3.828-2.739-2.521-4.82-5.773-6.464-9.086-.576-1.161-2.22-1.483-3.284-.861-1.183.692-1.439,2.118-.861,3.284h0Z"/><path class="g" d="M239.957,290.075c5.433,5.71,13.167,7.8,20.77,8.591,8.002.833,16.092.148,23.495-3.141,3.238-1.439,6.462-3.44,8.73-6.208.821-1.002.98-2.414,0-3.394-.847-.847-2.569-1.008-3.394,0-4.995,6.097-14.07,8.111-21.555,8.247-8.509.155-18.471-.993-24.652-7.49-2.134-2.242-5.524,1.155-3.394,3.394h0Z"/><path class="g" d="M299.992,96.643c1.037-.918,2.475-1.145,3.803-.838.484.112,1.089.367,1.38.58.007.005.373.346.49.462.354.353-.127-.243.145.165,1.414,2.119,1.443,5.017,1.237,7.476-.21,2.512-1.106,5.038-2.294,7.253-1.205,2.246-3.556,5.631-6.542,5.224-1.283-.175-2.577.309-2.952,1.676-.308,1.119.384,2.776,1.676,2.952,7.583,1.034,12.017-6.168,14.054-12.454,1.672-5.162,1.743-13.204-3.139-16.714-3.39-2.438-8.218-1.861-11.249.823-2.318,2.052,1.088,5.436,3.394,3.394h0Z"/><path class="g" d="M295.517,115.578c-.62,2.946-1.72,5.743-2.783,8.337.287-.699-.103.213-.218.453-.202.423-.415.84-.635,1.254-.489.922-1.012,1.826-1.556,2.716-2.941,4.81-6.529,9.341-10.916,12.913-2.37,1.93-5.051,3.445-8.006,4.119-3.01.687-1.736,5.316,1.276,4.629,6.257-1.428,11.48-5.976,15.571-10.717,3.347-3.878,6.492-8.244,8.615-12.931.155-.343.3-.69.446-1.037.06-.143.293-.673.03-.073.347-.79.685-1.584.992-2.391.741-1.951,1.382-3.952,1.812-5.995.634-3.014-3.992-4.302-4.629-1.276h0Z"/><path class="g" d="M215.053,116.397c1.818,8.155,5.616,15.777,11.044,22.127,5.25,6.142,12.031,11.029,20.164,12.27,1.28.195,2.581-.323,2.952-1.676.312-1.136-.387-2.756-1.676-2.952-7.418-1.132-13.256-5.433-18.046-11.036-4.894-5.725-8.176-12.678-9.81-20.009-.672-3.014-5.3-1.738-4.629,1.276h0Z"/><path class="g" d="M248.46,129.197c2.529,1.348,5.255,1.922,8.121,1.915,2.964-.008,5.9-.606,8.274-2.441.998-.772.872-2.593,0-3.394-1.059-.972-2.329-.823-3.394,0,.748-.578.236-.187.045-.065-.16.102-.325.196-.493.283-.24.124-.759.221-.102.068-.228.053-.455.173-.68.244-.62.197-1.258.33-1.901.426.357-.053.138-.021-.093.001-.186.018-.373.033-.56.044-.45.027-.9.037-1.35.032-.403-.004-.806-.019-1.209-.048-.185-.013-.369-.032-.554-.048-.697-.06.473.09-.179-.02-.599-.101-1.191-.224-1.773-.401-.248-.075-.49-.165-.735-.25-.582-.203.433.215-.093-.037-.304-.145-.603-.295-.9-.454-1.107-.59-2.662-.315-3.284.861-.588,1.113-.322,2.653.861,3.284h0Z"/><path class="g" d="M255.283,110.279c.342,1.324.67,2.67.863,4.025l-.086-.638c.023.186.032.369.013.555l.086-.638c-.013.086-.033.167-.062.249l.242-.573c-.026.058-.053.107-.089.16l.375-.486c-.042.05-.081.088-.132.129l.486-.375c-.102.065-.209.117-.319.167l.573-.242c-.176.072-.35.125-.537.155l.638-.086c-.169.019-.335.017-.504-.003l.638.086c-.19-.027-.376-.074-.566-.1-.319-.1-.638-.114-.957-.043-.319.014-.617.109-.892.285-.498.291-.973.862-1.103,1.434-.14.614-.11,1.304.242,1.849.313.485.834,1.02,1.434,1.103.462.064.91.18,1.381.203.737.035,1.418-.195,2.075-.496.822-.376,1.46-1.13,1.681-2.011.188-.748.108-1.381-.016-2.131-.214-1.296-.508-2.582-.837-3.854-.149-.579-.59-1.134-1.103-1.434s-1.273-.429-1.849-.242c-1.254.406-2.013,1.649-1.676,2.952h0Z"/><path class="g" d="M234.388,98.71c-.68,2.18-.262,7.202,3.871,7.645,5.465-.011,5.779-6.08,3.951-8.941-1.497-2.342-5.922-3.331-7.822,1.296Z"/><path class="g" d="M278.148,98.881c.663,2.185.206,7.204-3.93,7.615-5.464-.054-5.732-6.125-3.881-8.972,1.515-2.331,5.948-3.285,7.811,1.357Z"/><path class="g" d="M287.382,35.015c-8.202-5.62-18.053-8.929-28.039-8.806-4.206.052-8.289.01-12.454.764-3.898.705-7.66,1.951-11.273,3.567-14.03,6.277-25.949,19.647-28.543,35.071-.785,4.669-.77,9.464-.455,14.175.306,4.574.864,9.265,2.793,13.469.54,1.178,2.244,1.469,3.284.861,1.21-.708,1.403-2.101.861-3.284-1.534-3.343-1.825-6.879-2.088-10.344-.296-3.907-.374-7.866,0-11.77.665-6.94,3.768-13.613,7.87-19.174,8.429-11.426,22.501-18.834,36.766-18.549,2.528.051,5.054-.045,7.578.181,2.5.224,4.973.715,7.389,1.391,4.982,1.395,9.626,3.672,13.888,6.592,2.555,1.75,4.958-2.407,2.423-4.145h0Z"/><path class="g" d="M307.495,94.882c2.787-6.636,2.447-14.573,1.68-21.583-.361-3.298-.828-6.621-1.607-9.849-1.055-4.372-2.853-8.59-5.101-12.48-2.271-3.931-5.182-7.429-8.519-10.498-2.27-2.088-5.674,1.297-3.394,3.394,5.689,5.232,9.868,11.863,11.982,19.322,1.78,6.28,2.451,13.129,2.292,19.637-.089,3.672-.529,7.368-1.962,10.78-.502,1.196.541,2.64,1.676,2.952,1.385.381,2.448-.476,2.952-1.676h0Z"/><path class="g" d="M281.178,65.889c.736,5.616,2.698,10.81,5.057,15.93,1.981,4.299,4.131,8.545,8.724,10.468,1.196.501,2.64-.54,2.952-1.676.38-1.384-.476-2.45-1.676-2.952-3.196-1.338-4.726-5.786-6.041-8.666-1.897-4.154-3.62-8.546-4.216-13.103-.168-1.285-.983-2.4-2.4-2.4-1.166,0-2.57,1.106-2.4,2.4h0Z"/><path class="g" d="M193.46,181.036c4.056-4.539,9.147-8.359,14.404-11.41,4.942-2.868,10.732-4.443,16.148-6.135,2.939-.919,1.684-5.554-1.276-4.629-5.803,1.814-12.001,3.547-17.294,6.619-5.582,3.24-11.068,7.341-15.375,12.16-2.053,2.297,1.331,5.703,3.394,3.394h0Z"/><path class="g" d="M218.882,92.933c-2.762-2.497-6.746-3.088-10.135-1.52-2.453,1.135-3.926,3.43-4.624,5.974-1.631,5.944-.121,12.876,3.247,17.967,2.287,3.457,5.921,6.584,10.349,6.015,1.285-.165,2.4-.985,2.4-2.4,0-1.169-1.105-2.566-2.4-2.4-3.293.423-5.514-2.259-6.962-4.896-1.265-2.303-2.198-4.959-2.397-7.587-.111-1.463-.117-2.981.161-4.426.133-.692.295-1.429.583-2.078.068-.154.19-.367.28-.521.032-.055.39-.597.212-.356-.166.225.319-.349.38-.409.049-.048.535-.421.301-.26.496-.343,1.005-.526,1.598-.632,1.287-.231,2.629.033,3.612.922,2.287,2.067,5.691-1.317,3.394-3.394h0Z"/><path class="g" d="M299.526,168.072c5.013,1.871,9.916,4.018,14.656,6.504,4.332,2.272,8.622,4.67,12.104,8.155,7.158,7.165,10.071,16.926,12.714,26.43,2.98,10.715,6.156,21.399,8.313,32.32,1.825,9.238,3.432,18.917,2.533,28.352-.486,5.102-2.045,9.903-4.925,14.159-3.063,4.527-7.25,8.205-11.432,11.668-.999.827-.856,2.538,0,3.394.988.988,2.393.829,3.394,0,7.883-6.527,15.016-14.053,17.076-24.425,1.95-9.814.48-19.949-1.156-29.695-1.91-11.384-5.104-22.489-8.212-33.59-2.929-10.459-5.674-21.196-12.802-29.697-3.743-4.464-8.482-7.576-13.553-10.341-5.602-3.055-11.46-5.631-17.436-7.862-1.215-.453-2.631.505-2.952,1.676-.369,1.344.457,2.497,1.676,2.952h0Z"/><path class="g" d="M316.045,263.476c2.415-.57,4.792-.746,7.407-.534,1.096.089,2.202.272,3.427.573,1.29.317,2.548.74,3.775,1.249,1.163.483,2.689-.521,2.952-1.676.319-1.4-.431-2.435-1.676-2.952-5.407-2.244-11.478-2.628-17.162-1.287-1.262.298-2.011,1.736-1.676,2.952.355,1.291,1.687,1.975,2.952,1.676h0Z"/><path class="g" d="M275.636,145.846c.518,3.281,1.158,6.607,2.784,9.545,1.239,2.238,3.24,3.892,5.345,5.283,4.839,3.196,10.429,5.196,15.76,7.397,1.199.495,2.639-.536,2.952-1.676.379-1.379-.473-2.456-1.676-2.952-4.78-1.974-9.708-3.812-14.101-6.582-.922-.581-1.655-1.091-2.397-1.763-.871-.788-1.123-1.051-1.646-1.961-1.482-2.576-1.936-5.673-2.393-8.567-.202-1.281-1.803-1.992-2.952-1.676-1.365.375-1.879,1.667-1.676,2.952h0Z"/><path class="g" d="M224.011,163.491c4.077-1.33,8.262-2.586,12.101-4.525,1.785-.902,3.872-1.966,4.468-4.011.307-1.051.41-2.201.602-3.278.217-1.214.433-2.429.65-3.643.227-1.275-.345-2.587-1.676-2.952-1.161-.319-2.724.393-2.952,1.676-.379,2.125-.731,4.256-1.137,6.375-.008.043-.104.548-.115.546-.008-.002.179-.338.2-.294,0,.002-.844.523-.937.582-.618.39-1.266.732-1.923,1.05-.802.388-1.251.577-1.858.82-.878.351-1.765.68-2.655.997-2.002.713-4.023,1.369-6.043,2.028-1.232.402-2.031,1.661-1.676,2.952.332,1.208,1.715,2.08,2.952,1.676h0Z"/><path class="g" d="M223.054,170.952c5.11,2.408,10.351,4.603,15.815,6.075,4.953,1.334,10.066,2.042,15.186,2.286,5.781.275,11.633.106,17.39-.49,3.976-.411,7.963-1.033,11.777-2.257,3.112-.999,6.048-2.419,8.905-3.992,2.707-1.49.288-5.636-2.423-4.145-1.123.618-2.252,1.225-3.408,1.78-.544.261-1.093.513-1.648.749.47-.2-.48.189-.595.234-.34.132-.682.259-1.026.381-3.278,1.161-6.719,1.874-10.167,2.292-10.143,1.229-20.928,1.378-30.914-1.008-5.713-1.365-11.166-3.549-16.469-6.048-1.172-.552-2.589-.327-3.284.861-.61,1.043-.317,2.729.861,3.284h0Z"/><path class="g" d="M205.44,265.026c2.038,7.921,4.475,15.732,7.304,23.406.448,1.216,1.627,2.04,2.952,1.676,1.17-.322,2.127-1.73,1.676-2.952-2.829-7.674-5.267-15.485-7.304-23.406-.769-2.989-5.4-1.722-4.629,1.276h0Z"/><path class="g" d="M254.692,83.131c-.412,1.699.088,3.475,1.634,4.425,1.261.775,2.999.807,4.446.747,3.577-.15,7.231-1.282,10.239-3.23,4.944-3.203,8.259-8.948,10.1-14.422,1.171-3.48,1.513-7.2,1.66-10.849.124-3.089-4.676-3.083-4.8,0-.234,5.807-1.385,11.251-4.638,16.049-1.892,2.791-4.264,5.2-7.427,6.483-1.473.598-3.075,1.028-4.664,1.143-.67.048-1.358.07-2.028.009-.044-.004-.504-.02-.458-.065.13-.128.626.733.564.987.728-3.001-3.9-4.281-4.629-1.276h0Z"/><path class="g" d="M233.849,83.635c-.142,1.854.686,3.626,2.393,4.443,1.558.746,3.486.653,5.176.624,3.446-.059,6.668-.883,9.785-2.337,6.16-2.873,10.698-9.341,12.937-15.603,1.283-3.586,1.766-7.399,2.2-11.163.149-1.29-1.21-2.4-2.4-2.4-1.421,0-2.251,1.107-2.4,2.4-.386,3.345-.89,6.704-2.029,9.887-1.125,3.143-3.016,6.033-5.212,8.531-2.347,2.672-5.283,4.456-8.733,5.354-1.423.37-2.841.516-4.31.533-.73.009-1.472.022-2.2-.035-.208-.016-.507-.007-.683-.063.286.091.227.456.275-.173.099-1.294-1.174-2.4-2.4-2.4-1.381,0-2.3,1.102-2.4,2.4h0Z"/><path class="g" d="M223.044,92.116c5.266-3.514,11.695-4.8,16.734-8.626,5.099-3.872,7.603-9.771,9.089-15.831.735-3-3.892-4.279-4.629-1.276-1.293,5.273-3.305,10.474-7.905,13.711-2.452,1.725-5.23,2.678-7.965,3.858-2.676,1.155-5.319,2.398-7.748,4.02-2.557,1.707-.157,5.866,2.423,4.145h0Z"/><path class="e" d="M321.164,307.429l-1.64-1.64c-1.914,2.75-4.256,5.198-7.04,7.024-.692.454-1.452.961-2.628.916-.676-.026-1.847-.35-2.328-.826-1.221-1.21-1.747-2.325-1.925-4.415-2.011,2.074-3.2,3.168-6.07,2.719-.685-.107-1.884-.827-2.487-1.549-.838-1.004-1.201-3.214-.901-4.145,0,0,.251-.777.62-1.913-1.601.763-3.643.748-4.886-.465-1.007-.983-1.231-2.561-.92-3.933s1.074-2.593,1.824-3.783c1.352-2.145,2.705-4.29,4.057-6.435,0,0,.421-.667.841-1.334l-3.056,1.98c-3.284,2.128-6.509-1.71-5.25-5.007.708-1.854,1.707-4.332,2.996-6.052,1.989-2.654,6.693-6.212,10.337-3.719l6.783-.474c3.614-.504,6.155,1.61,8.995,2.903,2.834,1.291,5.211,3.846,6.977,6.241,2.305,3.127,3.702,6.103,3.582,8.965-.238,5.707-3.255,11.588-7.88,14.938"/><path class="g" d="M303.919,272.782c-4.366-2.853-9.82.035-12.812,3.553-1.715,2.017-2.773,4.41-3.737,6.853-.883,2.238-.948,4.738.511,6.778,1.867,2.613,5.161,3.454,7.956,1.738,1.07-.656,1.574-2.178.861-3.284-.692-1.073-2.139-1.564-3.284-.861-.122.08-.249.153-.378.219.259-.095.263-.098.01-.007-.122.039-.245.072-.37.097.333-.035.365-.043.094-.025-.118.003-.236-.001-.353-.012.35.052.392.05.127-.006-.111-.03-.22-.065-.326-.107.309.133.345.139.109.018-.1-.058-.196-.121-.29-.188.254.201.282.214.083.041-.085-.081-.167-.166-.244-.255.186.257.202.277.048.061-.124-.21-.249-.412-.354-.634.248.525.03.018-.007-.121-.032-.12-.059-.242-.081-.365.038.328.045.353.022.076.005-.147.102-.925-.025-.321.115-.544.319-1.05.523-1.567.112-.284.225-.567.343-.849-.16.382.199-.449.233-.524.251-.554.518-1.1.81-1.634.283-.516.6-1.003.926-1.493.188-.253.176-.241-.035.037.074-.092.149-.183.225-.273.161-.189.327-.373.499-.552.37-.387.769-.734,1.167-1.091.213-.171.213-.175.002-.013.111-.085.224-.167.338-.248.2-.142.405-.279.613-.409s.42-.254.637-.37c.088-.047.881-.409.37-.201.503-.204,1.024-.352,1.558-.446-.608.106.215.008.347.009.131.002.262.008.393.02-.312-.048-.33-.047-.053.003.103.03.89.299.383.075.261.116.503.264.742.42,1.053.688,2.699.246,3.284-.861.633-1.198.263-2.549-.861-3.284h0Z"/><path class="g" d="M298.244,282.26l-5.86,9.294c-1.751,2.777-4.247,5.855-3.926,9.344.317,3.447,3.143,5.935,6.645,5.588,3.2-.317,5.621-2.627,7.667-4.933,2.418-2.725,4.384-5.817,6.425-8.823.728-1.073.204-2.661-.861-3.284-1.184-.693-2.554-.214-3.284.861-1.811,2.667-3.53,5.434-5.675,7.852-.945,1.066-1.987,2.199-3.174,3.003-.505.342-.948.509-1.418.56-.363.039-.746.016-1.06-.176-.326-.2-.361-.324-.454-.73-.114-.499-.052-.95.194-1.648.57-1.617,1.74-3.089,2.647-4.527l6.278-9.958c1.652-2.621-2.5-5.032-4.145-2.423h0Z"/><path class="g" d="M293.831,304.877c-.633,2.374.224,5.478,2.122,7.058,2.231,1.856,5.207,2.303,7.858,1.072,1.719-.798,3.056-2.344,4.333-3.701,1.287-1.368,2.546-2.762,3.788-4.171,1.921-2.18,3.789-4.407,5.538-6.728.781-1.036.165-2.683-.861-3.284-1.229-.719-2.501-.177-3.284.861-2.511,3.331-5.701,6.894-8.731,10.092-.662.699-1.323,1.408-2.044,2.046-.021.019-.601.462-.235.206-.237.166-.48.311-.736.445.426-.224-.118.032-.216.059-.141.038-.283.069-.427.093.262-.038.243-.045-.057-.02-.259-.016-.516.009-.775-.026.276.038-.599-.227-.256-.074-.268-.12-.501-.307-.748-.461-.351-.218-.017.044-.228-.251-.248-.346-.002.16-.155-.306-.094-.285-.17-.572-.23-.866-.03-.173-.034-.167-.01.018-.017-.156-.027-.313-.032-.47-.004-.143,0-.286.009-.429-.053.32-.05.357.008.111.797-2.988-3.832-4.263-4.629-1.276h0Z"/><path class="g" d="M303.677,311.189c.845,2.354,2.506,4.329,5.064,4.8,2.527.465,4.477-.665,6.41-2.143,3.672-2.809,6.548-6.492,8.727-10.553.613-1.142.286-2.613-.861-3.284-1.09-.638-2.669-.285-3.284.861-1.74,3.244-3.575,5.807-6.311,8.228-.727.643-.969.838-1.725,1.358-.33.227-.667.439-1.006.652-.169.106-.39.2-.077.077-.171.067-.351.122-.532.157-.163.035-.15.032.037-.011h-.264c-.532-.218.502.165-.159-.035-.183-.055-.368-.098-.548-.163-.258-.092.284.006-.117-.077.22.185.255.205.103.059-.09-.089-.177-.181-.261-.275-.087-.089-.231-.279-.076-.069-.138-.186-.245-.384-.366-.58-.253-.409.055.231-.127-.277-.438-1.219-1.634-2.038-2.952-1.676-1.178.324-2.117,1.727-1.676,2.952h0Z"/><path class="g" d="M309.49,276.781c1.664-.188,3.076.171,4.561.915,1.433.717,2.926,1.419,4.308,2.228,3.103,1.816,5.601,5.107,7.209,8.27,2.935,5.775-.765,13.564-5.615,17.164-1.039.771-1.566,2.078-.861,3.284.599,1.025,2.237,1.638,3.284.861,6.762-5.018,11.406-14.831,7.698-22.979-1.858-4.083-5.126-8.126-8.94-10.53-1.651-1.041-3.539-1.94-5.313-2.758-2.009-.927-4.101-1.506-6.33-1.254-1.288.146-2.4.999-2.4,2.4,0,1.184,1.104,2.547,2.4,2.4h0Z"/><path class="e" d="M109.657,170.821c-3.02-2.833-6.793-4.932-10.806-4.427-5.425.682-9.355,6.335-9.173,11.8.224,6.706,5.549,12.623,11.552,15.153,5.355-1.58,10.468-3.882,15.141-6.81l2.1-3.569c1.405-2.388,1.89-5.302,1.334-8.017-.417-2.034-1.777-4.204-3.851-4.309-1.662-.084-3.051,1.179-4.228,2.356-.639-.751-1.331-1.486-2.068-2.177Z"/><path class="f" d="M193.159,204.982c-1.882-7.547-4.865-14.793-9.702-20.827-6.646-8.289-16.274-13.287-26.781-11.708-3.998.601-8.831,1.575-12.417,3.443-7.593,3.956-14.397,8.419-19.23,16.931-1.416-3.036-3.126-5.956-5.094-8.701-5.973,4.378-12.835,7.664-20.108,9.622-.594,8.206,4.402,26.857,6.309,33.323,1.26,4.271,3.088,8.751,6.97,11.233,2.021,1.292,4.439,1.92,6.852,2.185l-.579,1.855c-9.586.99-16.53,12.358-13.036,21.338l5.414,13.206,44.127,6.383c14.881-1.359,27.777-12.329,34.178-25.832,6.401-13.503,7.038-29.135,4.787-43.907-.436-2.859-.986-5.723-1.689-8.545Z"/><path class="g" d="M138.035,232.375c-3.923,3.589-9.173,5.649-14.478,5.838-2.712.097-5.667-.149-8.136-1.365-2.329-1.147-3.9-3.096-5.066-5.37-1.739-3.392-2.584-7.311-3.555-10.981-1.177-4.449-2.254-8.928-3.14-13.445-.857-4.369-1.728-8.829-1.433-13.311l-1.762,2.314c7.414-2.025,14.463-5.341,20.681-9.863l-3.284-.861c2.818,3.965,5.137,8.255,6.793,12.832.441,1.218,1.632,2.039,2.952,1.676,1.176-.323,2.119-1.727,1.676-2.952-1.798-4.972-4.213-9.669-7.277-13.979-.693-.974-2.161-1.678-3.284-.861-5.908,4.297-12.489,7.455-19.535,9.38-1.073.293-1.692,1.253-1.762,2.314-.294,4.461.562,9.05,1.38,13.416.922,4.914,2.085,9.783,3.364,14.615,1.144,4.322,2.193,8.865,4.394,12.79,1.43,2.55,3.466,4.831,6.058,6.235,2.954,1.601,6.403,2.189,9.733,2.229,7,.084,13.912-2.537,19.073-7.259,2.284-2.09-1.118-5.477-3.394-3.394h0Z"/><path class="g" d="M119.378,239.938c-5.645.643-10.439,3.942-13.423,8.745-2.85,4.587-3.86,10.505-1.927,15.632.457,1.212,1.62,2.042,2.952,1.676,1.163-.32,2.136-1.733,1.676-2.952-1.495-3.964-.88-8.069,1.3-11.699.987-1.644,2.425-3.279,3.895-4.323,1.725-1.226,3.703-2.07,5.527-2.278,1.288-.147,2.4-.998,2.4-2.4,0-1.184-1.104-2.548-2.4-2.4h0Z"/><path class="g" d="M140.217,174.949c-2.552.446-4.904-.501-6.944-1.984-2.27-1.651-4.338-3.82-5.603-6.336-2.779-5.527-1.578-12.133-1.22-18.033.189-3.111.137-6.247.473-9.347.283-2.615.882-5.216,1.734-7.703,1.637-4.779,4.563-9.279,8.904-11.998,5.305-3.324,11.7-4.258,17.859-4.195,4.893.051,9.758.768,14.405,2.326,8.749,2.933,15.963,9.254,18.324,18.381,1.658,6.409,1.198,13.609-.302,20.002-.762,3.249-1.852,6.367-3.652,9.192-1.881,2.952-4.401,5.515-7.202,7.603-1.038.774-1.567,2.076-.861,3.284.598,1.023,2.238,1.64,3.284.861,5.733-4.274,10.057-9.737,12.222-16.6,2.101-6.66,2.818-14.124,1.967-21.06-.705-5.75-2.773-11.08-6.394-15.624-3.245-4.072-7.673-7.177-12.429-9.237-5.188-2.248-10.713-3.444-16.349-3.813-6.883-.451-13.967.28-20.3,3.141-5.761,2.603-10.173,7.349-12.755,13.081-2.619,5.813-3.3,11.802-3.544,18.101-.275,7.094-1.837,14.695.631,21.571,1.176,3.278,3.133,5.966,5.672,8.328,2.318,2.156,5.093,4.132,8.269,4.719,1.727.319,3.363.272,5.088-.029,1.278-.223,1.996-1.789,1.676-2.952-.371-1.349-1.671-1.9-2.952-1.676h0Z"/><path class="g" d="M149.622,147.979c-.819.027-1.638-.005-2.451-.11l.638.086c-.328-.044-.654-.1-.978-.168-.633-.133-1.279-.092-1.849.242-.498.291-.973.862-1.103,1.434-.14.614-.11,1.304.242,1.849.327.507.824.975,1.434,1.103,1.333.28,2.706.408,4.068.364.628-.021,1.248-.254,1.697-.703.234-.217.399-.475.496-.772.15-.286.219-.594.207-.925-.028-.621-.232-1.264-.703-1.697-.461-.423-1.055-.724-1.697-.703h0Z"/><path class="g" d="M131.502,146.967c-.854.079-1.732.054-2.582-.057l.638.086c-.168-.023-.336-.05-.501-.09-.615-.151-1.297-.081-1.849.242-.28.151-.504.357-.673.618-.212.232-.355.504-.43.816-.14.614-.11,1.304.242,1.849.334.517.821.953,1.434,1.103.397.097.816.137,1.219.186.267.033.535.054.803.068.566.029,1.135.031,1.7-.021.33.012.639-.056.925-.207.298-.097.555-.262.772-.496.234-.217.399-.475.496-.772.15-.286.219-.594.207-.925-.028-.621-.232-1.264-.703-1.697-.444-.408-1.072-.761-1.697-.703h0Z"/><path class="g" d="M137.076,163.619c-.961-.196-1.951-.275-2.928-.343-.33-.012-.639.056-.925.207-.298.097-.555.262-.772.496-.234.217-.399.475-.496.772-.15.286-.219.594-.207.925l.086.638c.114.407.32.76.617,1.059l.486.375c.374.217.778.326,1.211.328.571.04,1.141.084,1.708.16l-.638-.086c.195.027.389.057.582.097.319.1.638.114.957.043.319-.014.617-.109.892-.285.28-.151.504-.357.673-.618.212-.232.355-.504.43-.816l.086-.638c-.001-.433-.111-.837-.328-1.211l-.375-.486c-.299-.297-.652-.503-1.059-.617h0Z"/><path class="g" d="M171.26,155.556c.039-.025.638-.344.211-.165.212-.089.44-.141.662-.195.421-.102-.077-.017.179-.014.092.001.72.037.509.004-.271-.043.318.091.373.105.561.153-.212-.178.274.119.099.06.565.446.234.134.049.046.407.468.234.222-.192-.273.141.279.008-.01.023.049.176.743.119.344.072.499.053,1.028.051,1.53-.002.428-.014.856-.045,1.283-.018.254-.037.509-.073.761.057-.398-.078.368-.077.364-.094.456-.217.907-.371,1.346-.128.365-.186.486-.459.959-.128.222-.267.437-.411.648-.03.043-.378.519-.215.309.13-.167-.261.3-.317.361-.127.139-.259.274-.396.403-.007.007-.55.472-.229.224-.193.15-.407.29-.616.415-.136.081-.276.154-.418.224-.156.077-.426.17-.119.056-.442.163-.888.308-1.344.424-.223.057-.45.097-.674.149-.52.121.345-.022-.183.024-1.247.108-2.462,1.026-2.4,2.4.054,1.208,1.061,2.516,2.4,2.4,2.642-.229,5.244-1.176,7.14-3.081,1.998-2.007,3.102-4.595,3.456-7.374.335-2.624.431-5.83-1.666-7.776-2.191-2.033-5.739-2.352-8.258-.739-1.056.676-1.583,2.164-.861,3.284.681,1.056,2.153,1.585,3.284.861h0Z"/><path class="g" d="M120.542,184.179c2.111-3.749,2.785-8.965.411-12.775-1.085-1.741-2.876-3.127-5.001-3.162-2.41-.04-4.298,1.449-5.925,3.059h3.394c-4.738-5.489-12.726-10.062-19.67-5.525-6.134,4.008-7.88,11.915-5.095,18.465,1.665,3.917,4.621,7.083,8.126,9.442,2.57,1.729,4.975-2.427,2.423-4.145-5.413-3.643-9.421-10.823-5.553-16.982,1.61-2.563,4.447-4.252,7.531-3.773,3.607.561,6.552,3.256,8.844,5.911.851.985,2.525.86,3.394,0,.565-.559,1.607-1.85,2.531-1.654.57.121,1.048,1.019,1.264,1.554.921,2.287.348,5.088-.819,7.16-1.517,2.695,2.627,5.117,4.145,2.423h0Z"/><path class="g" d="M127.936,192.632c3.093-4.877,7.335-8.675,12.227-11.689,2.297-1.415,4.71-2.896,7.244-3.841,2.943-1.098,6.052-1.732,9.148-2.223,11.433-1.813,21.576,4.9,27.534,14.275,6.722,10.579,9.059,23.878,9.487,36.229.434,12.525-1.725,25.495-8.557,36.204-6.41,10.048-17.022,18.106-29.136,19.279-1.29.125-2.4,1.014-2.4,2.4,0,1.201,1.102,2.526,2.4,2.4,12.214-1.182,23.006-8.061,30.444-17.656,8.38-10.81,11.854-24.477,12.09-37.99.122-7.002-.589-14.037-1.9-20.912-1.285-6.739-3.32-13.401-6.579-19.462-5.949-11.065-16.869-20.181-29.986-19.882-7.281.166-14.333,2.45-20.588,6.066s-11.682,8.245-15.572,14.379c-1.659,2.616,2.493,5.027,4.145,2.423h0Z"/><path class="g" d="M138.347,127.676c-.695.886-1.416,1.762-2.311,2.454l.486-.375c-.448.342-.929.631-1.437.875-.517.249-.955.899-1.103,1.434-.158.574-.087,1.339.242,1.849.33.512.822.964,1.434,1.103l.638.086c.433-.001.837-.111,1.211-.328.92-.443,1.763-1.055,2.511-1.749.638-.592,1.187-1.272,1.723-1.956.234-.217.399-.475.496-.772.15-.286.219-.594.207-.925,0-.589-.261-1.292-.703-1.697-.457-.42-1.058-.732-1.697-.703l-.638.086c-.407.114-.76.32-1.059.617h0Z"/><path class="g" d="M147.16,131.655c-.22.343-.457.674-.706.996l.375-.486c-.909,1.165-1.956,2.253-3.125,3.159l.486-.375c-.18.138-.363.271-.554.394-.522.338-.935.825-1.103,1.434-.158.574-.087,1.339.242,1.849.33.512.822.964,1.434,1.103s1.305.111,1.849-.242c.983-.637,1.885-1.433,2.705-2.268.941-.957,1.816-2.011,2.54-3.142.328-.512.401-1.273.242-1.849-.153-.557-.584-1.16-1.103-1.434-.557-.294-1.232-.442-1.849-.242-.609.197-1.085.559-1.434,1.103h0Z"/><path class="e" d="M200.121,247.584c.713-.724,1.407-1.493,2.082-2.307,5.627-6.794,5.324-14.315,3.51-21.807-1.542-4.221-5.961-9.026-8.794-9.701-3.835-.913-5.876-.592-9.464.315-4.504,1.138-9.09,1.807-13.675,1.42-2.709-.229-6.015.131-8.763.71-2.997.631-4.293,2.41-3.943,5.205.394,3.155,3.943,5.442,7.872,5.811,0,0,2.147.202,5.403.508-2.316,1.188-4.709,2.204-7.167,3.006-3.363,1.098-6.657,2.046-10.026,3.45-1.711.713-2.99,2.53-2.881,4.42.185,3.175,2.496,5.54,6.144,4.93l3.997-.668c-.322,1.327-.644,2.653-.644,2.653-.428,1.762.066,3.829,1.442,4.892,2.317,6.488,9.761,7.371,15.926,6.475,7.467-1.086,13.748-3.998,18.983-9.312Z"/><path class="g" d="M168.944,224.829c-2.52-.277-6.172-2.068-5.463-4.879.076-.301.3-.641.389-.711.633-.489,1.413-.638,2.179-.793,2.078-.422,4.208-.641,6.329-.609,2.298.035,4.547.244,6.85.064,2.51-.196,5.009-.605,7.463-1.166,1.904-.435,3.796-1.052,5.762-1.107,1.635-.046,3.635.206,4.741.85,6.374,3.711,8.3,12.463,6.977,19.248-1.471,7.547-8.08,13.538-14.919,16.49-3.601,1.554-7.659,2.498-11.585,2.57-3.454.063-7.479-.596-9.497-3.726-1.669-2.587-5.825-.184-4.145,2.423,5.126,7.948,16.579,6.795,24.354,4.175,8.826-2.975,17.621-10.022,20.112-19.32,1.276-4.765.826-9.762-.236-14.52-.966-4.327-4.324-8.484-7.899-11.003-3.925-2.766-9.165-2.122-13.541-1.044-2.731.672-5.484,1.216-8.297,1.382-2.686.159-5.351-.221-8.032-.073-4.803.264-11.484,1.013-11.856,7.077-.356,5.801,5.29,8.922,10.313,9.474,1.29.142,2.4-1.205,2.4-2.4,0-1.415-1.106-2.258-2.4-2.4h0Z"/><path class="g" d="M176.833,223.601c-3.396,2.045-6.939,3.739-10.711,4.964-1.946.632-3.905,1.228-5.84,1.895-1.747.602-3.817,1.153-5.331,2.235-3.061,2.188-3.83,6.065-2.195,9.388,1.585,3.223,4.953,4.251,8.3,3.774,1.284-.183,1.988-1.816,1.676-2.952-.379-1.38-1.664-1.86-2.952-1.676-1.748.249-2.818-.759-3.079-2.357-.393-2.403,2.825-3.078,4.65-3.711,3.015-1.047,6.11-1.875,9.081-3.045,3.064-1.207,6.004-2.671,8.824-4.37,2.643-1.592.233-5.744-2.423-4.145h0Z"/><path class="g" d="M160.417,245.943c3.525-.246,6.977-1.2,10.318-2.307,3.28-1.087,6.505-2.365,9.648-3.803,1.179-.539,1.469-2.245.861-3.284-.708-1.211-2.101-1.402-3.284-.861-.607.278-1.217.548-1.831.811-.361.155.007-.001-.217.092-.156.065-.312.129-.468.194-.363.149-.728.296-1.093.441-1.614.639-3.244,1.236-4.892,1.782-1.617.536-3.251,1.024-4.906,1.424-.767.186-1.539.352-2.317.489-.164.029-.328.056-.492.082-.145.024-.55.076-.197.033-.376.047-.752.081-1.129.107-1.293.09-2.4,1.038-2.4,2.4,0,1.229,1.1,2.491,2.4,2.4h0Z"/><path class="e" d="M122.402,269.599c1.257-1.044,3.09-1.737,5.9-2.428,5.079-1.507,9.736-2.715,14.623-4.836,2.414-1.048,4.443-2.967,7.01-3.544,2.567-.577,5.706.259,6.782,2.66.679,1.514.386,3.323-.378,4.796-.764,1.473-4.746,6.177-5.921,7.349l-.348.347c.463.576.836,1.04.836,1.04,2.283,2.959,6.212,4.244,9.964,4.369,3.752.125,5.982.045,9.53-1.189,2.198-.764,4.998-1.313,6.688-.764s3.372,2.116,3.44,3.885c.036.943-1.056,2.62-1.529,3.44-1.044,1.811-4.115,3.464-8.064,4.864-.779,2.033-1.236,3.225-1.236,3.225-2.898,7.569-10.618,13.409-19.856,14.994-8.567,1.347-21.115,1.619-24.764.524-1.021-.306-3.584-1.584-4.625-1.814-2.003-.443-6.707-.527-11.41-.852,0,0-.855-.059-2.287-.155.992-10.642,1.992-24.453,1.394-32.267.999.118,2.677.312,2.677.312,2.108.243,5.108.892,6.811.73l1.102-.105c1.027-1.613,2.097-3.213,3.527-4.47.043-.038.088-.076.133-.113Z"/><path class="g" d="M161.456,244.89c-.642,2.999.264,6.474,3.154,7.986,2.343,1.225,5.287,1.228,7.794.54,4.308-1.182,8.488-3.234,12.504-5.163,1.168-.561,1.477-2.23.861-3.284-.699-1.194-2.111-1.424-3.284-.861-3.391,1.628-6.509,3.057-10.018,4.258-1.562.535-2.879.884-4.412.649-.014-.002-.418-.092-.543-.126-.022-.006-.623-.227-.48-.158-.073-.035-.574-.397-.399-.245-.211-.183-.121-.106-.215-.247-.405-.607-.473-1.423-.334-2.073.271-1.266-.376-2.595-1.676-2.952-1.196-.329-2.68.403-2.952,1.676h0Z"/><path class="g" d="M109.046,308.067c2.946.198,5.902.283,8.845.525,1.607.132,2.913.556,4.556,1.258,3.397,1.451,7.007,1.547,10.666,1.56,4.884.017,9.79-.279,14.634-.903,5.031-.647,9.85-2.036,14.133-4.839,4.568-2.988,8.134-7.124,10.135-12.216.474-1.207-.52-2.635-1.676-2.952-1.361-.374-2.476.465-2.952,1.676-3.197,8.135-11.754,12.536-20.001,13.577-4.61.582-9.278.856-13.925.857-1.889,0-3.784-.04-5.665-.222-.154-.015-1.118-.143-.644-.069-.292-.045-.584-.094-.872-.158-.607-.135-1.201-.369-1.698-.58-1.051-.445-2.096-.977-3.194-1.296-1.012-.294-2.103-.37-3.149-.463-3.057-.273-6.131-.348-9.192-.554-1.295-.087-2.4,1.165-2.4,2.4,0,1.372,1.101,2.313,2.4,2.4h0Z"/><path class="g" d="M149.21,276.681c2.92,3.627,7.64,4.952,12.122,5.087,2.304.069,4.605.001,6.868-.48,2.189-.466,4.264-1.508,6.513-1.681.86-.066,1.59-.066,2.324.409.315.204.627.443.84.758.067.099.286.706.279.356.011.634-.716,1.517-1.042,2.066-.058.098-.459.726-.305.522.195-.257-.064.07-.12.124-.123.118-.24.244-.363.362.026-.025-.507.435-.264.239.209-.169-.181.132-.226.163-.279.19-.56.375-.849.549-.736.442-1.507.829-2.29,1.18-1.684.753-3.453,1.329-5.218,1.856-4.592,1.37-9.336,2.352-14.085,2.989-1.284.172-2.4.98-2.4,2.4,0,1.163,1.106,2.574,2.4,2.4,4.878-.654,9.728-1.553,14.466-2.9,3.726-1.059,7.744-2.317,10.873-4.679,1.432-1.081,2.39-2.406,3.218-3.99,1.298-2.483,1.216-4.922-.711-7.084-1.765-1.98-4.332-2.739-6.912-2.485-2.642.261-5.014,1.336-7.591,1.855-2.424.489-5.238.496-7.673.091-2.55-.424-4.82-1.463-6.46-3.501-.813-1.01-2.547-.847-3.394,0-.999.999-.815,2.381,0,3.394h0Z"/><path class="g" d="M120.276,276.245c1.05-1.657,2.064-3.367,3.535-4.694.271-.244.926-.668,1.472-.919.752-.347,1.559-.581,2.355-.806,4.192-1.182,8.411-2.321,12.505-3.816,2.023-.738,4.062-1.514,5.916-2.62,1.502-.896,3.05-2.118,4.837-2.35,1.101-.143,2.54.062,3.316.923.886.984.433,2.491-.192,3.491-1.429,2.284-3.365,4.484-5.299,6.445-2.171,2.202,1.221,5.598,3.394,3.394,2.157-2.188,4.258-4.685,5.943-7.253,2.67-4.071,1.414-9.433-3.229-11.234-1.964-.762-4.291-.779-6.287-.119-2.228.736-4.047,2.187-6.115,3.236-4.498,2.283-9.704,3.511-14.54,4.866-2.25.63-4.603,1.186-6.518,2.595-2.257,1.66-3.76,4.106-5.238,6.437-1.658,2.617,2.494,5.028,4.145,2.423h0Z"/><path class="g" d="M110.829,275.958c.16.019.319.039.479.06l-.638-.086c1.136.153,2.266.347,3.402.501,1.173.159,2.381.358,3.568.254.648-.057,1.224-.23,1.697-.703.416-.416.73-1.099.703-1.697-.028-.621-.232-1.264-.703-1.697-.446-.409-1.07-.758-1.697-.703-.975.085-1.965-.041-2.93-.169l.638.086c-1.508-.203-3.007-.469-4.519-.647-.569-.067-1.31.316-1.697.703-.416.416-.73,1.099-.703,1.697.028.621.232,1.264.703,1.697l.486.375c.374.217.778.326,1.211.328h0Z"/><path class="g" d="M54.899,263.024c9.036,2.074,18.287,2.811,27.446,4.13,7.606,1.095,15.252,1.46,22.89,2.236,1.291.131,2.4-1.197,2.4-2.4,0-1.407-1.105-2.268-2.4-2.4-7.356-.748-14.728-1.076-22.053-2.128-9.014-1.295-18.115-2.026-27.007-4.066-3.007-.69-4.29,3.937-1.276,4.629h0Z"/><path class="g" d="M105.321,269.387c-.64-.463-.375-.285-.198-.109-.493-.491-.262-.317-.092-.052.276.429-.011-.049-.013-.058.042.186.13.372.184.557.123.421.213.851.291,1.282.042.233.077.466.113.7.053.347-.052-.436-.011-.075.019.164.039.328.056.493.301,2.822.308,5.678.27,8.512-.1,7.295-.649,14.587-1.288,21.852-.314,3.57-.662,7.137-1.037,10.701-.136,1.291,1.2,2.4,2.4,2.4,1.41,0,2.264-1.105,2.4-2.4.748-7.122,1.404-14.257,1.856-21.404.416-6.586.926-13.38.166-19.959-.274-2.372-.595-5.08-2.674-6.583-1.051-.76-2.674-.181-3.284.861-.708,1.211-.192,2.522.861,3.284h0Z"/></g></g></svg>